<?xml version="1.0" encoding="utf-8"?>
<!-- Generator: Adobe Illustrator 22.0.1, SVG Export Plug-In . SVG Version: 6.00 Build 0)  -->
<svg version="1.1" id="Layer_1" xmlns="http://www.w3.org/2000/svg" xmlns:xlink="http://www.w3.org/1999/xlink" x="0px" y="0px"
	 viewBox="0 0 565.8 562.5" style="enable-background:new 0 0 565.8 562.5;" xml:space="preserve">
<style type="text/css">
	.st0{fill:#12DBFF;}
	.st1{fill:#95C94B;}
	.st2{fill:#B2D46D;}
	.st3{fill:#62CBEE;}
	.st4{fill:#26BEEF;}
	.st5{fill:#FFFFFF;}
	.st6{fill:#FBE1EC;}
	.st7{fill:#F27121;}
	.st8{fill:#F48242;}
	.st9{fill:#FDC60B;}
	.st10{fill:#DCA927;}
	.st11{fill:#7E78B7;}
	.st12{fill:#6C65AC;}
	.st13{fill:#E0539D;}
	.st14{fill:#EA222C;}
	.st15{fill:#EF4B5C;}
	.st16{fill:#F5B918;}
	.st17{fill:#FFCB4C;}
	.st18{fill:#741012;}
	.st19{fill:#C83034;}
	.st20{fill:#EF545F;}
	.st21{enable-background:new    ;}
</style>
<g>
	<circle class="st0" cx="282.9" cy="281.2" r="274.4"/>
	<g>
		<g>
			<g>
				<g>
					<g>
						<g>
							<path class="st1" d="M307.9,140.8c-27.2-17.5-52.8-21.2-68.2-21c6.6,1,14.7,3.8,24,10c6.6,4.4,12.2,9.2,16.7,13.9
								c1.4,1,12.2,8.2,29.7,13.5c13,4,25.9,8.6,34.7,17c-0.3-0.6-0.6-1.1-0.9-1.7C338.8,165.3,328.5,154,307.9,140.8z"/>
							<path class="st2" d="M303.7,132.9c-17.4-10-35.7-15.2-53.1-15c-5.5,0.1-10.4,0.6-14.7,1.5c1.2,0.1,2.5,0.2,3.9,0.4
								c15.4-0.2,40.9,3.5,68.2,21c20.6,13.2,30.9,24.5,36,31.8C337.7,161.2,325.9,145.6,303.7,132.9z"/>
							<path class="st3" d="M260.2,136.2c14.8,9.4,28.2,25.6,34.7,33.9c0.1,0.1,0.2,0.1,0.2,0.2c-3.9-8.3-13.7-24.9-33.2-37.8
								c-22.3-14.8-36.4-9.2-40.7-6.8c0.2,0.3,0.4,0.6,0.7,0.9C227.7,126,243.8,125.7,260.2,136.2z"/>
							<path class="st4" d="M235.8,133c4.4,2.4,8.1,5.8,11.2,10.2l0,0c5.6,6.2,13.9,11.1,27.7,16.3c8.5,3.2,15.6,7.5,20.1,10.6
								c-6.4-8.4-19.9-24.5-34.7-33.9c-16.4-10.5-32.5-10.2-38.3-9.7c0.1,0.2,0.2,0.3,0.4,0.5C224.1,127.7,231.4,130.6,235.8,133z"
								/>
							<path class="st5" d="M253.2,155.9c2.7,7.3,4.7,12.5,6.8,16.3l5.8-2.8l19.4,1.9c-2.6-1.9-7.2-4.8-14.1-7.2
								C262.9,161.2,256.7,158.3,253.2,155.9z"/>
							<path class="st6" d="M273.6,162.6c-9.6-3.6-16.6-7.1-22.1-11c0.3,0.7,0.6,1.4,0.8,2.1c0.3,0.8,0.6,1.5,0.8,2.3
								c3.5,2.3,9.7,5.2,17.9,8.1c6.8,2.4,11.5,5.4,14.1,7.2l6.5,0.6C287.3,169.1,280.9,165.3,273.6,162.6z"/>
							<path class="st7" d="M211.4,207.3c3.4-15.5-2.8-30.5-9.2-44.9c1.5,7.4,3.2,19,3.2,32.1c0,20.7-7.7,41.8-37.8,58.6
								c-0.7,0.6-1.5,1.1-2.1,1.6c1-0.3,1.9-0.6,2.8-1c9.4-3.6,18.5-9.5,27.2-17.7C203.4,228.5,208.9,218.6,211.4,207.3z"/>
							<path class="st8" d="M205.4,194.4c0-13.1-1.7-24.6-3.2-32.1c-0.3-0.7-0.6-1.3-0.9-2l-1.2-2.8c-1.3-2.8-3-7.7-4.6-13.3
								c-1.2,8.5,0.1,17.2,1.5,26.2c1.8,11.6,3.9,24.7,0.7,39.7c-4.1,19.6-19.7,34.7-30,42.8C197.8,236.3,205.5,215.2,205.4,194.4z"
								/>
							<path class="st7" d="M217.7,121.3c21.8-14.5,44.2-15.9,59.3-14.6c13.2,1.2,23.1,4.6,26.7,6c0.4-0.7,0.8-1.4,1.4-2.1
								c0.4-0.5,0.9-1.1,1.4-1.8c-6.8-2.1-48.8-13.9-85.5,9.9C219.9,119.5,218.8,120.4,217.7,121.3L217.7,121.3z"/>
							<path class="st8" d="M306.5,108.7c0.6-0.8,1.3-1.6,2-2.6c-4.5-1.3-15.9-4.2-30-4.5c-15.6-0.4-37.8,2.5-57.5,17.1
								C257.6,94.8,299.7,106.6,306.5,108.7z"/>
							<path d="M353,181.2c0,0.3,0.1,0.7,0.1,1l13.2,1.7c-0.3-0.4-0.5-0.9-0.8-1.3L353,181.2z"/>
							<path class="st5" d="M331.9,122c0.7-1.7,2-4.9,3.6-8.8c-0.5,0-1.1-0.1-1.7-0.2c-1.5,3.3-3,6.3-4.5,8.8
								C330.4,121.9,331.3,122,331.9,122z"/>
							<path class="st9" d="M316.8,104.9c-2.3,3.2-4.2,5.9-5.7,8.3c4.6,6.3,13.3,8.1,18.2,8.6c1.5-2.5,3-5.5,4.5-8.8
								C329,112.4,321.2,110.5,316.8,104.9z"/>
							<path class="st10" d="M315.3,102.5c-2.3,3-4.3,5.7-5.9,7.7c0.5,1.1,1.1,2.1,1.7,3c1.5-2.4,3.4-5.1,5.7-8.3
								C316.3,104.2,315.7,103.4,315.3,102.5z"/>
							<path class="st11" d="M242.2,148c4.5,8.6,8.3,16.4,13.7,23.2c-2.1-4.3-4.1-9.7-6.5-16.4c-3.3-9-8.2-15.2-15.1-18.9
								c-2.4-1.3-5.7-2.8-8.4-3.9c0.1,0.2,0.2,0.4,0.4,0.5C230.4,135,238.1,140.3,242.2,148z"/>
							<path class="st12" d="M241,155.4c4,6.3,10.1,11.9,14.9,15.8l0,0c-5.4-6.7-9.2-14.6-13.7-23.2c-4.1-7.8-11.7-13.1-16-15.6
								c3.8,5.6,7.8,11.9,11.5,17.7C238.8,152,239.9,153.7,241,155.4z"/>
							<path class="st13" d="M211.1,158c0.8,2.7,2.3,3.9,5.1,3.9c1.6,0,3.7-0.4,6.2-1.3c2-0.7,3.3-1.6,3.7-2.5
								c0.3-0.7,0-1.6-0.6-2.8c-3.1-6.3-13.1-22-18.4-22c-0.2,0-0.5,0-0.7,0.1c-0.8,0.9-0.8,5.5,4,21.9
								C210.6,156.4,210.9,157.3,211.1,158z"/>
							<path class="st14" d="M278.7,98.4c16,0.4,28.2,3.8,31.9,5c1.3-1.7,2.7-3.5,4.1-5.4c-9.2-3.1-57.1-16.4-100.4,19.9
								c0.4,0.3,0.8,0.7,1.1,1C236.7,101.3,261.5,97.9,278.7,98.4z"/>
							<path class="st15" d="M314.7,97.9c0.7-1,1.5-1.9,2.2-2.9c0.5-0.6,1-1.3,1.4-1.9c-3.6-1.1-7.4-2.2-11.2-3
								c-47.9-10.4-83.2,15.7-93.5,27.2c0.2,0.2,0.4,0.4,0.6,0.6C257.6,81.5,305.4,94.9,314.7,97.9z"/>
							<path class="st16" d="M377.9,166.6c-0.8-0.3-1.7-0.7-2.5-1.1c-1.6-0.8-3-1.8-4.2-2.7c0.6,2,1.2,3.8,1.7,5.6
								c2.9,10.9,3.4,20,3.4,25c0.4,1.2,1.5,4.7,3.2,9.2C380.8,183.1,378.9,171.4,377.9,166.6z"/>
							<path class="st17" d="M377.9,166.6c1.1,4.7,2.9,16.4,1.6,36c0.9,2.3,2,4.9,3.2,7.6c4.1-17.5,1.4-37.2,0.6-42
								C381.4,167.9,379.6,167.3,377.9,166.6z"/>
							<path class="st11" d="M184.2,216.7c-4.2-16.3-1.8-31.6-0.1-38.7c-0.3-2.2-0.5-4.3-0.8-6.3c-0.2-1.6-0.4-3.1-0.6-4.6
								c-2.5,4.6-6.2,13.8-6.8,28.7c-0.7,16.5,2.6,28.4,4.5,33.9C182.2,225.6,183.4,221.2,184.2,216.7z"/>
							<path class="st12" d="M184.2,216.7c2.4-13.2,1.3-26.8-0.1-38.7C182.4,185.2,179.9,200.5,184.2,216.7z"/>
							<path class="st15" d="M189.6,162.4c-2.3-16.9,1.5-24.7,3.6-27.6c-0.3-1.3-0.5-2.5-0.7-3.8c-2.8,3.4-7.6,10.9-7.5,24.3
								c0,4.3,0.7,9.8,1.5,16c2.3,18.4,5.2,42.2-4.3,62.8l0,0C197.6,206.9,192.4,183.1,189.6,162.4z"/>
							<path class="st14" d="M193.8,171c-1.8-11.5-3.5-22.4-0.1-33.6c-0.2-0.9-0.4-1.8-0.6-2.6c-2.1,2.9-5.9,10.7-3.6,27.6
								c2.8,20.7,8,44.5-7.3,71.7c5.6-7,10.3-15.3,12.3-24.6C197.6,195.1,195.7,182.9,193.8,171z"/>
							<path class="st10" d="M340.2,70.2c-0.4,0.5-0.8,0.9-1.2,1.3c-0.9,1-2.5,3-4.5,5.5c0.4,0.6,0.8,1,1.2,1.5
								c2.1-2.9,3.9-5.3,5.6-7.4C340.9,70.8,340.5,70.5,340.2,70.2z"/>
							<path class="st5" d="M347.5,83c0.6-1.6,1-2.6,1-2.7c0.8-2,1.5-4.1,2.1-6.2c-0.6,0-1.1,0-1.7-0.1c-0.8,2.5-1.9,5.4-3.2,8.8
								C346.5,82.9,347,83,347.5,83z"/>
							<path class="st9" d="M345.8,82.8c1.3-3.4,2.3-6.3,3.2-8.8c-3.3-0.4-5.9-1.7-7.6-2.9c-1.6,2.1-3.5,4.5-5.6,7.4
								C338.7,81.4,343,82.5,345.8,82.8z"/>
							<path class="st14" d="M383.2,159.7c-11.6-7.1-14-18.4-23.2-31.2c-8.4-11.7-14.7-15.7-19.6-19c-0.9,2.2-1.7,4.4-2.5,6.3
								c15.4,11.9,24.6,25.9,30,38.4l0,0c0.3,0.8,8.3,17.5,38.3,9.4C399.5,164.1,390,163.9,383.2,159.7z"/>
							<path class="st15" d="M340.4,109.5c4.8,3.3,11.2,7.4,19.6,19c9.2,12.8,11.6,24.1,23.2,31.2c6.8,4.1,16.3,4.4,23,3.9
								c0.2-0.1,0.5-0.1,0.7-0.2c-7.6-1.3-18.9-5-26.3-15.6c-1.4-2-2.8-4.1-4.3-6.5c-7-10.9-16.6-25.6-33.9-36.9
								C341.8,106.1,341.1,107.8,340.4,109.5z"/>
							<path class="st10" d="M351.4,60.7c-0.1,0-0.1,0-0.2,0c-2.4,0-5.8,3.6-8.9,7.1c0.3,0.3,0.7,0.6,1.1,0.9
								C347.5,63.8,350,61.6,351.4,60.7z"/>
							<path class="st5" d="M351.5,70.9c0.9-3.9,1.4-7.4,0.9-9.2c-0.3,1.8-1,4.6-2.4,9.1C350.5,70.9,351,70.9,351.5,70.9z"/>
							<path class="st9" d="M352.4,61.7c-0.1-0.2-0.1-0.4-0.2-0.5c-0.2-0.4-0.3-0.4-0.4-0.4s-0.2,0-0.4-0.1c-1.5,0.9-4,3-8,7.9
								c1.4,1,3.6,2.1,6.6,2.3C351.4,66.4,352.1,63.5,352.4,61.7z"/>
							<path d="M265.1,178.9l1.9-1l0.1,2.5c0,0,0,0.4,0.1,0.9l3.4,3.9c-0.4-4.1-0.5-7.5-0.5-7.8v-1.8l1.8,0.1c0.2,0,13.9,1,28.3,2.4
								l-2.4-1.9c0,0-0.3-0.2-0.7-0.5l-30.7-3l-4.7,2.3c0.4,0.6,0.9,1.1,1.3,1.7L265.1,178.9z"/>
							<path class="st1" d="M220.9,259.1c-3.2-12.3-3.5-26.5-1-43.4c0.3-2,0.4-3.9,0.5-5.8c0-0.7,0-1.3,0-1.6
								c0-13.3-4.8-25-9.4-33.3c3.2,8.9,5.4,18.2,4.4,27.7c3.3,16.1-2.5,38.2,0.1,57.2c1.6,11.8,10.9,21.5,18.8,27.8
								c1,0.6,1.9,1.1,2.8,1.7C229.2,280.5,223.8,270.5,220.9,259.1z"/>
							<path class="st2" d="M215.5,259.9c-2.6-18.9,3.2-41.1-0.1-57.2c-0.2,1.7-0.4,3.3-0.8,5c0.4,2.3,2.4,16.4-2.9,33
								c-1.3,4-3.1,8.4-5.5,12.8c2.6,16,17.3,27.6,28.1,34.1C226.5,281.4,217.2,271.6,215.5,259.9z"/>
							<path class="st12" d="M189.3,245.5c-0.8,3.9-2.9,11.8-6.9,18.8c5.3-6.7,10-14.6,12.4-23.3
								C193.1,242.6,191.2,244.1,189.3,245.5z"/>
							<path class="st11" d="M185.3,248.4c-0.1,3.3-0.8,9.9-4.1,17.4c0.4-0.5,0.8-1,1.2-1.5c4-7,6.1-14.9,6.9-18.8
								C188,246.5,186.7,247.5,185.3,248.4z"/>
							<path class="st16" d="M168.1,283.5c20.8-9.6,34.4-24.3,40.6-43.8c2.9-9,3.5-17.4,3.4-23.2c-1.8,4.9-4.3,9.6-7.3,13.7
								c-0.6,8.2-5,31.8-35.3,52c-0.2,0.2-0.5,0.4-0.7,0.6C168.5,283.1,168.3,283.3,168.1,283.5z"/>
							<path class="st17" d="M204.8,230.2c-1.7,2.4-3.6,4.7-5.7,6.7c-3.7,20.2-18.7,36.1-29.6,45.3
								C199.8,262.1,204.2,238.4,204.8,230.2z"/>
							<path class="st3" d="M367.6,273.4c1.2,4.5,5.3,16.8,15.9,26.5c0.1,0.1,0.3,0.2,0.4,0.3c-7.5-10.6-11-24.9-12.3-31.2
								C370.4,270.6,369,272,367.6,273.4z"/>
							<path class="st4" d="M367.6,273.4C367.6,273.5,367.5,273.5,367.6,273.4c-1.4,1.4-2.8,2.6-4.2,3.8
								c4.9,11.6,13.7,18.8,20.1,22.7C372.9,290.2,368.8,278,367.6,273.4z"/>
							<path class="st2" d="M359.5,178.7l3.5,0.4c-4.5-5.8-9.1-9.5-12.1-11.5c0.3,1.2,0.5,2.4,0.8,3.6
								C353.8,172.7,357.3,175.6,359.5,178.7z"/>
							<path class="st1" d="M359.5,178.7c-2.3-3.1-5.7-5.9-7.9-7.5c0.5,2.5,0.8,4.8,1.1,6.8L359.5,178.7z"/>
							<path class="st2" d="M375.5,205.5l-1.5-4.6c0.1,3.9,0.1,7.8,0.2,9c0,0.6-0.1,1.5-0.8,2.5c5.7,12.9,16.3,20.2,23.3,23.8
								c-10.2-8.8-17.2-24.4-20.8-34L375.5,205.5z"/>
							<path class="st1" d="M373.3,212.4c-0.2,0.3-0.5,0.6-0.8,0.8c-0.3,0.3-0.6,0.5-1,0.7c0.6,0.7,1.4,1.7,2.3,3
								c1.1,1.5,2.2,3.5,3.3,5.8c1,2,1.8,4.4,2.5,7c5.3,4.2,12.4,6.1,17.6,6.9c-0.3-0.2-0.5-0.4-0.7-0.6
								C389.6,232.5,379,225.3,373.3,212.4z"/>
							<path d="M338.1,180.7l0.8,0.4l0.1,0.9c0,0,1.2,14.3,1.8,22.1c0.5,6.3,7,7.6,16.9,8.7c6.9,0.8,11.1-0.5,12.7-1.9
								c0.3-0.3,0.5-0.6,0.5-0.8c-0.1-2.5-0.3-15.9-0.3-18.3c-0.3-0.7-0.6-1.4-1-2.1c0,6.1-0.1,17.3-0.1,18.2c0,2.8-5.1,4-10,4
								c-1.4,0-2.9-0.1-4.4-0.3c-6.2-0.8-12.7-2.3-13-7.9c-0.2-3.5-0.7-20.5-0.7-21.2l-0.1-1.9l5.4,0.7c-0.2-0.3-0.4-0.6-0.7-0.9
								l-4.7-0.5l-0.4-0.5c0,0-3.6-4.2-9.8-4.9c-6.1-0.6-9.2,2.9-9.2,2.9l-0.5,0.6l-20.5-2l0.7,2.2c5.8,0.5,11.5,1.1,16.6,1.7
								l1.4,0.2v1.4c0,0.8,0.4,18.7,0.4,20.4c0,3.1-8.1,7.9-18.8,7.9c-1.2,0-2.5-0.1-3.7-0.2c-12.9-1.3-21.3-5.2-24.2-11.4
								c-1.4-3-2.2-8.5-2.6-13.1l-3.2-2.1c0.4,3.7,1.4,10.4,3.6,15.4c3.6,8,14.5,13,29.2,13.5c13.9,0.5,19.7-4.3,21.1-5.7
								c1.1-1.1,1.7-2.3,1.7-3.2c-0.2-4.3-0.3-20.5-0.3-21.2v-1.2l1.1-0.4C332.2,177.8,337.8,180.5,338.1,180.7z"/>
							<path class="st16" d="M315.6,131.1c-7.2-3.1-11.7-7.3-12.9-11.7c-0.1-0.3-0.1-0.7-0.2-1c-8.1-2.8-39.1-12.1-67.9-2.5
								c-0.7,0.3-1.4,0.6-2.1,0.9c16-3.9,42.1-4.3,72.7,13.3c24.4,14,36.7,31.2,42.7,43c-3.7-10.7-11.5-29-25.2-40.3l0,0
								C320.6,132.8,318.2,132.2,315.6,131.1z"/>
							<path class="st17" d="M302.6,118.4c-0.1-0.9-0.1-1.8,0-2.7c-6.4-2.5-36.4-12.6-67.9,0.2C263.4,106.4,294.5,115.7,302.6,118.4
								z"/>
							<path class="st17" d="M348,173.1c0.3,0.7,0.7,1.3,1,2c-1.9-12.1-7.1-30.4-20.8-43.6c-1.6,0.9-3.4,1.3-5.4,1.3
								C336.5,144.1,344.3,162.4,348,173.1z"/>
							<path class="st6" d="M341,175.2c-8.2-7.1-20-11.3-31.8-14.9c-9.4-2.9-16.8-6.2-22-8.9c1.3,1.6,2.4,3.2,3.5,4.7
								c6.6,4,14.6,6.8,24.4,9.1c7,1.7,12.4,4.3,15.6,6.1c0.3,0,0.5,0,0.8,0.1C335.8,171.8,339,173.6,341,175.2z"/>
							<path class="st5" d="M290.6,156c5.2,7.5,7.9,13.7,9.1,16.7l20.4,2c1.4-1.2,4.9-3.8,10.5-3.4c-3.2-1.9-8.6-4.5-15.6-6.1
								C305.2,162.9,297.3,160.1,290.6,156z"/>
							<path class="st7" d="M334.8,123.6c0,0.1-0.1,0.2-0.1,0.2c-1,2.4-2.3,4.3-3.8,5.8c10.2,10,15.8,22.5,18.9,33.4
								c3,1.6,14.3,8.5,22.3,24.2C361.7,150.6,340.2,128.7,334.8,123.6z"/>
							<path class="st8" d="M372,187.1c0.3,0.6,0.6,1.1,0.8,1.7c-1-15-6.7-46.7-36.2-69.9c-0.8,2.1-1.5,3.7-1.9,4.6
								C340.2,128.7,361.7,150.6,372,187.1z"/>
							<path class="st10" d="M307.2,113.1c-1.3,1.9-1.8,3.7-1.3,5.5c0.2,0.9,0.7,1.9,1.4,2.8c0.2-1.5,0.9-3.2,2.1-5.2
								C308.5,115.3,307.8,114.2,307.2,113.1z"/>
							<path class="st5" d="M322.2,129.5c3.4,0.2,6.1-1.3,8.1-4.4c-0.9-0.1-1.9-0.2-3-0.3C325.6,127,324,128.6,322.2,129.5z"/>
							<path class="st9" d="M309.3,116.2c-1.1,2-1.8,3.8-2.1,5.2c1.8,2.4,5.1,4.8,9.6,6.7c1.9,0.8,3.7,1.3,5.3,1.4
								c1.8-0.9,3.4-2.5,5.1-4.7C322,124.1,314.3,122,309.3,116.2z"/>
							<path d="M261,179.1c-0.2-0.1-1.3-0.9-3.1-2.2l-35.8,17.4c0.4,1.8,0.8,3.7,1,5.6l39.5-19.7L261,179.1z"/>
							<path class="st10" d="M333.9,81.3c-0.5-0.5-1-1-1.4-1.5c-1.9,2.5-4.1,5.4-6.4,8.4c0.3,0.8,0.8,1.5,1.3,2.2
								c1.8-2.5,3.8-5.2,5.8-8.2C333.5,81.9,333.7,81.6,333.9,81.3z"/>
							<path class="st9" d="M340.6,96.2c1.1-2.8,2.2-5.7,3.4-8.7c0.2-0.5,0.4-1.1,0.6-1.6c-3.1-0.5-7.5-1.7-10.7-4.7
								c-0.2,0.3-0.4,0.6-0.7,0.9c-2,2.9-4,5.6-5.8,8.2C330.7,94.3,337,95.7,340.6,96.2z"/>
							<path class="st5" d="M340.6,96.2c0.6,0.1,1.1,0.1,1.6,0.2c1.5-3.8,2.9-7.4,4-10.2c-0.5,0-1-0.1-1.6-0.2
								c-0.2,0.5-0.4,1-0.6,1.6C342.8,90.5,341.7,93.4,340.6,96.2z"/>
							<path class="st3" d="M223.7,256.8c1.5,6.6,3.9,12.7,7.1,18.3c8.2,7.6,18.7,11.2,26.1,13C237.3,279.7,227.9,265.8,223.7,256.8
								z"/>
							<path class="st4" d="M224.8,240.9c-1.4-4.8-2.3-9.3-3-13.5c-0.8,10.9-0.2,20.6,1.9,29.4c4.2,8.9,13.7,22.9,33.2,31.3
								c0.2,0,0.4,0.1,0.6,0.1C238.1,275.1,229,255.7,224.8,240.9z"/>
							<path class="st9" d="M335.1,109.9c1.4-3.3,2.8-6.9,4.3-10.6c-4-0.6-10.1-2.2-13.9-6.3c-2.4,3.4-4.7,6.4-6.7,9.1
								C322.6,107.8,330.8,109.4,335.1,109.9z"/>
							<path class="st10" d="M318.8,102.1c2-2.7,4.2-5.8,6.7-9.1c-0.6-0.6-1.1-1.3-1.5-2c-1.5,2-3,4-4.5,6c-0.6,0.8-1.3,1.7-1.9,2.5
								C317.9,100.5,318.3,101.3,318.8,102.1z"/>
							<path class="st5" d="M336.7,110.1c1.3-3.3,2.8-7,4.2-10.5c-0.5-0.1-1-0.1-1.5-0.2c-1.5,3.7-2.9,7.3-4.3,10.6
								C335.8,110,336.3,110,336.7,110.1z"/>
							<path class="st5" d="M204.3,159c0.3,0.6,0.6,1.3,0.9,1.9c1.5,1.7,11.5,13.5,16.1,30.1l33.7-16.4c-5-4-12.1-10.3-16.7-17.5
								c-1.1-1.7-2.2-3.5-3.3-5.3c-6.6-10.4-14.1-22.3-20-28.8c-6.4-7.1-13.1-9.5-18.5-6.7c-4.1,2.2,0.5,26,6.6,39.9L204.3,159z
								 M205.2,130.4c0.6-0.2,1.2-0.3,1.8-0.3c9,0,21.2,23.5,21.3,23.8c0.5,1,1.6,3.2,0.7,5.4c-0.7,1.8-2.6,3.2-5.6,4.3
								c-2.8,1-5.2,1.5-7.3,1.5c-4.2,0-7.1-2.2-8.2-6.3c-0.2-0.7-0.5-1.6-0.8-2.6C202.7,140.7,201,132,205.2,130.4z"/>
							<path class="st18" d="M288.8,245.7c0.4,1.3,0.9,2.6,1.5,4c20.3-0.5,28.4,16.3,30.2,21.1c0.5-0.1,0.9-0.1,1.4-0.2
								c2.5-0.5,4.8-1.2,7-2.2c2.1-0.9,4.1-2,5.8-3.2c3.5-2.2,6.1-4.5,7.9-6.2c0.2-0.2,0.4-0.4,0.6-0.5c-0.3,0.1-0.7,0.1-1,0.2
								c-0.5,0.1-1.1,0.1-1.6,0.2c-0.6,0-1.1,0.1-1.7,0.1s-1.2,0-1.7,0c-0.6,0-1.2,0-1.8,0c-0.6,0-1.2-0.1-1.8-0.1
								c-0.6,0-1.2-0.1-1.8-0.1c-0.6,0-1.2-0.2-1.9-0.2c-1.2-0.2-2.6-0.3-3.7-0.6c-0.6-0.1-1.2-0.3-1.8-0.4l-0.9-0.2l-0.5-0.1
								c-0.1,0-0.1,0-0.3-0.1l-0.2-0.1c-1.2-0.4-2.5-0.7-3.7-1.1c-2.5-0.8-4.9-1.8-7.2-2.9c-0.6-0.3-1.2-0.5-1.7-0.8
								c-0.6-0.3-1.1-0.6-1.7-0.9c-0.5-0.3-1.1-0.6-1.6-0.9c-0.5-0.3-1-0.7-1.6-1c-0.5-0.3-1-0.6-1.5-1c-0.5-0.3-1-0.7-1.5-1
								c-1-0.7-1.9-1.3-2.8-2c-1.8-1.4-3.3-2.8-4.8-4.1c-2.8-2.7-5-5.1-6.4-6.9c-0.7-0.8-1.2-1.5-1.5-2l0,0c0,0-0.1,0-0.1,0.1
								s0,0.4,0,0.8c0,0.6,0.1,1.5,0.2,2.7C286.8,238.4,287.4,241.8,288.8,245.7z"/>
							<path class="st5" d="M324.8,296c40.4-19.5,50.3-35.8,50.4-52.7c0.1-14.4-7-23.8-10-27.2c-1.1,0.1-2.3,0.2-3.5,0.2
								c-1.4,0-2.8-0.1-4.3-0.3c-8.9-1-19-2.2-19.8-11.7c-0.5-6.5-1.4-17.7-1.7-21.1c-1.5-0.5-5.1-1.3-9.9,0
								c0,3.9,0.1,16.2,0.3,19.8c0.1,1.9-0.8,3.9-2.6,5.7c-2.1,2.2-8.7,7.2-23.6,6.7c-16-0.5-28-6.3-32-15.5
								c-2.5-5.7-3.6-13.1-3.9-16.9l-40.6,20.3c0.2,2.1,0.2,4.3,0.1,6.6c0,4.4,0.4,16.5,4.3,30.3c4.6,15.9,14.9,37.4,38.5,49.7
								C266.4,289.8,295.3,307.3,324.8,296 M356.9,224.4c0.8-1.5,2.2-2.3,3.2-1.8s1.2,2.2,0.5,3.7c-0.8,1.5-2.2,2.3-3.2,1.8
								C356.3,227.5,356.1,225.9,356.9,224.4z M330.3,220.1c1.3-0.7,3.1,0.2,4.1,2s0.8,3.9-0.4,4.6c-1.3,0.7-3.1-0.2-4.1-2
								C328.9,222.9,329.1,220.8,330.3,220.1z M281.8,236.5c-0.2,0.3-0.3,0.5-0.5,0.7c-0.3,0.4-0.5,0.6-0.5,0.6s0-0.3,0-0.8
								c0-0.2,0-0.6,0-0.9c0-0.3,0.1-0.7,0.2-1.2c0.1-0.2,0.1-0.4,0.2-0.7c0.1-0.2,0.2-0.4,0.3-0.7c0.1-0.2,0.2-0.5,0.4-0.7
								c0.1-0.2,0.3-0.4,0.5-0.7c0.2-0.2,0.4-0.5,0.6-0.7s0.4-0.4,0.7-0.6c0.4-0.4,1-0.7,1.5-1s1.1-0.5,1.6-0.7
								c0.6-0.2,1.1-0.3,1.6-0.4c0.5-0.1,1-0.1,1.5-0.1s0.9,0.1,1.4,0.1c0.8,0.1,1.5,0.3,2,0.5s0.7,0.3,0.7,0.3s-1,0.3-2.6,0.8
								c-0.4,0.1-0.8,0.2-1.2,0.4c-0.2,0.1-0.5,0.2-0.7,0.2c0.3,0.4,0.6,0.8,1,1.3c1.3,1.7,3.3,4.1,6,6.6c1.3,1.3,2.9,2.6,4.5,3.9
								c0.8,0.7,1.7,1.3,2.6,1.9c0.5,0.3,0.9,0.7,1.4,1s1,0.6,1.5,0.9c0.5,0.3,1,0.6,1.5,0.9c0.5,0.3,1,0.6,1.6,0.9
								c0.5,0.3,1,0.6,1.6,0.9c0.5,0.3,1.1,0.5,1.6,0.8c2.2,1.1,4.5,1.9,6.8,2.8c1.2,0.4,2.4,0.7,3.5,1.1l0.2,0.1c0,0,0.1,0,0.2,0
								l0.5,0.1l0.9,0.2c0.6,0.1,1.2,0.3,1.8,0.4c0.6,0.2,1.2,0.3,1.8,0.4c0.6,0.1,1.2,0.2,1.8,0.3c0.6,0.1,1.2,0.2,1.7,0.3
								c0.6,0.1,1.2,0.1,1.7,0.2c0.6,0.1,1.1,0.1,1.7,0.2c0.6,0,1.1,0.1,1.7,0.1s1.1,0.1,1.7,0.1c0.5,0,1.1,0,1.6,0s1.1,0,1.6,0
								s1-0.1,1.5-0.1c1-0.1,2-0.2,2.9-0.3c1.8-0.3,3.5-0.7,5-1.1c0.7-0.2,1.4-0.5,2-0.7c0.6-0.3,1.2-0.4,1.7-0.7
								c1-0.4,1.8-0.9,2.3-1.2s0.8-0.5,0.8-0.5s-0.2,0.2-0.7,0.6c-0.4,0.4-1.1,1-2.1,1.6c-0.5,0.3-1,0.6-1.6,1c-0.6,0.3-1.3,0.6-2,1
								c-1.4,0.6-3.1,1.2-4.9,1.7l-0.1,0.1c-0.1,0.1-0.3,0.4-0.5,0.6c-0.4,0.6-1.1,1.3-1.9,2.3c-1.7,1.9-4.3,4.4-8,6.9
								c-1.8,1.2-3.9,2.4-6.2,3.5c-2.3,1-4.9,1.9-7.6,2.4s-5.7,0.7-8.6,0.4l-1.1-0.1h-0.3h-0.1h-0.1h-0.1l-0.5-0.1l-1-0.2
								c-0.3-0.1-0.7-0.2-1.1-0.3c-0.4-0.1-0.8-0.2-1.1-0.3l-1.1-0.4c-0.7-0.2-1.4-0.6-2.1-0.9c-2.7-1.3-5.2-3.1-7.3-5.1
								c-2.2-2-4-4.2-5.5-6.5c-3.1-4.6-5.2-9.3-6.6-13.4c-1.4-4.1-2.2-7.7-2.5-10.3c-0.1-0.6-0.1-1.1-0.2-1.5
								c-0.1,0.1-0.2,0.2-0.3,0.3c-0.1,0.2-0.2,0.3-0.3,0.5C282.2,236,282,236.2,281.8,236.5z"/>
							<path class="st6" d="M324.8,296c1-0.4,2-0.9,3.1-1.3c2.8-1.3,5.8-2.6,8.9-4.1c3.1-1.6,6.3-3.3,9.6-5.2
								c3.3-1.9,6.5-4.1,9.7-6.4s6.3-4.9,9.2-7.7c2.9-2.8,5.4-5.8,7.5-9.1c0.5-0.8,1-1.7,1.5-2.5l0.6-1.3c0.2-0.4,0.4-0.8,0.6-1.3
								c0.2-0.4,0.4-0.9,0.5-1.3c0.2-0.4,0.3-0.9,0.4-1.3c0.1-0.4,0.3-0.8,0.4-1.3s0.2-0.9,0.3-1.4l0.2-0.7l0.1-0.6
								c0.1-0.5,0.1-0.9,0.2-1.4c0.1-0.9,0.3-1.8,0.3-2.7s0.1-1.8,0.1-2.6c0-0.4,0.1-0.9,0.1-1.3c0-0.4,0-0.9,0-1.3
								c0-0.8-0.1-1.7-0.1-2.5c-0.1-0.8-0.2-1.6-0.3-2.4c0-0.4-0.1-0.8-0.1-1.2c-0.1-0.4-0.1-0.8-0.2-1.1c-0.2-0.8-0.3-1.5-0.4-2.2
								c-0.7-2.9-1.6-5.4-2.6-7.6c-1-2.2-2.1-4-3-5.4c-1-1.4-1.8-2.4-2.4-3.1c-0.1-0.1-0.2-0.3-0.3-0.4c-1,0.3-2.1,0.5-3.3,0.7
								c3.1,3.4,10.2,12.9,10,27.2C375.1,260.2,365.2,276.4,324.8,296z"/>
							<path class="st19" d="M292.8,254.9c0.7,1.2,1.4,2.3,2.2,3.5c1.4,2.1,3.1,4.2,5.1,6c1.9,1.8,4.1,3.4,6.5,4.5
								c0.6,0.3,1.2,0.6,1.8,0.8l0.9,0.3c0.3,0.1,0.6,0.2,0.9,0.3c0.3,0.1,0.6,0.2,0.9,0.2l1,0.2l0.5,0.1h0.4l1,0.1
								c0.3,0,0.6,0,0.8,0.1C312.9,266.8,306,255.8,292.8,254.9z"/>
							<path class="st20" d="M291.8,252.9c0.3,0.6,0.7,1.3,1,1.9c13.2,0.9,20.1,11.9,22.2,16.2c0.7,0,1.4,0.1,2.1,0
								C315.1,266.1,308.2,253.2,291.8,252.9z"/>
							<path class="st5" d="M330,296.8h-0.1"/>
							<path d="M283.1,234.9c0,0.5,0.1,1,0.2,1.5c0.3,2.6,1.1,6.2,2.5,10.3s3.5,8.8,6.6,13.4c1.6,2.3,3.4,4.5,5.5,6.5
								s4.6,3.8,7.3,5.1c0.7,0.3,1.4,0.6,2.1,0.9l1.1,0.4c0.4,0.1,0.7,0.2,1.1,0.3c0.4,0.1,0.8,0.2,1.1,0.3l1,0.2l0.5,0.1h0.1h0.1
								h0.1h0.3l1.1,0.1c2.9,0.3,5.9,0.1,8.6-0.4c2.8-0.5,5.3-1.4,7.6-2.4c2.3-1,4.4-2.2,6.2-3.5c3.6-2.5,6.3-5,8-6.9
								c0.9-0.9,1.5-1.7,1.9-2.3c0.2-0.3,0.4-0.5,0.5-0.6l0.1-0.1c1.8-0.5,3.5-1.1,4.9-1.7c0.7-0.3,1.4-0.7,2-1s1.1-0.6,1.6-1
								c0.9-0.6,1.6-1.2,2.1-1.6c0.4-0.4,0.7-0.6,0.7-0.6s-0.3,0.2-0.8,0.5s-1.3,0.7-2.3,1.2c-0.5,0.2-1.1,0.4-1.7,0.7
								c-0.6,0.2-1.3,0.5-2,0.7c-1.5,0.4-3.1,0.8-5,1.1c-0.9,0.1-1.9,0.3-2.9,0.3c-0.5,0-1,0.1-1.5,0.1s-1,0-1.6,0
								c-0.5,0-1.1,0-1.6,0s-1.1-0.1-1.7-0.1s-1.1-0.1-1.7-0.1s-1.1-0.1-1.7-0.2s-1.2-0.1-1.7-0.2c-0.6-0.1-1.2-0.2-1.7-0.3
								c-0.6-0.1-1.2-0.2-1.8-0.3c-0.6-0.1-1.2-0.2-1.8-0.4c-0.6-0.1-1.2-0.3-1.8-0.4l-0.9-0.2l-0.5-0.1c-0.1,0-0.2,0-0.2,0
								l-0.2-0.1c-1.2-0.4-2.4-0.7-3.5-1.1c-2.3-0.8-4.6-1.7-6.8-2.8c-0.5-0.3-1.1-0.5-1.6-0.8s-1.1-0.6-1.6-0.9
								c-0.5-0.3-1-0.6-1.6-0.9c-0.5-0.3-1-0.6-1.5-0.9c-0.5-0.3-1-0.6-1.5-0.9c-0.5-0.3-0.9-0.6-1.4-1c-0.9-0.6-1.8-1.3-2.6-1.9
								c-1.7-1.3-3.2-2.6-4.5-3.9c-2.7-2.6-4.7-4.9-6-6.6c-0.4-0.5-0.7-0.9-1-1.3c0.2-0.1,0.5-0.2,0.7-0.2c0.4-0.1,0.8-0.2,1.2-0.4
								c1.6-0.5,2.6-0.8,2.6-0.8s-0.2-0.2-0.7-0.3c-0.5-0.2-1.1-0.4-2-0.5c-0.4,0-0.9-0.1-1.4-0.1s-1,0-1.5,0.1s-1.1,0.2-1.6,0.4
								s-1.1,0.4-1.6,0.7s-1,0.6-1.5,1c-0.2,0.2-0.4,0.4-0.7,0.6c-0.2,0.2-0.4,0.4-0.6,0.7c-0.2,0.2-0.4,0.4-0.5,0.7
								c-0.1,0.2-0.3,0.5-0.4,0.7s-0.2,0.4-0.3,0.7c-0.1,0.2-0.1,0.4-0.2,0.7c-0.1,0.4-0.2,0.8-0.2,1.2c0,0.3,0,0.7,0,0.9
								c0,0.5,0,0.8,0,0.8s0.2-0.2,0.5-0.6c0.1-0.2,0.3-0.4,0.5-0.7s0.4-0.5,0.7-0.8c0.1-0.1,0.2-0.3,0.3-0.5
								C282.9,235.1,283,235,283.1,234.9z M315.8,272.7c0,0-0.3-0.6-0.8-1.6c-0.3,0-0.6,0-0.8-0.1l-1-0.1h-0.4l-0.5-0.1l-1-0.2
								c-0.4-0.1-0.6-0.2-0.9-0.2c-0.3-0.1-0.6-0.2-0.9-0.3l-0.9-0.3c-0.6-0.2-1.2-0.5-1.8-0.8c-2.4-1.1-4.6-2.7-6.5-4.5
								s-3.6-3.9-5.1-6c-0.8-1.2-1.5-2.3-2.2-3.5c-0.6,0-1.2-0.1-1.8-0.1c0.6,0,1.2,0,1.8,0.1c-0.4-0.6-0.7-1.3-1-1.9
								c16.4,0.3,23.3,13.2,25.4,18.1c-0.7,0-1.4,0-2.1,0C315.6,272.1,315.8,272.7,315.8,272.7z M286.3,232.5c0,0,0.1,0,0.1-0.1l0,0
								c0.4,0.5,0.9,1.2,1.5,2c1.4,1.8,3.5,4.3,6.4,6.9c1.4,1.3,3,2.7,4.8,4.1c0.9,0.7,1.8,1.4,2.8,2c0.5,0.3,0.9,0.7,1.5,1
								c0.5,0.3,1,0.6,1.5,1c0.5,0.3,1,0.6,1.6,1c0.5,0.3,1.1,0.6,1.6,0.9c0.6,0.3,1.1,0.6,1.7,0.9c0.6,0.3,1.1,0.5,1.7,0.8
								c2.3,1.1,4.7,2,7.2,2.9c1.2,0.4,2.5,0.7,3.7,1.1l0.2,0.1c0.2,0,0.2,0,0.3,0.1l0.5,0.1l0.9,0.2c0.6,0.1,1.2,0.3,1.8,0.4
								c1.2,0.3,2.5,0.4,3.7,0.6c0.6,0.1,1.2,0.2,1.9,0.2c0.6,0,1.2,0.1,1.8,0.1c0.6,0,1.2,0.1,1.8,0.1c0.6,0,1.2,0,1.8,0
								c0.6,0,1.2,0,1.7,0c0.6,0,1.1-0.1,1.7-0.1c0.6-0.1,1.1-0.1,1.6-0.2c0.3-0.1,0.7-0.1,1-0.2c-0.2,0.2-0.4,0.4-0.6,0.5
								c-1.8,1.7-4.4,3.9-7.9,6.2c-1.7,1.1-3.7,2.2-5.8,3.2c-2.1,0.9-4.5,1.7-7,2.2c-0.5,0.1-0.9,0.2-1.4,0.2
								c-1.9-4.8-9.9-21.6-30.2-21.1c-0.6-1.4-1.1-2.7-1.5-4c-1.3-3.9-2-7.3-2.3-9.7c-0.2-1.2-0.2-2.1-0.2-2.7
								C286.3,232.9,286.3,232.7,286.3,232.5z"/>
							<path d="M208,158.9c1.1,4.1,4,6.3,8.2,6.3c2,0,4.4-0.5,7.3-1.5c3-1.1,4.8-2.5,5.6-4.3c0.9-2.2-0.2-4.4-0.7-5.4
								c-0.1-0.2-12.3-23.8-21.3-23.8c-0.6,0-1.3,0.1-1.8,0.3c-4.2,1.6-2.5,10.3,2.1,25.8C207.5,157.3,207.8,158.2,208,158.9z
								 M206.3,133.5c0.2-0.1,0.4-0.1,0.7-0.1c5.3,0,15.4,15.7,18.4,22c0.6,1.2,0.9,2.1,0.6,2.8c-0.4,0.9-1.6,1.7-3.7,2.5
								c-2.5,0.9-4.5,1.3-6.2,1.3c-2.8,0-4.3-1.2-5.1-3.9c-0.2-0.7-0.5-1.6-0.8-2.7C205.5,139,205.5,134.4,206.3,133.5z"/>
							<path d="M357.3,228c1,0.5,2.5-0.3,3.2-1.8c0.8-1.5,0.5-3.1-0.5-3.7c-1-0.5-2.5,0.3-3.2,1.8
								C356.1,225.9,356.3,227.5,357.3,228z"/>
							<path d="M334.1,226.8c1.3-0.7,1.5-2.8,0.4-4.6c-1-1.8-2.9-2.7-4.1-2c-1.3,0.7-1.5,2.8-0.4,4.6
								C330.9,226.6,332.8,227.5,334.1,226.8z"/>
							<path d="M266.4,289.8c-23.5-12.3-33.9-33.8-38.5-49.7c-4-13.8-4.3-25.8-4.3-30.3c0.1-2.2,0-4.4-0.1-6.6l40.6-20.3
								c0.4,3.8,1.4,11.3,3.9,16.9c4.1,9.1,16.1,14.9,32,15.5c14.8,0.5,21.4-4.5,23.6-6.7c1.8-1.8,2.7-3.8,2.6-5.7
								c-0.2-3.5-0.3-15.8-0.3-19.8c4.9-1.3,8.4-0.5,9.9,0c0.3,3.4,1.2,14.5,1.7,21.1c0.8,9.4,10.9,10.6,19.8,11.7
								c1.5,0.2,3,0.3,4.3,0.3c1.2,0,2.4-0.1,3.5-0.2c-0.8-0.9-1.4-1.4-1.4-1.4s0.5,0.5,1.4,1.4c1.2-0.2,2.3-0.4,3.3-0.7
								c0.1,0.1,0.2,0.2,0.3,0.4c0.6,0.7,1.5,1.7,2.4,3.1c1,1.4,2,3.2,3,5.4s1.9,4.7,2.6,7.6c0.2,0.7,0.3,1.5,0.4,2.2
								c0.1,0.4,0.1,0.8,0.2,1.1c0,0.4,0.1,0.8,0.1,1.2c0.1,0.8,0.2,1.6,0.3,2.4c0,0.8,0.1,1.7,0.1,2.5c0,0.4,0,0.9,0,1.3
								c0,0.4,0,0.9-0.1,1.3c0,0.9-0.1,1.8-0.1,2.6c-0.1,0.9-0.2,1.8-0.3,2.7c-0.1,0.5-0.1,0.9-0.2,1.4l-0.1,0.6l-0.2,0.7
								c-0.1,0.5-0.2,0.9-0.3,1.4c-0.1,0.5-0.3,0.9-0.4,1.3c-0.1,0.4-0.2,0.8-0.4,1.3c-0.2,0.4-0.4,0.9-0.5,1.3
								c-0.2,0.4-0.4,0.9-0.6,1.3l-0.6,1.3c-0.5,0.8-1,1.7-1.5,2.5c-2.1,3.3-4.7,6.3-7.5,9.1c-2.9,2.8-6,5.3-9.2,7.7
								c-3.2,2.3-6.5,4.5-9.7,6.4c-3.3,1.9-6.5,3.6-9.6,5.2s-6.1,2.9-8.9,4.1c-1.1,0.5-2.1,0.9-3.1,1.3
								C295.4,306.7,266.4,289.8,266.4,289.8z M338.5,293.1c3.1-1.5,6.3-3.2,9.5-5.1c1-0.6,2-1.2,3-1.8c0.4-1.4,0.7-2.3,0.7-2.3
								s-0.2,0.9-0.7,2.3c3.3-2.1,6.6-4.3,9.8-6.9c0.2,0.5,0.5,1.1,0.8,1.6l2.4,4.2c9.7,15.6,25.4,21.4,26.2,21.6l7.8,2.8l-6.2-5.5
								c-12.7-11.2-17.1-36.7-17.4-38.5c0.4-0.6,0.8-1.2,1.2-1.7c0.5-0.9,1.1-1.8,1.6-2.7l0.7-1.4c0.2-0.5,0.5-0.9,0.6-1.4
								c0.4-1,0.8-1.9,1.1-2.9c0.2-0.5,0.3-1,0.4-1.5s0.2-0.9,0.3-1.4l0.2-0.7v-0.2v-0.1v-0.2v-0.4c0.1-0.5,0.1-1,0.2-1.4
								c0.1-1,0.3-1.9,0.4-2.9c0-0.9,0.1-1.9,0.1-2.8c0-0.5,0.1-0.9,0.1-1.4s0-0.9,0-1.4c0-0.9-0.1-1.8-0.1-2.7
								c-0.1-0.9-0.2-1.7-0.3-2.6c0-0.4-0.1-0.8-0.1-1.3c0-0.1,0-0.1,0-0.2c9.9,5.9,22.6,6.2,23.2,6.3l7.6,0.1l-6.9-3.2
								c-8.3-3.9-15-13.6-19.8-22.9c5.3-18.1,2.9-39.1,1.8-45.9c1.5,0.2,3,0.2,4.6,0.2c7.2,0,15.3-1.7,24.3-5.1l9.3-3.5l-9.9,0.3
								c-0.2,0-20.9,0.5-31.6-14.9c-1.3-1.9-2.7-4.1-4.2-6.4c-7.3-11.2-17.2-26.5-35.4-38.3c3.9-9.8,7.6-19.1,7.9-19.8
								c0.6-1.6,6.3-16.2,3.6-21.7c-0.7-1.4-1.7-1.9-2.4-2.1c-0.5-0.1-1-0.2-1.5-0.2c-4.2,0-8.6,5-12.9,9.9c-0.6,0.7-1.2,1.4-1.8,2
								c-2.5,2.8-9.4,11.9-16.2,21c-4-1.3-8.3-2.5-12.6-3.4c-49.6-10.8-86.2,16.5-96.7,28.4c-5.6-3.7-11.2-4.4-16.1-1.9
								c-3.1,1.6-3.7,6.9-3,13.4c-2.5,2.2-10.3,10.6-10.2,28.4c0,2,0.2,4.3,0.4,6.7c-1.9,2.4-8.6,12.6-9.5,33.8
								c-0.9,21.3,4.5,35,5.9,38.3c-2.2,4.5-5,8.7-8.6,12.7c-7.4,6.5-13.5,10.2-13.6,10.2l-7.4,4.4l8.5-1.4c3.9-0.6,8.1-1.8,12-3.3
								c4.2-1.6,8.3-3.6,12.3-6.1c-0.6,6.3-3.3,18.4-14,28.7c-6.6,5.7-11.8,8.9-11.9,9l-11.9,7.4l13.3-4.4c3.1-1,6.1-2.2,8.9-3.4
								l6.2-2.9c3.8-1.9,7.3-4,10.5-6.2c0.5-1.5,0.7-2.4,0.7-2.4s-0.2,0.9-0.7,2.4c4.9-3.4,9-6.9,12.5-10.6l8.8-10
								c2.4,12.8,14.3,21.9,14.3,21.9c1.5,1.4,3,2.7,4.6,3.9c1.5-0.2,2.4-0.3,2.4-0.3s-0.9,0-2.4,0.3c10.5,8.2,21.1,12.6,22,12.9
								l9,3.6l-7.3-6.3c-3.9-3.4-7.4-7-10.4-10.8c13.5,8.3,28.4,9.5,29.2,9.5C265.5,292.9,300,315.8,338.5,293.1z M384,300.2
								c-0.1-0.1-0.3-0.2-0.4-0.3c2.1,1.9,4.5,3.8,7.1,5.4c-2.6-1.7-5-3.5-7.1-5.4c-6.4-3.9-15.2-11.1-20.1-22.7
								c1.4-1.2,2.8-2.4,4.1-3.7l0.1-0.1c-0.3-1.1-0.4-1.8-0.4-1.8s0.1,0.7,0.4,1.8c1.4-1.4,2.8-2.8,4.1-4.4
								C372.9,275.3,376.5,289.7,384,300.2z M396.6,236.1c4.1,2.1,7,3,7,3S400.7,238.2,396.6,236.1c0.2,0.2,0.5,0.4,0.7,0.6
								c-5.2-0.9-12.3-2.8-17.6-6.9c-0.7-2.6-1.6-5-2.5-7c-1.1-2.3-2.2-4.3-3.3-5.8c-0.9-1.3-1.7-2.3-2.3-3c0.3-0.2,0.7-0.5,1-0.7
								c0.3-0.3,0.6-0.6,0.8-0.8c-0.3-0.7-0.6-1.3-0.8-2c0.3,0.7,0.5,1.4,0.8,2c0.7-0.9,0.8-1.8,0.8-2.5c0-1.2-0.1-5.1-0.2-9
								l1.5,4.6l0.3-3.4C379.3,211.7,386.3,227.4,396.6,236.1z M265.6,291.2c-3.1-0.9-6-2-8.8-3.1c-7.4-1.7-17.9-5.4-26.1-13
								c-3.2-5.6-5.6-11.7-7.1-18.3c-2.4-5-3.1-8.4-3.1-8.4s0.8,3.4,3.1,8.4c-2-8.8-2.6-18.5-1.9-29.4c0.7,4.1,1.6,8.7,3,13.5
								c4.2,14.7,13.3,34.2,32.7,47.3c-0.2,0-0.4-0.1-0.6-0.1C259.6,289.3,262.5,290.3,265.6,291.2z M245.7,295.3
								c0,0-5.2-2.8-11.3-7.7c-10.8-6.6-25.5-18.2-28.1-34.1c2.5-4.5,4.2-8.8,5.5-12.8c5.3-16.7,3.3-30.7,2.9-33
								c0.4-1.7,0.6-3.3,0.8-5c-0.4-1.7-0.8-3.4-1.4-4.9c0.6,1.6,1,3.2,1.4,4.9c0.9-9.5-1.3-18.8-4.4-27.7c4.7,8.2,9.5,20,9.4,33.3
								c0,0.3,0,0.9,0,1.6c-0.1,1.9-0.2,3.8-0.5,5.8c-2.5,16.9-2.1,31,1,43.4c2.9,11.5,8.3,21.4,16.2,30.2c-0.9-0.5-1.8-1.1-2.8-1.7
								C240.4,292.5,245.7,295.3,245.7,295.3z M222.1,194.3l35.8-17.4c1.8,1.3,3,2.1,3.1,2.2l1.6,1.1l-39.5,19.7
								C222.8,197.9,222.5,196.1,222.1,194.3z M216.2,122c1.6-1.2,3.2-2.3,4.8-3.4c19.7-14.6,41.8-17.4,57.5-17.1
								c14.1,0.3,25.5,3.2,30,4.5c-0.7,1-1.4,1.8-2,2.6c0.6,0.2,0.9,0.3,0.9,0.3s-0.3-0.1-0.9-0.3c-0.6,0.7-1,1.3-1.4,1.8
								c-0.5,0.7-1,1.4-1.4,2.1c-3.6-1.4-13.4-4.8-26.7-6c-15.1-1.3-37.5,0.1-59.3,14.6l0,0c1.1-0.9,2.2-1.8,3.3-2.6
								C219.4,119.7,217.8,120.8,216.2,122z M320.4,131c0.8,0.6,1.6,1.2,2.4,1.8c2,0,3.8-0.4,5.4-1.3c13.7,13.1,18.8,31.5,20.8,43.6
								c-0.3-0.6-0.6-1.3-1-2c1.7,5.1,2.5,8.4,2.5,8.4s-0.8-3.3-2.5-8.4c-6-11.8-18.2-29-42.7-43c-30.6-17.6-56.8-17.2-72.7-13.3
								c0.7-0.3,1.4-0.6,2.1-0.9c-3.6,1.2-7.1,2.7-10.5,4.5c3.4-1.8,7-3.3,10.5-4.5c31.6-12.8,61.6-2.7,67.9-0.2
								c-0.1,0.9-0.2,1.8,0,2.7c1.3,0.4,2,0.7,2,0.7s-0.7-0.3-2-0.7c0,0.3,0.1,0.7,0.2,1c1.1,4.5,5.7,8.6,12.9,11.7
								c2.6,1.1,5,1.7,7.2,1.7l0,0C322,132.2,321.2,131.6,320.4,131z M350.9,167.5c3,2,7.6,5.7,12.1,11.5l-3.5-0.4
								c0.4,0.6,0.8,1.2,1.1,1.7c-0.3-0.6-0.7-1.2-1.1-1.7l-6.8-0.7c-0.2-2-0.6-4.3-1.1-6.8c-1.2-0.9-2-1.4-2-1.4s0.8,0.5,2,1.4
								C351.4,169.9,351.2,168.7,350.9,167.5z M344.8,174.2c-8.7-8.4-21.7-13.1-34.7-17c-17.5-5.4-28.3-12.6-29.7-13.5
								c-4.6-4.7-10.1-9.5-16.7-13.9c-9.3-6.2-17.3-9-24-10c-5,0.1-9,0.5-11.6,1.1c2.6-0.6,6.5-1,11.6-1.1c-1.3-0.2-2.6-0.3-3.9-0.4
								c4.3-0.9,9.3-1.5,14.7-1.5c17.4-0.2,35.7,5,53.1,15c22.1,12.7,34,28.3,40.2,39.6c3.8,5.5,4.6,8.7,4.6,8.7s-0.8-3.2-4.6-8.7
								C344.2,173.1,344.5,173.7,344.8,174.2z M334.1,173.5c0,0-1.2-0.9-3.4-2.2c-5.6-0.3-9.2,2.2-10.5,3.4l-20.4-2
								c-1.1-2.9-3.9-9.2-9.1-16.7c-1.4-0.8-2.7-1.7-4-2.6c1.3,0.9,2.6,1.8,4,2.6c-1.1-1.5-2.2-3.1-3.5-4.7c5.2,2.7,12.6,6.1,22,8.9
								c11.8,3.6,23.6,7.8,31.8,14.9c-2-1.5-5.2-3.3-9.5-3.8c-0.3,0-0.6,0-0.8-0.1C332.9,172.6,334.1,173.5,334.1,173.5z
								 M353.1,182.2c0-0.3-0.1-0.6-0.1-1l12.5,1.3c0.3,0.4,0.6,0.8,0.8,1.3L353.1,182.2z M221.2,125.6c4.3-2.4,18.4-7.9,40.7,6.8
								c19.5,12.9,29.3,29.5,33.2,37.8c-0.1-0.1-0.2-0.1-0.2-0.2c2.5,3.3,4,5.4,4,5.4s-1.4-2.1-4-5.4c-4.5-3-11.7-7.4-20.1-10.6
								c-13.8-5.2-22.1-10.1-27.7-16.3l0,0c-3.1-4.4-6.8-7.8-11.2-10.2s-11.7-5.3-13.5-6c-0.1-0.2-0.2-0.3-0.4-0.5
								c-1.5,0.1-2.3,0.3-2.3,0.3s0.8-0.2,2.3-0.3C221.7,126.2,221.5,125.9,221.2,125.6z M287.5,173.2c0,0-0.8-0.7-2.3-1.9
								l-19.4-1.9l-5.8,2.8c-2.2-3.8-4.1-8.9-6.8-16.3c-1.2-0.8-2-1.5-2.5-2.1c0.5,0.6,1.3,1.4,2.5,2.1c-0.3-0.7-0.5-1.5-0.8-2.3
								c-0.3-0.7-0.6-1.4-0.8-2.1c5.4,3.9,12.5,7.4,22.1,11c7.3,2.8,13.8,6.5,18.2,9.4l-6.5-0.6
								C286.7,172.4,287.5,173.2,287.5,173.2z M225.8,131.9c2.8,1.2,6.1,2.6,8.4,3.9c6.9,3.8,11.8,10,15.1,18.9
								c2.5,6.7,4.4,12.1,6.5,16.4c1.7,2.1,3.5,4,5.5,5.9c-2-1.9-3.9-3.8-5.5-5.9l0,0c-4.7-3.8-10.9-9.5-14.9-15.8
								c-1.1-1.7-2.2-3.5-3.3-5.3c-3.7-5.9-7.7-12.1-11.5-17.7c-1.9-1.1-3.2-1.7-3.2-1.7s1.3,0.6,3.2,1.7
								C226,132.3,225.9,132.1,225.8,131.9z M261.8,175l4.7-2.3l30.7,3c0.4,0.3,0.7,0.5,0.7,0.5l2.4,1.9
								c-14.4-1.3-28.1-2.4-28.3-2.4l-1.8-0.1v1.8c0,0.3,0.1,3.7,0.5,7.8l-3.4-3.9c0-0.6-0.1-0.9-0.1-0.9l-0.1-2.5l-1.9,1l-2-2.3
								C262.7,176.1,262.2,175.6,261.8,175z M349.7,163c-3-10.9-8.6-23.4-18.9-33.4c1.5-1.5,2.8-3.4,3.8-5.8c0-0.1,0.1-0.2,0.1-0.2
								c-0.8-0.8-1.3-1.2-1.3-1.2s0.5,0.4,1.3,1.2c0.4-0.9,1.1-2.6,1.9-4.6c29.5,23.1,35.2,54.9,36.2,69.9c-0.3-0.6-0.5-1.1-0.8-1.7
								c0.9,3.3,1.8,6.8,2.5,10.3c-0.7-3.6-1.6-7-2.5-10.3C364.1,171.5,352.7,164.6,349.7,163z M382.7,210.3
								c-1.2-2.7-2.3-5.3-3.2-7.6c-0.1,1.4-0.2,2.7-0.3,4.2c0.1-1.4,0.2-2.8,0.3-4.2c-1.7-4.5-2.8-7.9-3.2-9.2c0-5-0.5-14-3.4-25
								c-0.5-1.8-1-3.7-1.7-5.6c1.2,0.9,2.6,1.9,4.2,2.7c0.8,0.4,1.6,0.8,2.5,1.1c-0.4-1.6-0.6-2.5-0.6-2.5s0.3,0.8,0.6,2.5
								c1.7,0.7,3.5,1.2,5.4,1.6C384.1,173.1,386.7,192.8,382.7,210.3z M376.4,141.4c1.5,2.3,2.9,4.5,4.3,6.5
								c7.3,10.6,18.6,14.3,26.3,15.6c-0.2,0.1-0.5,0.1-0.7,0.2c4.8-0.4,8.2-1.1,8.2-1.1s-3.4,0.8-8.2,1.1c-30,8.1-38-8.6-38.3-9.4
								l0,0c-5.4-12.5-14.5-26.5-30-38.4c0.8-1.9,1.6-4.1,2.5-6.3c-0.5-0.3-0.9-0.6-1.4-1c0.4,0.3,0.9,0.6,1.4,1
								c0.7-1.6,1.3-3.4,2-5.1C359.8,115.7,369.4,130.5,376.4,141.4z M324,91c0.4,0.7,1,1.4,1.5,2c0.6-0.9,1.3-1.8,1.9-2.7
								c-0.5-0.7-1-1.4-1.3-2.2c2.3-3,4.4-5.9,6.4-8.4c0.4,0.5,0.9,1,1.4,1.5c0.7-0.9,1.3-1.8,1.9-2.7c-0.5-0.5-0.9-0.9-1.2-1.5
								c2-2.5,3.6-4.5,4.5-5.5c0.4-0.4,0.8-0.9,1.2-1.3c0.3,0.3,0.7,0.6,1.2,0.9c0.7-0.9,1.4-1.8,2-2.5c-0.4-0.3-0.8-0.6-1.1-0.9
								c3.1-3.5,6.5-7.1,8.9-7.1c0.1,0,0.1,0,0.2,0c0.5-0.3,0.9-0.5,1.2-0.6c0.1-0.6,0-0.8,0-0.8s0,0.2,0,0.8c0.7-0.2,0.9,0,0.9,0
								s-0.2-0.2-0.9,0c0,0.4-0.1,0.9-0.2,1.6c0.5,1.8,0.1,5.3-0.9,9.2c-0.5,0-1,0-1.5,0c-0.3,1-0.6,2-1,3.2
								c0.5,0.1,1.1,0.1,1.7,0.1c-0.6,2.1-1.3,4.2-2.1,6.2c0,0.1-0.4,1-1,2.7c-0.4,0-1-0.1-1.6-0.2c-0.4,1-0.8,2-1.2,3.1
								c0.6,0.1,1.1,0.2,1.6,0.2c-1.1,2.8-2.5,6.4-4,10.2c-0.4,0-1-0.1-1.6-0.2c-0.4,1-0.8,2.1-1.2,3.1c0.5,0.1,1.1,0.2,1.5,0.2
								c-1.4,3.6-2.9,7.2-4.2,10.5c-0.4,0-1-0.1-1.6-0.1c-0.5,1.1-0.9,2.1-1.4,3.1c0.6,0.1,1.2,0.1,1.7,0.2
								c-1.6,3.9-2.9,7.1-3.6,8.8c-0.6,0-1.5-0.1-2.6-0.2c-0.7,1.1-1.3,2.1-2,3c1.1,0.2,2.2,0.3,3,0.3c-2,3.1-4.7,4.5-8.1,4.4
								c-1.3,0.7-2.7,1-4.2,0.8c1.5,0.2,2.8-0.1,4.2-0.8c-1.6-0.1-3.4-0.5-5.3-1.4c-4.5-1.9-7.8-4.3-9.6-6.7c-0.2,1-0.1,1.8,0.1,2.6
								c-0.3-0.8-0.3-1.6-0.1-2.6c-0.7-0.9-1.2-1.9-1.4-2.8c-0.5-1.8,0-3.7,1.3-5.5c0.6,1.1,1.4,2.2,2.1,3.1c0.5-0.9,1.1-1.9,1.8-3
								c-0.7-0.9-1.2-1.9-1.7-3c1.6-2,3.6-4.7,5.9-7.7c0.4,0.9,1,1.7,1.5,2.4c0.6-0.9,1.3-1.8,2-2.8c-0.5-0.8-1-1.7-1.3-2.7
								c0.6-0.8,1.3-1.7,1.9-2.5C320.9,95,322.4,93,324,91z M214.3,117.9c-0.2-0.2-0.4-0.4-0.6-0.6c10.3-11.6,45.5-37.6,93.5-27.2
								c3.9,0.8,7.6,1.9,11.2,3c-0.5,0.6-1,1.3-1.4,1.9c-0.7,1-1.5,2-2.2,2.9c1,0.3,1.6,0.6,1.6,0.6s-0.6-0.2-1.6-0.6
								c-1.4,1.9-2.8,3.7-4.1,5.4c-3.7-1.2-15.9-4.6-31.9-5c-17.2-0.4-41.9,2.9-63.3,20.6C215,118.6,214.6,118.2,214.3,117.9
								c-0.4,0.3-0.8,0.7-1.2,1C213.4,118.6,213.8,118.2,214.3,117.9z M196.5,116.4c5.4-2.8,12.1-0.3,18.5,6.7
								c5.9,6.5,13.4,18.3,20,28.8c1.1,1.8,2.3,3.6,3.3,5.3c4.6,7.2,11.7,13.5,16.7,17.5l-33.7,16.4c-4.6-16.7-14.6-28.4-16.1-30.1
								c-0.3-0.6-0.6-1.3-0.9-1.9l-1.2-2.8C196.9,142.4,192.3,118.5,196.5,116.4z M176,195.9c0.6-15,4.3-24.1,6.8-28.7
								c0.2,1.5,0.4,3,0.6,4.6c0.3,2,0.5,4.1,0.8,6.3c0.6-2.7,1.1-4.2,1.1-4.2s-0.5,1.5-1.1,4.2c1.4,11.9,2.5,25.5,0.1,38.7
								c0.3,1.1,0.6,2.2,1,3.4c-0.4-1.1-0.7-2.3-1-3.4c-0.8,4.4-2,8.8-3.7,13.1C178.6,224.3,175.3,212.3,176,195.9z M182.2,234.1
								L182.2,234.1c9.5-20.6,6.6-44.3,4.3-62.7c-0.8-6.3-1.5-11.7-1.5-16c-0.1-13.4,4.6-20.9,7.5-24.3c0.2,1.2,0.4,2.5,0.7,3.8
								c0.8-1,1.3-1.5,1.3-1.5s-0.6,0.4-1.3,1.5c0.2,0.9,0.4,1.7,0.6,2.6c-3.4,11.2-1.7,22.1,0.1,33.6c1.8,11.9,3.8,24.1,0.7,38.5
								C192.6,218.8,187.8,227.1,182.2,234.1c-1.6,2.9-3.5,5.8-5.6,8.7C178.8,239.8,180.6,236.9,182.2,234.1z M168.4,253.7
								c-0.9,0.4-1.9,0.7-2.8,1c0.7-0.5,1.4-1.1,2.1-1.6c-3,1.7-6.2,3.3-9.6,4.9c3.4-1.6,6.6-3.2,9.6-4.9
								c10.4-8.2,25.9-23.3,30-42.8c3.2-15,1.1-28.1-0.7-39.7c-1.4-9-2.8-17.7-1.5-26.2c1.6,5.5,3.3,10.4,4.6,13.3l1.2,2.8
								c0.3,0.7,0.6,1.3,0.9,2c-1.1-5.5-2-8.8-2-8.8s0.9,3.3,2,8.8c6.4,14.5,12.6,29.4,9.2,44.9c-2.5,11.3-8,21.2-15.9,28.7
								C186.9,244.1,177.8,250.1,168.4,253.7z M182.4,264.2c-0.4,0.5-0.8,1-1.2,1.5c3.2-7.4,3.9-14.1,4.1-17.4
								c1.4-0.9,2.7-1.9,4.1-2.9c0.3-1.5,0.5-2.4,0.5-2.4s-0.1,0.9-0.5,2.4c1.9-1.4,3.7-2.9,5.5-4.5
								C192.4,249.7,187.7,257.5,182.4,264.2c-1.9,3.3-4.2,6.4-7,8.7C178.2,270.6,180.5,267.5,182.4,264.2z M156.9,289.6
								c4.6-2.4,8.8-4.9,12.6-7.4c10.9-9.2,25.9-25.1,29.6-45.3c2.1-2.1,3.9-4.3,5.7-6.7c0.1-1.9,0.1-2.9,0.1-2.9s0.1,1.1-0.1,2.9
								c3-4.2,5.4-8.8,7.3-13.7c0.1,5.9-0.6,14.2-3.4,23.2c-6.2,19.5-19.8,34.2-40.6,43.8c0.2-0.2,0.5-0.4,0.7-0.6s0.5-0.4,0.7-0.6
								C165.7,284.8,161.5,287.3,156.9,289.6z"/>
							<path d="M352.2,61.2c0.1,0.1,0.1,0.3,0.2,0.5c0.1-0.7,0.2-1.2,0.2-1.6c-0.3,0.1-0.7,0.3-1.2,0.6c0.1,0,0.2,0,0.4,0.1
								C351.9,60.8,352,60.9,352.2,61.2z"/>
							<path d="M345.8,82.8c-2.8-0.4-7.1-1.4-10-4.3c-0.6,0.9-1.3,1.7-1.9,2.7c3.2,3,7.6,4.2,10.7,4.7
								C345,84.9,345.4,83.8,345.8,82.8z"/>
							<path d="M311.1,113.2c-0.7,1.1-1.3,2.1-1.8,3c4.9,5.8,12.6,7.9,17.9,8.6c0.7-0.9,1.4-1.9,2-3
								C324.4,121.3,315.7,119.5,311.1,113.2z"/>
							<path d="M339.4,99.3c0.4-1,0.8-2.1,1.2-3.1c-3.6-0.5-10-1.9-13.2-5.9c-0.7,0.9-1.3,1.8-1.9,2.7
								C329.3,97.1,335.4,98.7,339.4,99.3z"/>
							<path d="M318.8,102.1c-0.7,1-1.4,1.9-2,2.8c4.3,5.6,12.2,7.5,16.9,8.1c0.5-1,0.9-2,1.4-3.1
								C330.8,109.4,322.6,107.8,318.8,102.1z"/>
							<path d="M350,70.9c-2.9-0.2-5.1-1.3-6.6-2.3c-0.6,0.8-1.3,1.6-2,2.5c1.7,1.2,4.2,2.5,7.6,2.9C349.4,72.9,349.7,71.9,350,70.9
								z"/>
						</g>
					</g>
				</g>
				<path d="M330,296.8"/>
			</g>
			<path class="st4" d="M272.2,177.2c0,0-3.1,29.4,22,32c0,0,21.1,2.8,25.7-7.2l-0.4-20.4L272.2,177.2z"/>
			<path class="st4" d="M342,183.6l1.4,17.5c0.2,2.5,1.4,4.9,3.4,6.4c2.2,1.7,5.9,3.1,11.9,2.9c0,0,5.1,0,8.3-0.9
				c1.5-0.4,2.5-1.9,2.4-3.4l-1.1-20L342,183.6z"/>
		</g>
	</g>
	<g class="st21">
		<path class="st5" d="M149.6,359h5.3c2.4,0,4.2,0.3,5.3,1s1.6,1.8,1.6,3.3c0,1-0.2,1.9-0.7,2.5s-1.1,1.1-1.9,1.2v0.1
			c1.1,0.2,1.9,0.7,2.3,1.4s0.7,1.5,0.7,2.6c0,1.6-0.6,2.8-1.7,3.7s-2.7,1.3-4.6,1.3h-6.4V359z M153.2,365.8h2.1
			c1,0,1.7-0.2,2.1-0.5s0.7-0.8,0.7-1.5c0-0.7-0.2-1.1-0.7-1.4s-1.2-0.4-2.3-0.4h-1.9V365.8z M153.2,368.6v4.5h2.4
			c1,0,1.7-0.2,2.2-0.6s0.7-1,0.7-1.8c0-1.4-1-2.1-3-2.1H153.2z"/>
		<path class="st5" d="M171.3,376.3c-2.1,0-3.8-0.6-4.9-1.7s-1.8-2.8-1.8-4.9c0-2.2,0.5-3.9,1.6-5.1s2.6-1.8,4.6-1.8
			c1.9,0,3.3,0.5,4.3,1.6s1.5,2.5,1.5,4.4v1.7h-8.4c0,1,0.3,1.8,0.9,2.4s1.4,0.9,2.4,0.9c0.8,0,1.5-0.1,2.2-0.2s1.4-0.4,2.2-0.8v2.8
			c-0.6,0.3-1.3,0.5-2,0.7S172.4,376.3,171.3,376.3z M170.8,365.3c-0.8,0-1.4,0.2-1.8,0.7s-0.7,1.2-0.7,2h5c0-0.9-0.2-1.6-0.7-2
			S171.6,365.3,170.8,365.3z"/>
		<path class="st5" d="M185.7,359.6c0-1.2,0.6-1.7,1.9-1.7s1.9,0.6,1.9,1.7c0,0.6-0.2,1-0.5,1.3s-0.8,0.5-1.5,0.5
			C186.3,361.4,185.7,360.8,185.7,359.6z M189.4,376.1h-3.6V363h3.6V376.1z"/>
		<path class="st5" d="M205.2,376.1h-3.6v-7.7c0-0.9-0.2-1.7-0.5-2.1s-0.9-0.7-1.6-0.7c-1,0-1.7,0.3-2.2,1s-0.7,1.8-0.7,3.3v6.2
			h-3.6V363h2.7l0.5,1.7h0.2c0.4-0.6,0.9-1.1,1.6-1.4s1.5-0.5,2.4-0.5c1.5,0,2.7,0.4,3.5,1.2s1.2,2,1.2,3.6V376.1z"/>
		<path class="st5" d="M214.2,376.3c-4.1,0-6.1-2.2-6.1-6.7c0-2.2,0.6-3.9,1.7-5.1s2.7-1.8,4.8-1.8c1.5,0,2.9,0.3,4.1,0.9l-1.1,2.8
			c-0.6-0.2-1.1-0.4-1.6-0.6s-1-0.2-1.5-0.2c-1.9,0-2.8,1.3-2.8,4c0,2.6,0.9,3.8,2.8,3.8c0.7,0,1.3-0.1,1.9-0.3s1.2-0.5,1.8-0.9v3.1
			c-0.6,0.4-1.2,0.6-1.8,0.8S215.1,376.3,214.2,376.3z"/>
		<path class="st5" d="M224.8,376.1h-3.6v-18.2h3.6V376.1z"/>
		<path class="st5" d="M237.9,376.1l-0.5-1.7h-0.2c-0.4,0.6-0.9,1.1-1.6,1.4s-1.5,0.5-2.4,0.5c-1.5,0-2.7-0.4-3.5-1.2
			s-1.2-2-1.2-3.6V363h3.6v7.7c0,0.9,0.2,1.7,0.5,2.1s0.9,0.7,1.6,0.7c1,0,1.7-0.3,2.2-1s0.7-1.8,0.7-3.3V363h3.6v13.1H237.9z"/>
		<path class="st5" d="M253.5,372.2c0,1.3-0.5,2.4-1.4,3.1s-2.3,1.1-4.2,1.1c-1,0-1.8-0.1-2.4-0.2s-1.3-0.3-1.9-0.6v-3
			c0.7,0.3,1.4,0.6,2.2,0.8s1.6,0.3,2.2,0.3c1.3,0,1.9-0.4,1.9-1.1c0-0.3-0.1-0.5-0.3-0.7s-0.5-0.4-0.9-0.6s-1-0.5-1.7-0.8
			c-1-0.4-1.7-0.8-2.2-1.2s-0.8-0.8-1-1.2s-0.3-1-0.3-1.7c0-1.2,0.5-2.1,1.4-2.7s2.2-1,3.8-1c1.6,0,3.1,0.3,4.6,1l-1.1,2.6
			c-0.7-0.3-1.3-0.5-1.8-0.7s-1.2-0.3-1.7-0.3c-1.1,0-1.6,0.3-1.6,0.9c0,0.3,0.2,0.6,0.5,0.8s1.1,0.6,2.2,1c1,0.4,1.8,0.8,2.2,1.2
			s0.8,0.8,1.1,1.2S253.5,371.6,253.5,372.2z"/>
		<path class="st5" d="M256.1,359.6c0-1.2,0.6-1.7,1.9-1.7s1.9,0.6,1.9,1.7c0,0.6-0.2,1-0.5,1.3s-0.8,0.5-1.5,0.5
			C256.8,361.4,256.1,360.8,256.1,359.6z M259.9,376.1h-3.6V363h3.6V376.1z"/>
		<path class="st5" d="M266.7,376.1l-5-13.1h3.7l2.5,7.5c0.3,0.9,0.5,1.8,0.5,2.7h0.1c0-0.8,0.2-1.6,0.5-2.7l2.5-7.5h3.7l-5,13.1
			H266.7z"/>
		<path class="st5" d="M283.2,376.3c-2.1,0-3.8-0.6-4.9-1.7s-1.8-2.8-1.8-4.9c0-2.2,0.5-3.9,1.6-5.1s2.6-1.8,4.6-1.8
			c1.9,0,3.3,0.5,4.3,1.6s1.5,2.5,1.5,4.4v1.7h-8.4c0,1,0.3,1.8,0.9,2.4s1.4,0.9,2.4,0.9c0.8,0,1.5-0.1,2.2-0.2s1.4-0.4,2.2-0.8v2.8
			c-0.6,0.3-1.3,0.5-2,0.7S284.2,376.3,283.2,376.3z M282.7,365.3c-0.8,0-1.4,0.2-1.8,0.7s-0.7,1.2-0.7,2h5c0-0.9-0.2-1.6-0.7-2
			S283.5,365.3,282.7,365.3z"/>
		<path class="st5" d="M306,376.1l-0.7-1.8h-0.1c-0.6,0.8-1.2,1.3-1.9,1.6s-1.5,0.4-2.5,0.4c-1.3,0-2.2-0.4-3-1.1s-1.1-1.7-1.1-3.1
			c0-1.4,0.5-2.4,1.5-3.1s2.4-1,4.4-1.1l2.3-0.1v-0.6c0-1.3-0.7-2-2-2c-1,0-2.3,0.3-3.7,0.9l-1.2-2.4c1.5-0.8,3.2-1.2,5-1.2
			c1.8,0,3.1,0.4,4,1.1s1.4,1.9,1.4,3.5v8.7H306z M304.9,370l-1.4,0c-1,0-1.8,0.2-2.3,0.6s-0.8,0.9-0.8,1.6c0,1,0.6,1.5,1.7,1.5
			c0.8,0,1.5-0.2,2-0.7s0.7-1.1,0.7-1.9V370z"/>
		<path class="st5" d="M324.3,376.1h-3.6v-7.7c0-0.9-0.2-1.7-0.5-2.1s-0.9-0.7-1.6-0.7c-1,0-1.7,0.3-2.2,1s-0.7,1.8-0.7,3.3v6.2
			h-3.6V363h2.7l0.5,1.7h0.2c0.4-0.6,0.9-1.1,1.6-1.4s1.5-0.5,2.4-0.5c1.5,0,2.7,0.4,3.5,1.2s1.2,2,1.2,3.6V376.1z"/>
		<path class="st5" d="M332.1,376.3c-1.5,0-2.7-0.6-3.6-1.8s-1.3-2.9-1.3-5c0-2.1,0.4-3.8,1.3-5s2.1-1.8,3.7-1.8
			c1.6,0,2.9,0.6,3.8,1.9h0.1c-0.2-1-0.3-1.8-0.3-2.6v-4.2h3.6v18.2h-2.7l-0.7-1.7h-0.2C335,375.7,333.8,376.3,332.1,376.3z
			 M333.4,373.5c0.9,0,1.6-0.3,2-0.8s0.7-1.4,0.7-2.7v-0.4c0-1.4-0.2-2.4-0.7-3s-1.1-0.9-2.1-0.9c-0.8,0-1.4,0.3-1.9,1
			s-0.7,1.7-0.7,2.9s0.2,2.3,0.7,2.9S332.5,373.5,333.4,373.5z"/>
		<path class="st5" d="M349.2,359.6c0-1.2,0.6-1.7,1.9-1.7s1.9,0.6,1.9,1.7c0,0.6-0.2,1-0.5,1.3s-0.8,0.5-1.5,0.5
			C349.9,361.4,349.2,360.8,349.2,359.6z M352.9,376.1h-3.6V363h3.6V376.1z"/>
		<path class="st5" d="M368.8,376.1h-3.6v-7.7c0-0.9-0.2-1.7-0.5-2.1s-0.9-0.7-1.6-0.7c-1,0-1.7,0.3-2.2,1s-0.7,1.8-0.7,3.3v6.2
			h-3.6V363h2.7l0.5,1.7h0.2c0.4-0.6,0.9-1.1,1.6-1.4s1.5-0.5,2.4-0.5c1.5,0,2.7,0.4,3.5,1.2s1.2,2,1.2,3.6V376.1z"/>
		<path class="st5" d="M375.6,376.1l-5-13.1h3.7l2.5,7.5c0.3,0.9,0.5,1.8,0.5,2.7h0.1c0-0.8,0.2-1.6,0.5-2.7l2.5-7.5h3.7l-5,13.1
			H375.6z"/>
		<path class="st5" d="M386,359.6c0-1.2,0.6-1.7,1.9-1.7s1.9,0.6,1.9,1.7c0,0.6-0.2,1-0.5,1.3s-0.8,0.5-1.5,0.5
			C386.6,361.4,386,360.8,386,359.6z M389.7,376.1h-3.6V363h3.6V376.1z"/>
		<path class="st5" d="M399,373.5c0.6,0,1.4-0.1,2.2-0.4v2.7c-0.9,0.4-2,0.6-3.3,0.6c-1.4,0-2.5-0.4-3.1-1.1s-1-1.8-1-3.3v-6.3h-1.7
			v-1.5l2-1.2l1-2.8h2.3v2.8h3.7v2.7h-3.7v6.3c0,0.5,0.1,0.9,0.4,1.1S398.5,373.5,399,373.5z"/>
		<path class="st5" d="M409.8,376.3c-2.1,0-3.8-0.6-4.9-1.7s-1.8-2.8-1.8-4.9c0-2.2,0.5-3.9,1.6-5.1s2.6-1.8,4.6-1.8
			c1.9,0,3.3,0.5,4.3,1.6s1.5,2.5,1.5,4.4v1.7h-8.4c0,1,0.3,1.8,0.9,2.4s1.4,0.9,2.4,0.9c0.8,0,1.5-0.1,2.2-0.2s1.4-0.4,2.2-0.8v2.8
			c-0.6,0.3-1.3,0.5-2,0.7S410.8,376.3,409.8,376.3z M409.3,365.3c-0.8,0-1.4,0.2-1.8,0.7s-0.7,1.2-0.7,2h5c0-0.9-0.2-1.6-0.7-2
			S410.1,365.3,409.3,365.3z"/>
	</g>
	<g class="st21">
		<path class="st5" d="M98.2,413.2v-17.1h3.6v14.1h6.9v3H98.2z"/>
		<path class="st5" d="M118.2,403.6h6.8v8.9c-1.1,0.4-2.1,0.6-3.1,0.8s-2,0.2-3,0.2c-2.6,0-4.6-0.8-5.9-2.3s-2-3.7-2-6.5
			c0-2.8,0.8-4.9,2.4-6.5s3.8-2.3,6.6-2.3c1.8,0,3.5,0.4,5.1,1.1l-1.2,2.9c-1.2-0.6-2.6-0.9-3.9-0.9c-1.6,0-2.8,0.5-3.8,1.6
			s-1.4,2.5-1.4,4.3c0,1.9,0.4,3.3,1.1,4.3s1.9,1.5,3.3,1.5c0.8,0,1.5-0.1,2.3-0.2v-3.6h-3.2V403.6z"/>
		<path class="st5" d="M129.1,396.1h5.3c2.4,0,4.2,0.3,5.3,1s1.6,1.8,1.6,3.3c0,1-0.2,1.9-0.7,2.5s-1.1,1.1-1.9,1.2v0.1
			c1.1,0.2,1.9,0.7,2.3,1.4s0.7,1.5,0.7,2.6c0,1.6-0.6,2.8-1.7,3.7s-2.7,1.3-4.6,1.3h-6.4V396.1z M132.7,402.9h2.1
			c1,0,1.7-0.2,2.1-0.5s0.7-0.8,0.7-1.5c0-0.7-0.2-1.1-0.7-1.4s-1.2-0.4-2.3-0.4h-1.9V402.9z M132.7,405.7v4.5h2.4
			c1,0,1.7-0.2,2.2-0.6s0.7-1,0.7-1.8c0-1.4-1-2.1-3-2.1H132.7z"/>
		<path class="st5" d="M151.8,413.2h-3.6v-14.1h-4.7v-3h12.9v3h-4.7V413.2z"/>
		<path class="st5" d="M174.7,404.6c0,2-0.4,3.7-1.1,5.1s-1.8,2.4-3.1,3l4.1,4.6h-4.7l-3.1-3.8h-0.3c-2.6,0-4.6-0.8-6-2.3
			s-2.1-3.7-2.1-6.6s0.7-5,2.1-6.5s3.4-2.3,6.1-2.3s4.6,0.8,6,2.3S174.7,401.8,174.7,404.6z M162.2,404.6c0,1.9,0.4,3.4,1.1,4.3
			s1.8,1.5,3.3,1.5c2.9,0,4.3-1.9,4.3-5.8c0-3.9-1.4-5.8-4.3-5.8c-1.4,0-2.5,0.5-3.3,1.5S162.2,402.7,162.2,404.6z"/>
		<path class="st5" d="M178.2,413.2v-17.1h3.6v17.1H178.2z"/>
		<path class="st5" d="M196.7,413.2l-1.2-4.1h-6.2l-1.2,4.1H184l6-17.2h4.4l6.1,17.2H196.7z M194.6,406.1c-1.1-3.7-1.8-5.8-1.9-6.3
			s-0.2-0.9-0.3-1.1c-0.3,1-1,3.5-2.2,7.4H194.6z"/>
		<path class="st5" d="M213.2,413.2l-1.2-4.1h-6.2l-1.2,4.1h-3.9l6-17.2h4.4l6.1,17.2H213.2z M211.1,406.1c-1.1-3.7-1.8-5.8-1.9-6.3
			s-0.2-0.9-0.3-1.1c-0.3,1-1,3.5-2.2,7.4H211.1z"/>
		<path class="st5" d="M231.1,401.4c0,1.8-0.6,3.3-1.7,4.2s-2.8,1.5-4.9,1.5h-1.6v6.1h-3.6v-17.1h5.5c2.1,0,3.7,0.4,4.7,1.3
			S231.1,399.7,231.1,401.4z M222.9,404.1h1.2c1.1,0,2-0.2,2.5-0.7s0.8-1.1,0.8-1.9c0-0.9-0.2-1.5-0.7-1.9s-1.2-0.6-2.2-0.6h-1.7
			V404.1z"/>
		<path class="st5" d="M247.6,402.8h-3.1v10.4h-3.6v-10.4h-2v-1.7l2-1v-1c0-1.5,0.4-2.6,1.1-3.3s1.9-1,3.5-1c1.2,0,2.3,0.2,3.3,0.6
			l-0.9,2.6c-0.7-0.2-1.4-0.3-2-0.3c-0.5,0-0.9,0.2-1.1,0.5s-0.3,0.7-0.3,1.2v0.8h3.1V402.8z"/>
		<path class="st5" d="M256.9,399.9c0.5,0,0.9,0,1.2,0.1l-0.3,3.4c-0.3-0.1-0.6-0.1-1.1-0.1c-1.1,0-2,0.3-2.7,0.9s-1,1.4-1,2.5v6.7
			h-3.6v-13.1h2.7l0.5,2.2h0.2c0.4-0.7,1-1.3,1.6-1.8S256.1,399.9,256.9,399.9z"/>
		<path class="st5" d="M260.4,396.7c0-1.2,0.6-1.7,1.9-1.7s1.9,0.6,1.9,1.7c0,0.6-0.2,1-0.5,1.3s-0.8,0.5-1.5,0.5
			C261,398.5,260.4,397.9,260.4,396.7z M264.1,413.2h-3.6v-13.1h3.6V413.2z"/>
		<path class="st5" d="M273.8,413.4c-2.1,0-3.8-0.6-4.9-1.7s-1.8-2.8-1.8-4.9c0-2.2,0.5-3.9,1.6-5.1s2.6-1.8,4.6-1.8
			c1.9,0,3.3,0.5,4.3,1.6s1.5,2.5,1.5,4.4v1.7h-8.4c0,1,0.3,1.8,0.9,2.4s1.4,0.9,2.4,0.9c0.8,0,1.5-0.1,2.2-0.2s1.4-0.4,2.2-0.8v2.8
			c-0.6,0.3-1.3,0.5-2,0.7S274.8,413.4,273.8,413.4z M273.3,402.4c-0.8,0-1.4,0.2-1.8,0.7s-0.7,1.2-0.7,2h5c0-0.9-0.2-1.6-0.7-2
			S274,402.4,273.3,402.4z"/>
		<path class="st5" d="M294.1,413.2h-3.6v-7.7c0-0.9-0.2-1.7-0.5-2.1s-0.9-0.7-1.6-0.7c-1,0-1.7,0.3-2.2,1s-0.7,1.8-0.7,3.3v6.2H282
			v-13.1h2.7l0.5,1.7h0.2c0.4-0.6,0.9-1.1,1.6-1.4s1.5-0.5,2.4-0.5c1.5,0,2.7,0.4,3.5,1.2s1.2,2,1.2,3.6V413.2z"/>
		<path class="st5" d="M301.9,413.4c-1.5,0-2.7-0.6-3.6-1.8s-1.3-2.9-1.3-5c0-2.1,0.4-3.8,1.3-5s2.1-1.8,3.7-1.8
			c1.6,0,2.9,0.6,3.8,1.9h0.1c-0.2-1-0.3-1.8-0.3-2.6V395h3.6v18.2h-2.7l-0.7-1.7h-0.2C304.8,412.8,303.6,413.4,301.9,413.4z
			 M303.2,410.6c0.9,0,1.6-0.3,2-0.8s0.7-1.4,0.7-2.7v-0.4c0-1.4-0.2-2.4-0.7-3s-1.1-0.9-2.1-0.9c-0.8,0-1.4,0.3-1.9,1
			s-0.7,1.7-0.7,2.9s0.2,2.3,0.7,2.9S302.4,410.6,303.2,410.6z"/>
		<path class="st5" d="M322.1,409.3c0,1.3-0.5,2.4-1.4,3.1s-2.3,1.1-4.2,1.1c-1,0-1.8-0.1-2.4-0.2s-1.3-0.3-1.9-0.6v-3
			c0.7,0.3,1.4,0.6,2.2,0.8s1.6,0.3,2.2,0.3c1.3,0,1.9-0.4,1.9-1.1c0-0.3-0.1-0.5-0.3-0.7s-0.5-0.4-0.9-0.6s-1-0.5-1.7-0.8
			c-1-0.4-1.7-0.8-2.2-1.2s-0.8-0.8-1-1.2s-0.3-1-0.3-1.7c0-1.2,0.5-2.1,1.4-2.7s2.2-1,3.8-1c1.6,0,3.1,0.3,4.6,1l-1.1,2.6
			c-0.7-0.3-1.3-0.5-1.8-0.7s-1.2-0.3-1.7-0.3c-1.1,0-1.6,0.3-1.6,0.9c0,0.3,0.2,0.6,0.5,0.8s1.1,0.6,2.2,1c1,0.4,1.8,0.8,2.2,1.2
			s0.8,0.8,1.1,1.2S322.1,408.7,322.1,409.3z"/>
		<path class="st5" d="M336.7,410.6c0.6,0,1.4-0.1,2.2-0.4v2.7c-0.9,0.4-2,0.6-3.3,0.6c-1.4,0-2.5-0.4-3.1-1.1s-1-1.8-1-3.3v-6.3
			h-1.7v-1.5l2-1.2l1-2.8h2.3v2.8h3.7v2.7h-3.7v6.3c0,0.5,0.1,0.9,0.4,1.1S336.2,410.6,336.7,410.6z"/>
		<path class="st5" d="M353.5,406.6c0,2.1-0.6,3.8-1.7,5s-2.7,1.8-4.7,1.8c-1.3,0-2.4-0.3-3.3-0.8s-1.7-1.3-2.2-2.4
			s-0.8-2.2-0.8-3.6c0-2.1,0.6-3.8,1.7-5s2.7-1.8,4.7-1.8c1.3,0,2.4,0.3,3.3,0.8s1.7,1.3,2.2,2.4S353.5,405.3,353.5,406.6z
			 M344.4,406.6c0,1.3,0.2,2.3,0.6,2.9s1.1,1,2.1,1c1,0,1.6-0.3,2.1-1s0.6-1.6,0.6-2.9c0-1.3-0.2-2.3-0.6-2.9s-1.1-1-2.1-1
			c-1,0-1.6,0.3-2.1,1S344.4,405.3,344.4,406.6z"/>
		<path class="st5" d="M374.7,413.2h-3.6v-7.7c0-1.9-0.7-2.8-2.1-2.8c-1,0-1.7,0.3-2.2,1s-0.7,1.8-0.7,3.3v6.2h-3.6V395h3.6v3.7
			c0,0.3,0,1-0.1,2l-0.1,1.1h0.2c0.8-1.3,2.1-1.9,3.8-1.9c1.5,0,2.7,0.4,3.5,1.2s1.2,2,1.2,3.6V413.2z"/>
		<path class="st5" d="M386.7,413.2l-0.7-1.8H386c-0.6,0.8-1.2,1.3-1.9,1.6s-1.5,0.4-2.5,0.4c-1.3,0-2.2-0.4-3-1.1s-1.1-1.7-1.1-3.1
			c0-1.4,0.5-2.4,1.5-3.1s2.4-1,4.4-1.1l2.3-0.1v-0.6c0-1.3-0.7-2-2-2c-1,0-2.3,0.3-3.7,0.9l-1.2-2.4c1.5-0.8,3.2-1.2,5-1.2
			c1.8,0,3.1,0.4,4,1.1s1.4,1.9,1.4,3.5v8.7H386.7z M385.7,407.1l-1.4,0c-1,0-1.8,0.2-2.3,0.6s-0.8,0.9-0.8,1.6c0,1,0.6,1.5,1.7,1.5
			c0.8,0,1.5-0.2,2-0.7s0.7-1.1,0.7-1.9V407.1z"/>
		<path class="st5" d="M405,413.2h-3.6v-7.7c0-0.9-0.2-1.7-0.5-2.1s-0.9-0.7-1.6-0.7c-1,0-1.7,0.3-2.2,1s-0.7,1.8-0.7,3.3v6.2h-3.6
			v-13.1h2.7l0.5,1.7h0.2c0.4-0.6,0.9-1.1,1.6-1.4s1.5-0.5,2.4-0.5c1.5,0,2.7,0.4,3.5,1.2s1.2,2,1.2,3.6V413.2z"/>
		<path class="st5" d="M420.1,400.1v1.8l-2.1,0.5c0.4,0.6,0.6,1.2,0.6,2c0,1.4-0.5,2.5-1.5,3.3s-2.3,1.2-4.1,1.2l-0.6,0l-0.5-0.1
			c-0.4,0.3-0.6,0.6-0.6,0.9c0,0.5,0.7,0.8,2,0.8h2.2c1.4,0,2.5,0.3,3.3,0.9s1.1,1.5,1.1,2.7c0,1.5-0.6,2.7-1.9,3.6
			s-3.1,1.3-5.5,1.3c-1.8,0-3.2-0.3-4.2-1s-1.4-1.5-1.4-2.7c0-0.8,0.2-1.4,0.7-2s1.2-0.9,2.2-1.1c-0.4-0.2-0.7-0.4-1-0.8
			s-0.4-0.7-0.4-1.1c0-0.5,0.1-0.9,0.4-1.2s0.7-0.7,1.3-1c-0.7-0.3-1.2-0.8-1.6-1.4s-0.6-1.4-0.6-2.3c0-1.4,0.5-2.5,1.4-3.3
			s2.3-1.2,4-1.2c0.4,0,0.8,0,1.3,0.1s0.8,0.1,1,0.1H420.1z M410,415.1c0,0.5,0.2,0.9,0.7,1.2s1.1,0.4,2,0.4c1.3,0,2.3-0.2,3-0.5
			s1.1-0.8,1.1-1.4c0-0.5-0.2-0.8-0.6-1s-1.1-0.3-2-0.3h-1.9c-0.7,0-1.2,0.2-1.6,0.5S410,414.6,410,415.1z M411.3,404.4
			c0,0.7,0.2,1.3,0.5,1.7s0.8,0.6,1.5,0.6c0.7,0,1.2-0.2,1.5-0.6s0.5-1,0.5-1.7c0-1.6-0.6-2.4-1.9-2.4
			C411.9,402,411.3,402.8,411.3,404.4z"/>
		<path class="st5" d="M440.4,406.6c0,2.1-0.6,3.8-1.7,5s-2.7,1.8-4.7,1.8c-1.3,0-2.4-0.3-3.3-0.8s-1.7-1.3-2.2-2.4
			s-0.8-2.2-0.8-3.6c0-2.1,0.6-3.8,1.7-5s2.7-1.8,4.7-1.8c1.3,0,2.4,0.3,3.3,0.8s1.7,1.3,2.2,2.4S440.4,405.3,440.4,406.6z
			 M431.3,406.6c0,1.3,0.2,2.3,0.6,2.9s1.1,1,2.1,1c1,0,1.6-0.3,2.1-1s0.6-1.6,0.6-2.9c0-1.3-0.2-2.3-0.6-2.9s-1.1-1-2.1-1
			c-1,0-1.6,0.3-2.1,1S431.3,405.3,431.3,406.6z"/>
		<path class="st5" d="M452.6,413.2l-0.5-1.7H452c-0.4,0.6-0.9,1.1-1.6,1.4s-1.5,0.5-2.4,0.5c-1.5,0-2.7-0.4-3.5-1.2s-1.2-2-1.2-3.6
			v-8.5h3.6v7.7c0,0.9,0.2,1.7,0.5,2.1s0.9,0.7,1.6,0.7c1,0,1.7-0.3,2.2-1s0.7-1.8,0.7-3.3v-6.2h3.6v13.1H452.6z"/>
		<path class="st5" d="M464.6,410.6c0.6,0,1.4-0.1,2.2-0.4v2.7c-0.9,0.4-2,0.6-3.3,0.6c-1.4,0-2.5-0.4-3.1-1.1s-1-1.8-1-3.3v-6.3
			h-1.7v-1.5l2-1.2l1-2.8h2.3v2.8h3.7v2.7h-3.7v6.3c0,0.5,0.1,0.9,0.4,1.1S464.2,410.6,464.6,410.6z"/>
	</g>
	<g class="st21">
		<path class="st5" d="M165.5,450.3l-1-4.6l-1.4-5.8H163l-2.4,10.4h-3.8l-3.7-13.1h3.6l1.5,5.8c0.2,1,0.5,2.5,0.7,4.3h0.1
			c0-0.6,0.2-1.5,0.4-2.8l0.2-1l1.6-6.3h3.9l1.5,6.3c0,0.2,0.1,0.4,0.1,0.8s0.1,0.7,0.2,1.1s0.1,0.8,0.2,1.1s0.1,0.7,0.1,0.9h0.1
			c0.1-0.6,0.2-1.3,0.4-2.3s0.3-1.6,0.4-2l1.6-5.8h3.5l-3.8,13.1H165.5z"/>
		<path class="st5" d="M175.1,433.8c0-1.2,0.6-1.7,1.9-1.7s1.9,0.6,1.9,1.7c0,0.6-0.2,1-0.5,1.3s-0.8,0.5-1.5,0.5
			C175.7,435.6,175.1,435,175.1,433.8z M178.8,450.3h-3.6v-13.1h3.6V450.3z"/>
		<path class="st5" d="M188.1,447.7c0.6,0,1.4-0.1,2.2-0.4v2.7c-0.9,0.4-2,0.6-3.3,0.6c-1.4,0-2.5-0.4-3.1-1.1s-1-1.8-1-3.3v-6.3
			h-1.7v-1.5l2-1.2l1-2.8h2.3v2.8h3.7v2.7h-3.7v6.3c0,0.5,0.1,0.9,0.4,1.1S187.6,447.7,188.1,447.7z"/>
		<path class="st5" d="M205.1,450.3h-3.6v-7.7c0-1.9-0.7-2.8-2.1-2.8c-1,0-1.7,0.3-2.2,1s-0.7,1.8-0.7,3.3v6.2H193v-18.2h3.6v3.7
			c0,0.3,0,1-0.1,2l-0.1,1.1h0.2c0.8-1.3,2.1-1.9,3.8-1.9c1.5,0,2.7,0.4,3.5,1.2s1.2,2,1.2,3.6V450.3z"/>
		<path class="st5" d="M213.1,437.2h3.9l2.5,7.4c0.2,0.6,0.4,1.4,0.4,2.3h0.1c0.1-0.8,0.3-1.6,0.5-2.3l2.4-7.4h3.8l-5.5,14.8
			c-0.5,1.4-1.2,2.4-2.2,3.1s-2,1-3.3,1c-0.6,0-1.2-0.1-1.8-0.2V453c0.4,0.1,0.9,0.2,1.4,0.2c0.6,0,1.2-0.2,1.7-0.6s0.8-1,1.1-1.8
			l0.2-0.6L213.1,437.2z"/>
		<path class="st5" d="M240.5,443.7c0,2.1-0.6,3.8-1.7,5s-2.7,1.8-4.7,1.8c-1.3,0-2.4-0.3-3.3-0.8s-1.7-1.3-2.2-2.4
			s-0.8-2.2-0.8-3.6c0-2.1,0.6-3.8,1.7-5s2.7-1.8,4.7-1.8c1.3,0,2.4,0.3,3.3,0.8s1.7,1.3,2.2,2.4S240.5,442.4,240.5,443.7z
			 M231.5,443.7c0,1.3,0.2,2.3,0.6,2.9s1.1,1,2.1,1c1,0,1.6-0.3,2.1-1s0.6-1.6,0.6-2.9c0-1.3-0.2-2.3-0.6-2.9s-1.1-1-2.1-1
			c-1,0-1.6,0.3-2.1,1S231.5,442.4,231.5,443.7z"/>
		<path class="st5" d="M252.8,450.3l-0.5-1.7h-0.2c-0.4,0.6-0.9,1.1-1.6,1.4s-1.5,0.5-2.4,0.5c-1.5,0-2.7-0.4-3.5-1.2
			s-1.2-2-1.2-3.6v-8.5h3.6v7.7c0,0.9,0.2,1.7,0.5,2.1s0.9,0.7,1.6,0.7c1,0,1.7-0.3,2.2-1s0.7-1.8,0.7-3.3v-6.2h3.6v13.1H252.8z"/>
		<path class="st5" d="M266.6,437c0.5,0,0.9,0,1.2,0.1l-0.3,3.4c-0.3-0.1-0.6-0.1-1.1-0.1c-1.1,0-2,0.3-2.7,0.9s-1,1.4-1,2.5v6.7
			h-3.6v-13.1h2.7l0.5,2.2h0.2c0.4-0.7,1-1.3,1.6-1.8S265.8,437,266.6,437z"/>
		<path class="st5" d="M283.6,439.9h-3.1v10.4H277v-10.4h-2v-1.7l2-1v-1c0-1.5,0.4-2.6,1.1-3.3s1.9-1,3.5-1c1.2,0,2.3,0.2,3.3,0.6
			l-0.9,2.6c-0.7-0.2-1.4-0.3-2-0.3c-0.5,0-0.9,0.2-1.1,0.5s-0.3,0.7-0.3,1.2v0.8h3.1V439.9z"/>
		<path class="st5" d="M293,437c0.5,0,0.9,0,1.2,0.1l-0.3,3.4c-0.3-0.1-0.6-0.1-1.1-0.1c-1.1,0-2,0.3-2.7,0.9s-1,1.4-1,2.5v6.7h-3.6
			v-13.1h2.7l0.5,2.2h0.2c0.4-0.7,1-1.3,1.6-1.8S292.2,437,293,437z"/>
		<path class="st5" d="M296.4,433.8c0-1.2,0.6-1.7,1.9-1.7s1.9,0.6,1.9,1.7c0,0.6-0.2,1-0.5,1.3s-0.8,0.5-1.5,0.5
			C297.1,435.6,296.4,435,296.4,433.8z M300.2,450.3h-3.6v-13.1h3.6V450.3z"/>
		<path class="st5" d="M309.8,450.5c-2.1,0-3.8-0.6-4.9-1.7s-1.8-2.8-1.8-4.9c0-2.2,0.5-3.9,1.6-5.1s2.6-1.8,4.6-1.8
			c1.9,0,3.3,0.5,4.3,1.6s1.5,2.5,1.5,4.4v1.7h-8.4c0,1,0.3,1.8,0.9,2.4s1.4,0.9,2.4,0.9c0.8,0,1.5-0.1,2.2-0.2s1.4-0.4,2.2-0.8v2.8
			c-0.6,0.3-1.3,0.5-2,0.7S310.9,450.5,309.8,450.5z M309.3,439.5c-0.8,0-1.4,0.2-1.8,0.7s-0.7,1.2-0.7,2h5c0-0.9-0.2-1.6-0.7-2
			S310.1,439.5,309.3,439.5z"/>
		<path class="st5" d="M330.2,450.3h-3.6v-7.7c0-0.9-0.2-1.7-0.5-2.1s-0.9-0.7-1.6-0.7c-1,0-1.7,0.3-2.2,1s-0.7,1.8-0.7,3.3v6.2
			h-3.6v-13.1h2.7l0.5,1.7h0.2c0.4-0.6,0.9-1.1,1.6-1.4s1.5-0.5,2.4-0.5c1.5,0,2.7,0.4,3.5,1.2s1.2,2,1.2,3.6V450.3z"/>
		<path class="st5" d="M338,450.5c-1.5,0-2.7-0.6-3.6-1.8s-1.3-2.9-1.3-5c0-2.1,0.4-3.8,1.3-5s2.1-1.8,3.7-1.8
			c1.6,0,2.9,0.6,3.8,1.9h0.1c-0.2-1-0.3-1.8-0.3-2.6v-4.2h3.6v18.2h-2.7l-0.7-1.7h-0.2C340.9,449.9,339.7,450.5,338,450.5z
			 M339.3,447.7c0.9,0,1.6-0.3,2-0.8s0.7-1.4,0.7-2.7v-0.4c0-1.4-0.2-2.4-0.7-3s-1.1-0.9-2.1-0.9c-0.8,0-1.4,0.3-1.9,1
			s-0.7,1.7-0.7,2.9s0.2,2.3,0.7,2.9S338.4,447.7,339.3,447.7z"/>
		<path class="st5" d="M358.2,446.4c0,1.3-0.5,2.4-1.4,3.1s-2.3,1.1-4.2,1.1c-1,0-1.8-0.1-2.4-0.2s-1.3-0.3-1.9-0.6v-3
			c0.7,0.3,1.4,0.6,2.2,0.8s1.6,0.3,2.2,0.3c1.3,0,1.9-0.4,1.9-1.1c0-0.3-0.1-0.5-0.3-0.7s-0.5-0.4-0.9-0.6s-1-0.5-1.7-0.8
			c-1-0.4-1.7-0.8-2.2-1.2s-0.8-0.8-1-1.2s-0.3-1-0.3-1.7c0-1.2,0.5-2.1,1.4-2.7s2.2-1,3.8-1c1.6,0,3.1,0.3,4.6,1l-1.1,2.6
			c-0.7-0.3-1.3-0.5-1.8-0.7s-1.2-0.3-1.7-0.3c-1.1,0-1.6,0.3-1.6,0.9c0,0.3,0.2,0.6,0.5,0.8s1.1,0.6,2.2,1c1,0.4,1.8,0.8,2.2,1.2
			s0.8,0.8,1.1,1.2S358.2,445.8,358.2,446.4z"/>
		<path class="st5" d="M375.5,450.3l-0.7-1.8h-0.1c-0.6,0.8-1.2,1.3-1.9,1.6s-1.5,0.4-2.5,0.4c-1.3,0-2.2-0.4-3-1.1
			s-1.1-1.7-1.1-3.1c0-1.4,0.5-2.4,1.5-3.1s2.4-1,4.4-1.1l2.3-0.1v-0.6c0-1.3-0.7-2-2-2c-1,0-2.3,0.3-3.7,0.9l-1.2-2.4
			c1.5-0.8,3.2-1.2,5-1.2c1.8,0,3.1,0.4,4,1.1s1.4,1.9,1.4,3.5v8.7H375.5z M374.5,444.2l-1.4,0c-1,0-1.8,0.2-2.3,0.6
			s-0.8,0.9-0.8,1.6c0,1,0.6,1.5,1.7,1.5c0.8,0,1.5-0.2,2-0.7s0.7-1.1,0.7-1.9V444.2z"/>
		<path class="st5" d="M393.8,450.3h-3.6v-7.7c0-0.9-0.2-1.7-0.5-2.1s-0.9-0.7-1.6-0.7c-1,0-1.7,0.3-2.2,1s-0.7,1.8-0.7,3.3v6.2
			h-3.6v-13.1h2.7l0.5,1.7h0.2c0.4-0.6,0.9-1.1,1.6-1.4s1.5-0.5,2.4-0.5c1.5,0,2.7,0.4,3.5,1.2s1.2,2,1.2,3.6V450.3z"/>
		<path class="st5" d="M401.6,450.5c-1.5,0-2.7-0.6-3.6-1.8s-1.3-2.9-1.3-5c0-2.1,0.4-3.8,1.3-5s2.1-1.8,3.7-1.8
			c1.6,0,2.9,0.6,3.8,1.9h0.1c-0.2-1-0.3-1.8-0.3-2.6v-4.2h3.6v18.2h-2.7l-0.7-1.7h-0.2C404.5,449.9,403.3,450.5,401.6,450.5z
			 M402.9,447.7c0.9,0,1.6-0.3,2-0.8s0.7-1.4,0.7-2.7v-0.4c0-1.4-0.2-2.4-0.7-3s-1.1-0.9-2.1-0.9c-0.8,0-1.4,0.3-1.9,1
			s-0.7,1.7-0.7,2.9s0.2,2.3,0.7,2.9S402.1,447.7,402.9,447.7z"/>
	</g>
	<g class="st21">
		<path class="st5" d="M249.6,477h-3.1v10.4H243V477h-2v-1.7l2-1v-1c0-1.5,0.4-2.6,1.1-3.3s1.9-1,3.5-1c1.2,0,2.3,0.2,3.3,0.6
			l-0.9,2.6c-0.7-0.2-1.4-0.3-2-0.3c-0.5,0-0.9,0.2-1.1,0.5s-0.3,0.7-0.3,1.2v0.8h3.1V477z"/>
		<path class="st5" d="M260,487.4l-0.7-1.8h-0.1c-0.6,0.8-1.2,1.3-1.9,1.6s-1.5,0.4-2.5,0.4c-1.3,0-2.2-0.4-3-1.1s-1.1-1.7-1.1-3.1
			c0-1.4,0.5-2.4,1.5-3.1s2.4-1,4.4-1.1l2.3-0.1v-0.6c0-1.3-0.7-2-2-2c-1,0-2.3,0.3-3.7,0.9l-1.2-2.4c1.5-0.8,3.2-1.2,5-1.2
			c1.8,0,3.1,0.4,4,1.1s1.4,1.9,1.4,3.5v8.7H260z M258.9,481.3l-1.4,0c-1,0-1.8,0.2-2.3,0.6s-0.8,0.9-0.8,1.6c0,1,0.6,1.5,1.7,1.5
			c0.8,0,1.5-0.2,2-0.7s0.7-1.1,0.7-1.9V481.3z"/>
		<path class="st5" d="M277.9,487.4h-3.6v-7.7c0-0.9-0.2-1.7-0.5-2.1s-0.8-0.7-1.5-0.7c-0.9,0-1.6,0.3-2,1s-0.6,1.8-0.6,3.3v6.2
			h-3.6v-13.1h2.7l0.5,1.7h0.2c0.4-0.6,0.9-1.1,1.5-1.4s1.4-0.5,2.3-0.5c2,0,3.3,0.6,4,1.9h0.3c0.4-0.6,0.9-1.1,1.6-1.4
			s1.5-0.5,2.3-0.5c1.5,0,2.6,0.4,3.4,1.1s1.1,2,1.1,3.7v8.5h-3.6v-7.7c0-0.9-0.2-1.7-0.5-2.1s-0.8-0.7-1.5-0.7
			c-0.9,0-1.5,0.3-2,0.9s-0.7,1.6-0.7,3V487.4z"/>
		<path class="st5" d="M289.6,470.9c0-1.2,0.6-1.7,1.9-1.7s1.9,0.6,1.9,1.7c0,0.6-0.2,1-0.5,1.3s-0.8,0.5-1.5,0.5
			C290.2,472.7,289.6,472.1,289.6,470.9z M293.3,487.4h-3.6v-13.1h3.6V487.4z"/>
		<path class="st5" d="M300.6,487.4h-3.6v-18.2h3.6V487.4z"/>
		<path class="st5" d="M302.5,474.3h3.9l2.5,7.4c0.2,0.6,0.4,1.4,0.4,2.3h0.1c0.1-0.8,0.3-1.6,0.5-2.3l2.4-7.4h3.8l-5.5,14.8
			c-0.5,1.4-1.2,2.4-2.2,3.1s-2,1-3.3,1c-0.6,0-1.2-0.1-1.8-0.2v-2.8c0.4,0.1,0.9,0.2,1.4,0.2c0.6,0,1.2-0.2,1.7-0.6s0.8-1,1.1-1.8
			l0.2-0.6L302.5,474.3z"/>
		<path class="st5" d="M317.5,485.7c0-0.7,0.2-1.2,0.5-1.5s0.9-0.5,1.5-0.5c0.6,0,1.2,0.2,1.5,0.5s0.5,0.8,0.5,1.5
			c0,0.6-0.2,1.1-0.5,1.5s-0.9,0.5-1.5,0.5c-0.7,0-1.2-0.2-1.5-0.5S317.5,486.4,317.5,485.7z"/>
	</g>
</g>
</svg>
