<?xml version="1.0" encoding="utf-8"?>
<!-- Generator: Adobe Illustrator 22.0.1, SVG Export Plug-In . SVG Version: 6.00 Build 0)  -->
<svg version="1.1" id="Layer_1" xmlns="http://www.w3.org/2000/svg" xmlns:xlink="http://www.w3.org/1999/xlink" x="0px" y="0px"
	 viewBox="0 0 565.8 562.5" style="enable-background:new 0 0 565.8 562.5;" xml:space="preserve">
<style type="text/css">
	.st0{fill:#12DBFF;}
	.st1{fill:#DCA927;}
	.st2{fill:#FDC60B;}
	.st3{fill:#FFFFFF;}
	.st4{fill:#F27121;}
	.st5{fill:#F48242;}
	.st6{fill:#D56027;}
	.st7{fill:#95C94B;}
	.st8{fill:#7A9F3F;}
	.st9{fill:#B2D46D;}
	.st10{fill:#F5B918;}
	.st11{fill:#FFCB4C;}
	.st12{fill:#DDA527;}
	.st13{fill:#EA222C;}
	.st14{fill:#EF4B5C;}
	.st15{fill:#C12129;}
	.st16{fill:#6C65AC;}
	.st17{fill:#49468C;}
	.st18{fill:#7E78B7;}
	.st19{fill:#26BEEF;}
	.st20{fill:#62CBEE;}
	.st21{fill:#B76597;}
	.st22{fill:#873C6B;}
	.st23{fill:#9E4A7B;}
	.st24{fill:#F2B7D3;}
	.st25{fill:#E0539D;}
	.st26{fill:#17ABD2;}
	.st27{enable-background:new    ;}
</style>
<g>
	<circle class="st0" cx="282.9" cy="281.2" r="274.4"/>
	<g>
		<g>
			<g>
				<g>
					<path class="st1" d="M281.2,110.1c-0.6-1.8-1.3-3.9-2.2-6.3c-0.8,1.1-1.6,2.1-2.4,2.9c0.9,2.8,1.5,5.4,2.1,7.6
						C279.5,113.1,280.4,111.7,281.2,110.1z"/>
					<path class="st2" d="M260.7,113.3c-1.9,0-3.6-0.2-5.2-0.5c0.5,3.4,1,6.5,1.4,9.1c3.4,0.8,7.8,1.2,12.2-0.3
						c3.7-1.2,6.8-3.7,9.4-7.2c-0.5-2.2-1.2-4.8-2.1-7.6C271.7,111.8,265.8,113.3,260.7,113.3z"/>
					<path class="st3" d="M250.9,111.7c0.2,3.1,0.5,6,0.8,8.6c0.9,0.4,2.8,1.1,5.2,1.7c-0.4-2.6-0.9-5.7-1.4-9.1
						C253.7,112.5,252.1,112,250.9,111.7z"/>
					<path class="st4" d="M321,105c2.2,0.6,4.3,1.2,6.5,2.1c0.6-0.1,1.2-0.1,1.8-0.2c-20.8-11.2-42.3-6.3-47.8-4.7
						c0.6,1.6,1.1,3.1,1.6,4.5C287.7,104.9,304.5,99.5,321,105z"/>
					<path class="st5" d="M329.2,106.9c0.3,0,0.7-0.1,1-0.1c-22-12.4-43.3-7.7-49.3-6c0.2,0.5,0.3,0.9,0.5,1.4
						C286.9,100.6,308.4,95.6,329.2,106.9z"/>
					<path class="st6" d="M321,105c-16.5-5.5-33.2-0.1-38,1.6c0.2,0.6,0.4,1.2,0.6,1.8C295.3,102.8,308.1,101.6,321,105z"/>
					<path class="st3" d="M252.7,89.3c-1.2-0.3-2.3-0.7-3.1-1.1c0.1,1.3,0.2,2.6,0.2,3.8c0.1,1.5,0.2,3,0.3,4.5
						c0.7,0.3,2,0.8,3.5,1.2c-0.2-1.4-0.3-2.9-0.5-4.4C253,91.9,252.8,90.6,252.7,89.3z"/>
					<path class="st1" d="M273.5,89.9l0.1,0.1c-0.8-2.1-1.7-4.3-2.6-6.5c-0.6,0.8-1.3,1.6-2,2.3c1,2.6,1.9,4.9,2.8,7.2
						C272.4,92,273,91,273.5,89.9z"/>
					<path class="st2" d="M258.2,90c-2,0-3.9-0.3-5.5-0.8c0.1,1.3,0.3,2.7,0.4,4c0.2,1.5,0.3,3,0.5,4.4c3.2,0.9,7.9,1.6,12,0.1
						c2.5-0.9,4.5-2.5,6.1-4.8c-0.8-2.2-1.8-4.6-2.8-7.2c-1.9,1.8-4.1,3.1-6.6,3.7C261,89.9,259.5,90,258.2,90z"/>
					<path class="st7" d="M319.8,127.5c7.3-9.3,12.2-13.8,14.5-15.6c-3.1,0-7.4,0.4-11.7,2.3c-11.4,5.1-20.3,20.5-35.1,35.1
						c-7.6,7.5-13.3,11.7-17.1,13.9c-0.7,0.6-1.3,1.1-1.8,1.6C303,164,309.7,140.4,319.8,127.5z"/>
					<path class="st8" d="M319.8,127.5c-10.1,12.9-16.8,36.5-51.2,37.3c-0.6,0.5-1.2,1-1.7,1.4c5.7,0.9,18.3,1.7,30.7-5.7
						c6.8-4,13-13.5,19.6-23.5c6.2-9.4,12.6-19,19.9-24.8c-0.8-0.1-1.7-0.2-2.8-0.2C332,113.7,327,118.2,319.8,127.5z"/>
					<path class="st9" d="M297.6,133.8c-2.1,2.7-4.1,5.2-6.1,7.5c-9.6,11.1-16.6,17.9-21.2,21.9c3.8-2.2,9.5-6.4,17.1-13.9
						c14.7-14.6,23.7-29.9,35.1-35.1c4.3-1.9,8.6-2.3,11.7-2.3c0.9-0.7,1.3-1,1.3-1s-0.5,0.3-1.3,1c1.1,0,2.1,0.1,2.8,0.2
						c0.7-0.6,1.4-1.1,2.2-1.6C319.5,105.8,307.9,120.7,297.6,133.8z"/>
					<path class="st10" d="M240.5,169.4L240.5,169.4c1.3,0.1,2.5,0,3.7,0c4.8-0.5,13.1-2.4,21.4-9.1c12.9-10.3,23.6-26.6,30.2-34.1
						c5.9-6.7,16.7-16.8,26.3-17.9c-5-0.7-21.9-2.4-36.9,5.4c1.1,5.1,0.4,10.2-2.1,14.2c-2.6,4.1-6.7,6.8-11.9,7.9
						c-1.6,0.3-3.1,0.5-4.7,0.5l0,0c-1.5,0-2.8-0.1-4.1-0.4c-1.4,1.7-4.2,5.5-5.7,11.1C254.9,154.3,247.5,166.8,240.5,169.4z"/>
					<path class="st11" d="M322.1,108.3h0.1c-13.2-4-25.8-3-37.7,2.9c0.2,0.7,0.4,1.4,0.5,1.9c0.1,0.2,0.1,0.5,0.1,0.7
						C300.2,105.9,317.1,107.6,322.1,108.3z"/>
					<path class="st3" d="M322.2,108.4C322.3,108.4,322.3,108.4,322.2,108.4C322.3,108.3,322.2,108.3,322.2,108.4
						c-0.1,0-0.1,0-0.2,0C322.1,108.3,322.2,108.4,322.2,108.4z"/>
					<path class="st12" d="M295.8,126.2c-6.6,7.5-17.4,23.8-30.2,34.1c-8.4,6.7-16.7,8.6-21.4,9.1c13.6-0.3,18.3-3.6,18.3-3.6
						l0.6-0.4l0,0c2.1-1.5,11-8.2,26.3-25.9c2-2.3,3.9-4.8,6-7.4c7.1-9.1,15.4-19.7,26.9-23.7c-0.1,0-0.1,0-0.2,0
						C312.5,109.4,301.7,119.5,295.8,126.2z"/>
					<path class="st11" d="M254.2,144.9c-3.8,12.2-10.2,20.6-13.7,24.5c6.9-2.6,14.4-15.1,16.2-22.2c1.5-5.7,4.2-9.4,5.7-11.1
						c-1.3-0.3-2.5-0.6-3.6-1C256.7,138.5,255.1,141.9,254.2,144.9z"/>
					<path class="st2" d="M251.7,79.1c0.2,2.3,0.4,4.6,0.7,7.1c2.5,0.8,5.9,1.4,9.3,0.5c2.3-0.6,4.4-1.9,6.1-3.9
						c-0.6-1.5-1.2-3.1-1.9-4.8c-0.2-0.5-0.4-0.9-0.6-1.4c-2.6,2.2-5.8,3-8.9,3C254.8,79.7,253.2,79.4,251.7,79.1z"/>
					<path class="st1" d="M267.8,82.8c0.7-0.8,1.3-1.6,1.9-2.5c-0.8-1.9-1.6-3.9-2.4-5.7c-0.6,0.8-1.3,1.5-2,2.1
						c0.2,0.5,0.4,0.9,0.6,1.4C266.6,79.7,267.2,81.3,267.8,82.8z"/>
					<path class="st3" d="M249,78.3c0.1,2.3,0.3,4.5,0.4,6.7c0.6,0.3,1.7,0.8,3,1.2c-0.2-2.5-0.5-4.8-0.7-7.1
						C250.7,78.9,249.8,78.6,249,78.3z"/>
					<path class="st13" d="M330.6,103.7c1.8,1,3.6,2.1,5.5,3.3c1.2,0.2,2.5,0.4,3.7,0.7c-23.6-23.2-56.8-21.1-64.1-20.3
						c1.1,2.9,2.2,5.7,3.3,8.4C284.6,94.3,306.6,89.6,330.6,103.7z"/>
					<path class="st14" d="M339.8,107.7c0.9,0.2,1.9,0.5,2.9,0.8c0.2-0.1,0.4-0.2,0.6-0.3c-13.4-13.9-38-27-68.8-23.9
						c0.4,1.1,0.8,2.1,1.3,3.2C283,86.6,316.3,84.5,339.8,107.7z"/>
					<path class="st15" d="M279,95.8c0.3,0.8,0.6,1.5,0.9,2.3c6.1-1.8,28-6.6,50.8,5.7C306.6,89.6,284.6,94.3,279,95.8z"/>
					<path class="st3" d="M252.3,123.5c0.5,2.4,1.1,4.3,1.9,5.4c0.3,0.3,2,1.8,4.6,3c-0.3-1.4-0.8-3.8-1.3-6.9
						C255.4,124.6,253.6,124,252.3,123.5z"/>
					<path class="st2" d="M270.1,124.3c-2.5,0.8-5,1.2-7.3,1.2c-1.9,0-3.6-0.2-5.2-0.5c0.6,3.2,1,5.5,1.3,6.9c2,0.9,4.6,1.7,7.7,1.7
						l0,0c1.3,0,2.7-0.1,4.1-0.4c3.8-0.8,6.9-2.6,9-5.2c0.3-2.8,0.3-5.9-0.3-9.8C276.7,121,273.6,123.1,270.1,124.3z"/>
					<path class="st1" d="M279.6,127.9c0.4-0.4,0.7-0.9,1-1.4c2.2-3.5,2.8-8,1.7-12.5c-0.9,1.5-1.9,2.9-3,4.1
						C279.9,122,280,125.1,279.6,127.9z"/>
					<path class="st3" d="M248.4,65c0.4,0.2,1.2,0.4,2.2,0.7c-0.2-2.6-0.3-5.1-0.4-7.2c-0.6-0.1-1.2-0.2-1.8-0.4c0,1.2-0.1,2.5,0,4
						C248.4,63.1,248.4,64.1,248.4,65z"/>
					<path class="st1" d="M262,62.2c-0.7-1.6-1.4-2.9-1.9-3.9s-1-1.9-1.5-2.7c-0.6,0.7-1.3,1.2-2,1.6c1,2,2.2,4.4,3.5,7.3
						C260.8,63.9,261.4,63.1,262,62.2z"/>
					<path class="st2" d="M260.1,64.5c-1.3-2.9-2.5-5.3-3.5-7.3c-1.7,1.1-3.4,1.5-5.1,1.5c-0.5,0-0.9,0-1.4-0.1
						c0.1,2.1,0.2,4.6,0.4,7.2C253.2,66.4,257.3,66.9,260.1,64.5z"/>
					<path class="st1" d="M277.7,100.5c-0.9-2.3-1.8-4.7-2.8-7.2c-0.6,1-1.3,2-2,2.8c1,2.7,1.8,5.2,2.6,7.5
						C276.3,102.7,277,101.7,277.7,100.5z"/>
					<path class="st3" d="M250.2,99.6c0,0.3,0,0.6,0.1,1c0.1,2.7,0.3,5.4,0.4,8c0.9,0.3,2.4,0.9,4.4,1.3c-0.4-2.8-0.8-5.8-1.2-9.1
						C252.5,100.4,251.2,100,250.2,99.6z"/>
					<path class="st2" d="M266.6,100.5c-2.1,0.8-4.3,1.1-6.4,1.1c-2.3,0-4.4-0.3-6.3-0.8c0.4,3.3,0.8,6.3,1.2,9.1
						c5.5,1.2,14.1,1.4,20.4-6.2c-0.7-2.3-1.6-4.8-2.6-7.5C271.2,98.1,269,99.6,266.6,100.5z"/>
					<path class="st16" d="M373.4,250.6c2.3-18.7,4.5-35.5,1.9-54.6c-2.5-18-11-42.1-17.3-51c-0.6,1.7-1.2,3.3-1.9,4.9
						c2.8,5.9,11.8,26.3,13.8,49.3c2.3,27.3-2.3,38.2-4.8,52.3c-2.1,12-4.5,34.2-0.5,48.2c-1.2-7.3-1.2-18,3.6-31.7l0.4-1.2l1.2,0.2
						c0.2,0,1.2,0.3,2.9,0.9C372.3,265.7,372.1,260.9,373.4,250.6z"/>
					<path class="st17" d="M365.1,251.5c2.5-14.1,7.1-25,4.8-52.3c-1.9-22.9-10.9-43.3-13.8-49.3c-0.3,0.8-0.6,1.6-0.9,2.3
						c1.7,3.7,11.1,25.9,12.9,48.5c1.3,16.4-1,27.8-3.2,38.9c-1.2,5.8-2.4,11.8-3,18.4c-1.5,15.3-2.3,29.9,2.8,41.8
						c0-0.1,0-0.1,0-0.2C360.6,285.8,363,263.6,365.1,251.5z"/>
					<path class="st18" d="M378.3,193.5c-4.6-28.3-15.2-45.7-19.2-51.6c-0.3,1-0.7,2.1-1.1,3.1c6.3,8.9,14.8,33,17.3,51
						c2.6,19,0.5,35.9-1.9,54.6c-1.3,10.4-1.2,15.1-0.8,17.3c1,0.4,2.2,0.9,3.6,1.6c-1.2-5.9-0.2-14.2,1.1-24.3
						C379.2,230.8,381.4,212.8,378.3,193.5z"/>
					<path class="st19" d="M355.9,229.7c-3.5,21.4-8.1,49.5,4.9,69.2c-4.9-11.3-5.5-26.3-4.7-39.2c1-16.6,7.8-30.8,6.7-55.2
						c-0.9-20.4-8.2-39.8-10.6-45.6c-1.3,2.8-2.4,5.1-3.3,6.7c1.9,4.4,12.1,29.1,8.6,53.9C357.1,222.7,356.5,226.1,355.9,229.7z"/>
					<path class="st20" d="M356.1,259.7c-0.8,12.9-0.2,28,4.7,39.2c0.2,0.3,0.4,0.7,0.7,1c-4.8-12.2-4-26.9-2.5-42.1
						c0.7-6.8,1.9-12.8,3.1-18.7c2.2-10.9,4.4-22.1,3.2-38.1c-1.5-19.2-8.6-38-11.6-45.1c-0.5,1-0.9,2-1.3,3
						c2.4,5.8,9.7,25.2,10.6,45.6C363.9,228.9,357.1,243,356.1,259.7z"/>
					<path class="st21" d="M387.9,247.8c-1.4,17.7-0.8,26.4-0.2,30.4c1.2,1.3,2.3,2.6,3.4,4.2c-1.8-11.8-0.9-25.1,0-39.1
						c1.2-18.4,2.4-37.4-2-55.9c-6.9-29.1-21.5-50.5-26.9-57.6c-0.2,0.9-0.4,1.8-0.6,2.7c9.7,12.3,20.9,36.2,24.6,52.4
						C390.1,201.7,390,220.1,387.9,247.8z"/>
					<path class="st22" d="M383.1,238.8c1.4-13.8,3.8-28.8-1.8-56.6c-4.7-23.3-16.8-40.8-20.6-45.8c-0.2,0.7-0.4,1.3-0.6,2
						c2.7,3.6,15.6,21.7,21,54.5c3.2,19.7,0.9,37.9-0.9,52.6c-1.5,11.7-2.6,21-0.2,26c0.8,0.5,1.7,1.2,2.6,1.8
						C379.6,264.1,381.8,251.3,383.1,238.8z"/>
					<path class="st23" d="M381.3,182.2c5.6,27.8,3.2,42.8,1.8,56.6c-1.3,12.5-3.4,25.3-0.5,34.6c1.7,1.3,3.4,2.9,5.2,4.8
						c-0.6-4-1.2-12.7,0.2-30.4c2.2-27.8,2.3-46.1-1.6-63c-3.7-16.2-14.9-40.1-24.6-52.4c-0.3,1.3-0.6,2.6-1,4
						C364.4,141.4,376.6,158.9,381.3,182.2z"/>
					<path class="st3" d="M253,187.7c-0.4,0.3-0.9,0.7-1.4,1c-0.5,0.4-1.1,0.7-1.7,1c-1.2,0.7-2.5,1.3-3.9,1.9
						c-1.4,0.6-2.9,1.1-4.4,1.4c-1.5,0.4-3.1,0.7-4.7,0.9c-1.6,0.2-3.2,0.4-4.7,0.4c-1.6,0.1-3.1,0-4.6,0c-1.5-0.1-2.9-0.2-4.2-0.4
						c-0.2,0-0.3-0.1-0.5-0.1c-2.7,3.4-4.1,7.5-4.1,11.7c0,9.5,7.3,17.5,17.2,19.8c-2-1.6-3.3-4-3.3-6.8c0-4.8,3.9-8.6,8.6-8.6
						c4.8,0,8.6,3.9,8.6,8.6c0,2.9-1.4,5.5-3.6,7c10.5-1.9,18.4-10.1,18.4-20C264.8,198.1,260.3,191.3,253,187.7z"/>
					<path class="st24" d="M206.5,243.2c-2.7-13.1,0.7-22.3,2.6-34.7c1.2-8.1,1.2-16.4,1-21.2c-1.4,1-2.1,1.7-2.1,1.7
						s0.7-0.7,2.1-1.7c0-1.4-0.1-2.5-0.1-3.3c-1.4,0.8-2.5,1.7-3.3,2.5c0.2,3.3,1,19.3-2.3,31c-7.2,26,2.9,46,30.1,59.6
						C217.1,266.5,208.4,252.7,206.5,243.2z"/>
					<path class="st24" d="M330.3,123.2c1.8-1.5,4.1-3.2,6.4-4.8c0.7-0.9,1.3-1.6,1.7-2c-0.4,0.4-1,1.1-1.7,2
						c5.8-4,12.4-7.4,16.3-5.7c8.2,3.6,4.1,31.1-11.3,52.1c0,0,10.8,19.2,9.8,40.9s-4.4,31.1-5.2,41.9c-0.6,7.4-5.2,21.1-20.6,31.5
						c11.2-6.6,19.9-15.7,24.1-25.6c0.7-8.5,2.1-16.7,3.3-24.2c0.6-3.6,1.1-7,1.6-10.1c3.7-26-8.5-52.7-8.6-53l-0.3-0.7l0.4-0.6
						c7.3-13.1,18.4-41.8,12.4-51.9c-1.4-2.4-3.8-3.6-7.3-3.6c-0.1,0-0.1,0-0.2,0C343.4,109.4,336.6,115.3,330.3,123.2z"/>
					<path class="st3" d="M346.3,247.6c0.8-10.8,4.2-20.2,5.2-41.9s-9.8-40.9-9.8-40.9c15.4-21,19.5-48.5,11.3-52.1
						c-4-1.7-10.5,1.7-16.3,5.7c-4.2,5.1-12.9,17.3-19,26.7c-7.2,11.1-14,20.5-28.8,24.8s-25.2,1.2-25.2,1.2
						c-11.3,6-25.6,3.7-25.6,3.7c-4.5,5.5-9.2,6.8-17.7,8.4c-5,0.9-8.3,2.7-10.3,4.1c0.2,4.8,0.2,13.2-1,21.2
						c-1.9,12.3-5.3,21.5-2.6,34.7c2,9.5,10.7,23.3,28,34c4,2,8.4,3.9,13.1,5.6c30.6,11.1,53.8,6.9,67.9,1.3c3.6-1.4,7-3.1,10.3-5
						C341.2,268.7,345.8,255,346.3,247.6z M241.8,228.8c-14.3,0-25.8-10.4-25.8-23.3c0-4.4,1.3-8.6,3.9-12.2h-0.1
						c-1.2-0.2-2.2-0.5-3.1-0.8c-0.9-0.2-1.7-0.5-2.4-0.7c-1.3-0.4-2-0.8-2-0.8s0.8,0.1,2.1,0.3c0.7,0.1,1.5,0.1,2.4,0.2
						c0.9,0.1,2,0.1,3.1,0.2c1.2,0.1,2.4,0.1,3.7,0.1s2.7,0,4.1,0c1.4,0,2.9-0.1,4.4-0.2c1.5-0.1,3-0.3,4.5-0.5s3-0.5,4.4-0.9
						c0.7-0.2,1.4-0.3,2.1-0.6c0.7-0.2,1.4-0.4,2-0.6c1.3-0.5,2.6-0.9,3.8-1.5c0.6-0.2,1.1-0.5,1.7-0.8c0.6-0.3,1.1-0.5,1.6-0.8
						c1-0.5,1.9-1.1,2.7-1.6s1.5-1,2-1.4c1.1-0.8,1.7-1.3,1.7-1.3s-0.4,0.6-1.3,1.8c-0.4,0.5-1,1.2-1.7,1.9
						c-0.1,0.1-0.2,0.2-0.3,0.2c7.6,4.2,12.3,11.7,12.3,19.8C267.6,218.4,256,228.8,241.8,228.8z M322.7,143
						c1.4-2.3,14.3-22.2,23.9-22.2c1.3,0,2.5,0.3,3.5,1c10.7,6.8-5.3,33-7.2,35.9l-1.1,1.8l-1.2-1.7c-5.1-7.1-17.1-12.7-17.2-12.7
						l-1.5-0.7L322.7,143z M318.8,265.6c-0.2,0.3-0.6,0.8-0.9,1.4c-0.2,0.3-0.4,0.6-0.6,0.9s-0.4,0.6-0.6,1c-0.2,0.3-0.4,0.7-0.6,1
						c-0.2,0.4-0.4,0.7-0.5,1.1s-0.3,0.7-0.4,1.1c0,0.2-0.1,0.4-0.2,0.5c0,0.2-0.1,0.4-0.1,0.5c0,0.2-0.1,0.4-0.1,0.5
						c0,0.2,0,0.4,0,0.5c0,0.2,0,0.4-0.1,0.5c0,0.2,0,0.3,0,0.5c0,0.3,0,0.7,0,0.9c0,0.3,0.1,0.5,0.1,0.7c0,0.4,0,0.7,0,0.7
						s-0.2-0.2-0.5-0.5c-0.2-0.2-0.4-0.4-0.5-0.6c-0.2-0.2-0.4-0.6-0.6-0.9c-0.1-0.2-0.2-0.4-0.3-0.5c-0.1-0.2-0.1-0.4-0.2-0.6
						c-0.1-0.4-0.3-0.9-0.2-1.4c0-0.3,0-0.5,0-0.8c0-0.2,0.1-0.4,0.1-0.6c-0.3-0.1-0.6-0.3-1-0.4c-0.5-0.2-1.1-0.3-1.7-0.5
						s-1.3-0.4-2-0.5c-0.4-0.1-0.7-0.1-1.1-0.2s-0.8-0.1-1.2-0.1c-0.4,0-0.8,0-1.2-0.1h-0.6h-0.6c-0.8,0-1.7,0.1-2.5,0.2l-1.3,0.2
						c-0.4,0.1-0.8,0.2-1.2,0.3c-0.4,0.1-0.8,0.2-1.2,0.3c-0.4,0.1-0.8,0.2-1.2,0.3c-0.8,0.2-1.5,0.5-2.3,0.7
						c-0.7,0.2-1.4,0.5-2,0.8c-0.6,0.2-1.2,0.5-1.7,0.7s-0.9,0.4-1.3,0.6c-0.7,0.3-1.1,0.6-1.1,0.6s0.3-0.4,0.8-1
						c0.3-0.3,0.6-0.7,1-1.1s0.9-0.8,1.5-1.2c0.6-0.4,1.2-0.9,1.9-1.3c0.7-0.4,1.5-0.8,2.3-1.2c0.8-0.3,1.7-0.7,2.6-0.9
						c0.5-0.1,0.9-0.2,1.4-0.4c0.5-0.1,1-0.1,1.4-0.2c1-0.2,1.9-0.2,2.9-0.2h0.7h0.7c0.5,0,0.9,0,1.4,0.1c0.5,0,0.9,0.1,1.3,0.1
						c0.4,0.1,0.8,0.1,1.3,0.2c0.8,0.1,1.6,0.3,2.3,0.5c0.7,0.2,1.3,0.3,1.9,0.6c0.4,0.2,0.7,0.3,1.1,0.4c0.1-0.1,0.2-0.3,0.3-0.4
						c0.3-0.4,0.6-0.8,1-1.2c0.3-0.4,0.7-0.7,1-0.9c0.3-0.3,0.7-0.5,1-0.7c0.7-0.3,1.3-0.6,1.7-0.7c0.4-0.1,0.7-0.1,0.7-0.1
						S319.1,265.2,318.8,265.6z M332.1,199.2c-0.7,0.1-1.5,0.3-2.4,0.4c-0.9,0.1-2,0.3-3.2,0.4h-0.1c2,4,2.8,8.3,2.2,12.6
						c-1.5,11.6-12.3,19.9-24.9,19.9c-1.2,0-2.5-0.1-3.8-0.3c-6.8-0.9-12.9-4.1-17.2-9.1c-4.3-5-6.2-11.2-5.4-17.4
						c1.1-8.1,6.7-14.8,14.8-18c-0.1-0.1-0.2-0.2-0.2-0.3c-0.6-0.8-1-1.5-1.4-2.1c-0.7-1.2-1-1.9-1-1.9s0.6,0.5,1.6,1.5
						c0.5,0.4,1.1,1,1.8,1.6c0.7,0.6,1.5,1.3,2.4,1.9c0.4,0.3,0.9,0.7,1.4,1s1,0.7,1.6,1c1.1,0.7,2.3,1.3,3.5,1.9
						c0.6,0.3,1.3,0.6,1.9,0.9c0.7,0.3,1.3,0.6,2,0.8c1.4,0.5,2.8,1,4.2,1.4c1.4,0.4,2.9,0.8,4.4,1.1s2.9,0.6,4.3,0.8
						s2.8,0.4,4.1,0.6c1.3,0.2,2.5,0.3,3.7,0.4c1.1,0.1,2.2,0.2,3.1,0.2s1.8,0.1,2.4,0.1c1.4,0,2.1,0,2.1,0S333.4,199,332.1,199.2z"
						/>
					<path class="st24" d="M220.4,183.2c8.6-1.6,13.3-2.9,17.7-8.4c0,0,14.3,2.3,25.6-3.7c0,0,10.4,3.1,25.2-1.2
						c14.8-4.3,21.6-13.7,28.8-24.8c6.1-9.4,14.9-21.6,19-26.7c-2.3,1.6-4.5,3.3-6.4,4.8c-3.7,4.7-7.3,10-10.8,15.3
						c-6.8,10.3-13.2,20-20.6,24.4c-16,9.5-32,6.4-35.4,5.6c-2,1.2-9.3,4.4-25.8,3.7c-1.6,1.5-7,6.2-14.1,7.1
						c-5.1,0.7-10.2,2.6-13.7,4.7c0,0.7,0.1,1.8,0.1,3.3C212,185.9,215.4,184.1,220.4,183.2z"/>
					<path class="st3" d="M322.7,200.2c-1.4,0-2.8,0-4.3-0.1s-3-0.3-4.5-0.6s-3.1-0.6-4.6-1.1s-3.1-0.9-4.5-1.5
						c-1.5-0.6-2.9-1.3-4.2-2c-1.3-0.7-2.5-1.5-3.6-2.4c-0.6-0.4-1.1-0.8-1.6-1.3c-0.4-0.4-0.8-0.8-1.2-1.1c-7.7,2.6-13,8.8-14,16.1
						c-0.7,5.4,1,10.8,4.7,15.1c2.9,3.3,6.6,5.8,10.9,7.1c-2-1.8-3.1-4.6-2.7-7.4c0.6-4.7,5-8,9.7-7.4s8,5,7.4,9.7
						c-0.4,2.7-2,5-4.1,6.3c10.1-1,18.4-7.9,19.6-17.3c0.6-4.2-0.3-8.4-2.6-12.1C323,200.1,322.8,200.1,322.7,200.2z"/>
					<path class="st1" d="M266,71.4c-0.9-2.2-1.8-4.3-2.7-6.2c-0.6,0.8-1.3,1.4-2,1.9c0.9,2,1.8,4.2,2.9,6.7
						C264.9,73.2,265.5,72.4,266,71.4z"/>
					<path class="st2" d="M250.8,68.8c0.2,2.3,0.4,4.7,0.6,7.3c3.5,1,8.9,1.6,12.8-2.2c-1-2.5-2-4.7-2.9-6.7c-2,1.4-4.5,2-6.9,2
						C253.2,69.1,252,69,250.8,68.8z"/>
					<path class="st3" d="M248.5,68.1c0.1,2.3,0.2,4.6,0.3,7c0.6,0.3,1.5,0.6,2.6,0.9c-0.2-2.6-0.4-5-0.6-7.3
						C250,68.6,249.2,68.4,248.5,68.1z"/>
					<path class="st25" d="M341.6,154.4c4.8-8.1,13.5-26.1,7-30.2c-0.6-0.4-1.2-0.6-2-0.6c-6.4,0-16.3,13-20.6,19.5
						C329.3,144.8,336.9,149,341.6,154.4z"/>
					<path class="st1" d="M255.3,54.6c0.6-0.4,1.2-1,1.7-1.7c-2.2-3.2-3.9-4.6-5.6-4.6c-0.1,0-0.2,0-0.4,0
						C251.8,49,253.1,50.7,255.3,54.6z"/>
					<path class="st2" d="M255.3,54.6c-2.2-3.9-3.5-5.6-4.3-6.3c-0.2,0-0.3,0-0.5,0.1c-0.3,1.5-0.4,3.9-0.4,7.2
						C251.5,55.9,253.5,55.9,255.3,54.6z"/>
					<path class="st3" d="M250.5,48.4c-0.2,0-0.4,0.1-0.6,0.2c-0.1,0.1-1,0.9-1.4,6.6c0.4,0.1,0.9,0.3,1.6,0.4
						C250.1,52.4,250.2,49.9,250.5,48.4z"/>
					<path class="st3" d="M194.4,108.5c-3.5,5.3,3.4,18.5,6,23.1c3.4-7.8,8.2-15.9,15.5-23.3c-0.1,0-0.1-0.1-0.2-0.1
						C210.9,106.7,197.9,103.3,194.4,108.5z"/>
					<path class="st24" d="M200.5,131.6c-2.6-4.6-9.5-17.8-6-23.1c3.4-5.2,16.5-1.8,21.3-0.3c-6.5-2.9-19.1-6.9-23.4-1.1
						c-4.4,5.9,2.2,20.8,6.5,28.6C199.3,134.4,199.9,133,200.5,131.6z"/>
					<path class="st3" d="M178.5,177.3c-0.2,0.1-0.3,0.2-0.5,0.2l0,0c0.4,0,0.9-0.1,1.4-0.2C179.1,177.3,178.8,177.3,178.5,177.3z"
						/>
					<path class="st14" d="M193.8,168.2c11.2-11.8,8-33.5,25.1-53.9c8-9.5,17.9-15.6,28.1-19.5c0-0.9-0.1-1.8-0.1-2.6
						c0-0.3,0-0.6-0.1-0.8c-38.6,16-46.1,44.8-51.1,64c-3.4,13.2-11.5,19.2-17.3,21.9c0.3,0,0.6,0,0.9,0
						C182.9,176.6,188,174.4,193.8,168.2z"/>
					<path class="st13" d="M219,114.2c-17.1,20.5-13.9,42.1-25.1,53.9c-5.9,6.2-10.9,8.4-14.4,9.1c4.8,0,15.4-1,25.8-9.2
						c14.1-11.1,10.9-18.8,19.9-36c8.3-15.9,16.8-22.4,22.6-25.7c-0.1-1.8-0.2-3.7-0.3-5.6c-0.1-2-0.2-4-0.3-5.9
						C236.9,98.7,226.9,104.7,219,114.2z"/>
					<path class="st15" d="M222.1,147.9c6.2-21.4,22.2-35.5,25.8-38.5c-0.1-1-0.1-2-0.2-3.1c-5.8,3.3-14.4,9.8-22.6,25.7
						c-9,17.2-5.8,25-19.9,36c-10.4,8.2-20.9,9.2-25.8,9.2c-0.5,0.1-1,0.2-1.4,0.2C199.7,180,216,169.2,222.1,147.9z"/>
					<path class="st20" d="M192.4,182c0.2-0.7,0.4-1.3,0.6-2c-1.4,0.3-2.8,0.4-4.2,0.6c-1.2,1.8-6.4,8.9-14.6,13.7c0,0,0,0,0.1,0
						s0.1,0,0.2,0C180.5,193.2,188.4,186,192.4,182z"/>
					<path class="st19" d="M190.7,191.3c0.3-3,0.8-6.3,1.6-9.3c-4,4-11.9,11.2-18,12.3C177.7,194.3,185.4,194,190.7,191.3z"/>
					<path class="st26" d="M174.4,194.2C174.3,194.2,174.3,194.2,174.4,194.2c3.5,0.7,9.4,1.2,16.1-0.2c0.1-0.9,0.2-1.8,0.3-2.7
						C185.4,194,177.7,194.3,174.4,194.2z"/>
					<path class="st3" d="M174.2,194.2C174.2,194.2,174.3,194.2,174.2,194.2c0.1,0,0.2,0,0.2,0C174.3,194.2,174.3,194.2,174.2,194.2
						z"/>
					<path class="st6" d="M223.3,176.5c7.4-0.9,12.8-6.7,12.9-6.7l0.5-0.5l0,0c2-1.9,10.4-11,14.8-25.3c1-3.1,2.6-6.6,4.8-10.2
						c-0.9-0.5-1.7-1-2.4-1.5c-5.8,8.8-7.2,18.2-14.8,29.2c-7.9,11.5-14.3,9.6-29.1,17.2c-10.5,5.4-15,13.7-16.7,18.1
						c0,0.3,0,0.6,0,0.9c4.3-5.9,10.6-12.3,11-12.7C206.9,181.7,214.7,177.6,223.3,176.5z"/>
					<path class="st5" d="M216.3,170.1c8.7-8,9-18.4,15.6-30.7c5.1-9.7,13.4-17.9,16.7-21c-0.2-1.7-0.4-3.5-0.5-5.4
						c-5.2,4.6-18.1,17.6-23.3,35.7c-4.7,16.3-14.8,26.8-28.7,30.5c-1.9,5.1-2.6,11.7-2.9,16.6c2-7.3,4.4-14.6,4.4-14.6
						S207.7,178.1,216.3,170.1z"/>
					<path class="st4" d="M209.9,178.8c14.8-7.6,21.2-5.7,29.1-17.2c7.6-11,9-20.4,14.8-29.2c-1.1-0.8-1.7-1.4-1.8-1.5l-0.1-0.2
						c-1.7-2.3-2.6-6.6-3.3-12.3c-3.3,3.1-11.6,11.3-16.7,21c-6.5,12.3-6.9,22.7-15.6,30.7c-8.7,8-18.7,11.1-18.7,11.1
						s-2.5,7.3-4.4,14.6c0,0.4,0,0.7-0.1,1C195,192.4,199.5,184.1,209.9,178.8z"/>
					<path d="M255.1,109.9c0.1,1,0.3,2,0.4,2.9c1.6,0.3,3.3,0.5,5.2,0.5c5.1,0,11-1.4,15.8-6.5c-0.3-1-0.6-2.1-1-3.2
						C269.2,111.2,260.6,111,255.1,109.9z"/>
					<path d="M269.2,121.6c-4.4,1.5-8.8,1.1-12.2,0.3c0.2,1.1,0.4,2.1,0.5,3.1c1.6,0.3,3.4,0.5,5.2,0.5c2.3,0,4.8-0.3,7.3-1.2
						c3.5-1.2,6.6-3.3,9.2-6.2c-0.2-1.1-0.4-2.4-0.7-3.7C276,117.9,272.8,120.3,269.2,121.6z"/>
					<path d="M361.7,132.5c0.2-0.9,0.4-1.8,0.6-2.7c5.4,7.1,20,28.5,26.9,57.6c4.4,18.5,3.2,37.6,2,55.9
						c-0.9,13.9-1.9,25.4-0.2,37.3c-1.1-1.5-6.7-5.8-8.4-7.1c0.3,1,0.6,1.9,1,2.8c-0.4-0.9-0.7-1.8-1-2.8c-0.9-0.7-1.7-1.3-2.6-1.8
						c-2.4-5-1.2-14.3,0.2-26c1.8-14.6,4.1-32.8,0.9-52.6c-5.4-32.9-18.2-51-21-54.5c0.2-0.7,0.4-1.3,0.6-2
						c-0.7-0.9-1.1-1.5-1.1-1.5s0.4,0.5,1.1,1.5C361,135.1,361.4,133.8,361.7,132.5c-0.4-0.5-0.8-1-1.2-1.5
						C360.9,131.5,361.3,132,361.7,132.5z M376.3,269.5c-1.4-0.7-2.6-1.2-3.6-1.6c0.3,1.8,0.8,1.9,0.8,1.9s-0.5-0.1-0.8-1.9
						c-1.6-0.6-2.7-0.8-2.9-0.9l-1.2-0.2l-0.4,1.2c-4.8,13.7-4.8,24.4-3.6,31.7c0.7,2.4,1.6,4.6,2.7,6.4c-1.1-1.8-2-4-2.7-6.4
						c0,0.1,0,0.1,0,0.2c-5-11.9-4.3-26.6-2.8-41.8c0.6-6.6,1.8-12.6,3-18.4c2.2-11.1,4.5-22.5,3.2-38.9
						c-1.8-22.7-11.2-44.8-12.9-48.5c0.3-0.8,0.6-1.5,0.9-2.3c-0.5-1.1-0.9-1.7-0.9-1.7s0.3,0.6,0.9,1.7c0.6-1.6,1.3-3.2,1.9-4.9
						c-0.4-0.5-0.7-1-1.1-1.4c0.3,0.4,0.7,0.9,1.1,1.4c0.4-1,0.7-2.1,1.1-3.1c4.1,5.9,14.6,23.2,19.2,51.6
						c3.2,19.3,0.9,37.3-0.9,51.7C376.1,255.3,375.1,263.6,376.3,269.5z M349,165.6c0.9-1.6,2-3.9,3.3-6.7c-0.5-1.1-0.7-1.8-0.7-1.8
						s0.3,0.6,0.7,1.8c0.4-0.9,0.9-1.9,1.3-3c3,7.1,10.1,25.9,11.6,45.1c1.3,16-1,27.2-3.2,38.1c-1.2,5.9-2.4,12-3.1,18.7
						c-1.5,15.2-2.3,29.9,2.5,42.1c-0.2-0.3-0.5-0.7-0.7-1c1.4,3.2,3.1,6.2,5.3,8.6c-2.2-2.5-3.9-5.4-5.3-8.6
						c-13-19.7-8.4-47.8-4.9-69.2c0.6-3.6,1.1-7,1.6-10.2C361.1,194.6,350.9,170,349,165.6z M351.1,109.3c0.1,0,0.1,0,0.2,0
						c3.4,0,5.8,1.2,7.3,3.6c6,10.1-5.1,38.8-12.4,51.9l-0.4,0.6l0.3,0.7c0.1,0.3,12.3,26.9,8.6,53c-0.5,3.2-1,6.6-1.6,10.1
						c-1.2,7.5-2.6,15.8-3.3,24.2c-4.2,10-12.9,19.1-24.1,25.6c-7.1,4.8-16.5,8.9-28.9,11.3c12.4-2.4,21.8-6.5,28.9-11.3
						c-3.2,1.9-6.7,3.6-10.3,5c-14.1,5.6-37.3,9.8-67.9-1.3c-4.7-1.7-9.1-3.6-13.1-5.6c6.5,4,14.3,7.6,23.4,10.3
						c-9.1-2.7-16.8-6.3-23.4-10.3c-27.1-13.6-37.2-33.6-30.1-59.6c3.2-11.7,2.5-27.7,2.3-31c0.7-0.8,1.9-1.7,3.3-2.5
						c0-0.5-0.1-0.8-0.1-0.8s0,0.3,0.1,0.8c3.5-2.1,8.6-4,13.7-4.7c7.1-0.9,12.5-5.6,14.1-7.1c16.6,0.7,23.8-2.6,25.8-3.7
						c3.4,0.8,19.4,4,35.4-5.6c7.3-4.4,13.8-14.1,20.6-24.4c3.5-5.3,7.1-10.7,10.8-15.3c-3.1,2.5-5.2,4.5-5.2,4.5s2.1-2,5.2-4.5
						C336.6,115.3,343.4,109.4,351.1,109.3z M266.5,136.4L266.5,136.4c1.5,0,3.1-0.2,4.7-0.5c5.2-1.1,9.4-3.8,11.9-7.9
						c2.5-4,3.3-9.2,2.1-14.2c-0.3,0.2-0.6,0.3-0.9,0.5c0.3-0.2,0.6-0.3,0.9-0.5c-0.1-0.2-0.1-0.5-0.1-0.7c-0.1-0.5-0.3-1.2-0.5-1.9
						c11.9-5.9,24.5-6.8,37.7-2.9c1.2-0.1,2.3-0.1,3.4,0c-1.1-0.2-2.3-0.2-3.4,0c0,0,0,0,0.1,0l0,0c0.9,0.1,1.3,0.2,1.3,0.2
						s-0.5-0.1-1.3-0.2c-11.5,4-19.8,14.6-26.9,23.7c-2.1,2.7-4,5.2-6,7.4c-15.3,17.6-24.1,24.4-26.3,25.9l0,0l-0.6,0.4
						c-0.1,0-4.8,3.3-18.3,3.6c-2.6,0.3-4.1,0.1-4.1,0.1s1.6,0.1,4.1-0.1c-1.2,0-2.4,0-3.7,0l0,0c-0.8,0.3-1.6,0.5-2.4,0.5
						c0.8,0,1.6-0.2,2.4-0.5c3.5-3.9,9.9-12.3,13.7-24.5c0.9-3,2.6-6.4,4.7-9.9c1.1,0.4,2.3,0.8,3.6,1c0.6-0.7,1-1,1-1s-0.4,0.4-1,1
						C263.7,136.3,265,136.4,266.5,136.4z M281.4,102.2c-0.9,0.3-1.4,0.4-1.4,0.4S280.5,102.4,281.4,102.2c-0.2-0.5-0.3-0.9-0.5-1.4
						c6.1-1.7,27.3-6.3,49.3,6c-0.3,0-0.7,0-1,0.1c0.8,0.4,1.5,0.8,2.3,1.3c-0.8-0.5-1.5-0.9-2.3-1.3c-0.6,0.1-1.2,0.1-1.8,0.2
						c-2.2-0.8-4.3-1.5-6.5-2.1c2.7,0.9,5.3,2.1,7.9,3.6c-2.6-1.5-5.3-2.7-7.9-3.6c-12.9-3.4-25.7-2.2-37.4,3.4
						c-0.2-0.6-0.4-1.2-0.6-1.8c-0.9,0.3-1.3,0.5-1.3,0.5s0.5-0.2,1.3-0.5C282.5,105.3,282,103.8,281.4,102.2z M339,112.4
						c0,0-0.7-0.2-2-0.3c-7.3,5.9-13.7,15.4-19.9,24.8c-6.6,10-12.9,19.4-19.6,23.5c-12.4,7.4-25,6.6-30.7,5.7
						c0.5-0.4,1.1-0.9,1.7-1.4c-0.4,0-0.8,0-1.2,0c0.4,0,0.8,0,1.2,0c0.6-0.5,1.2-1,1.8-1.6c-3.5,2.1-5.3,2.5-5.3,2.5
						s1.8-0.4,5.3-2.5c4.5-4,11.6-10.8,21.2-21.9c2-2.3,4-4.9,6.1-7.5c10.3-13.2,21.9-28,41.6-23.3c-0.7,0.5-1.5,1-2.2,1.6
						C338.3,112.3,339,112.4,339,112.4z M274.4,84.3c30.9-3.1,55.5,10,68.8,23.9c-0.2,0.1-0.4,0.2-0.6,0.3c-1-0.3-1.9-0.6-2.9-0.8
						c0.7,0.6,1.3,1.3,1.9,2c-0.6-0.7-1.3-1.3-1.9-2c-1.3-0.3-2.5-0.5-3.7-0.7c-1.8-1.2-3.6-2.3-5.5-3.3c2.5,1.5,5,3.1,7.6,5
						c-2.5-1.9-5.1-3.6-7.6-5c-22.8-12.3-44.6-7.4-50.8-5.7c-0.3-0.7-0.6-1.5-0.9-2.3c-0.9,0.2-1.4,0.4-1.4,0.4s0.5-0.2,1.4-0.4
						c-1-2.7-2.1-5.5-3.3-8.4c-0.9,0.1-1.5,0.2-1.5,0.2s0.5-0.1,1.5-0.2C275.3,86.4,274.9,85.3,274.4,84.3z M248.4,58.2
						c0.6,0.2,1.2,0.3,1.8,0.4c0-1-0.1-2-0.1-2.9c-0.6-0.1-1.2-0.3-1.6-0.4c0.4-5.7,1.3-6.5,1.4-6.6c0.2-0.1,0.4-0.1,0.6-0.2
						c0-0.1,0.1-0.3,0.1-0.4c-0.4-0.2-0.5-0.1-0.5-0.1s0.2-0.1,0.5,0.1c0.1-0.5,0.3-0.9,0.5-1.2c-0.2,0.2-0.4,0.6-0.5,1.2
						c0.1,0.1,0.2,0.2,0.4,0.3c0.1,0,0.2,0,0.4,0c1.7,0,3.5,1.4,5.6,4.6c-0.5,0.7-1.1,1.3-1.7,1.7c0.4,0.8,0.9,1.6,1.3,2.6
						c0.7-0.4,1.3-1,2-1.6c0.5,0.8,1,1.7,1.5,2.7c0.5,0.9,1.1,2.3,1.9,3.9c-0.5,1-1.1,1.7-1.8,2.3c0.4,0.9,0.8,1.8,1.2,2.7
						c0.7-0.5,1.4-1.1,2-1.9c0.8,1.9,1.7,3.9,2.7,6.2c-0.6,1-1.2,1.8-1.8,2.4c0.4,0.9,0.8,1.9,1.2,2.8c0.7-0.6,1.4-1.3,2-2.1
						c0.8,1.8,1.6,3.8,2.4,5.7c-0.6,0.9-1.2,1.8-1.9,2.5c0.4,1,0.8,2,1.2,2.9c0.7-0.7,1.4-1.4,2-2.3c0.9,2.2,1.7,4.3,2.6,6.5
						l-0.1-0.1c-0.5,1.1-1.1,2.2-1.7,3.1c0.4,1.1,0.8,2.1,1.2,3.1c0.7-0.8,1.4-1.8,2-2.8c1,2.5,1.9,4.9,2.8,7.2
						c-0.7,1.2-1.4,2.2-2.2,3.1c0.4,1.1,0.7,2.2,1,3.2c0.8-0.9,1.7-1.8,2.4-2.9c0.9,2.4,1.6,4.5,2.2,6.3c-0.8,1.6-1.7,3-2.6,4.3
						c0.3,1.3,0.5,2.5,0.7,3.7c1.1-1.2,2.1-2.6,3-4.1c1.1,4.5,0.5,9-1.7,12.5c-0.3,0.5-0.7,1-1,1.4c-0.1,0.5-0.1,0.9-0.2,1.4
						c0.1-0.5,0.1-0.9,0.2-1.4c-2.1,2.6-5.2,4.4-9,5.2c-1.4,0.3-2.7,0.4-4.1,0.4l0,0c-3.1,0-5.7-0.8-7.7-1.7
						c0.2,1.1,0.4,1.7,0.4,1.7s-0.1-0.6-0.4-1.7c-2.6-1.2-4.3-2.6-4.6-3c-0.8-1.1-1.4-3-1.9-5.4c1.3,0.5,3.1,1,5.1,1.4
						c-0.2-0.9-0.3-2-0.5-3.1c-2.4-0.5-4.2-1.3-5.2-1.7c-0.4-2.6-0.6-5.5-0.8-8.6c1.2,0.4,2.7,0.8,4.6,1.1c-0.1-0.9-0.3-1.9-0.4-2.9
						c-2-0.4-3.5-1-4.4-1.3c-0.2-2.6-0.3-5.3-0.4-8c0-0.3,0-0.6-0.1-1c1,0.4,2.3,0.8,3.7,1.1c-0.1-1-0.2-2-0.4-3.1
						c-1.5-0.4-2.8-0.9-3.5-1.2c-0.1-1.5-0.2-3-0.3-4.5c-0.1-1.2-0.2-2.5-0.2-3.8c0.9,0.4,1.9,0.7,3.1,1.1c-0.1-1-0.2-2.1-0.3-3.1
						c-1.3-0.4-2.4-0.9-3-1.2c-0.1-2.2-0.3-4.4-0.4-6.7c0.8,0.3,1.8,0.6,2.7,0.8c-0.1-1-0.2-2.1-0.3-3.1c-1.1-0.3-2-0.7-2.6-0.9
						c-0.1-2.3-0.2-4.7-0.3-7c0.7,0.2,1.5,0.4,2.3,0.6c-0.1-1-0.2-2-0.2-3c-1-0.3-1.8-0.5-2.2-0.7c0-1,0-2,0-2.9
						C248.4,60.7,248.4,59.3,248.4,58.2z M192.3,107.1c4.3-5.8,16.9-1.8,23.4,1.1c1.1,0.3,1.8,0.6,1.8,0.6s-0.7-0.2-1.8-0.6
						c0.1,0,0.1,0.1,0.2,0.1c-7.2,7.4-12.1,15.5-15.5,23.3c0.6,1,0.9,1.6,0.9,1.6s-0.4-0.6-0.9-1.6c-0.6,1.4-1.2,2.7-1.7,4.1
						C194.5,127.9,187.9,113,192.3,107.1z M178,177.5c-2.3,0.3-3.7-0.2-3.7-0.2S175.7,177.8,178,177.5L178,177.5
						c0.1-0.1,0.3-0.2,0.4-0.2c-1.2,0-1.8-0.1-1.8-0.1s0.7,0.1,1.8,0.1c5.8-2.7,13.9-8.7,17.3-21.9c5-19.2,12.5-48,51.1-64
						c0,0.3,0,0.6,0.1,0.8c0.1,0.9,0.1,1.8,0.1,2.6c0.5-0.2,0.9-0.4,1.4-0.5c-0.5,0.2-0.9,0.4-1.4,0.5c0.1,2,0.2,4,0.3,5.9
						s0.2,3.8,0.3,5.6c0.5-0.3,0.9-0.5,1.4-0.8c-0.4,0.2-0.9,0.5-1.4,0.8c0.1,1,0.1,2.1,0.2,3.1c-3.6,2.9-19.6,17.1-25.8,38.5
						C216,169.2,199.7,180,178,177.5z M174.3,194.2c-1,0.2-2,0.2-2.8-0.1C172.3,194.4,173.3,194.4,174.3,194.2
						C174.3,194.2,174.2,194.2,174.3,194.2c-1,0-1.5-0.1-1.5-0.1S173.3,194.2,174.3,194.2c-0.1,0-0.1,0-0.2,0
						c8.2-4.8,13.3-11.8,14.6-13.7c1.4-0.1,2.9-0.3,4.2-0.6c-0.2,0.7-0.4,1.3-0.6,2c1.6-1.6,2.5-2.6,2.5-2.6s-1,1.1-2.5,2.6
						c-0.8,3.1-1.3,6.3-1.6,9.3c0.5-0.3,1.1-0.6,1.5-0.9c-0.5,0.3-1,0.6-1.5,0.9c-0.1,0.9-0.2,1.8-0.3,2.7
						C183.8,195.5,177.9,194.9,174.3,194.2z M193.2,197.8c0-0.3,0-0.6,0-0.9c-0.5,1.3-0.8,2.3-0.9,2.7c-0.2,1-0.5,2-0.7,2.9
						c0.2-0.9,0.4-1.9,0.7-2.9c0,0.2-0.1,0.3-0.1,0.3s0-0.1,0.1-0.3c0.3-1.2,0.6-2.5,1-3.8c0.3-4.9,1.1-11.6,2.9-16.6
						c13.8-3.8,24-14.3,28.7-30.5c5.2-18,18.1-31,23.3-35.7c0.1,1.9,0.3,3.7,0.5,5.4c0.9-0.8,1.5-1.3,1.5-1.3s-0.5,0.5-1.5,1.3
						c0.6,5.6,1.6,10,3.3,12.3l0.1,0.2c0.1,0.1,0.7,0.7,1.8,1.5c0.3-0.4,0.5-0.8,0.8-1.2c-0.3,0.4-0.5,0.8-0.8,1.2
						c0.6,0.5,1.4,1,2.4,1.5c-2.2,3.6-3.8,7.1-4.8,10.2c-4.4,14.3-12.8,23.3-14.8,25.3l0,0l-0.5,0.5c-0.1,0.1-5.5,5.8-12.9,6.7
						c-8.6,1.1-16.4,5.2-19.1,8.6C203.7,185.5,197.5,191.8,193.2,197.8z M216.1,268.6c2.8,2.5,6,4.8,9.6,7c4.3,1.1,6.8,2.2,6.8,2.2
						s-2.5-1.1-6.8-2.2c3,1.8,6.2,3.6,9.7,5.3c0.7-0.7,1.1-1.1,1.1-1.1s-0.4,0.4-1.1,1.1c3.5,1.6,7.2,3.2,11.2,4.6
						c31.5,11.5,55.4,7,69.9,1.3c2.6-1,5.2-2.2,7.6-3.5c-0.5-0.8-0.8-1.2-0.8-1.2s0.3,0.4,0.8,1.2c10.9-5.7,19.8-13.7,25.3-22.7
						c-0.7,19,2.9,38.2,19.3,51l6.2,4.8l-4-6.7c-0.1-0.1-7.4-12.6-1.8-34.4c-0.8-0.5-1.3-0.7-1.3-0.7s0.5,0.2,1.3,0.7
						c0.4-1.6,0.9-3.3,1.5-5.1c19.9,8.5,26.1,24.3,26.1,24.3c-4.8-19.2-3.7-33.9-2.6-51c1.2-18.6,2.5-37.8-2-56.8
						c-8-33.6-26.1-57.1-29.1-60.8c0.7-5.7,0.3-10.8-1.8-14.4c-2-3.3-5.2-5-9.7-5c-0.1,0-0.1,0-0.2,0c-1.7,0-3.3,0.3-4.9,0.7
						c-13.8-14.9-39.9-29.2-72.9-25.6C269.2,71,264.9,61,262.8,57c-3.7-7.1-6.9-11.5-11.3-11.5c-0.8,0-1.6,0.2-2.4,0.5
						c-4.1,1.5-4.1,13.9-2.3,41.2c0,0.4,0.1,0.8,0.1,1.2c-12.2,4.9-21.5,11.1-28.6,17.8c-4.3-2-21.6-9.4-28.1-0.7
						c-6.6,8.8,5.1,29.9,7.5,33.9c-1.9,5.5-3.3,10.7-4.5,15.4c-5.1,19.6-20.7,21.8-21.4,21.9l-8.5,1l8.4,1.8
						c4.4,0.9,8.6,1.4,12.7,1.4c0.3,0,0.5,0,0.8,0c-2.5,3.2-8,9.3-15.5,12.6l-3.3,1.5l3.4,1.2c0.3,0.1,5.1,1.8,12.2,1.8
						c2.6,0,5.5-0.2,8.5-0.8c-0.2,3.3-0.1,5.6-0.1,5.8l0.1,5.5l2.6-4.8c0.9-1.7,2.2-3.6,3.7-5.5c0,0,3.9-5.8,7.2-8.6
						c0,0,0.7,15.3-3,30.2c-1.7,6.9-2.3,14.1-1.3,21.1C200.7,250,204.9,261.2,216.1,268.6z"/>
					<path d="M250.6,48.1c0,0.1-0.1,0.2-0.1,0.4c0.2,0,0.3-0.1,0.5-0.1C250.9,48.2,250.7,48.1,250.6,48.1z"/>
					<path d="M250.6,65.8c0.1,1,0.1,2,0.2,3c1.2,0.2,2.4,0.4,3.7,0.4c2.4,0,4.8-0.5,6.9-2c-0.4-0.9-0.8-1.8-1.2-2.7
						C257.3,66.9,253.2,66.4,250.6,65.8z"/>
					<path d="M251.4,76c0.1,1,0.2,2,0.3,3.1c1.5,0.4,3.1,0.6,4.8,0.6c3.1,0,6.2-0.8,8.9-3c-0.4-1-0.8-1.9-1.2-2.8
						C260.4,77.7,254.9,77,251.4,76z"/>
					<path d="M192.3,199.6c0.1-0.4,0.4-1.4,0.9-2.7c0-0.3,0-0.7,0.1-1C192.9,197.1,192.6,198.4,192.3,199.6z"/>
					<path d="M256.6,57.2c-0.5-0.9-0.9-1.8-1.3-2.6c-1.8,1.3-3.7,1.3-5.2,1c0,0.9,0,1.9,0.1,2.9c0.4,0.1,0.9,0.1,1.4,0.1
						C253.2,58.6,255,58.2,256.6,57.2z"/>
					<path d="M261.7,86.7c-3.4,0.9-6.8,0.3-9.3-0.5c0.1,1,0.2,2.1,0.3,3.1c1.6,0.4,3.5,0.8,5.5,0.8c1.4,0,2.8-0.2,4.2-0.5
						c2.5-0.7,4.7-1.9,6.6-3.7c-0.4-1-0.8-1.9-1.2-2.9C266.1,84.8,264,86.1,261.7,86.7z"/>
					<path d="M265.6,97.8c-4.2,1.5-8.8,0.8-12-0.1c0.1,1,0.2,2.1,0.4,3.1c1.8,0.4,4,0.8,6.3,0.8c2.1,0,4.3-0.3,6.4-1.1
						c2.5-0.9,4.6-2.4,6.3-4.4c-0.4-1-0.8-2.1-1.2-3.1C270.1,95.3,268.1,96.9,265.6,97.8z"/>
					<path d="M255.4,185.7c0.1-0.1,0.2-0.2,0.3-0.2c0.7-0.7,1.2-1.3,1.7-1.9c0.8-1.1,1.3-1.8,1.3-1.8s-0.7,0.5-1.7,1.3
						c-0.6,0.4-1.2,0.8-2,1.4c-0.8,0.5-1.7,1.1-2.7,1.6c-0.5,0.3-1,0.6-1.6,0.8c-0.6,0.3-1.1,0.6-1.7,0.8c-1.2,0.5-2.4,1-3.8,1.5
						c-0.7,0.2-1.3,0.4-2,0.6c-0.7,0.2-1.4,0.4-2.1,0.6c-1.4,0.4-2.9,0.6-4.4,0.9c-1.5,0.2-3,0.4-4.5,0.5s-3,0.2-4.4,0.2
						s-2.8,0-4.1,0s-2.6-0.1-3.7-0.1c-1.1-0.1-2.2-0.1-3.1-0.2c-0.9-0.1-1.8-0.2-2.4-0.2c-1.4-0.2-2.1-0.3-2.1-0.3s0.7,0.3,2,0.8
						c0.6,0.2,1.4,0.5,2.4,0.7c0.9,0.3,2,0.5,3.1,0.8h0.1c-2.5,3.7-3.9,7.9-3.9,12.2c0,12.8,11.6,23.3,25.8,23.3
						c14.3,0,25.8-10.4,25.8-23.3C267.6,197.4,263,189.9,255.4,185.7z M240.2,222.8c-1.5,0-2.8-1.3-2.8-2.8s1.3-2.8,2.8-2.8
						s2.8,1.3,2.8,2.8C243,221.6,241.8,222.8,240.2,222.8z M242.2,214c0-0.8,0.6-1.4,1.4-1.4c0.8,0,1.4,0.6,1.4,1.4
						c0,0.8-0.6,1.4-1.4,1.4S242.2,214.8,242.2,214z M244.7,221.8c0.5-0.5,0.6-1.3,0.6-2c0-0.4,0-0.7-0.1-0.9
						c-0.3-1.2,1.6-1.7,1.9-0.5c0.3,1.6,0.2,3.5-1.1,4.8C245.2,224.1,243.8,222.7,244.7,221.8z M246.3,225.6c2.2-1.6,3.6-4.1,3.6-7
						c0-4.8-3.9-8.6-8.6-8.6c-4.8,0-8.6,3.9-8.6,8.6c0,2.7,1.3,5.2,3.3,6.8c-9.9-2.3-17.2-10.3-17.2-19.8c0-4.2,1.4-8.2,4.1-11.7
						c0.2,0,0.3,0.1,0.5,0.1c1.3,0.2,2.8,0.3,4.2,0.4c1.5,0.1,3,0.1,4.6,0s3.1-0.2,4.7-0.4c1.6-0.3,3.2-0.5,4.7-0.9s3-0.9,4.4-1.4
						s2.7-1.2,3.9-1.9c0.6-0.3,1.2-0.7,1.7-1s0.9-0.6,1.4-1c7.3,3.6,11.8,10.4,11.8,17.8C264.8,215.4,256.8,223.7,246.3,225.6z"/>
					<path class="st3" d="M240.2,217.3c-1.5,0-2.8,1.3-2.8,2.8s1.3,2.8,2.8,2.8s2.8-1.3,2.8-2.8C243,218.5,241.8,217.3,240.2,217.3z
						"/>
					<path class="st3" d="M245,214c0-0.8-0.6-1.4-1.4-1.4c-0.8,0-1.4,0.6-1.4,1.4c0,0.8,0.6,1.4,1.4,1.4S245,214.8,245,214z"/>
					<path class="st3" d="M247.1,218.4c-0.3-1.2-2.1-0.7-1.9,0.5c0.1,0.2,0.1,0.5,0.1,0.9c0,0.7-0.1,1.4-0.6,2
						c-0.9,0.9,0.5,2.3,1.4,1.4C247.3,222,247.5,220.1,247.1,218.4z"/>
					<path d="M329.6,198.6c-0.9,0-2-0.1-3.1-0.2c-1.1-0.1-2.4-0.2-3.7-0.4c-1.3-0.2-2.7-0.3-4.1-0.6c-1.4-0.2-2.9-0.5-4.3-0.8
						c-1.5-0.3-2.9-0.7-4.4-1.1c-1.4-0.4-2.9-0.9-4.2-1.4c-0.7-0.3-1.4-0.5-2-0.8c-0.7-0.3-1.3-0.6-1.9-0.9
						c-1.3-0.6-2.5-1.3-3.5-1.9c-0.6-0.3-1.1-0.7-1.6-1s-1-0.7-1.4-1c-0.9-0.6-1.7-1.3-2.4-1.9c-0.7-0.6-1.3-1.2-1.8-1.6
						c-1-0.9-1.6-1.5-1.6-1.5s0.3,0.7,1,1.9c0.4,0.6,0.8,1.3,1.4,2.1c0.1,0.1,0.2,0.2,0.2,0.3c-8.1,3.2-13.7,10-14.8,18
						c-0.8,6.2,1.1,12.4,5.4,17.4s10.4,8.2,17.2,9.1c1.3,0.2,2.5,0.3,3.8,0.3c12.6,0,23.4-8.4,24.9-19.9c0.6-4.3-0.2-8.7-2.2-12.6
						h0.1c1.2-0.1,2.2-0.2,3.2-0.4c0.9-0.1,1.8-0.3,2.4-0.4c1.3-0.3,2.1-0.5,2.1-0.5s-0.8,0-2.1,0
						C331.4,198.7,330.6,198.7,329.6,198.6z M296.3,226.2c-1-1.4-1-3.3-0.4-4.9c0.4-1.2,2.2-0.4,1.8,0.8c-0.1,0.2-0.1,0.5-0.2,0.9
						c-0.1,0.7-0.1,1.4,0.4,2C298.6,226,297.1,227.2,296.3,226.2z M298.6,217.2c0.1-0.8,0.8-1.3,1.6-1.2c0.8,0.1,1.3,0.8,1.2,1.6
						c-0.1,0.8-0.8,1.3-1.6,1.2C299.1,218.7,298.5,218,298.6,217.2z M305.3,224.2c-0.2,1.5-1.6,2.6-3.1,2.4
						c-1.5-0.2-2.6-1.6-2.4-3.1s1.6-2.6,3.1-2.4C304.4,221.2,305.5,222.7,305.3,224.2z M325.7,212.2c-1.3,9.4-9.5,16.3-19.6,17.3
						c2.2-1.3,3.8-3.5,4.1-6.3c0.6-4.7-2.7-9-7.4-9.7c-4.7-0.6-9,2.7-9.7,7.4c-0.4,2.9,0.7,5.6,2.7,7.4c-4.3-1.4-8.1-3.8-10.9-7.1
						c-3.8-4.4-5.4-9.8-4.7-15.1c1-7.3,6.3-13.5,14-16.1c0.4,0.4,0.8,0.8,1.2,1.1c0.5,0.4,1,0.9,1.6,1.3c1.1,0.8,2.3,1.7,3.6,2.4
						c1.3,0.7,2.7,1.4,4.2,2s3,1.1,4.5,1.5s3.1,0.8,4.6,1.1s3.1,0.4,4.5,0.6c1.5,0.1,2.9,0.1,4.3,0.1c0.2,0,0.3,0,0.5,0
						C325.3,203.9,326.2,208.1,325.7,212.2z"/>
					<path class="st3" d="M302.9,221c-1.5-0.2-2.9,0.9-3.1,2.4s0.9,2.9,2.4,3.1c1.5,0.2,2.9-0.9,3.1-2.4
						C305.5,222.7,304.4,221.2,302.9,221z"/>
					<path class="st3" d="M301.4,217.6c0.1-0.8-0.4-1.5-1.2-1.6c-0.8-0.1-1.5,0.4-1.6,1.2s0.4,1.5,1.2,1.6
						C300.6,218.9,301.3,218.3,301.4,217.6z"/>
					<path class="st3" d="M297.5,223c0.1-0.4,0.1-0.7,0.2-0.9c0.4-1.2-1.4-1.9-1.8-0.8c-0.6,1.6-0.6,3.5,0.4,4.9
						c0.7,1,2.3-0.2,1.5-1.2C297.4,224.4,297.4,223.7,297.5,223z"/>
					<path d="M340.6,157.7l1.2,1.7l1.1-1.8c1.9-3,17.9-29.2,7.2-35.9c-1.1-0.7-2.2-1-3.5-1c-9.7,0-22.5,20-23.9,22.2l-0.9,1.4
						l1.5,0.7C323.5,145.1,335.5,150.6,340.6,157.7z M346.7,123.6c0.7,0,1.4,0.2,2,0.6c6.5,4.1-2.3,22.1-7,30.2
						c-4.7-5.4-12.3-9.6-15.6-11.2C330.3,136.6,340.3,123.6,346.7,123.6z"/>
					<path d="M316.8,265.8c-0.3,0.2-0.7,0.4-1,0.7c-0.3,0.3-0.7,0.6-1,0.9c-0.4,0.3-0.7,0.7-1,1.2c-0.1,0.1-0.2,0.3-0.3,0.4
						c-0.3-0.1-0.7-0.3-1.1-0.4c-0.5-0.2-1.2-0.4-1.9-0.6c-0.7-0.2-1.4-0.4-2.3-0.5c-0.4-0.1-0.8-0.1-1.3-0.2
						c-0.4-0.1-0.9-0.1-1.3-0.1c-0.5,0-0.9,0-1.4-0.1h-0.7h-0.7c-0.9,0.1-1.9,0.1-2.9,0.2c-0.5,0.1-1,0.1-1.4,0.2
						c-0.5,0.1-0.9,0.2-1.4,0.4c-0.9,0.2-1.8,0.6-2.6,0.9c-0.8,0.4-1.6,0.8-2.3,1.2c-0.7,0.4-1.3,0.8-1.9,1.3
						c-0.6,0.4-1.1,0.9-1.5,1.2c-0.4,0.4-0.8,0.7-1,1.1c-0.6,0.6-0.8,1-0.8,1s0.4-0.2,1.1-0.6c0.4-0.2,0.8-0.4,1.3-0.6
						s1.1-0.5,1.7-0.7c0.6-0.3,1.3-0.5,2-0.8s1.5-0.5,2.3-0.7c0.4-0.1,0.8-0.2,1.2-0.3c0.4-0.1,0.8-0.2,1.2-0.3
						c0.4-0.1,0.8-0.2,1.2-0.3l1.3-0.2c0.8-0.2,1.7-0.2,2.5-0.2h0.6h0.6c0.4,0,0.8,0,1.2,0.1c0.4,0,0.8,0.1,1.2,0.1
						c0.4,0.1,0.8,0.1,1.1,0.2c0.7,0.1,1.4,0.3,2,0.5s1.2,0.3,1.7,0.5c0.4,0.2,0.7,0.3,1,0.4c0,0.2-0.1,0.4-0.1,0.6
						c0,0.3,0,0.5,0,0.8c0,0.5,0.1,1,0.2,1.4c0.1,0.2,0.1,0.4,0.2,0.6s0.2,0.4,0.3,0.5c0.2,0.3,0.4,0.7,0.6,0.9
						c0.2,0.2,0.4,0.4,0.5,0.6c0.3,0.3,0.5,0.5,0.5,0.5s0-0.3,0-0.7c0-0.2,0-0.5-0.1-0.7c0-0.3,0-0.6,0-0.9c0-0.2,0-0.3,0-0.5
						s0-0.3,0.1-0.5c0-0.2,0-0.4,0-0.5c0-0.2,0.1-0.4,0.1-0.5c0-0.2,0.1-0.4,0.1-0.5c0.1-0.2,0.1-0.4,0.2-0.5
						c0.1-0.4,0.3-0.7,0.4-1.1c0.2-0.4,0.3-0.7,0.5-1.1c0.2-0.3,0.4-0.7,0.6-1s0.4-0.7,0.6-1s0.4-0.6,0.6-0.9
						c0.4-0.6,0.7-1.1,0.9-1.4c0.2-0.4,0.4-0.6,0.4-0.6s-0.3,0-0.7,0.1C318.1,265.2,317.5,265.4,316.8,265.8z"/>
				</g>
				<path class="st24" d="M344.9,112.2l0.1,1.4c0,0-3.9,1.5-12.9,12.2s-16.6,22.6-16.6,22.7c-0.1,0.1,7.9-14.3,7.9-14.3l13.7-17.8
					L344.9,112.2z"/>
			</g>
			<path class="st3" d="M253.8,36.8c0,0-4.3,8.6-12.9,4.3c0,0,8.6,4.3,4.3,13c0,0,4.3-8.6,12.9-4.3
				C258.1,49.8,249.5,45.5,253.8,36.8z"/>
			<path class="st3" d="M278.1,60.3c0,0,0.5,5.9-5.5,6.4c0,0,5.9-0.5,6.4,5.5c0,0-0.5-5.9,5.5-6.4C284.5,65.8,278.6,66.3,278.1,60.3
				z"/>
			<path class="st3" d="M262.1,93.3c0,0,0.3,3.9-3.6,4.2c0,0,3.9-0.3,4.2,3.6c0,0-0.3-3.9,3.6-4.2C266.3,96.9,262.4,97.2,262.1,93.3
				z"/>
			<path class="st3" d="M286.8,102c0,0,0.3,3.9-3.6,4.2c0,0,3.9-0.3,4.2,3.6c0,0-0.3-3.9,3.6-4.2C291.1,105.6,287.1,105.9,286.8,102
				z"/>
			<path class="st3" d="M262.9,132.1c0,0,0.3,3.9-3.6,4.2c0,0,3.9-0.3,4.2,3.6c0,0-0.3-3.9,3.6-4.2
				C267.2,135.7,263.2,136,262.9,132.1z"/>
			<path class="st3" d="M240.2,97.6c0,0,0.3,3.9-3.6,4.2c0,0,3.9-0.3,4.2,3.6c0,0-0.3-3.9,3.6-4.2
				C244.4,101.2,240.5,101.5,240.2,97.6z"/>
			<path class="st3" d="M240.6,77.3c0,0,0.3,3.4-3.1,3.6c0,0,3.4-0.3,3.6,3.1c0,0-0.3-3.4,3.1-3.6C244.2,80.4,240.8,80.6,240.6,77.3
				z"/>
		</g>
	</g>
	<g>
		<g class="st27">
			<path class="st3" d="M67.1,342.5c0,2.8-0.8,5-2.4,6.5s-3.9,2.2-7,2.2h-4.9v-17.1h5.4c2.8,0,5,0.7,6.5,2.2S67.1,339.9,67.1,342.5z
				 M63.3,342.6c0-3.7-1.6-5.5-4.9-5.5h-1.9v11.2h1.6C61.6,348.3,63.3,346.4,63.3,342.6z"/>
			<path class="st3" d="M82.3,344.7c0,2.1-0.6,3.8-1.7,5s-2.7,1.8-4.7,1.8c-1.3,0-2.4-0.3-3.3-0.8s-1.7-1.3-2.2-2.4
				s-0.8-2.2-0.8-3.6c0-2.1,0.6-3.8,1.7-5s2.7-1.8,4.7-1.8c1.3,0,2.4,0.3,3.3,0.8s1.7,1.3,2.2,2.4S82.3,343.3,82.3,344.7z
				 M73.2,344.7c0,1.3,0.2,2.3,0.6,2.9s1.1,1,2.1,1c1,0,1.6-0.3,2.1-1s0.6-1.6,0.6-2.9c0-1.3-0.2-2.3-0.6-2.9s-1.1-1-2.1-1
				c-1,0-1.6,0.3-2.1,1S73.2,343.4,73.2,344.7z"/>
			<path class="st3" d="M97.3,351.3h-3.6v-7.7c0-0.9-0.2-1.7-0.5-2.1s-0.9-0.7-1.6-0.7c-1,0-1.7,0.3-2.2,1s-0.7,1.8-0.7,3.3v6.2
				h-3.6v-13.1H88l0.5,1.7h0.2c0.4-0.6,0.9-1.1,1.6-1.4s1.5-0.5,2.4-0.5c1.5,0,2.7,0.4,3.5,1.2s1.2,2,1.2,3.6V351.3z"/>
			<path class="st3" d="M103.9,334.1l0.2,0.3c-0.4,1.5-1.1,3.4-2.1,5.6h-2.6c0.5-2.3,0.9-4.3,1.2-5.9H103.9z"/>
			<path class="st3" d="M111.7,348.6c0.6,0,1.4-0.1,2.2-0.4v2.7c-0.9,0.4-2,0.6-3.3,0.6c-1.4,0-2.5-0.4-3.1-1.1s-1-1.8-1-3.3v-6.3
				h-1.7v-1.5l2-1.2l1-2.8h2.3v2.8h3.7v2.7h-3.7v6.3c0,0.5,0.1,0.9,0.4,1.1S111.3,348.6,111.7,348.6z"/>
			<path class="st3" d="M130.1,337.9c1.5,0,2.8,0.6,3.6,1.8s1.3,2.9,1.3,5c0,2.2-0.5,3.8-1.4,5s-2.1,1.8-3.7,1.8
				c-1.5,0-2.7-0.6-3.6-1.7h-0.2l-0.6,1.4h-2.7V333h3.6v4.2c0,0.5,0,1.4-0.1,2.6h0.1C127.3,338.6,128.5,337.9,130.1,337.9z
				 M129,340.8c-0.9,0-1.5,0.3-1.9,0.8s-0.6,1.4-0.6,2.7v0.4c0,1.4,0.2,2.4,0.6,3s1.1,0.9,2,0.9c0.7,0,1.3-0.3,1.8-1
				s0.7-1.7,0.7-2.9s-0.2-2.3-0.7-2.9S129.8,340.8,129,340.8z"/>
			<path class="st3" d="M144,351.5c-2.1,0-3.8-0.6-4.9-1.7s-1.8-2.8-1.8-4.9c0-2.2,0.5-3.9,1.6-5.1s2.6-1.8,4.6-1.8
				c1.9,0,3.3,0.5,4.3,1.6s1.5,2.5,1.5,4.4v1.7h-8.4c0,1,0.3,1.8,0.9,2.4s1.4,0.9,2.4,0.9c0.8,0,1.5-0.1,2.2-0.2s1.4-0.4,2.2-0.8
				v2.8c-0.6,0.3-1.3,0.5-2,0.7S145,351.5,144,351.5z M143.5,340.5c-0.8,0-1.4,0.2-1.8,0.7s-0.7,1.2-0.7,2h5c0-0.9-0.2-1.6-0.7-2
				S144.2,340.5,143.5,340.5z"/>
			<path class="st3" d="M166.8,351.3l-0.7-1.8H166c-0.6,0.8-1.2,1.3-1.9,1.6s-1.5,0.4-2.5,0.4c-1.3,0-2.2-0.4-3-1.1
				s-1.1-1.7-1.1-3.1c0-1.4,0.5-2.4,1.5-3.1s2.4-1,4.4-1.1l2.3-0.1v-0.6c0-1.3-0.7-2-2-2c-1,0-2.3,0.3-3.7,0.9l-1.2-2.4
				c1.5-0.8,3.2-1.2,5-1.2c1.8,0,3.1,0.4,4,1.1s1.4,1.9,1.4,3.5v8.7H166.8z M165.7,345.2l-1.4,0c-1,0-1.8,0.2-2.3,0.6
				s-0.8,0.9-0.8,1.6c0,1,0.6,1.5,1.7,1.5c0.8,0,1.5-0.2,2-0.7s0.7-1.1,0.7-1.9V345.2z"/>
			<path class="st3" d="M190.9,351.3h-3.6v-7.7c0-0.9-0.2-1.7-0.5-2.1s-0.8-0.7-1.5-0.7c-0.9,0-1.6,0.3-2,1s-0.6,1.8-0.6,3.3v6.2
				h-3.6v-13.1h2.7l0.5,1.7h0.2c0.4-0.6,0.9-1.1,1.5-1.4s1.4-0.5,2.3-0.5c2,0,3.3,0.6,4,1.9h0.3c0.4-0.6,0.9-1.1,1.6-1.4
				s1.5-0.5,2.3-0.5c1.5,0,2.6,0.4,3.4,1.1s1.1,2,1.1,3.7v8.5h-3.6v-7.7c0-0.9-0.2-1.7-0.5-2.1s-0.8-0.7-1.5-0.7
				c-0.9,0-1.5,0.3-2,0.9s-0.7,1.6-0.7,3V351.3z"/>
			<path class="st3" d="M214.7,344.7c0,2.1-0.6,3.8-1.7,5s-2.7,1.8-4.7,1.8c-1.3,0-2.4-0.3-3.3-0.8s-1.7-1.3-2.2-2.4
				s-0.8-2.2-0.8-3.6c0-2.1,0.6-3.8,1.7-5s2.7-1.8,4.7-1.8c1.3,0,2.4,0.3,3.3,0.8s1.7,1.3,2.2,2.4S214.7,343.3,214.7,344.7z
				 M205.6,344.7c0,1.3,0.2,2.3,0.6,2.9s1.1,1,2.1,1c1,0,1.6-0.3,2.1-1s0.6-1.6,0.6-2.9c0-1.3-0.2-2.3-0.6-2.9s-1.1-1-2.1-1
				c-1,0-1.6,0.3-2.1,1S205.6,343.4,205.6,344.7z"/>
			<path class="st3" d="M226.9,351.3l-0.5-1.7h-0.2c-0.4,0.6-0.9,1.1-1.6,1.4s-1.5,0.5-2.4,0.5c-1.5,0-2.7-0.4-3.5-1.2
				s-1.2-2-1.2-3.6v-8.5h3.6v7.7c0,0.9,0.2,1.7,0.5,2.1s0.9,0.7,1.6,0.7c1,0,1.7-0.3,2.2-1s0.7-1.8,0.7-3.3v-6.2h3.6v13.1H226.9z"/>
			<path class="st3" d="M238.9,348.6c0.6,0,1.4-0.1,2.2-0.4v2.7c-0.9,0.4-2,0.6-3.3,0.6c-1.4,0-2.5-0.4-3.1-1.1s-1-1.8-1-3.3v-6.3
				h-1.7v-1.5l2-1.2l1-2.8h2.3v2.8h3.7v2.7h-3.7v6.3c0,0.5,0.1,0.9,0.4,1.1S238.4,348.6,238.9,348.6z"/>
			<path class="st3" d="M255.9,351.3h-3.6v-7.7c0-1.9-0.7-2.8-2.1-2.8c-1,0-1.7,0.3-2.2,1s-0.7,1.8-0.7,3.3v6.2h-3.6V333h3.6v3.7
				c0,0.3,0,1-0.1,2l-0.1,1.1h0.2c0.8-1.3,2.1-1.9,3.8-1.9c1.5,0,2.7,0.4,3.5,1.2s1.2,2,1.2,3.6V351.3z"/>
			<path class="st3" d="M266.8,351.5c-1.5,0-2.7-0.6-3.6-1.7H263c0.1,1.1,0.2,1.7,0.2,1.9v5.3h-3.6v-18.9h2.9l0.5,1.7h0.2
				c0.8-1.3,2.1-1.9,3.7-1.9c1.5,0,2.8,0.6,3.6,1.8s1.3,2.9,1.3,5c0,1.4-0.2,2.6-0.6,3.6s-1,1.8-1.8,2.4S267.8,351.5,266.8,351.5z
				 M265.7,340.8c-0.9,0-1.5,0.3-1.9,0.8s-0.6,1.4-0.6,2.7v0.4c0,1.4,0.2,2.4,0.6,3s1.1,0.9,2,0.9c1.6,0,2.4-1.3,2.4-4
				c0-1.3-0.2-2.3-0.6-2.9S266.6,340.8,265.7,340.8z"/>
			<path class="st3" d="M274.6,334.8c0-1.2,0.6-1.7,1.9-1.7s1.9,0.6,1.9,1.7c0,0.6-0.2,1-0.5,1.3s-0.8,0.5-1.5,0.5
				C275.3,336.5,274.6,335.9,274.6,334.8z M278.3,351.3h-3.6v-13.1h3.6V351.3z"/>
			<path class="st3" d="M288,351.5c-2.1,0-3.8-0.6-4.9-1.7s-1.8-2.8-1.8-4.9c0-2.2,0.5-3.9,1.6-5.1s2.6-1.8,4.6-1.8
				c1.9,0,3.3,0.5,4.3,1.6s1.5,2.5,1.5,4.4v1.7h-8.4c0,1,0.3,1.8,0.9,2.4s1.4,0.9,2.4,0.9c0.8,0,1.5-0.1,2.2-0.2s1.4-0.4,2.2-0.8
				v2.8c-0.6,0.3-1.3,0.5-2,0.7S289,351.5,288,351.5z M287.5,340.5c-0.8,0-1.4,0.2-1.8,0.7s-0.7,1.2-0.7,2h5c0-0.9-0.2-1.6-0.7-2
				S288.3,340.5,287.5,340.5z"/>
			<path class="st3" d="M301.6,351.5c-4.1,0-6.1-2.2-6.1-6.7c0-2.2,0.6-3.9,1.7-5.1s2.7-1.8,4.8-1.8c1.5,0,2.9,0.3,4.1,0.9l-1.1,2.8
				c-0.6-0.2-1.1-0.4-1.6-0.6s-1-0.2-1.5-0.2c-1.9,0-2.8,1.3-2.8,4c0,2.6,0.9,3.8,2.8,3.8c0.7,0,1.3-0.1,1.9-0.3s1.2-0.5,1.8-0.9
				v3.1c-0.6,0.4-1.2,0.6-1.8,0.8S302.5,351.5,301.6,351.5z"/>
			<path class="st3" d="M314.5,351.5c-2.1,0-3.8-0.6-4.9-1.7s-1.8-2.8-1.8-4.9c0-2.2,0.5-3.9,1.6-5.1s2.6-1.8,4.6-1.8
				c1.9,0,3.3,0.5,4.3,1.6s1.5,2.5,1.5,4.4v1.7h-8.4c0,1,0.3,1.8,0.9,2.4s1.4,0.9,2.4,0.9c0.8,0,1.5-0.1,2.2-0.2s1.4-0.4,2.2-0.8
				v2.8c-0.6,0.3-1.3,0.5-2,0.7S315.6,351.5,314.5,351.5z M314,340.5c-0.8,0-1.4,0.2-1.8,0.7s-0.7,1.2-0.7,2h5c0-0.9-0.2-1.6-0.7-2
				S314.8,340.5,314,340.5z"/>
			<path class="st3" d="M336.3,340.8h-3.1v10.4h-3.6v-10.4h-2v-1.7l2-1v-1c0-1.5,0.4-2.6,1.1-3.3s1.9-1,3.5-1c1.2,0,2.3,0.2,3.3,0.6
				l-0.9,2.6c-0.7-0.2-1.4-0.3-2-0.3c-0.5,0-0.9,0.2-1.1,0.5s-0.3,0.7-0.3,1.2v0.8h3.1V340.8z"/>
			<path class="st3" d="M350.2,344.7c0,2.1-0.6,3.8-1.7,5s-2.7,1.8-4.7,1.8c-1.3,0-2.4-0.3-3.3-0.8s-1.7-1.3-2.2-2.4
				s-0.8-2.2-0.8-3.6c0-2.1,0.6-3.8,1.7-5s2.7-1.8,4.7-1.8c1.3,0,2.4,0.3,3.3,0.8s1.7,1.3,2.2,2.4S350.2,343.3,350.2,344.7z
				 M341.2,344.7c0,1.3,0.2,2.3,0.6,2.9s1.1,1,2.1,1c1,0,1.6-0.3,2.1-1s0.6-1.6,0.6-2.9c0-1.3-0.2-2.3-0.6-2.9s-1.1-1-2.1-1
				c-1,0-1.6,0.3-2.1,1S341.2,343.4,341.2,344.7z"/>
			<path class="st3" d="M360.5,337.9c0.5,0,0.9,0,1.2,0.1l-0.3,3.4c-0.3-0.1-0.6-0.1-1.1-0.1c-1.1,0-2,0.3-2.7,0.9s-1,1.4-1,2.5v6.7
				h-3.6v-13.1h2.7l0.5,2.2h0.2c0.4-0.7,1-1.3,1.6-1.8S359.7,337.9,360.5,337.9z"/>
			<path class="st3" d="M378.6,351.3l-0.7-1.8h-0.1c-0.6,0.8-1.2,1.3-1.9,1.6s-1.5,0.4-2.5,0.4c-1.3,0-2.2-0.4-3-1.1
				s-1.1-1.7-1.1-3.1c0-1.4,0.5-2.4,1.5-3.1s2.4-1,4.4-1.1l2.3-0.1v-0.6c0-1.3-0.7-2-2-2c-1,0-2.3,0.3-3.7,0.9l-1.2-2.4
				c1.5-0.8,3.2-1.2,5-1.2c1.8,0,3.1,0.4,4,1.1s1.4,1.9,1.4,3.5v8.7H378.6z M377.6,345.2l-1.4,0c-1,0-1.8,0.2-2.3,0.6
				s-0.8,0.9-0.8,1.6c0,1,0.6,1.5,1.7,1.5c0.8,0,1.5-0.2,2-0.7s0.7-1.1,0.7-1.9V345.2z"/>
			<path class="st3" d="M396.9,351.3h-3.6v-7.7c0-0.9-0.2-1.7-0.5-2.1s-0.9-0.7-1.6-0.7c-1,0-1.7,0.3-2.2,1s-0.7,1.8-0.7,3.3v6.2
				h-3.6v-13.1h2.7l0.5,1.7h0.2c0.4-0.6,0.9-1.1,1.6-1.4s1.5-0.5,2.4-0.5c1.5,0,2.7,0.4,3.5,1.2s1.2,2,1.2,3.6V351.3z"/>
			<path class="st3" d="M398.7,338.2h3.9l2.5,7.4c0.2,0.6,0.4,1.4,0.4,2.3h0.1c0.1-0.8,0.3-1.6,0.5-2.3l2.4-7.4h3.8l-5.5,14.8
				c-0.5,1.4-1.2,2.4-2.2,3.1s-2,1-3.3,1c-0.6,0-1.2-0.1-1.8-0.2V354c0.4,0.1,0.9,0.2,1.4,0.2c0.6,0,1.2-0.2,1.7-0.6s0.8-1,1.1-1.8
				l0.2-0.6L398.7,338.2z"/>
			<path class="st3" d="M426.1,344.7c0,2.1-0.6,3.8-1.7,5s-2.7,1.8-4.7,1.8c-1.3,0-2.4-0.3-3.3-0.8s-1.7-1.3-2.2-2.4
				s-0.8-2.2-0.8-3.6c0-2.1,0.6-3.8,1.7-5s2.7-1.8,4.7-1.8c1.3,0,2.4,0.3,3.3,0.8s1.7,1.3,2.2,2.4S426.1,343.3,426.1,344.7z
				 M417.1,344.7c0,1.3,0.2,2.3,0.6,2.9s1.1,1,2.1,1c1,0,1.6-0.3,2.1-1s0.6-1.6,0.6-2.9c0-1.3-0.2-2.3-0.6-2.9s-1.1-1-2.1-1
				c-1,0-1.6,0.3-2.1,1S417.1,343.4,417.1,344.7z"/>
			<path class="st3" d="M441.2,351.3h-3.6v-7.7c0-0.9-0.2-1.7-0.5-2.1s-0.9-0.7-1.6-0.7c-1,0-1.7,0.3-2.2,1s-0.7,1.8-0.7,3.3v6.2
				h-3.6v-13.1h2.7l0.5,1.7h0.2c0.4-0.6,0.9-1.1,1.6-1.4s1.5-0.5,2.4-0.5c1.5,0,2.7,0.4,3.5,1.2s1.2,2,1.2,3.6V351.3z"/>
			<path class="st3" d="M450.8,351.5c-2.1,0-3.8-0.6-4.9-1.7s-1.8-2.8-1.8-4.9c0-2.2,0.5-3.9,1.6-5.1s2.6-1.8,4.6-1.8
				c1.9,0,3.3,0.5,4.3,1.6s1.5,2.5,1.5,4.4v1.7h-8.4c0,1,0.3,1.8,0.9,2.4s1.4,0.9,2.4,0.9c0.8,0,1.5-0.1,2.2-0.2s1.4-0.4,2.2-0.8
				v2.8c-0.6,0.3-1.3,0.5-2,0.7S451.8,351.5,450.8,351.5z M450.3,340.5c-0.8,0-1.4,0.2-1.8,0.7s-0.7,1.2-0.7,2h5
				c0-0.9-0.2-1.6-0.7-2S451,340.5,450.3,340.5z"/>
			<path class="st3" d="M476,351.3l-1-4.6l-1.4-5.8h-0.1l-2.4,10.4h-3.8l-3.7-13.1h3.6l1.5,5.8c0.2,1,0.5,2.5,0.7,4.3h0.1
				c0-0.6,0.2-1.5,0.4-2.8l0.2-1l1.6-6.3h3.9l1.5,6.3c0,0.2,0.1,0.4,0.1,0.8s0.1,0.7,0.2,1.1s0.1,0.8,0.2,1.1s0.1,0.7,0.1,0.9h0.1
				c0.1-0.6,0.2-1.3,0.4-2.3s0.3-1.6,0.4-2l1.6-5.8h3.5l-3.8,13.1H476z"/>
			<path class="st3" d="M497.9,351.3h-3.6v-7.7c0-1.9-0.7-2.8-2.1-2.8c-1,0-1.7,0.3-2.2,1s-0.7,1.8-0.7,3.3v6.2h-3.6V333h3.6v3.7
				c0,0.3,0,1-0.1,2l-0.1,1.1h0.2c0.8-1.3,2.1-1.9,3.8-1.9c1.5,0,2.7,0.4,3.5,1.2s1.2,2,1.2,3.6V351.3z"/>
			<path class="st3" d="M513.5,344.7c0,2.1-0.6,3.8-1.7,5s-2.7,1.8-4.7,1.8c-1.3,0-2.4-0.3-3.3-0.8s-1.7-1.3-2.2-2.4
				s-0.8-2.2-0.8-3.6c0-2.1,0.6-3.8,1.7-5s2.7-1.8,4.7-1.8c1.3,0,2.4,0.3,3.3,0.8s1.7,1.3,2.2,2.4S513.5,343.3,513.5,344.7z
				 M504.4,344.7c0,1.3,0.2,2.3,0.6,2.9s1.1,1,2.1,1c1,0,1.6-0.3,2.1-1s0.6-1.6,0.6-2.9c0-1.3-0.2-2.3-0.6-2.9s-1.1-1-2.1-1
				c-1,0-1.6,0.3-2.1,1S504.4,343.4,504.4,344.7z"/>
		</g>
		<g class="st27">
			<path class="st3" d="M73.4,371.9c0-1.2,0.6-1.7,1.9-1.7s1.9,0.6,1.9,1.7c0,0.6-0.2,1-0.5,1.3s-0.8,0.5-1.5,0.5
				C74,373.6,73.4,373,73.4,371.9z M77.1,388.4h-3.6v-13.1h3.6V388.4z"/>
			<path class="st3" d="M90,384.5c0,1.3-0.5,2.4-1.4,3.1s-2.3,1.1-4.2,1.1c-1,0-1.8-0.1-2.4-0.2s-1.3-0.3-1.9-0.6v-3
				c0.7,0.3,1.4,0.6,2.2,0.8s1.6,0.3,2.2,0.3c1.3,0,1.9-0.4,1.9-1.1c0-0.3-0.1-0.5-0.3-0.7s-0.5-0.4-0.9-0.6s-1-0.5-1.7-0.8
				c-1-0.4-1.7-0.8-2.2-1.2s-0.8-0.8-1-1.2s-0.3-1-0.3-1.7c0-1.2,0.5-2.1,1.4-2.7s2.2-1,3.8-1c1.6,0,3.1,0.3,4.6,1l-1.1,2.6
				c-0.7-0.3-1.3-0.5-1.8-0.7s-1.2-0.3-1.7-0.3c-1.1,0-1.6,0.3-1.6,0.9c0,0.3,0.2,0.6,0.5,0.8s1.1,0.6,2.2,1c1,0.4,1.8,0.8,2.2,1.2
				s0.8,0.8,1.1,1.2S90,383.8,90,384.5z"/>
			<path class="st3" d="M104.9,388.4h-3.6v-7.7c0-0.9-0.2-1.7-0.5-2.1s-0.9-0.7-1.6-0.7c-1,0-1.7,0.3-2.2,1s-0.7,1.8-0.7,3.3v6.2
				h-3.6v-13.1h2.7l0.5,1.7h0.2c0.4-0.6,0.9-1.1,1.6-1.4s1.5-0.5,2.4-0.5c1.5,0,2.7,0.4,3.5,1.2s1.2,2,1.2,3.6V388.4z"/>
			<path class="st3" d="M111.4,371.2l0.2,0.3c-0.4,1.5-1.1,3.4-2.1,5.6h-2.6c0.5-2.3,0.9-4.3,1.2-5.9H111.4z"/>
			<path class="st3" d="M119.3,385.7c0.6,0,1.4-0.1,2.2-0.4v2.7c-0.9,0.4-2,0.6-3.3,0.6c-1.4,0-2.5-0.4-3.1-1.1s-1-1.8-1-3.3v-6.3
				h-1.7v-1.5l2-1.2l1-2.8h2.3v2.8h3.7v2.7h-3.7v6.3c0,0.5,0.1,0.9,0.4,1.1S118.8,385.7,119.3,385.7z"/>
			<path class="st3" d="M137.7,375c0.5,0,0.9,0,1.2,0.1l-0.3,3.4c-0.3-0.1-0.6-0.1-1.1-0.1c-1.1,0-2,0.3-2.7,0.9s-1,1.4-1,2.5v6.7
				h-3.6v-13.1h2.7l0.5,2.2h0.2c0.4-0.7,1-1.3,1.6-1.8S136.9,375,137.7,375z"/>
			<path class="st3" d="M147.2,388.6c-2.1,0-3.8-0.6-4.9-1.7s-1.8-2.8-1.8-4.9c0-2.2,0.5-3.9,1.6-5.1s2.6-1.8,4.6-1.8
				c1.9,0,3.3,0.5,4.3,1.6s1.5,2.5,1.5,4.4v1.7h-8.4c0,1,0.3,1.8,0.9,2.4s1.4,0.9,2.4,0.9c0.8,0,1.5-0.1,2.2-0.2s1.4-0.4,2.2-0.8
				v2.8c-0.6,0.3-1.3,0.5-2,0.7S148.2,388.6,147.2,388.6z M146.7,377.6c-0.8,0-1.4,0.2-1.8,0.7s-0.7,1.2-0.7,2h5
				c0-0.9-0.2-1.6-0.7-2S147.5,377.6,146.7,377.6z"/>
			<path class="st3" d="M163.8,388.4l-0.7-1.8H163c-0.6,0.8-1.2,1.3-1.9,1.6s-1.5,0.4-2.5,0.4c-1.3,0-2.2-0.4-3-1.1
				s-1.1-1.7-1.1-3.1c0-1.4,0.5-2.4,1.5-3.1s2.4-1,4.4-1.1l2.3-0.1v-0.6c0-1.3-0.7-2-2-2c-1,0-2.3,0.3-3.7,0.9l-1.2-2.4
				c1.5-0.8,3.2-1.2,5-1.2c1.8,0,3.1,0.4,4,1.1s1.4,1.9,1.4,3.5v8.7H163.8z M162.7,382.3l-1.4,0c-1,0-1.8,0.2-2.3,0.6
				s-0.8,0.9-0.8,1.6c0,1,0.6,1.5,1.7,1.5c0.8,0,1.5-0.2,2-0.7s0.7-1.1,0.7-1.9V382.3z"/>
			<path class="st3" d="M174.1,388.6c-1.5,0-2.7-0.6-3.6-1.8s-1.3-2.9-1.3-5c0-2.1,0.4-3.8,1.3-5s2.1-1.8,3.7-1.8
				c1.6,0,2.9,0.6,3.8,1.9h0.1c-0.2-1-0.3-1.8-0.3-2.6v-4.2h3.6v18.2h-2.7l-0.7-1.7h-0.2C177,388,175.8,388.6,174.1,388.6z
				 M175.4,385.7c0.9,0,1.6-0.3,2-0.8s0.7-1.4,0.7-2.7v-0.4c0-1.4-0.2-2.4-0.7-3s-1.1-0.9-2.1-0.9c-0.8,0-1.4,0.3-1.9,1
				s-0.7,1.7-0.7,2.9s0.2,2.3,0.7,2.9S174.5,385.7,175.4,385.7z"/>
			<path class="st3" d="M183.3,375.3h3.9l2.5,7.4c0.2,0.6,0.4,1.4,0.4,2.3h0.1c0.1-0.8,0.3-1.6,0.5-2.3l2.4-7.4h3.8l-5.5,14.8
				c-0.5,1.4-1.2,2.4-2.2,3.1s-2,1-3.3,1c-0.6,0-1.2-0.1-1.8-0.2v-2.8c0.4,0.1,0.9,0.2,1.4,0.2c0.6,0,1.2-0.2,1.7-0.6s0.8-1,1.1-1.8
				l0.2-0.6L183.3,375.3z"/>
			<path class="st3" d="M210.6,385.7c0.6,0,1.4-0.1,2.2-0.4v2.7c-0.9,0.4-2,0.6-3.3,0.6c-1.4,0-2.5-0.4-3.1-1.1s-1-1.8-1-3.3v-6.3
				h-1.7v-1.5l2-1.2l1-2.8h2.3v2.8h3.7v2.7H209v6.3c0,0.5,0.1,0.9,0.4,1.1S210.1,385.7,210.6,385.7z"/>
			<path class="st3" d="M227.4,381.8c0,2.1-0.6,3.8-1.7,5s-2.7,1.8-4.7,1.8c-1.3,0-2.4-0.3-3.3-0.8s-1.7-1.3-2.2-2.4
				s-0.8-2.2-0.8-3.6c0-2.1,0.6-3.8,1.7-5s2.7-1.8,4.7-1.8c1.3,0,2.4,0.3,3.3,0.8s1.7,1.3,2.2,2.4S227.4,380.4,227.4,381.8z
				 M218.3,381.8c0,1.3,0.2,2.3,0.6,2.9s1.1,1,2.1,1c1,0,1.6-0.3,2.1-1s0.6-1.6,0.6-2.9c0-1.3-0.2-2.3-0.6-2.9s-1.1-1-2.1-1
				c-1,0-1.6,0.3-2.1,1S218.3,380.5,218.3,381.8z"/>
			<path class="st3" d="M241.9,388.6c-4.1,0-6.1-2.2-6.1-6.7c0-2.2,0.6-3.9,1.7-5.1s2.7-1.8,4.8-1.8c1.5,0,2.9,0.3,4.1,0.9l-1.1,2.8
				c-0.6-0.2-1.1-0.4-1.6-0.6s-1-0.2-1.5-0.2c-1.9,0-2.8,1.3-2.8,4c0,2.6,0.9,3.8,2.8,3.8c0.7,0,1.3-0.1,1.9-0.3s1.2-0.5,1.8-0.9
				v3.1c-0.6,0.4-1.2,0.6-1.8,0.8S242.8,388.6,241.9,388.6z"/>
			<path class="st3" d="M260.8,381.8c0,2.1-0.6,3.8-1.7,5s-2.7,1.8-4.7,1.8c-1.3,0-2.4-0.3-3.3-0.8s-1.7-1.3-2.2-2.4
				s-0.8-2.2-0.8-3.6c0-2.1,0.6-3.8,1.7-5s2.7-1.8,4.7-1.8c1.3,0,2.4,0.3,3.3,0.8s1.7,1.3,2.2,2.4S260.8,380.4,260.8,381.8z
				 M251.7,381.8c0,1.3,0.2,2.3,0.6,2.9s1.1,1,2.1,1c1,0,1.6-0.3,2.1-1s0.6-1.6,0.6-2.9c0-1.3-0.2-2.3-0.6-2.9s-1.1-1-2.1-1
				c-1,0-1.6,0.3-2.1,1S251.7,380.5,251.7,381.8z"/>
			<path class="st3" d="M275.5,388.4h-3.6v-7.7c0-0.9-0.2-1.7-0.5-2.1s-0.8-0.7-1.5-0.7c-0.9,0-1.6,0.3-2,1s-0.6,1.8-0.6,3.3v6.2
				h-3.6v-13.1h2.7l0.5,1.7h0.2c0.4-0.6,0.9-1.1,1.5-1.4s1.4-0.5,2.3-0.5c2,0,3.3,0.6,4,1.9h0.3c0.4-0.6,0.9-1.1,1.6-1.4
				s1.5-0.5,2.3-0.5c1.5,0,2.6,0.4,3.4,1.1s1.1,2,1.1,3.7v8.5h-3.6v-7.7c0-0.9-0.2-1.7-0.5-2.1s-0.8-0.7-1.5-0.7
				c-0.9,0-1.5,0.3-2,0.9s-0.7,1.6-0.7,3V388.4z"/>
			<path class="st3" d="M293.2,388.6c-2.1,0-3.8-0.6-4.9-1.7s-1.8-2.8-1.8-4.9c0-2.2,0.5-3.9,1.6-5.1s2.6-1.8,4.6-1.8
				c1.9,0,3.3,0.5,4.3,1.6s1.5,2.5,1.5,4.4v1.7h-8.4c0,1,0.3,1.8,0.9,2.4s1.4,0.9,2.4,0.9c0.8,0,1.5-0.1,2.2-0.2s1.4-0.4,2.2-0.8
				v2.8c-0.6,0.3-1.3,0.5-2,0.7S294.3,388.6,293.2,388.6z M292.7,377.6c-0.8,0-1.4,0.2-1.8,0.7s-0.7,1.2-0.7,2h5
				c0-0.9-0.2-1.6-0.7-2S293.5,377.6,292.7,377.6z"/>
			<path class="st3" d="M319.6,381.8c0,2.1-0.6,3.8-1.7,5s-2.7,1.8-4.7,1.8c-1.3,0-2.4-0.3-3.3-0.8s-1.7-1.3-2.2-2.4
				s-0.8-2.2-0.8-3.6c0-2.1,0.6-3.8,1.7-5s2.7-1.8,4.7-1.8c1.3,0,2.4,0.3,3.3,0.8s1.7,1.3,2.2,2.4S319.6,380.4,319.6,381.8z
				 M310.6,381.8c0,1.3,0.2,2.3,0.6,2.9s1.1,1,2.1,1c1,0,1.6-0.3,2.1-1s0.6-1.6,0.6-2.9c0-1.3-0.2-2.3-0.6-2.9s-1.1-1-2.1-1
				c-1,0-1.6,0.3-2.1,1S310.6,380.5,310.6,381.8z"/>
			<path class="st3" d="M331.9,388.4l-0.5-1.7h-0.2c-0.4,0.6-0.9,1.1-1.6,1.4s-1.5,0.5-2.4,0.5c-1.5,0-2.7-0.4-3.5-1.2
				s-1.2-2-1.2-3.6v-8.5h3.6v7.7c0,0.9,0.2,1.7,0.5,2.1s0.9,0.7,1.6,0.7c1,0,1.7-0.3,2.2-1s0.7-1.8,0.7-3.3v-6.2h3.6v13.1H331.9z"/>
			<path class="st3" d="M343.9,385.7c0.6,0,1.4-0.1,2.2-0.4v2.7c-0.9,0.4-2,0.6-3.3,0.6c-1.4,0-2.5-0.4-3.1-1.1s-1-1.8-1-3.3v-6.3
				H337v-1.5l2-1.2l1-2.8h2.3v2.8h3.7v2.7h-3.7v6.3c0,0.5,0.1,0.9,0.4,1.1S343.4,385.7,343.9,385.7z"/>
			<path class="st3" d="M353.1,375.3h3.9l2.5,7.4c0.2,0.6,0.4,1.4,0.4,2.3h0.1c0.1-0.8,0.3-1.6,0.5-2.3l2.4-7.4h3.8l-5.5,14.8
				c-0.5,1.4-1.2,2.4-2.2,3.1s-2,1-3.3,1c-0.6,0-1.2-0.1-1.8-0.2v-2.8c0.4,0.1,0.9,0.2,1.4,0.2c0.6,0,1.2-0.2,1.7-0.6s0.8-1,1.1-1.8
				l0.2-0.6L353.1,375.3z"/>
			<path class="st3" d="M374.6,388.6c-2.1,0-3.8-0.6-4.9-1.7s-1.8-2.8-1.8-4.9c0-2.2,0.5-3.9,1.6-5.1s2.6-1.8,4.6-1.8
				c1.9,0,3.3,0.5,4.3,1.6s1.5,2.5,1.5,4.4v1.7h-8.4c0,1,0.3,1.8,0.9,2.4s1.4,0.9,2.4,0.9c0.8,0,1.5-0.1,2.2-0.2s1.4-0.4,2.2-0.8
				v2.8c-0.6,0.3-1.3,0.5-2,0.7S375.6,388.6,374.6,388.6z M374.1,377.6c-0.8,0-1.4,0.2-1.8,0.7s-0.7,1.2-0.7,2h5
				c0-0.9-0.2-1.6-0.7-2S374.8,377.6,374.1,377.6z"/>
			<path class="st3" d="M388.4,385.7c0.6,0,1.4-0.1,2.2-0.4v2.7c-0.9,0.4-2,0.6-3.3,0.6c-1.4,0-2.5-0.4-3.1-1.1s-1-1.8-1-3.3v-6.3
				h-1.7v-1.5l2-1.2l1-2.8h2.3v2.8h3.7v2.7h-3.7v6.3c0,0.5,0.1,0.9,0.4,1.1S387.9,385.7,388.4,385.7z"/>
			<path class="st3" d="M396.6,385.6l0.2,0.3c-0.4,1.6-1.1,3.4-2.1,5.6h-2.6c0.5-2.1,0.9-4,1.2-5.9H396.6z M392.8,377
				c0-0.7,0.2-1.2,0.5-1.5s0.9-0.5,1.5-0.5c0.6,0,1.2,0.2,1.5,0.5s0.5,0.8,0.5,1.5c0,0.6-0.2,1.1-0.5,1.5s-0.9,0.5-1.5,0.5
				c-0.7,0-1.2-0.2-1.5-0.5S392.8,377.6,392.8,377z"/>
			<path class="st3" d="M413.8,375c0.5,0,0.9,0,1.2,0.1l-0.3,3.4c-0.3-0.1-0.6-0.1-1.1-0.1c-1.1,0-2,0.3-2.7,0.9s-1,1.4-1,2.5v6.7
				h-3.6v-13.1h2.7l0.5,2.2h0.2c0.4-0.7,1-1.3,1.6-1.8S413,375,413.8,375z"/>
			<path class="st3" d="M423.3,388.6c-2.1,0-3.8-0.6-4.9-1.7s-1.8-2.8-1.8-4.9c0-2.2,0.5-3.9,1.6-5.1s2.6-1.8,4.6-1.8
				c1.9,0,3.3,0.5,4.3,1.6s1.5,2.5,1.5,4.4v1.7h-8.4c0,1,0.3,1.8,0.9,2.4s1.4,0.9,2.4,0.9c0.8,0,1.5-0.1,2.2-0.2s1.4-0.4,2.2-0.8
				v2.8c-0.6,0.3-1.3,0.5-2,0.7S424.3,388.6,423.3,388.6z M422.8,377.6c-0.8,0-1.4,0.2-1.8,0.7s-0.7,1.2-0.7,2h5
				c0-0.9-0.2-1.6-0.7-2S423.5,377.6,422.8,377.6z"/>
			<path class="st3" d="M440.7,384.5c0,1.3-0.5,2.4-1.4,3.1s-2.3,1.1-4.2,1.1c-1,0-1.8-0.1-2.4-0.2s-1.3-0.3-1.9-0.6v-3
				c0.7,0.3,1.4,0.6,2.2,0.8s1.6,0.3,2.2,0.3c1.3,0,1.9-0.4,1.9-1.1c0-0.3-0.1-0.5-0.3-0.7s-0.5-0.4-0.9-0.6s-1-0.5-1.7-0.8
				c-1-0.4-1.7-0.8-2.2-1.2s-0.8-0.8-1-1.2s-0.3-1-0.3-1.7c0-1.2,0.5-2.1,1.4-2.7s2.2-1,3.8-1c1.6,0,3.1,0.3,4.6,1l-1.1,2.6
				c-0.7-0.3-1.3-0.5-1.8-0.7s-1.2-0.3-1.7-0.3c-1.1,0-1.6,0.3-1.6,0.9c0,0.3,0.2,0.6,0.5,0.8s1.1,0.6,2.2,1c1,0.4,1.8,0.8,2.2,1.2
				s0.8,0.8,1.1,1.2S440.7,383.8,440.7,384.5z"/>
			<path class="st3" d="M450.7,388.6c-1.5,0-2.7-0.6-3.6-1.7h-0.2c0.1,1.1,0.2,1.7,0.2,1.9v5.3h-3.6v-18.9h2.9l0.5,1.7h0.2
				c0.8-1.3,2.1-1.9,3.7-1.9c1.5,0,2.8,0.6,3.6,1.8s1.3,2.9,1.3,5c0,1.4-0.2,2.6-0.6,3.6s-1,1.8-1.8,2.4S451.7,388.6,450.7,388.6z
				 M449.6,377.9c-0.9,0-1.5,0.3-1.9,0.8s-0.6,1.4-0.6,2.7v0.4c0,1.4,0.2,2.4,0.6,3s1.1,0.9,2,0.9c1.6,0,2.4-1.3,2.4-4
				c0-1.3-0.2-2.3-0.6-2.9S450.4,377.9,449.6,377.9z"/>
			<path class="st3" d="M464.6,388.6c-2.1,0-3.8-0.6-4.9-1.7s-1.8-2.8-1.8-4.9c0-2.2,0.5-3.9,1.6-5.1s2.6-1.8,4.6-1.8
				c1.9,0,3.3,0.5,4.3,1.6s1.5,2.5,1.5,4.4v1.7h-8.4c0,1,0.3,1.8,0.9,2.4s1.4,0.9,2.4,0.9c0.8,0,1.5-0.1,2.2-0.2s1.4-0.4,2.2-0.8
				v2.8c-0.6,0.3-1.3,0.5-2,0.7S465.6,388.6,464.6,388.6z M464.1,377.6c-0.8,0-1.4,0.2-1.8,0.7s-0.7,1.2-0.7,2h5
				c0-0.9-0.2-1.6-0.7-2S464.8,377.6,464.1,377.6z"/>
			<path class="st3" d="M478.2,388.6c-4.1,0-6.1-2.2-6.1-6.7c0-2.2,0.6-3.9,1.7-5.1s2.7-1.8,4.8-1.8c1.5,0,2.9,0.3,4.1,0.9l-1.1,2.8
				c-0.6-0.2-1.1-0.4-1.6-0.6s-1-0.2-1.5-0.2c-1.9,0-2.8,1.3-2.8,4c0,2.6,0.9,3.8,2.8,3.8c0.7,0,1.3-0.1,1.9-0.3s1.2-0.5,1.8-0.9
				v3.1c-0.6,0.4-1.2,0.6-1.8,0.8S479,388.6,478.2,388.6z"/>
			<path class="st3" d="M490.7,385.7c0.6,0,1.4-0.1,2.2-0.4v2.7c-0.9,0.4-2,0.6-3.3,0.6c-1.4,0-2.5-0.4-3.1-1.1s-1-1.8-1-3.3v-6.3
				h-1.7v-1.5l2-1.2l1-2.8h2.3v2.8h3.7v2.7h-3.7v6.3c0,0.5,0.1,0.9,0.4,1.1S490.2,385.7,490.7,385.7z"/>
		</g>
		<g class="st27">
			<path class="st3" d="M155.1,422.8c0.6,0,1.4-0.1,2.2-0.4v2.7c-0.9,0.4-2,0.6-3.3,0.6c-1.4,0-2.5-0.4-3.1-1.1s-1-1.8-1-3.3V415
				h-1.7v-1.5l2-1.2l1-2.8h2.3v2.8h3.7v2.7h-3.7v6.3c0,0.5,0.1,0.9,0.4,1.1S154.7,422.8,155.1,422.8z"/>
			<path class="st3" d="M172.1,425.5h-3.6v-7.7c0-1.9-0.7-2.8-2.1-2.8c-1,0-1.7,0.3-2.2,1s-0.7,1.8-0.7,3.3v6.2H160v-18.2h3.6v3.7
				c0,0.3,0,1-0.1,2l-0.1,1.1h0.2c0.8-1.3,2.1-1.9,3.8-1.9c1.5,0,2.7,0.4,3.5,1.2s1.2,2,1.2,3.6V425.5z"/>
			<path class="st3" d="M181.7,425.7c-2.1,0-3.8-0.6-4.9-1.7s-1.8-2.8-1.8-4.9c0-2.2,0.5-3.9,1.6-5.1s2.6-1.8,4.6-1.8
				c1.9,0,3.3,0.5,4.3,1.6s1.5,2.5,1.5,4.4v1.7h-8.4c0,1,0.3,1.8,0.9,2.4s1.4,0.9,2.4,0.9c0.8,0,1.5-0.1,2.2-0.2s1.4-0.4,2.2-0.8
				v2.8c-0.6,0.3-1.3,0.5-2,0.7S182.7,425.7,181.7,425.7z M181.2,414.7c-0.8,0-1.4,0.2-1.8,0.7s-0.7,1.2-0.7,2h5
				c0-0.9-0.2-1.6-0.7-2S182,414.7,181.2,414.7z"/>
			<path class="st3" d="M189.8,409c0-1.2,0.6-1.7,1.9-1.7s1.9,0.6,1.9,1.7c0,0.6-0.2,1-0.5,1.3s-0.8,0.5-1.5,0.5
				C190.5,410.7,189.8,410.1,189.8,409z M193.5,425.5H190v-13.1h3.6V425.5z"/>
			<path class="st3" d="M204.6,412.1c0.5,0,0.9,0,1.2,0.1l-0.3,3.4c-0.3-0.1-0.6-0.1-1.1-0.1c-1.1,0-2,0.3-2.7,0.9s-1,1.4-1,2.5v6.7
				h-3.6v-13.1h2.7l0.5,2.2h0.2c0.4-0.7,1-1.3,1.6-1.8S203.8,412.1,204.6,412.1z"/>
			<path class="st3" d="M221.6,425.7c-1.5,0-2.7-0.6-3.6-1.7h-0.2c0.1,1.1,0.2,1.7,0.2,1.9v5.3h-3.6v-18.9h2.9l0.5,1.7h0.2
				c0.8-1.3,2.1-1.9,3.7-1.9c1.5,0,2.8,0.6,3.6,1.8s1.3,2.9,1.3,5c0,1.4-0.2,2.6-0.6,3.6s-1,1.8-1.8,2.4S222.6,425.7,221.6,425.7z
				 M220.6,415c-0.9,0-1.5,0.3-1.9,0.8s-0.6,1.4-0.6,2.7v0.4c0,1.4,0.2,2.4,0.6,3s1.1,0.9,2,0.9c1.6,0,2.4-1.3,2.4-4
				c0-1.3-0.2-2.3-0.6-2.9S221.4,415,220.6,415z"/>
			<path class="st3" d="M236.9,412.1c0.5,0,0.9,0,1.2,0.1l-0.3,3.4c-0.3-0.1-0.6-0.1-1.1-0.1c-1.1,0-2,0.3-2.7,0.9s-1,1.4-1,2.5v6.7
				h-3.6v-13.1h2.7l0.5,2.2h0.2c0.4-0.7,1-1.3,1.6-1.8S236.1,412.1,236.9,412.1z"/>
			<path class="st3" d="M240.4,409c0-1.2,0.6-1.7,1.9-1.7s1.9,0.6,1.9,1.7c0,0.6-0.2,1-0.5,1.3s-0.8,0.5-1.5,0.5
				C241,410.7,240.4,410.1,240.4,409z M244.1,425.5h-3.6v-13.1h3.6V425.5z"/>
			<path class="st3" d="M251,425.5l-5-13.1h3.7l2.5,7.5c0.3,0.9,0.5,1.8,0.5,2.7h0.1c0-0.8,0.2-1.6,0.5-2.7l2.5-7.5h3.7l-5,13.1H251
				z"/>
			<path class="st3" d="M269.8,425.5l-0.7-1.8H269c-0.6,0.8-1.2,1.3-1.9,1.6s-1.5,0.4-2.5,0.4c-1.3,0-2.2-0.4-3-1.1
				s-1.1-1.7-1.1-3.1c0-1.4,0.5-2.4,1.5-3.1s2.4-1,4.4-1.1l2.3-0.1v-0.6c0-1.3-0.7-2-2-2c-1,0-2.3,0.3-3.7,0.9l-1.2-2.4
				c1.5-0.8,3.2-1.2,5-1.2c1.8,0,3.1,0.4,4,1.1s1.4,1.9,1.4,3.5v8.7H269.8z M268.8,419.4l-1.4,0c-1,0-1.8,0.2-2.3,0.6
				s-0.8,0.9-0.8,1.6c0,1,0.6,1.5,1.7,1.5c0.8,0,1.5-0.2,2-0.7s0.7-1.1,0.7-1.9V419.4z"/>
			<path class="st3" d="M281.3,425.7c-4.1,0-6.1-2.2-6.1-6.7c0-2.2,0.6-3.9,1.7-5.1s2.7-1.8,4.8-1.8c1.5,0,2.9,0.3,4.1,0.9l-1.1,2.8
				c-0.6-0.2-1.1-0.4-1.6-0.6s-1-0.2-1.5-0.2c-1.9,0-2.8,1.3-2.8,4c0,2.6,0.9,3.8,2.8,3.8c0.7,0,1.3-0.1,1.9-0.3s1.2-0.5,1.8-0.9
				v3.1c-0.6,0.4-1.2,0.6-1.8,0.8S282.2,425.7,281.3,425.7z"/>
			<path class="st3" d="M286.5,412.4h3.9l2.5,7.4c0.2,0.6,0.4,1.4,0.4,2.3h0.1c0.1-0.8,0.3-1.6,0.5-2.3l2.4-7.4h3.8l-5.5,14.8
				c-0.5,1.4-1.2,2.4-2.2,3.1s-2,1-3.3,1c-0.6,0-1.2-0.1-1.8-0.2v-2.8c0.4,0.1,0.9,0.2,1.4,0.2c0.6,0,1.2-0.2,1.7-0.6s0.8-1,1.1-1.8
				l0.2-0.6L286.5,412.4z"/>
			<path class="st3" d="M324.3,425.5h-4.4l-1.3-1.3c-1.5,1-3.2,1.6-5.1,1.6c-1.9,0-3.4-0.4-4.5-1.3s-1.7-2.1-1.7-3.6
				c0-1.1,0.2-2,0.7-2.7s1.3-1.5,2.4-2.1c-0.6-0.7-1-1.3-1.3-1.9s-0.4-1.3-0.4-2c0-1.2,0.5-2.1,1.4-2.9s2.1-1.1,3.7-1.1
				c1.5,0,2.6,0.3,3.5,1s1.3,1.6,1.3,2.7c0,0.9-0.3,1.8-0.8,2.5s-1.4,1.5-2.6,2.2l3.3,3.2c0.6-0.9,1-2.1,1.4-3.5h3.7
				c-0.3,1.1-0.7,2.1-1.2,3.1s-1.1,1.9-1.7,2.7L324.3,425.5z M311.1,420.5c0,0.7,0.3,1.2,0.8,1.6s1.2,0.6,1.9,0.6
				c1,0,1.9-0.2,2.7-0.7l-3.9-3.9c-0.5,0.3-0.8,0.7-1.1,1.1S311.1,420,311.1,420.5z M315.3,412.2c0-0.4-0.1-0.7-0.4-1
				s-0.6-0.4-1.1-0.4c-0.5,0-0.9,0.1-1.2,0.4s-0.5,0.6-0.5,1.1c0,0.7,0.4,1.4,1.1,2.3c0.7-0.4,1.2-0.7,1.5-1.1
				S315.3,412.7,315.3,412.2z"/>
			<path class="st3" d="M338,422.8c0.6,0,1.4-0.1,2.2-0.4v2.7c-0.9,0.4-2,0.6-3.3,0.6c-1.4,0-2.5-0.4-3.1-1.1s-1-1.8-1-3.3V415h-1.7
				v-1.5l2-1.2l1-2.8h2.3v2.8h3.7v2.7h-3.7v6.3c0,0.5,0.1,0.9,0.4,1.1S337.5,422.8,338,422.8z"/>
			<path class="st3" d="M342.7,409c0-1.2,0.6-1.7,1.9-1.7s1.9,0.6,1.9,1.7c0,0.6-0.2,1-0.5,1.3s-0.8,0.5-1.5,0.5
				C343.4,410.7,342.7,410.1,342.7,409z M346.4,425.5h-3.6v-13.1h3.6V425.5z"/>
			<path class="st3" d="M361.9,425.5h-3.6v-7.7c0-0.9-0.2-1.7-0.5-2.1s-0.8-0.7-1.5-0.7c-0.9,0-1.6,0.3-2,1s-0.6,1.8-0.6,3.3v6.2
				h-3.6v-13.1h2.7l0.5,1.7h0.2c0.4-0.6,0.9-1.1,1.5-1.4s1.4-0.5,2.3-0.5c2,0,3.3,0.6,4,1.9h0.3c0.4-0.6,0.9-1.1,1.6-1.4
				s1.5-0.5,2.3-0.5c1.5,0,2.6,0.4,3.4,1.1s1.1,2,1.1,3.7v8.5h-3.6v-7.7c0-0.9-0.2-1.7-0.5-2.1s-0.8-0.7-1.5-0.7
				c-0.9,0-1.5,0.3-2,0.9s-0.7,1.6-0.7,3V425.5z"/>
			<path class="st3" d="M379.7,425.7c-2.1,0-3.8-0.6-4.9-1.7s-1.8-2.8-1.8-4.9c0-2.2,0.5-3.9,1.6-5.1s2.6-1.8,4.6-1.8
				c1.9,0,3.3,0.5,4.3,1.6s1.5,2.5,1.5,4.4v1.7h-8.4c0,1,0.3,1.8,0.9,2.4s1.4,0.9,2.4,0.9c0.8,0,1.5-0.1,2.2-0.2s1.4-0.4,2.2-0.8
				v2.8c-0.6,0.3-1.3,0.5-2,0.7S380.7,425.7,379.7,425.7z M379.2,414.7c-0.8,0-1.4,0.2-1.8,0.7s-0.7,1.2-0.7,2h5
				c0-0.9-0.2-1.6-0.7-2S379.9,414.7,379.2,414.7z"/>
			<path class="st3" d="M399.7,422.8c0.6,0,1.4-0.1,2.2-0.4v2.7c-0.9,0.4-2,0.6-3.3,0.6c-1.4,0-2.5-0.4-3.1-1.1s-1-1.8-1-3.3V415
				h-1.7v-1.5l2-1.2l1-2.8h2.3v2.8h3.7v2.7h-3.7v6.3c0,0.5,0.1,0.9,0.4,1.1S399.2,422.8,399.7,422.8z"/>
			<path class="st3" d="M416.5,418.9c0,2.1-0.6,3.8-1.7,5s-2.7,1.8-4.7,1.8c-1.3,0-2.4-0.3-3.3-0.8s-1.7-1.3-2.2-2.4
				s-0.8-2.2-0.8-3.6c0-2.1,0.6-3.8,1.7-5s2.7-1.8,4.7-1.8c1.3,0,2.4,0.3,3.3,0.8s1.7,1.3,2.2,2.4S416.5,417.5,416.5,418.9z
				 M407.4,418.9c0,1.3,0.2,2.3,0.6,2.9s1.1,1,2.1,1c1,0,1.6-0.3,2.1-1s0.6-1.6,0.6-2.9c0-1.3-0.2-2.3-0.6-2.9s-1.1-1-2.1-1
				c-1,0-1.6,0.3-2.1,1S407.4,417.6,407.4,418.9z"/>
		</g>
		<g class="st27">
			<path class="st3" d="M128.3,462.8c-4.1,0-6.1-2.2-6.1-6.7c0-2.2,0.6-3.9,1.7-5.1s2.7-1.8,4.8-1.8c1.5,0,2.9,0.3,4.1,0.9l-1.1,2.8
				c-0.6-0.2-1.1-0.4-1.6-0.6s-1-0.2-1.5-0.2c-1.9,0-2.8,1.3-2.8,4c0,2.6,0.9,3.8,2.8,3.8c0.7,0,1.3-0.1,1.9-0.3s1.2-0.5,1.8-0.9
				v3.1c-0.6,0.4-1.2,0.6-1.8,0.8S129.2,462.8,128.3,462.8z"/>
			<path class="st3" d="M147.2,456c0,2.1-0.6,3.8-1.7,5s-2.7,1.8-4.7,1.8c-1.3,0-2.4-0.3-3.3-0.8s-1.7-1.3-2.2-2.4s-0.8-2.2-0.8-3.6
				c0-2.1,0.6-3.8,1.7-5s2.7-1.8,4.7-1.8c1.3,0,2.4,0.3,3.3,0.8s1.7,1.3,2.2,2.4S147.2,454.6,147.2,456z M138.2,456
				c0,1.3,0.2,2.3,0.6,2.9s1.1,1,2.1,1c1,0,1.6-0.3,2.1-1s0.6-1.6,0.6-2.9c0-1.3-0.2-2.3-0.6-2.9s-1.1-1-2.1-1c-1,0-1.6,0.3-2.1,1
				S138.2,454.7,138.2,456z"/>
			<path class="st3" d="M161.9,462.6h-3.6v-7.7c0-0.9-0.2-1.7-0.5-2.1s-0.8-0.7-1.5-0.7c-0.9,0-1.6,0.3-2,1s-0.6,1.8-0.6,3.3v6.2
				h-3.6v-13.1h2.7l0.5,1.7h0.2c0.4-0.6,0.9-1.1,1.5-1.4s1.4-0.5,2.3-0.5c2,0,3.3,0.6,4,1.9h0.3c0.4-0.6,0.9-1.1,1.6-1.4
				s1.5-0.5,2.3-0.5c1.5,0,2.6,0.4,3.4,1.1s1.1,2,1.1,3.7v8.5h-3.6v-7.7c0-0.9-0.2-1.7-0.5-2.1s-0.8-0.7-1.5-0.7
				c-0.9,0-1.5,0.3-2,0.9s-0.7,1.6-0.7,3V462.6z"/>
			<path class="st3" d="M185.5,462.6h-3.6v-7.7c0-0.9-0.2-1.7-0.5-2.1s-0.8-0.7-1.5-0.7c-0.9,0-1.6,0.3-2,1s-0.6,1.8-0.6,3.3v6.2
				h-3.6v-13.1h2.7l0.5,1.7h0.2c0.4-0.6,0.9-1.1,1.5-1.4s1.4-0.5,2.3-0.5c2,0,3.3,0.6,4,1.9h0.3c0.4-0.6,0.9-1.1,1.6-1.4
				s1.5-0.5,2.3-0.5c1.5,0,2.6,0.4,3.4,1.1s1.1,2,1.1,3.7v8.5h-3.6v-7.7c0-0.9-0.2-1.7-0.5-2.1s-0.8-0.7-1.5-0.7
				c-0.9,0-1.5,0.3-2,0.9s-0.7,1.6-0.7,3V462.6z"/>
			<path class="st3" d="M206.6,462.6l-0.5-1.7h-0.2c-0.4,0.6-0.9,1.1-1.6,1.4s-1.5,0.5-2.4,0.5c-1.5,0-2.7-0.4-3.5-1.2
				s-1.2-2-1.2-3.6v-8.5h3.6v7.7c0,0.9,0.2,1.7,0.5,2.1s0.9,0.7,1.6,0.7c1,0,1.7-0.3,2.2-1s0.7-1.8,0.7-3.3v-6.2h3.6v13.1H206.6z"/>
			<path class="st3" d="M225.2,462.6h-3.6v-7.7c0-0.9-0.2-1.7-0.5-2.1s-0.9-0.7-1.6-0.7c-1,0-1.7,0.3-2.2,1s-0.7,1.8-0.7,3.3v6.2
				h-3.6v-13.1h2.7l0.5,1.7h0.2c0.4-0.6,0.9-1.1,1.6-1.4s1.5-0.5,2.4-0.5c1.5,0,2.7,0.4,3.5,1.2s1.2,2,1.2,3.6V462.6z"/>
			<path class="st3" d="M228.7,446.1c0-1.2,0.6-1.7,1.9-1.7s1.9,0.6,1.9,1.7c0,0.6-0.2,1-0.5,1.3s-0.8,0.5-1.5,0.5
				C229.4,447.8,228.7,447.2,228.7,446.1z M232.5,462.6h-3.6v-13.1h3.6V462.6z"/>
			<path class="st3" d="M241.5,462.8c-4.1,0-6.1-2.2-6.1-6.7c0-2.2,0.6-3.9,1.7-5.1s2.7-1.8,4.8-1.8c1.5,0,2.9,0.3,4.1,0.9l-1.1,2.8
				c-0.6-0.2-1.1-0.4-1.6-0.6s-1-0.2-1.5-0.2c-1.9,0-2.8,1.3-2.8,4c0,2.6,0.9,3.8,2.8,3.8c0.7,0,1.3-0.1,1.9-0.3s1.2-0.5,1.8-0.9
				v3.1c-0.6,0.4-1.2,0.6-1.8,0.8S242.4,462.8,241.5,462.8z"/>
			<path class="st3" d="M256.9,462.6l-0.7-1.8h-0.1c-0.6,0.8-1.2,1.3-1.9,1.6s-1.5,0.4-2.5,0.4c-1.3,0-2.2-0.4-3-1.1
				s-1.1-1.7-1.1-3.1c0-1.4,0.5-2.4,1.5-3.1s2.4-1,4.4-1.1l2.3-0.1v-0.6c0-1.3-0.7-2-2-2c-1,0-2.3,0.3-3.7,0.9l-1.2-2.4
				c1.5-0.8,3.2-1.2,5-1.2c1.8,0,3.1,0.4,4,1.1s1.4,1.9,1.4,3.5v8.7H256.9z M255.8,456.5l-1.4,0c-1,0-1.8,0.2-2.3,0.6
				s-0.8,0.9-0.8,1.6c0,1,0.6,1.5,1.7,1.5c0.8,0,1.5-0.2,2-0.7s0.7-1.1,0.7-1.9V456.5z"/>
			<path class="st3" d="M268.6,459.9c0.6,0,1.4-0.1,2.2-0.4v2.7c-0.9,0.4-2,0.6-3.3,0.6c-1.4,0-2.5-0.4-3.1-1.1s-1-1.8-1-3.3v-6.3
				h-1.7v-1.5l2-1.2l1-2.8h2.3v2.8h3.7v2.7H267v6.3c0,0.5,0.1,0.9,0.4,1.1S268.1,459.9,268.6,459.9z"/>
			<path class="st3" d="M279.4,462.8c-2.1,0-3.8-0.6-4.9-1.7s-1.8-2.8-1.8-4.9c0-2.2,0.5-3.9,1.6-5.1s2.6-1.8,4.6-1.8
				c1.9,0,3.3,0.5,4.3,1.6c1,1.1,1.5,2.5,1.5,4.4v1.7h-8.4c0,1,0.3,1.8,0.9,2.4s1.4,0.9,2.4,0.9c0.8,0,1.5-0.1,2.2-0.2
				s1.4-0.4,2.2-0.8v2.8c-0.6,0.3-1.3,0.5-2,0.7S280.4,462.8,279.4,462.8z M278.9,451.8c-0.8,0-1.4,0.2-1.8,0.7s-0.7,1.2-0.7,2h5
				c0-0.9-0.2-1.6-0.7-2S279.6,451.8,278.9,451.8z"/>
			<path class="st3" d="M299.4,459.9c0.6,0,1.4-0.1,2.2-0.4v2.7c-0.9,0.4-2,0.6-3.3,0.6c-1.4,0-2.5-0.4-3.1-1.1s-1-1.8-1-3.3v-6.3
				h-1.7v-1.5l2-1.2l1-2.8h2.3v2.8h3.7v2.7h-3.7v6.3c0,0.5,0.1,0.9,0.4,1.1S298.9,459.9,299.4,459.9z"/>
			<path class="st3" d="M316.4,462.6h-3.6v-7.7c0-1.9-0.7-2.8-2.1-2.8c-1,0-1.7,0.3-2.2,1s-0.7,1.8-0.7,3.3v6.2h-3.6v-18.2h3.6v3.7
				c0,0.3,0,1-0.1,2l-0.1,1.1h0.2c0.8-1.3,2.1-1.9,3.8-1.9c1.5,0,2.7,0.4,3.5,1.2s1.2,2,1.2,3.6V462.6z"/>
			<path class="st3" d="M326,462.8c-2.1,0-3.8-0.6-4.9-1.7s-1.8-2.8-1.8-4.9c0-2.2,0.5-3.9,1.6-5.1s2.6-1.8,4.6-1.8
				c1.9,0,3.3,0.5,4.3,1.6s1.5,2.5,1.5,4.4v1.7h-8.4c0,1,0.3,1.8,0.9,2.4s1.4,0.9,2.4,0.9c0.8,0,1.5-0.1,2.2-0.2s1.4-0.4,2.2-0.8
				v2.8c-0.6,0.3-1.3,0.5-2,0.7S327,462.8,326,462.8z M325.5,451.8c-0.8,0-1.4,0.2-1.8,0.7s-0.7,1.2-0.7,2h5c0-0.9-0.2-1.6-0.7-2
				S326.2,451.8,325.5,451.8z"/>
			<path class="st3" d="M334.1,446.1c0-1.2,0.6-1.7,1.9-1.7s1.9,0.6,1.9,1.7c0,0.6-0.2,1-0.5,1.3s-0.8,0.5-1.5,0.5
				C334.7,447.8,334.1,447.2,334.1,446.1z M337.8,462.6h-3.6v-13.1h3.6V462.6z"/>
			<path class="st3" d="M348.9,449.2c0.5,0,0.9,0,1.2,0.1l-0.3,3.4c-0.3-0.1-0.6-0.1-1.1-0.1c-1.1,0-2,0.3-2.7,0.9s-1,1.4-1,2.5v6.7
				h-3.6v-13.1h2.7l0.5,2.2h0.2c0.4-0.7,1-1.3,1.6-1.8S348.1,449.2,348.9,449.2z"/>
			<path class="st3" d="M364,462.8c-4.1,0-6.1-2.2-6.1-6.7c0-2.2,0.6-3.9,1.7-5.1s2.7-1.8,4.8-1.8c1.5,0,2.9,0.3,4.1,0.9l-1.1,2.8
				c-0.6-0.2-1.1-0.4-1.6-0.6s-1-0.2-1.5-0.2c-1.9,0-2.8,1.3-2.8,4c0,2.6,0.9,3.8,2.8,3.8c0.7,0,1.3-0.1,1.9-0.3s1.2-0.5,1.8-0.9
				v3.1c-0.6,0.4-1.2,0.6-1.8,0.8S364.9,462.8,364,462.8z"/>
			<path class="st3" d="M382.9,456c0,2.1-0.6,3.8-1.7,5s-2.7,1.8-4.7,1.8c-1.3,0-2.4-0.3-3.3-0.8s-1.7-1.3-2.2-2.4s-0.8-2.2-0.8-3.6
				c0-2.1,0.6-3.8,1.7-5s2.7-1.8,4.7-1.8c1.3,0,2.4,0.3,3.3,0.8s1.7,1.3,2.2,2.4S382.9,454.6,382.9,456z M373.9,456
				c0,1.3,0.2,2.3,0.6,2.9s1.1,1,2.1,1c1,0,1.6-0.3,2.1-1s0.6-1.6,0.6-2.9c0-1.3-0.2-2.3-0.6-2.9s-1.1-1-2.1-1c-1,0-1.6,0.3-2.1,1
				S373.9,454.7,373.9,456z"/>
			<path class="st3" d="M397.6,462.6h-3.6v-7.7c0-0.9-0.2-1.7-0.5-2.1s-0.8-0.7-1.5-0.7c-0.9,0-1.6,0.3-2,1s-0.6,1.8-0.6,3.3v6.2
				h-3.6v-13.1h2.7l0.5,1.7h0.2c0.4-0.6,0.9-1.1,1.5-1.4s1.4-0.5,2.3-0.5c2,0,3.3,0.6,4,1.9h0.3c0.4-0.6,0.9-1.1,1.6-1.4
				s1.5-0.5,2.3-0.5c1.5,0,2.6,0.4,3.4,1.1s1.1,2,1.1,3.7v8.5h-3.6v-7.7c0-0.9-0.2-1.7-0.5-2.1s-0.8-0.7-1.5-0.7
				c-0.9,0-1.5,0.3-2,0.9s-0.7,1.6-0.7,3V462.6z"/>
			<path class="st3" d="M409.3,446.1c0-1.2,0.6-1.7,1.9-1.7s1.9,0.6,1.9,1.7c0,0.6-0.2,1-0.5,1.3s-0.8,0.5-1.5,0.5
				C410,447.8,409.3,447.2,409.3,446.1z M413,462.6h-3.6v-13.1h3.6V462.6z"/>
			<path class="st3" d="M428.9,462.6h-3.6v-7.7c0-0.9-0.2-1.7-0.5-2.1s-0.9-0.7-1.6-0.7c-1,0-1.7,0.3-2.2,1s-0.7,1.8-0.7,3.3v6.2
				h-3.6v-13.1h2.7l0.5,1.7h0.2c0.4-0.6,0.9-1.1,1.6-1.4s1.5-0.5,2.4-0.5c1.5,0,2.7,0.4,3.5,1.2s1.2,2,1.2,3.6V462.6z"/>
			<path class="st3" d="M444,449.5v1.8l-2.1,0.5c0.4,0.6,0.6,1.2,0.6,2c0,1.4-0.5,2.5-1.5,3.3s-2.3,1.2-4.1,1.2l-0.6,0l-0.5-0.1
				c-0.4,0.3-0.6,0.6-0.6,0.9c0,0.5,0.7,0.8,2,0.8h2.2c1.4,0,2.5,0.3,3.3,0.9s1.1,1.5,1.1,2.7c0,1.5-0.6,2.7-1.9,3.6
				s-3.1,1.3-5.5,1.3c-1.8,0-3.2-0.3-4.2-1s-1.4-1.5-1.4-2.7c0-0.8,0.2-1.4,0.7-2s1.2-0.9,2.2-1.1c-0.4-0.2-0.7-0.4-1-0.8
				s-0.4-0.7-0.4-1.1c0-0.5,0.1-0.9,0.4-1.2s0.7-0.7,1.3-1c-0.7-0.3-1.2-0.8-1.6-1.4s-0.6-1.4-0.6-2.3c0-1.4,0.5-2.5,1.4-3.3
				s2.3-1.2,4-1.2c0.4,0,0.8,0,1.3,0.1s0.8,0.1,1,0.1H444z M433.9,464.4c0,0.5,0.2,0.9,0.7,1.2s1.1,0.4,2,0.4c1.3,0,2.3-0.2,3-0.5
				s1.1-0.8,1.1-1.4c0-0.5-0.2-0.8-0.6-1s-1.1-0.3-2-0.3h-1.9c-0.7,0-1.2,0.2-1.6,0.5S433.9,463.9,433.9,464.4z M435.2,453.8
				c0,0.7,0.2,1.3,0.5,1.7s0.8,0.6,1.5,0.6c0.7,0,1.2-0.2,1.5-0.6s0.5-1,0.5-1.7c0-1.6-0.6-2.4-1.9-2.4
				C435.8,451.4,435.2,452.2,435.2,453.8z"/>
		</g>
		<g class="st27">
			<path class="st3" d="M192.9,493.1c0,2.1-0.6,3.8-1.7,5s-2.7,1.8-4.7,1.8c-1.3,0-2.4-0.3-3.3-0.8s-1.7-1.3-2.2-2.4
				s-0.8-2.2-0.8-3.6c0-2.1,0.6-3.8,1.7-5s2.7-1.8,4.7-1.8c1.3,0,2.4,0.3,3.3,0.8s1.7,1.3,2.2,2.4S192.9,491.7,192.9,493.1z
				 M183.9,493.1c0,1.3,0.2,2.3,0.6,2.9s1.1,1,2.1,1c1,0,1.6-0.3,2.1-1s0.6-1.6,0.6-2.9c0-1.3-0.2-2.3-0.6-2.9s-1.1-1-2.1-1
				c-1,0-1.6,0.3-2.1,1S183.9,491.8,183.9,493.1z"/>
			<path class="st3" d="M205.1,499.7l-0.5-1.7h-0.2c-0.4,0.6-0.9,1.1-1.6,1.4s-1.5,0.5-2.4,0.5c-1.5,0-2.7-0.4-3.5-1.2
				s-1.2-2-1.2-3.6v-8.5h3.6v7.7c0,0.9,0.2,1.7,0.5,2.1s0.9,0.7,1.6,0.7c1,0,1.7-0.3,2.2-1s0.7-1.8,0.7-3.3v-6.2h3.6v13.1H205.1z"/>
			<path class="st3" d="M217.2,497c0.6,0,1.4-0.1,2.2-0.4v2.7c-0.9,0.4-2,0.6-3.3,0.6c-1.4,0-2.5-0.4-3.1-1.1s-1-1.8-1-3.3v-6.3
				h-1.7v-1.5l2-1.2l1-2.8h2.3v2.8h3.7v2.7h-3.7v6.3c0,0.5,0.1,0.9,0.4,1.1S216.7,497,217.2,497z"/>
			<path class="st3" d="M240.2,493.1c0,2.1-0.6,3.8-1.7,5s-2.7,1.8-4.7,1.8c-1.3,0-2.4-0.3-3.3-0.8s-1.7-1.3-2.2-2.4
				s-0.8-2.2-0.8-3.6c0-2.1,0.6-3.8,1.7-5s2.7-1.8,4.7-1.8c1.3,0,2.4,0.3,3.3,0.8s1.7,1.3,2.2,2.4S240.2,491.7,240.2,493.1z
				 M231.1,493.1c0,1.3,0.2,2.3,0.6,2.9s1.1,1,2.1,1c1,0,1.6-0.3,2.1-1s0.6-1.6,0.6-2.9c0-1.3-0.2-2.3-0.6-2.9s-1.1-1-2.1-1
				c-1,0-1.6,0.3-2.1,1S231.1,491.8,231.1,493.1z"/>
			<path class="st3" d="M255.2,499.7h-3.6V492c0-0.9-0.2-1.7-0.5-2.1s-0.9-0.7-1.6-0.7c-1,0-1.7,0.3-2.2,1s-0.7,1.8-0.7,3.3v6.2
				h-3.6v-13.1h2.7l0.5,1.7h0.2c0.4-0.6,0.9-1.1,1.6-1.4s1.5-0.5,2.4-0.5c1.5,0,2.7,0.4,3.5,1.2s1.2,2,1.2,3.6V499.7z"/>
			<path class="st3" d="M270.7,497c0.6,0,1.4-0.1,2.2-0.4v2.7c-0.9,0.4-2,0.6-3.3,0.6c-1.4,0-2.5-0.4-3.1-1.1s-1-1.8-1-3.3v-6.3
				h-1.7v-1.5l2-1.2l1-2.8h2.3v2.8h3.7v2.7h-3.7v6.3c0,0.5,0.1,0.9,0.4,1.1S270.2,497,270.7,497z"/>
			<path class="st3" d="M287.7,499.7h-3.6V492c0-1.9-0.7-2.8-2.1-2.8c-1,0-1.7,0.3-2.2,1s-0.7,1.8-0.7,3.3v6.2h-3.6v-18.2h3.6v3.7
				c0,0.3,0,1-0.1,2l-0.1,1.1h0.2c0.8-1.3,2.1-1.9,3.8-1.9c1.5,0,2.7,0.4,3.5,1.2s1.2,2,1.2,3.6V499.7z"/>
			<path class="st3" d="M297.3,499.9c-2.1,0-3.8-0.6-4.9-1.7s-1.8-2.8-1.8-4.9c0-2.2,0.5-3.9,1.6-5.1s2.6-1.8,4.6-1.8
				c1.9,0,3.3,0.5,4.3,1.6s1.5,2.5,1.5,4.4v1.7h-8.4c0,1,0.3,1.8,0.9,2.4s1.4,0.9,2.4,0.9c0.8,0,1.5-0.1,2.2-0.2s1.4-0.4,2.2-0.8
				v2.8c-0.6,0.3-1.3,0.5-2,0.7S298.3,499.9,297.3,499.9z M296.8,488.9c-0.8,0-1.4,0.2-1.8,0.7s-0.7,1.2-0.7,2h5
				c0-0.9-0.2-1.6-0.7-2S297.5,488.9,296.8,488.9z"/>
			<path class="st3" d="M305.4,483.2c0-1.2,0.6-1.7,1.9-1.7s1.9,0.6,1.9,1.7c0,0.6-0.2,1-0.5,1.3s-0.8,0.5-1.5,0.5
				C306,484.9,305.4,484.3,305.4,483.2z M309.1,499.7h-3.6v-13.1h3.6V499.7z"/>
			<path class="st3" d="M320.2,486.3c0.5,0,0.9,0,1.2,0.1l-0.3,3.4c-0.3-0.1-0.6-0.1-1.1-0.1c-1.1,0-2,0.3-2.7,0.9s-1,1.4-1,2.5v6.7
				h-3.6v-13.1h2.7l0.5,2.2h0.2c0.4-0.7,1-1.3,1.6-1.8S319.4,486.3,320.2,486.3z"/>
			<path class="st3" d="M341.9,493.1c0,2.1-0.6,3.8-1.7,5s-2.7,1.8-4.7,1.8c-1.3,0-2.4-0.3-3.3-0.8s-1.7-1.3-2.2-2.4
				s-0.8-2.2-0.8-3.6c0-2.1,0.6-3.8,1.7-5s2.7-1.8,4.7-1.8c1.3,0,2.4,0.3,3.3,0.8s1.7,1.3,2.2,2.4S341.9,491.7,341.9,493.1z
				 M332.8,493.1c0,1.3,0.2,2.3,0.6,2.9s1.1,1,2.1,1c1,0,1.6-0.3,2.1-1s0.6-1.6,0.6-2.9c0-1.3-0.2-2.3-0.6-2.9s-1.1-1-2.1-1
				c-1,0-1.6,0.3-2.1,1S332.8,491.8,332.8,493.1z"/>
			<path class="st3" d="M355.6,499.7l-1-4.6l-1.4-5.8h-0.1l-2.4,10.4h-3.8l-3.7-13.1h3.6l1.5,5.8c0.2,1,0.5,2.5,0.7,4.3h0.1
				c0-0.6,0.2-1.5,0.4-2.8l0.2-1l1.6-6.3h3.9l1.5,6.3c0,0.2,0.1,0.4,0.1,0.8s0.1,0.7,0.2,1.1s0.1,0.8,0.2,1.1s0.1,0.7,0.1,0.9h0.1
				c0.1-0.6,0.2-1.3,0.4-2.3s0.3-1.6,0.4-2l1.6-5.8h3.5l-3.8,13.1H355.6z"/>
			<path class="st3" d="M377.5,499.7h-3.6V492c0-0.9-0.2-1.7-0.5-2.1s-0.9-0.7-1.6-0.7c-1,0-1.7,0.3-2.2,1s-0.7,1.8-0.7,3.3v6.2
				h-3.6v-13.1h2.7l0.5,1.7h0.2c0.4-0.6,0.9-1.1,1.6-1.4s1.5-0.5,2.4-0.5c1.5,0,2.7,0.4,3.5,1.2s1.2,2,1.2,3.6V499.7z"/>
			<path class="st3" d="M380.7,498c0-0.7,0.2-1.2,0.5-1.5s0.9-0.5,1.5-0.5c0.6,0,1.2,0.2,1.5,0.5s0.5,0.8,0.5,1.5
				c0,0.6-0.2,1.1-0.5,1.5s-0.9,0.5-1.5,0.5c-0.7,0-1.2-0.2-1.5-0.5S380.7,498.6,380.7,498z"/>
		</g>
	</g>
</g>
</svg>
