<?xml version="1.0" encoding="utf-8"?>
<!-- Generator: Adobe Illustrator 22.0.1, SVG Export Plug-In . SVG Version: 6.00 Build 0)  -->
<svg version="1.1" id="Layer_1" xmlns="http://www.w3.org/2000/svg" xmlns:xlink="http://www.w3.org/1999/xlink" x="0px" y="0px"
	 viewBox="0 0 565.8 562.5" style="enable-background:new 0 0 565.8 562.5;" xml:space="preserve">
<style type="text/css">
	.st0{fill:#12DBFF;}
	.st1{enable-background:new    ;}
	.st2{fill:#FFFFFF;}
	.st3{fill:#DCA927;}
	.st4{fill:#FDC60B;}
	.st5{fill:#F27121;}
	.st6{fill:#F48242;}
	.st7{fill:#D56027;}
	.st8{fill:#95C94B;}
	.st9{fill:#7A9F3F;}
	.st10{fill:#B2D46D;}
	.st11{fill:#F5B918;}
	.st12{fill:#FFCB4C;}
	.st13{fill:#DDA527;}
	.st14{fill:#EA222C;}
	.st15{fill:#EF4B5C;}
	.st16{fill:#C12129;}
	.st17{fill:#6C65AC;}
	.st18{fill:#49468C;}
	.st19{fill:#7E78B7;}
	.st20{fill:#26BEEF;}
	.st21{fill:#62CBEE;}
	.st22{fill:#B76597;}
	.st23{fill:#873C6B;}
	.st24{fill:#9E4A7B;}
	.st25{fill:#F2B7D3;}
	.st26{fill:#E0539D;}
	.st27{fill:#17ABD2;}
</style>
<g>
	<circle class="st0" cx="282.9" cy="282.4" r="274.4"/>
	<g>
		<g class="st1">
			<path class="st2" d="M90.4,375.1c0,2.8-0.8,5-2.4,6.5s-3.9,2.2-7,2.2h-4.9v-17.1h5.4c2.8,0,5,0.7,6.5,2.2S90.4,372.5,90.4,375.1z
				 M86.7,375.2c0-3.7-1.6-5.5-4.9-5.5h-1.9v11.2h1.6C84.9,380.9,86.7,379,86.7,375.2z"/>
			<path class="st2" d="M105.6,377.3c0,2.1-0.6,3.8-1.7,5s-2.7,1.8-4.7,1.8c-1.3,0-2.4-0.3-3.3-0.8s-1.7-1.3-2.2-2.4
				s-0.8-2.2-0.8-3.6c0-2.1,0.6-3.8,1.7-5s2.7-1.8,4.7-1.8c1.3,0,2.4,0.3,3.3,0.8s1.7,1.3,2.2,2.4S105.6,375.9,105.6,377.3z
				 M96.6,377.3c0,1.3,0.2,2.3,0.6,2.9s1.1,1,2.1,1c1,0,1.6-0.3,2.1-1s0.6-1.6,0.6-2.9c0-1.3-0.2-2.3-0.6-2.9s-1.1-1-2.1-1
				c-1,0-1.6,0.3-2.1,1S96.6,376,96.6,377.3z"/>
			<path class="st2" d="M120.7,383.9h-3.6v-7.7c0-0.9-0.2-1.7-0.5-2.1s-0.9-0.7-1.6-0.7c-1,0-1.7,0.3-2.2,1s-0.7,1.8-0.7,3.3v6.2
				h-3.6v-13.1h2.7l0.5,1.7h0.2c0.4-0.6,0.9-1.1,1.6-1.4s1.5-0.5,2.4-0.5c1.5,0,2.7,0.4,3.5,1.2s1.2,2,1.2,3.6V383.9z"/>
			<path class="st2" d="M127.2,366.7l0.2,0.3c-0.4,1.5-1.1,3.4-2.1,5.6h-2.6c0.5-2.3,0.9-4.3,1.2-5.9H127.2z"/>
			<path class="st2" d="M135.1,381.3c0.6,0,1.4-0.1,2.2-0.4v2.7c-0.9,0.4-2,0.6-3.3,0.6c-1.4,0-2.5-0.4-3.1-1.1s-1-1.8-1-3.3v-6.3
				h-1.7v-1.5l2-1.2l1-2.8h2.3v2.8h3.7v2.7h-3.7v6.3c0,0.5,0.1,0.9,0.4,1.1S134.6,381.3,135.1,381.3z"/>
			<path class="st2" d="M146,367.4c0-1.2,0.6-1.7,1.9-1.7s1.9,0.6,1.9,1.7c0,0.6-0.2,1-0.5,1.3s-0.8,0.5-1.5,0.5
				C146.7,369.1,146,368.6,146,367.4z M149.8,383.9h-3.6v-13.1h3.6V383.9z"/>
			<path class="st2" d="M165.6,383.9H162v-7.7c0-0.9-0.2-1.7-0.5-2.1s-0.9-0.7-1.6-0.7c-1,0-1.7,0.3-2.2,1s-0.7,1.8-0.7,3.3v6.2
				h-3.6v-13.1h2.7l0.5,1.7h0.2c0.4-0.6,0.9-1.1,1.6-1.4s1.5-0.5,2.4-0.5c1.5,0,2.7,0.4,3.5,1.2s1.2,2,1.2,3.6V383.9z"/>
			<path class="st2" d="M172.4,383.9l-5-13.1h3.7l2.5,7.5c0.3,0.9,0.5,1.8,0.5,2.7h0.1c0-0.8,0.2-1.6,0.5-2.7l2.5-7.5h3.7l-5,13.1
				H172.4z"/>
			<path class="st2" d="M191.3,383.9l-0.7-1.8h-0.1c-0.6,0.8-1.2,1.3-1.9,1.6s-1.5,0.4-2.5,0.4c-1.3,0-2.2-0.4-3-1.1
				s-1.1-1.7-1.1-3.1c0-1.4,0.5-2.4,1.5-3.1s2.4-1,4.4-1.1l2.3-0.1v-0.6c0-1.3-0.7-2-2-2c-1,0-2.3,0.3-3.7,0.9l-1.2-2.4
				c1.5-0.8,3.2-1.2,5-1.2c1.8,0,3.1,0.4,4,1.1s1.4,1.9,1.4,3.5v8.7H191.3z M190.2,377.8l-1.4,0c-1,0-1.8,0.2-2.3,0.6
				s-0.8,0.9-0.8,1.6c0,1,0.6,1.5,1.7,1.5c0.8,0,1.5-0.2,2-0.7s0.7-1.1,0.7-1.9V377.8z"/>
			<path class="st2" d="M201,383.9h-3.6v-18.2h3.6V383.9z"/>
			<path class="st2" d="M204.6,367.4c0-1.2,0.6-1.7,1.9-1.7s1.9,0.6,1.9,1.7c0,0.6-0.2,1-0.5,1.3s-0.8,0.5-1.5,0.5
				C205.3,369.1,204.6,368.6,204.6,367.4z M208.3,383.9h-3.6v-13.1h3.6V383.9z"/>
			<path class="st2" d="M216.2,384.1c-1.5,0-2.7-0.6-3.6-1.8s-1.3-2.9-1.3-5c0-2.1,0.4-3.8,1.3-5s2.1-1.8,3.7-1.8
				c1.6,0,2.9,0.6,3.8,1.9h0.1c-0.2-1-0.3-1.8-0.3-2.6v-4.2h3.6v18.2h-2.7l-0.7-1.7H220C219.1,383.5,217.9,384.1,216.2,384.1z
				 M217.5,381.3c0.9,0,1.6-0.3,2-0.8s0.7-1.4,0.7-2.7v-0.4c0-1.4-0.2-2.4-0.7-3s-1.1-0.9-2.1-0.9c-0.8,0-1.4,0.3-1.9,1
				s-0.7,1.7-0.7,2.9s0.2,2.3,0.7,2.9S216.7,381.3,217.5,381.3z"/>
			<path class="st2" d="M235.6,383.9l-0.7-1.8h-0.1c-0.6,0.8-1.2,1.3-1.9,1.6s-1.5,0.4-2.5,0.4c-1.3,0-2.2-0.4-3-1.1
				s-1.1-1.7-1.1-3.1c0-1.4,0.5-2.4,1.5-3.1s2.4-1,4.4-1.1l2.3-0.1v-0.6c0-1.3-0.7-2-2-2c-1,0-2.3,0.3-3.7,0.9l-1.2-2.4
				c1.5-0.8,3.2-1.2,5-1.2c1.8,0,3.1,0.4,4,1.1s1.4,1.9,1.4,3.5v8.7H235.6z M234.5,377.8l-1.4,0c-1,0-1.8,0.2-2.3,0.6
				s-0.8,0.9-0.8,1.6c0,1,0.6,1.5,1.7,1.5c0.8,0,1.5-0.2,2-0.7s0.7-1.1,0.7-1.9V377.8z"/>
			<path class="st2" d="M247.3,381.3c0.6,0,1.4-0.1,2.2-0.4v2.7c-0.9,0.4-2,0.6-3.3,0.6c-1.4,0-2.5-0.4-3.1-1.1s-1-1.8-1-3.3v-6.3
				h-1.7v-1.5l2-1.2l1-2.8h2.3v2.8h3.7v2.7h-3.7v6.3c0,0.5,0.1,0.9,0.4,1.1S246.8,381.3,247.3,381.3z"/>
			<path class="st2" d="M258.1,384.1c-2.1,0-3.8-0.6-4.9-1.7s-1.8-2.8-1.8-4.9c0-2.2,0.5-3.9,1.6-5.1s2.6-1.8,4.6-1.8
				c1.9,0,3.3,0.5,4.3,1.6s1.5,2.5,1.5,4.4v1.7H255c0,1,0.3,1.8,0.9,2.4s1.4,0.9,2.4,0.9c0.8,0,1.5-0.1,2.2-0.2s1.4-0.4,2.2-0.8v2.8
				c-0.6,0.3-1.3,0.5-2,0.7S259.1,384.1,258.1,384.1z M257.6,373.1c-0.8,0-1.4,0.2-1.8,0.7s-0.7,1.2-0.7,2h5c0-0.9-0.2-1.6-0.7-2
				S258.4,373.1,257.6,373.1z"/>
			<path class="st2" d="M276.8,384.1c-1.5,0-2.8-0.6-3.6-1.8s-1.3-2.8-1.3-5c0-2.1,0.4-3.8,1.3-5s2.1-1.8,3.7-1.8
				c0.8,0,1.6,0.2,2.2,0.5s1.2,0.8,1.6,1.5h0.1l0.3-1.7h3v18.9h-3.6v-5.5c0-0.5,0.1-1.1,0.2-2h-0.2c-0.4,0.6-0.9,1.1-1.5,1.4
				S277.6,384.1,276.8,384.1z M278,381.3c0.9,0,1.6-0.3,2-0.8s0.7-1.4,0.7-2.7v-0.4c0-1.4-0.2-2.4-0.7-3s-1.1-0.9-2.1-0.9
				c-1.7,0-2.5,1.3-2.5,4c0,1.3,0.2,2.3,0.6,2.9S277.2,381.3,278,381.3z"/>
			<path class="st2" d="M297.1,383.9l-0.5-1.7h-0.2c-0.4,0.6-0.9,1.1-1.6,1.4s-1.5,0.5-2.4,0.5c-1.5,0-2.7-0.4-3.5-1.2
				s-1.2-2-1.2-3.6v-8.5h3.6v7.7c0,0.9,0.2,1.7,0.5,2.1s0.9,0.7,1.6,0.7c1,0,1.7-0.3,2.2-1s0.7-1.8,0.7-3.3v-6.2h3.6v13.1H297.1z"/>
			<path class="st2" d="M309.5,384.1c-2.1,0-3.8-0.6-4.9-1.7s-1.8-2.8-1.8-4.9c0-2.2,0.5-3.9,1.6-5.1s2.6-1.8,4.6-1.8
				c1.9,0,3.3,0.5,4.3,1.6s1.5,2.5,1.5,4.4v1.7h-8.4c0,1,0.3,1.8,0.9,2.4s1.4,0.9,2.4,0.9c0.8,0,1.5-0.1,2.2-0.2s1.4-0.4,2.2-0.8
				v2.8c-0.6,0.3-1.3,0.5-2,0.7S310.5,384.1,309.5,384.1z M309,373.1c-0.8,0-1.4,0.2-1.8,0.7s-0.7,1.2-0.7,2h5c0-0.9-0.2-1.6-0.7-2
				S309.8,373.1,309,373.1z"/>
			<path class="st2" d="M323.7,384.1c-2.1,0-3.8-0.6-4.9-1.7s-1.8-2.8-1.8-4.9c0-2.2,0.5-3.9,1.6-5.1s2.6-1.8,4.6-1.8
				c1.9,0,3.3,0.5,4.3,1.6s1.5,2.5,1.5,4.4v1.7h-8.4c0,1,0.3,1.8,0.9,2.4s1.4,0.9,2.4,0.9c0.8,0,1.5-0.1,2.2-0.2s1.4-0.4,2.2-0.8
				v2.8c-0.6,0.3-1.3,0.5-2,0.7S324.7,384.1,323.7,384.1z M323.2,373.1c-0.8,0-1.4,0.2-1.8,0.7s-0.7,1.2-0.7,2h5
				c0-0.9-0.2-1.6-0.7-2S323.9,373.1,323.2,373.1z"/>
			<path class="st2" d="M339.2,370.5c0.5,0,0.9,0,1.2,0.1l-0.3,3.4c-0.3-0.1-0.6-0.1-1.1-0.1c-1.1,0-2,0.3-2.7,0.9s-1,1.4-1,2.5v6.7
				h-3.6v-13.1h2.7l0.5,2.2h0.2c0.4-0.7,1-1.3,1.6-1.8S338.4,370.5,339.2,370.5z"/>
			<path class="st2" d="M355,384.1c-2.1,0-3.8-0.6-4.9-1.7s-1.8-2.8-1.8-4.9c0-2.2,0.5-3.9,1.6-5.1s2.6-1.8,4.6-1.8
				c1.9,0,3.3,0.5,4.3,1.6s1.5,2.5,1.5,4.4v1.7h-8.4c0,1,0.3,1.8,0.9,2.4s1.4,0.9,2.4,0.9c0.8,0,1.5-0.1,2.2-0.2s1.4-0.4,2.2-0.8
				v2.8c-0.6,0.3-1.3,0.5-2,0.7S356,384.1,355,384.1z M354.5,373.1c-0.8,0-1.4,0.2-1.8,0.7s-0.7,1.2-0.7,2h5c0-0.9-0.2-1.6-0.7-2
				S355.2,373.1,354.5,373.1z"/>
			<path class="st2" d="M365.9,377.2l-4.2-6.4h4.1l2.5,4.2l2.6-4.2h4.1l-4.3,6.4l4.5,6.7h-4.1l-2.8-4.5l-2.8,4.5h-4.1L365.9,377.2z"
				/>
			<path class="st2" d="M384.3,384.1c-1.5,0-2.7-0.6-3.6-1.7h-0.2c0.1,1.1,0.2,1.7,0.2,1.9v5.3h-3.6v-18.9h2.9l0.5,1.7h0.2
				c0.8-1.3,2.1-1.9,3.7-1.9c1.5,0,2.8,0.6,3.6,1.8s1.3,2.9,1.3,5c0,1.4-0.2,2.6-0.6,3.6s-1,1.8-1.8,2.4S385.3,384.1,384.3,384.1z
				 M383.3,373.4c-0.9,0-1.5,0.3-1.9,0.8s-0.6,1.4-0.6,2.7v0.4c0,1.4,0.2,2.4,0.6,3s1.1,0.9,2,0.9c1.6,0,2.4-1.3,2.4-4
				c0-1.3-0.2-2.3-0.6-2.9S384.1,373.4,383.3,373.4z"/>
			<path class="st2" d="M398.2,384.1c-2.1,0-3.8-0.6-4.9-1.7s-1.8-2.8-1.8-4.9c0-2.2,0.5-3.9,1.6-5.1s2.6-1.8,4.6-1.8
				c1.9,0,3.3,0.5,4.3,1.6s1.5,2.5,1.5,4.4v1.7h-8.4c0,1,0.3,1.8,0.9,2.4s1.4,0.9,2.4,0.9c0.8,0,1.5-0.1,2.2-0.2s1.4-0.4,2.2-0.8
				v2.8c-0.6,0.3-1.3,0.5-2,0.7S399.3,384.1,398.2,384.1z M397.7,373.1c-0.8,0-1.4,0.2-1.8,0.7s-0.7,1.2-0.7,2h5
				c0-0.9-0.2-1.6-0.7-2S398.5,373.1,397.7,373.1z"/>
			<path class="st2" d="M413.8,370.5c0.5,0,0.9,0,1.2,0.1l-0.3,3.4c-0.3-0.1-0.6-0.1-1.1-0.1c-1.1,0-2,0.3-2.7,0.9s-1,1.4-1,2.5v6.7
				h-3.6v-13.1h2.7l0.5,2.2h0.2c0.4-0.7,1-1.3,1.6-1.8S413,370.5,413.8,370.5z"/>
			<path class="st2" d="M417.2,367.4c0-1.2,0.6-1.7,1.9-1.7s1.9,0.6,1.9,1.7c0,0.6-0.2,1-0.5,1.3s-0.8,0.5-1.5,0.5
				C417.9,369.1,417.2,368.6,417.2,367.4z M421,383.9h-3.6v-13.1h3.6V383.9z"/>
			<path class="st2" d="M430.6,384.1c-2.1,0-3.8-0.6-4.9-1.7s-1.8-2.8-1.8-4.9c0-2.2,0.5-3.9,1.6-5.1s2.6-1.8,4.6-1.8
				c1.9,0,3.3,0.5,4.3,1.6s1.5,2.5,1.5,4.4v1.7h-8.4c0,1,0.3,1.8,0.9,2.4s1.4,0.9,2.4,0.9c0.8,0,1.5-0.1,2.2-0.2s1.4-0.4,2.2-0.8
				v2.8c-0.6,0.3-1.3,0.5-2,0.7S431.7,384.1,430.6,384.1z M430.1,373.1c-0.8,0-1.4,0.2-1.8,0.7s-0.7,1.2-0.7,2h5
				c0-0.9-0.2-1.6-0.7-2S430.9,373.1,430.1,373.1z"/>
			<path class="st2" d="M451,383.9h-3.6v-7.7c0-0.9-0.2-1.7-0.5-2.1s-0.9-0.7-1.6-0.7c-1,0-1.7,0.3-2.2,1s-0.7,1.8-0.7,3.3v6.2h-3.6
				v-13.1h2.7l0.5,1.7h0.2c0.4-0.6,0.9-1.1,1.6-1.4s1.5-0.5,2.4-0.5c1.5,0,2.7,0.4,3.5,1.2s1.2,2,1.2,3.6V383.9z"/>
			<path class="st2" d="M460,384.1c-4.1,0-6.1-2.2-6.1-6.7c0-2.2,0.6-3.9,1.7-5.1s2.7-1.8,4.8-1.8c1.5,0,2.9,0.3,4.1,0.9l-1.1,2.8
				c-0.6-0.2-1.1-0.4-1.6-0.6s-1-0.2-1.5-0.2c-1.9,0-2.8,1.3-2.8,4c0,2.6,0.9,3.8,2.8,3.8c0.7,0,1.3-0.1,1.9-0.3s1.2-0.5,1.8-0.9
				v3.1c-0.6,0.4-1.2,0.6-1.8,0.8S460.9,384.1,460,384.1z"/>
			<path class="st2" d="M472.9,384.1c-2.1,0-3.8-0.6-4.9-1.7s-1.8-2.8-1.8-4.9c0-2.2,0.5-3.9,1.6-5.1s2.6-1.8,4.6-1.8
				c1.9,0,3.3,0.5,4.3,1.6s1.5,2.5,1.5,4.4v1.7h-8.4c0,1,0.3,1.8,0.9,2.4s1.4,0.9,2.4,0.9c0.8,0,1.5-0.1,2.2-0.2s1.4-0.4,2.2-0.8
				v2.8c-0.6,0.3-1.3,0.5-2,0.7S474,384.1,472.9,384.1z M472.4,373.1c-0.8,0-1.4,0.2-1.8,0.7s-0.7,1.2-0.7,2h5c0-0.9-0.2-1.6-0.7-2
				S473.2,373.1,472.4,373.1z"/>
			<path class="st2" d="M490.3,380c0,1.3-0.5,2.4-1.4,3.1s-2.3,1.1-4.2,1.1c-1,0-1.8-0.1-2.4-0.2s-1.3-0.3-1.9-0.6v-3
				c0.7,0.3,1.4,0.6,2.2,0.8s1.6,0.3,2.2,0.3c1.3,0,1.9-0.4,1.9-1.1c0-0.3-0.1-0.5-0.3-0.7s-0.5-0.4-0.9-0.6s-1-0.5-1.7-0.8
				c-1-0.4-1.7-0.8-2.2-1.2s-0.8-0.8-1-1.2s-0.3-1-0.3-1.7c0-1.2,0.5-2.1,1.4-2.7s2.2-1,3.8-1c1.6,0,3.1,0.3,4.6,1l-1.1,2.6
				c-0.7-0.3-1.3-0.5-1.8-0.7s-1.2-0.3-1.7-0.3c-1.1,0-1.6,0.3-1.6,0.9c0,0.3,0.2,0.6,0.5,0.8s1.1,0.6,2.2,1c1,0.4,1.8,0.8,2.2,1.2
				s0.8,0.8,1.1,1.2S490.3,379.3,490.3,380z"/>
		</g>
		<g class="st1">
			<path class="st2" d="M184,407.6c1.5,0,2.8,0.6,3.6,1.8s1.3,2.9,1.3,5c0,2.2-0.5,3.8-1.4,5s-2.1,1.8-3.7,1.8
				c-1.5,0-2.7-0.6-3.6-1.7h-0.2l-0.6,1.4h-2.7v-18.2h3.6v4.2c0,0.5,0,1.4-0.1,2.6h0.1C181.2,408.3,182.4,407.6,184,407.6z
				 M182.9,410.5c-0.9,0-1.5,0.3-1.9,0.8s-0.6,1.4-0.6,2.7v0.4c0,1.4,0.2,2.4,0.6,3s1.1,0.9,2,0.9c0.7,0,1.3-0.3,1.8-1
				s0.7-1.7,0.7-2.9s-0.2-2.3-0.7-2.9S183.6,410.5,182.9,410.5z"/>
			<path class="st2" d="M201.2,421l-0.5-1.7h-0.2c-0.4,0.6-0.9,1.1-1.6,1.4s-1.5,0.5-2.4,0.5c-1.5,0-2.7-0.4-3.5-1.2s-1.2-2-1.2-3.6
				v-8.5h3.6v7.7c0,0.9,0.2,1.7,0.5,2.1s0.9,0.7,1.6,0.7c1,0,1.7-0.3,2.2-1s0.7-1.8,0.7-3.3v-6.2h3.6V421H201.2z"/>
			<path class="st2" d="M213.2,418.4c0.6,0,1.4-0.1,2.2-0.4v2.7c-0.9,0.4-2,0.6-3.3,0.6c-1.4,0-2.5-0.4-3.1-1.1s-1-1.8-1-3.3v-6.3
				h-1.7V409l2-1.2l1-2.8h2.3v2.8h3.7v2.7h-3.7v6.3c0,0.5,0.1,0.9,0.4,1.1S212.8,418.4,213.2,418.4z"/>
			<path class="st2" d="M232.7,421l-0.7-1.8h-0.1c-0.6,0.8-1.2,1.3-1.9,1.6s-1.5,0.4-2.5,0.4c-1.3,0-2.2-0.4-3-1.1s-1.1-1.7-1.1-3.1
				c0-1.4,0.5-2.4,1.5-3.1s2.4-1,4.4-1.1l2.3-0.1v-0.6c0-1.3-0.7-2-2-2c-1,0-2.3,0.3-3.7,0.9l-1.2-2.4c1.5-0.8,3.2-1.2,5-1.2
				c1.8,0,3.1,0.4,4,1.1s1.4,1.9,1.4,3.5v8.7H232.7z M231.6,414.9l-1.4,0c-1,0-1.8,0.2-2.3,0.6s-0.8,0.9-0.8,1.6
				c0,1,0.6,1.5,1.7,1.5c0.8,0,1.5-0.2,2-0.7s0.7-1.1,0.7-1.9V414.9z"/>
			<path class="st2" d="M250.6,421H247v-7.7c0-0.9-0.2-1.7-0.5-2.1s-0.8-0.7-1.5-0.7c-0.9,0-1.6,0.3-2,1s-0.6,1.8-0.6,3.3v6.2h-3.6
				v-13.1h2.7l0.5,1.7h0.2c0.4-0.6,0.9-1.1,1.5-1.4s1.4-0.5,2.3-0.5c2,0,3.3,0.6,4,1.9h0.3c0.4-0.6,0.9-1.1,1.6-1.4s1.5-0.5,2.3-0.5
				c1.5,0,2.6,0.4,3.4,1.1s1.1,2,1.1,3.7v8.5h-3.6v-7.7c0-0.9-0.2-1.7-0.5-2.1s-0.8-0.7-1.5-0.7c-0.9,0-1.5,0.3-2,0.9
				s-0.7,1.6-0.7,3V421z"/>
			<path class="st2" d="M269.6,421.2c-1.5,0-2.7-0.6-3.6-1.7h-0.2c0.1,1.1,0.2,1.7,0.2,1.9v5.3h-3.6v-18.9h2.9l0.5,1.7h0.2
				c0.8-1.3,2.1-1.9,3.7-1.9c1.5,0,2.8,0.6,3.6,1.8s1.3,2.9,1.3,5c0,1.4-0.2,2.6-0.6,3.6s-1,1.8-1.8,2.4S270.6,421.2,269.6,421.2z
				 M268.6,410.5c-0.9,0-1.5,0.3-1.9,0.8s-0.6,1.4-0.6,2.7v0.4c0,1.4,0.2,2.4,0.6,3s1.1,0.9,2,0.9c1.6,0,2.4-1.3,2.4-4
				c0-1.3-0.2-2.3-0.6-2.9S269.4,410.5,268.6,410.5z"/>
			<path class="st2" d="M281.2,421h-3.6v-18.2h3.6V421z"/>
			<path class="st2" d="M284.8,404.5c0-1.2,0.6-1.7,1.9-1.7s1.9,0.6,1.9,1.7c0,0.6-0.2,1-0.5,1.3s-0.8,0.5-1.5,0.5
				C285.4,406.2,284.8,405.7,284.8,404.5z M288.5,421h-3.6v-13.1h3.6V421z"/>
			<path class="st2" d="M299.5,410.6h-3.1V421h-3.6v-10.4h-2v-1.7l2-1v-1c0-1.5,0.4-2.6,1.1-3.3s1.9-1,3.5-1c1.2,0,2.3,0.2,3.3,0.6
				l-0.9,2.6c-0.7-0.2-1.4-0.3-2-0.3c-0.5,0-0.9,0.2-1.1,0.5s-0.3,0.7-0.3,1.2v0.8h3.1V410.6z"/>
			<path class="st2" d="M299.7,407.9h3.9l2.5,7.4c0.2,0.6,0.4,1.4,0.4,2.3h0.1c0.1-0.8,0.3-1.6,0.5-2.3l2.4-7.4h3.8l-5.5,14.8
				c-0.5,1.4-1.2,2.4-2.2,3.1s-2,1-3.3,1c-0.6,0-1.2-0.1-1.8-0.2v-2.8c0.4,0.1,0.9,0.2,1.4,0.2c0.6,0,1.2-0.2,1.7-0.6s0.8-1,1.1-1.8
				l0.2-0.6L299.7,407.9z"/>
			<path class="st2" d="M327,418.4c0.6,0,1.4-0.1,2.2-0.4v2.7c-0.9,0.4-2,0.6-3.3,0.6c-1.4,0-2.5-0.4-3.1-1.1s-1-1.8-1-3.3v-6.3
				h-1.7V409l2-1.2l1-2.8h2.3v2.8h3.7v2.7h-3.7v6.3c0,0.5,0.1,0.9,0.4,1.1S326.5,418.4,327,418.4z"/>
			<path class="st2" d="M343.9,421h-3.6v-7.7c0-1.9-0.7-2.8-2.1-2.8c-1,0-1.7,0.3-2.2,1s-0.7,1.8-0.7,3.3v6.2h-3.6v-18.2h3.6v3.7
				c0,0.3,0,1-0.1,2l-0.1,1.1h0.2c0.8-1.3,2.1-1.9,3.8-1.9c1.5,0,2.7,0.4,3.5,1.2s1.2,2,1.2,3.6V421z"/>
			<path class="st2" d="M353.6,421.2c-2.1,0-3.8-0.6-4.9-1.7s-1.8-2.8-1.8-4.9c0-2.2,0.5-3.9,1.6-5.1s2.6-1.8,4.6-1.8
				c1.9,0,3.3,0.5,4.3,1.6s1.5,2.5,1.5,4.4v1.7h-8.4c0,1,0.3,1.8,0.9,2.4s1.4,0.9,2.4,0.9c0.8,0,1.5-0.1,2.2-0.2s1.4-0.4,2.2-0.8
				v2.8c-0.6,0.3-1.3,0.5-2,0.7S354.6,421.2,353.6,421.2z M353.1,410.2c-0.8,0-1.4,0.2-1.8,0.7s-0.7,1.2-0.7,2h5
				c0-0.9-0.2-1.6-0.7-2S353.8,410.2,353.1,410.2z"/>
			<path class="st2" d="M373.5,421H370v-7.7c0-0.9-0.2-1.7-0.5-2.1s-0.8-0.7-1.5-0.7c-0.9,0-1.6,0.3-2,1s-0.6,1.8-0.6,3.3v6.2h-3.6
				v-13.1h2.7l0.5,1.7h0.2c0.4-0.6,0.9-1.1,1.5-1.4s1.4-0.5,2.3-0.5c2,0,3.3,0.6,4,1.9h0.3c0.4-0.6,0.9-1.1,1.6-1.4s1.5-0.5,2.3-0.5
				c1.5,0,2.6,0.4,3.4,1.1s1.1,2,1.1,3.7v8.5h-3.6v-7.7c0-0.9-0.2-1.7-0.5-2.1s-0.8-0.7-1.5-0.7c-0.9,0-1.5,0.3-2,0.9
				s-0.7,1.6-0.7,3V421z"/>
			<path class="st2" d="M384.9,419.3c0-0.7,0.2-1.2,0.5-1.5s0.9-0.5,1.5-0.5c0.6,0,1.2,0.2,1.5,0.5s0.5,0.8,0.5,1.5
				c0,0.6-0.2,1.1-0.5,1.5s-0.9,0.5-1.5,0.5c-0.7,0-1.2-0.2-1.5-0.5S384.9,419.9,384.9,419.3z"/>
		</g>
	</g>
	<g>
		<g>
			<g>
				<g>
					<path class="st3" d="M281.2,111.3c-0.6-1.8-1.3-3.9-2.2-6.3c-0.8,1.1-1.6,2.1-2.4,2.9c0.9,2.8,1.5,5.4,2.1,7.6
						C279.5,114.3,280.4,112.9,281.2,111.3z"/>
					<path class="st4" d="M260.7,114.4c-1.9,0-3.6-0.2-5.2-0.5c0.5,3.4,1,6.5,1.4,9.1c3.4,0.8,7.8,1.2,12.2-0.3
						c3.7-1.2,6.8-3.7,9.4-7.2c-0.5-2.2-1.2-4.8-2.1-7.6C271.7,113,265.8,114.4,260.7,114.4z"/>
					<path class="st2" d="M250.9,112.8c0.2,3.1,0.5,6,0.8,8.6c0.9,0.4,2.8,1.1,5.2,1.7c-0.4-2.6-0.9-5.7-1.4-9.1
						C253.7,113.6,252.1,113.2,250.9,112.8z"/>
					<path class="st5" d="M321,106.2c2.2,0.6,4.3,1.2,6.5,2.1c0.6-0.1,1.2-0.1,1.8-0.2c-20.8-11.2-42.3-6.3-47.8-4.7
						c0.6,1.6,1.1,3.1,1.6,4.5C287.7,106.1,304.5,100.7,321,106.2z"/>
					<path class="st6" d="M329.2,108.1c0.3,0,0.7-0.1,1-0.1c-22-12.4-43.3-7.7-49.3-6c0.2,0.5,0.3,0.9,0.5,1.4
						C286.9,101.8,308.4,96.8,329.2,108.1z"/>
					<path class="st7" d="M321,106.2c-16.5-5.5-33.2-0.1-38,1.6c0.2,0.6,0.4,1.2,0.6,1.8C295.3,104,308.1,102.8,321,106.2z"/>
					<path class="st2" d="M252.7,90.4c-1.2-0.3-2.3-0.7-3.1-1.1c0.1,1.3,0.2,2.6,0.2,3.8c0.1,1.5,0.2,3,0.3,4.5
						c0.7,0.3,2,0.8,3.5,1.2c-0.2-1.4-0.3-2.9-0.5-4.4C253,93.1,252.8,91.8,252.7,90.4z"/>
					<path class="st3" d="M273.5,91.1l0.1,0.1c-0.8-2.1-1.7-4.3-2.6-6.5c-0.6,0.8-1.3,1.6-2,2.3c1,2.6,1.9,4.9,2.8,7.2
						C272.4,93.2,273,92.2,273.5,91.1z"/>
					<path class="st4" d="M258.2,91.2c-2,0-3.9-0.3-5.5-0.8c0.1,1.3,0.3,2.7,0.4,4c0.2,1.5,0.3,3,0.5,4.4c3.2,0.9,7.9,1.6,12,0.1
						c2.5-0.9,4.5-2.5,6.1-4.8c-0.8-2.2-1.8-4.6-2.8-7.2c-1.9,1.8-4.1,3.1-6.6,3.7C261,91.1,259.5,91.2,258.2,91.2z"/>
					<path class="st8" d="M319.8,128.7c7.3-9.3,12.2-13.8,14.5-15.6c-3.1,0-7.4,0.4-11.7,2.3c-11.4,5.1-20.3,20.5-35.1,35.1
						c-7.6,7.5-13.3,11.7-17.1,13.9c-0.7,0.6-1.3,1.1-1.8,1.6C303,165.2,309.7,141.6,319.8,128.7z"/>
					<path class="st9" d="M319.8,128.7c-10.1,12.9-16.8,36.5-51.2,37.3c-0.6,0.5-1.2,1-1.7,1.4c5.7,0.9,18.3,1.7,30.7-5.7
						c6.8-4,13-13.5,19.6-23.5c6.2-9.4,12.6-19,19.9-24.8c-0.8-0.1-1.7-0.2-2.8-0.2C332,114.9,327,119.4,319.8,128.7z"/>
					<path class="st10" d="M297.6,135c-2.1,2.7-4.1,5.2-6.1,7.5c-9.6,11.1-16.6,17.9-21.2,21.9c3.8-2.2,9.5-6.4,17.1-13.9
						c14.7-14.6,23.7-29.9,35.1-35.1c4.3-1.9,8.6-2.3,11.7-2.3c0.9-0.7,1.3-1,1.3-1s-0.5,0.3-1.3,1c1.1,0,2.1,0.1,2.8,0.2
						c0.7-0.6,1.4-1.1,2.2-1.6C319.5,107,307.9,121.8,297.6,135z"/>
					<path class="st11" d="M240.5,170.6L240.5,170.6c1.3,0.1,2.5,0,3.7,0c4.8-0.5,13.1-2.4,21.4-9.1c12.9-10.3,23.6-26.6,30.2-34.1
						c5.9-6.7,16.7-16.8,26.3-17.9c-5-0.7-21.9-2.4-36.9,5.4c1.1,5.1,0.4,10.2-2.1,14.2c-2.6,4.1-6.7,6.8-11.9,7.9
						c-1.6,0.3-3.1,0.5-4.7,0.5l0,0c-1.5,0-2.8-0.1-4.1-0.4c-1.4,1.7-4.2,5.5-5.7,11.1C254.9,155.5,247.5,168,240.5,170.6z"/>
					<path class="st12" d="M322.1,109.5h0.1c-13.2-4-25.8-3-37.7,2.9c0.2,0.7,0.4,1.4,0.5,1.9c0.1,0.2,0.1,0.5,0.1,0.7
						C300.2,107.1,317.1,108.8,322.1,109.5z"/>
					<path class="st2" d="M322.2,109.5C322.3,109.5,322.3,109.5,322.2,109.5C322.3,109.5,322.2,109.5,322.2,109.5
						c-0.1,0-0.1,0-0.2,0C322.1,109.5,322.2,109.5,322.2,109.5z"/>
					<path class="st13" d="M295.8,127.4c-6.6,7.5-17.4,23.8-30.2,34.1c-8.4,6.7-16.7,8.6-21.4,9.1c13.6-0.3,18.3-3.6,18.3-3.6
						l0.6-0.4l0,0c2.1-1.5,11-8.2,26.3-25.9c2-2.3,3.9-4.8,6-7.4c7.1-9.1,15.4-19.7,26.9-23.7c-0.1,0-0.1,0-0.2,0
						C312.5,110.6,301.7,120.7,295.8,127.4z"/>
					<path class="st12" d="M254.2,146.1c-3.8,12.2-10.2,20.6-13.7,24.5c6.9-2.6,14.4-15.1,16.2-22.2c1.5-5.7,4.2-9.4,5.7-11.1
						c-1.3-0.3-2.5-0.6-3.6-1C256.7,139.6,255.1,143.1,254.2,146.1z"/>
					<path class="st4" d="M251.7,80.3c0.2,2.3,0.4,4.6,0.7,7.1c2.5,0.8,5.9,1.4,9.3,0.5c2.3-0.6,4.4-1.9,6.1-3.9
						c-0.6-1.5-1.2-3.1-1.9-4.8c-0.2-0.5-0.4-0.9-0.6-1.4c-2.6,2.2-5.8,3-8.9,3C254.8,80.8,253.2,80.6,251.7,80.3z"/>
					<path class="st3" d="M267.8,84c0.7-0.8,1.3-1.6,1.9-2.5c-0.8-1.9-1.6-3.9-2.4-5.7c-0.6,0.8-1.3,1.5-2,2.1
						c0.2,0.5,0.4,0.9,0.6,1.4C266.6,80.9,267.2,82.5,267.8,84z"/>
					<path class="st2" d="M249,79.4c0.1,2.3,0.3,4.5,0.4,6.7c0.6,0.3,1.7,0.8,3,1.2c-0.2-2.5-0.5-4.8-0.7-7.1
						C250.7,80,249.8,79.8,249,79.4z"/>
					<path class="st14" d="M330.6,104.9c1.8,1,3.6,2.1,5.5,3.3c1.2,0.2,2.5,0.4,3.7,0.7c-23.6-23.2-56.8-21.1-64.1-20.3
						c1.1,2.9,2.2,5.7,3.3,8.4C284.6,95.5,306.6,90.8,330.6,104.9z"/>
					<path class="st15" d="M339.8,108.9c0.9,0.2,1.9,0.5,2.9,0.8c0.2-0.1,0.4-0.2,0.6-0.3c-13.4-13.9-38-27-68.8-23.9
						c0.4,1.1,0.8,2.1,1.3,3.2C283,87.8,316.3,85.7,339.8,108.9z"/>
					<path class="st16" d="M279,97c0.3,0.8,0.6,1.5,0.9,2.3c6.1-1.8,28-6.6,50.8,5.7C306.6,90.8,284.6,95.5,279,97z"/>
					<path class="st2" d="M252.3,124.7c0.5,2.4,1.1,4.3,1.9,5.4c0.3,0.3,2,1.8,4.6,3c-0.3-1.4-0.8-3.8-1.3-6.9
						C255.4,125.7,253.6,125.2,252.3,124.7z"/>
					<path class="st4" d="M270.1,125.5c-2.5,0.8-5,1.2-7.3,1.2c-1.9,0-3.6-0.2-5.2-0.5c0.6,3.2,1,5.5,1.3,6.9c2,0.9,4.6,1.7,7.7,1.7
						l0,0c1.3,0,2.7-0.1,4.1-0.4c3.8-0.8,6.9-2.6,9-5.2c0.3-2.8,0.3-5.9-0.3-9.8C276.7,122.2,273.6,124.3,270.1,125.5z"/>
					<path class="st3" d="M279.6,129.1c0.4-0.4,0.7-0.9,1-1.4c2.2-3.5,2.8-8,1.7-12.5c-0.9,1.5-1.9,2.9-3,4.1
						C279.9,123.2,280,126.3,279.6,129.1z"/>
					<path class="st2" d="M248.4,66.2c0.4,0.2,1.2,0.4,2.2,0.7c-0.2-2.6-0.3-5.1-0.4-7.2c-0.6-0.1-1.2-0.2-1.8-0.4
						c0,1.2-0.1,2.5,0,4C248.4,64.3,248.4,65.2,248.4,66.2z"/>
					<path class="st3" d="M262,63.3c-0.7-1.6-1.4-2.9-1.9-3.9s-1-1.9-1.5-2.7c-0.6,0.7-1.3,1.2-2,1.6c1,2,2.2,4.4,3.5,7.3
						C260.8,65.1,261.4,64.3,262,63.3z"/>
					<path class="st4" d="M260.1,65.7c-1.3-2.9-2.5-5.3-3.5-7.3c-1.7,1.1-3.4,1.5-5.1,1.5c-0.5,0-0.9,0-1.4-0.1
						c0.1,2.1,0.2,4.6,0.4,7.2C253.2,67.6,257.3,68.1,260.1,65.7z"/>
					<path class="st3" d="M277.7,101.7c-0.9-2.3-1.8-4.7-2.8-7.2c-0.6,1-1.3,2-2,2.8c1,2.7,1.8,5.2,2.6,7.5
						C276.3,103.9,277,102.8,277.7,101.7z"/>
					<path class="st2" d="M250.2,100.8c0,0.3,0,0.6,0.1,1c0.1,2.7,0.3,5.4,0.4,8c0.9,0.3,2.4,0.9,4.4,1.3c-0.4-2.8-0.8-5.8-1.2-9.1
						C252.5,101.6,251.2,101.2,250.2,100.8z"/>
					<path class="st4" d="M266.6,101.7c-2.1,0.8-4.3,1.1-6.4,1.1c-2.3,0-4.4-0.3-6.3-0.8c0.4,3.3,0.8,6.3,1.2,9.1
						c5.5,1.2,14.1,1.4,20.4-6.2c-0.7-2.3-1.6-4.8-2.6-7.5C271.2,99.3,269,100.8,266.6,101.7z"/>
					<path class="st17" d="M373.4,251.8c2.3-18.7,4.5-35.5,1.9-54.6c-2.5-18-11-42.1-17.3-51c-0.6,1.7-1.2,3.3-1.9,4.9
						c2.8,5.9,11.8,26.3,13.8,49.3c2.3,27.3-2.3,38.2-4.8,52.3c-2.1,12-4.5,34.2-0.5,48.2c-1.2-7.3-1.2-18,3.6-31.7l0.4-1.2l1.2,0.2
						c0.2,0,1.2,0.3,2.9,0.9C372.3,266.9,372.1,262.1,373.4,251.8z"/>
					<path class="st18" d="M365.1,252.7c2.5-14.1,7.1-25,4.8-52.3c-1.9-22.9-10.9-43.3-13.8-49.3c-0.3,0.8-0.6,1.6-0.9,2.3
						c1.7,3.7,11.1,25.9,12.9,48.5c1.3,16.4-1,27.8-3.2,38.9c-1.2,5.8-2.4,11.8-3,18.4c-1.5,15.3-2.3,29.9,2.8,41.8
						c0-0.1,0-0.1,0-0.2C360.6,287,363,264.7,365.1,252.7z"/>
					<path class="st19" d="M378.3,194.7c-4.6-28.3-15.2-45.7-19.2-51.6c-0.3,1-0.7,2.1-1.1,3.1c6.3,8.9,14.8,33,17.3,51
						c2.6,19,0.5,35.9-1.9,54.6c-1.3,10.4-1.2,15.1-0.8,17.3c1,0.4,2.2,0.9,3.6,1.6c-1.2-5.9-0.2-14.2,1.1-24.3
						C379.2,231.9,381.4,214,378.3,194.7z"/>
					<path class="st20" d="M355.9,230.8c-3.5,21.4-8.1,49.5,4.9,69.2c-4.9-11.3-5.5-26.3-4.7-39.2c1-16.6,7.8-30.8,6.7-55.2
						c-0.9-20.4-8.2-39.8-10.6-45.6c-1.3,2.8-2.4,5.1-3.3,6.7c1.9,4.4,12.1,29.1,8.6,53.9C357.1,223.9,356.5,227.3,355.9,230.8z"/>
					<path class="st21" d="M356.1,260.9c-0.8,12.9-0.2,28,4.7,39.2c0.2,0.3,0.4,0.7,0.7,1c-4.8-12.2-4-26.9-2.5-42.1
						c0.7-6.8,1.9-12.8,3.1-18.7c2.2-10.9,4.4-22.1,3.2-38.1c-1.5-19.2-8.6-38-11.6-45.1c-0.5,1-0.9,2-1.3,3
						c2.4,5.8,9.7,25.2,10.6,45.6C363.9,230.1,357.1,244.2,356.1,260.9z"/>
					<path class="st22" d="M387.9,249c-1.4,17.7-0.8,26.4-0.2,30.4c1.2,1.3,2.3,2.6,3.4,4.2c-1.8-11.8-0.9-25.1,0-39.1
						c1.2-18.4,2.4-37.4-2-55.9c-6.9-29.1-21.5-50.5-26.9-57.6c-0.2,0.9-0.4,1.8-0.6,2.7c9.7,12.3,20.9,36.2,24.6,52.4
						C390.1,202.9,390,221.2,387.9,249z"/>
					<path class="st23" d="M383.1,240c1.4-13.8,3.8-28.8-1.8-56.6c-4.7-23.3-16.8-40.8-20.6-45.8c-0.2,0.7-0.4,1.3-0.6,2
						c2.7,3.6,15.6,21.7,21,54.5c3.2,19.7,0.9,37.9-0.9,52.6c-1.5,11.7-2.6,21-0.2,26c0.8,0.5,1.7,1.2,2.6,1.8
						C379.6,265.3,381.8,252.5,383.1,240z"/>
					<path class="st24" d="M381.3,183.4c5.6,27.8,3.2,42.8,1.8,56.6c-1.3,12.5-3.4,25.3-0.5,34.6c1.7,1.3,3.4,2.9,5.2,4.8
						c-0.6-4-1.2-12.7,0.2-30.4c2.2-27.8,2.3-46.1-1.6-63c-3.7-16.2-14.9-40.1-24.6-52.4c-0.3,1.3-0.6,2.6-1,4
						C364.4,142.6,376.6,160.1,381.3,183.4z"/>
					<path class="st2" d="M253,188.9c-0.4,0.3-0.9,0.7-1.4,1c-0.5,0.4-1.1,0.7-1.7,1c-1.2,0.7-2.5,1.3-3.9,1.9
						c-1.4,0.6-2.9,1.1-4.4,1.4c-1.5,0.4-3.1,0.7-4.7,0.9c-1.6,0.2-3.2,0.4-4.7,0.4c-1.6,0.1-3.1,0-4.6,0c-1.5-0.1-2.9-0.2-4.2-0.4
						c-0.2,0-0.3-0.1-0.5-0.1c-2.7,3.4-4.1,7.5-4.1,11.7c0,9.5,7.3,17.5,17.2,19.8c-2-1.6-3.3-4-3.3-6.8c0-4.8,3.9-8.6,8.6-8.6
						c4.8,0,8.6,3.9,8.6,8.6c0,2.9-1.4,5.5-3.6,7c10.5-1.9,18.4-10.1,18.4-20C264.8,199.3,260.3,192.5,253,188.9z"/>
					<path class="st25" d="M206.5,244.3c-2.7-13.1,0.7-22.3,2.6-34.7c1.2-8.1,1.2-16.4,1-21.2c-1.4,1-2.1,1.7-2.1,1.7
						s0.7-0.7,2.1-1.7c0-1.4-0.1-2.5-0.1-3.3c-1.4,0.8-2.5,1.7-3.3,2.5c0.2,3.3,1,19.3-2.3,31c-7.2,26,2.9,46,30.1,59.6
						C217.1,267.7,208.4,253.9,206.5,244.3z"/>
					<path class="st25" d="M330.3,124.4c1.8-1.5,4.1-3.2,6.4-4.8c0.7-0.9,1.3-1.6,1.7-2c-0.4,0.4-1,1.1-1.7,2
						c5.8-4,12.4-7.4,16.3-5.7c8.2,3.6,4.1,31.1-11.3,52.1c0,0,10.8,19.2,9.8,40.9s-4.4,31.1-5.2,41.9c-0.6,7.4-5.2,21.1-20.6,31.5
						c11.2-6.6,19.9-15.7,24.1-25.6c0.7-8.5,2.1-16.7,3.3-24.2c0.6-3.6,1.1-7,1.6-10.1c3.7-26-8.5-52.7-8.6-53l-0.3-0.7l0.4-0.6
						c7.3-13.1,18.4-41.8,12.4-51.9c-1.4-2.4-3.8-3.6-7.3-3.6c-0.1,0-0.1,0-0.2,0C343.4,110.6,336.6,116.5,330.3,124.4z"/>
					<path class="st2" d="M346.3,248.8c0.8-10.8,4.2-20.2,5.2-41.9s-9.8-40.9-9.8-40.9c15.4-21,19.5-48.5,11.3-52.1
						c-4-1.7-10.5,1.7-16.3,5.7c-4.2,5.1-12.9,17.3-19,26.7c-7.2,11.1-14,20.5-28.8,24.8s-25.2,1.2-25.2,1.2
						c-11.3,6-25.6,3.7-25.6,3.7c-4.5,5.5-9.2,6.8-17.7,8.4c-5,0.9-8.3,2.7-10.3,4.1c0.2,4.8,0.2,13.2-1,21.2
						c-1.9,12.3-5.3,21.5-2.6,34.7c2,9.5,10.7,23.3,28,34c4,2,8.4,3.9,13.1,5.6c30.6,11.1,53.8,6.9,67.9,1.3c3.6-1.4,7-3.1,10.3-5
						C341.2,269.8,345.8,256.1,346.3,248.8z M241.8,230c-14.3,0-25.8-10.4-25.8-23.3c0-4.4,1.3-8.6,3.9-12.2h-0.1
						c-1.2-0.2-2.2-0.5-3.1-0.8c-0.9-0.2-1.7-0.5-2.4-0.7c-1.3-0.4-2-0.8-2-0.8s0.8,0.1,2.1,0.3c0.7,0.1,1.5,0.1,2.4,0.2
						c0.9,0.1,2,0.1,3.1,0.2c1.2,0.1,2.4,0.1,3.7,0.1s2.7,0,4.1,0c1.4,0,2.9-0.1,4.4-0.2c1.5-0.1,3-0.3,4.5-0.5s3-0.5,4.4-0.9
						c0.7-0.2,1.4-0.3,2.1-0.6c0.7-0.2,1.4-0.4,2-0.6c1.3-0.5,2.6-0.9,3.8-1.5c0.6-0.2,1.1-0.5,1.7-0.8c0.6-0.3,1.1-0.5,1.6-0.8
						c1-0.5,1.9-1.1,2.7-1.6s1.5-1,2-1.4c1.1-0.8,1.7-1.3,1.7-1.3s-0.4,0.6-1.3,1.8c-0.4,0.5-1,1.2-1.7,1.9
						c-0.1,0.1-0.2,0.2-0.3,0.2c7.6,4.2,12.3,11.7,12.3,19.8C267.6,219.6,256,230,241.8,230z M322.7,144.1
						c1.4-2.3,14.3-22.2,23.9-22.2c1.3,0,2.5,0.3,3.5,1c10.7,6.8-5.3,33-7.2,35.9l-1.1,1.8l-1.2-1.7c-5.1-7.1-17.1-12.7-17.2-12.7
						l-1.5-0.7L322.7,144.1z M318.8,266.7c-0.2,0.3-0.6,0.8-0.9,1.4c-0.2,0.3-0.4,0.6-0.6,0.9s-0.4,0.6-0.6,1
						c-0.2,0.3-0.4,0.7-0.6,1c-0.2,0.4-0.4,0.7-0.5,1.1s-0.3,0.7-0.4,1.1c0,0.2-0.1,0.4-0.2,0.5c0,0.2-0.1,0.4-0.1,0.5
						c0,0.2-0.1,0.4-0.1,0.5c0,0.2,0,0.4,0,0.5c0,0.2,0,0.4-0.1,0.5c0,0.2,0,0.3,0,0.5c0,0.3,0,0.7,0,0.9c0,0.3,0.1,0.5,0.1,0.7
						c0,0.4,0,0.7,0,0.7s-0.2-0.2-0.5-0.5c-0.2-0.2-0.4-0.4-0.5-0.6c-0.2-0.2-0.4-0.6-0.6-0.9c-0.1-0.2-0.2-0.4-0.3-0.5
						c-0.1-0.2-0.1-0.4-0.2-0.6c-0.1-0.4-0.3-0.9-0.2-1.4c0-0.3,0-0.5,0-0.8c0-0.2,0.1-0.4,0.1-0.6c-0.3-0.1-0.6-0.3-1-0.4
						c-0.5-0.2-1.1-0.3-1.7-0.5s-1.3-0.4-2-0.5c-0.4-0.1-0.7-0.1-1.1-0.2s-0.8-0.1-1.2-0.1c-0.4,0-0.8,0-1.2-0.1h-0.6h-0.6
						c-0.8,0-1.7,0.1-2.5,0.2l-1.3,0.2c-0.4,0.1-0.8,0.2-1.2,0.3c-0.4,0.1-0.8,0.2-1.2,0.3c-0.4,0.1-0.8,0.2-1.2,0.3
						c-0.8,0.2-1.5,0.5-2.3,0.7c-0.7,0.2-1.4,0.5-2,0.8c-0.6,0.2-1.2,0.5-1.7,0.7s-0.9,0.4-1.3,0.6c-0.7,0.3-1.1,0.6-1.1,0.6
						s0.3-0.4,0.8-1c0.3-0.3,0.6-0.7,1-1.1s0.9-0.8,1.5-1.2c0.6-0.4,1.2-0.9,1.9-1.3c0.7-0.4,1.5-0.8,2.3-1.2
						c0.8-0.3,1.7-0.7,2.6-0.9c0.5-0.1,0.9-0.2,1.4-0.4c0.5-0.1,1-0.1,1.4-0.2c1-0.2,1.9-0.2,2.9-0.2h0.7h0.7c0.5,0,0.9,0,1.4,0.1
						c0.5,0,0.9,0.1,1.3,0.1c0.4,0.1,0.8,0.1,1.3,0.2c0.8,0.1,1.6,0.3,2.3,0.5c0.7,0.2,1.3,0.3,1.9,0.6c0.4,0.2,0.7,0.3,1.1,0.4
						c0.1-0.1,0.2-0.3,0.3-0.4c0.3-0.4,0.6-0.8,1-1.2c0.3-0.4,0.7-0.7,1-0.9c0.3-0.3,0.7-0.5,1-0.7c0.7-0.3,1.3-0.6,1.7-0.7
						c0.4-0.1,0.7-0.1,0.7-0.1S319.1,266.4,318.8,266.7z M332.1,200.4c-0.7,0.1-1.5,0.3-2.4,0.4c-0.9,0.1-2,0.3-3.2,0.4h-0.1
						c2,4,2.8,8.3,2.2,12.6c-1.5,11.6-12.3,19.9-24.9,19.9c-1.2,0-2.5-0.1-3.8-0.3c-6.8-0.9-12.9-4.1-17.2-9.1
						c-4.3-5-6.2-11.2-5.4-17.4c1.1-8.1,6.7-14.8,14.8-18c-0.1-0.1-0.2-0.2-0.2-0.3c-0.6-0.8-1-1.5-1.4-2.1c-0.7-1.2-1-1.9-1-1.9
						s0.6,0.5,1.6,1.5c0.5,0.4,1.1,1,1.8,1.6c0.7,0.6,1.5,1.3,2.4,1.9c0.4,0.3,0.9,0.7,1.4,1s1,0.7,1.6,1c1.1,0.7,2.3,1.3,3.5,1.9
						c0.6,0.3,1.3,0.6,1.9,0.9c0.7,0.3,1.3,0.6,2,0.8c1.4,0.5,2.8,1,4.2,1.4c1.4,0.4,2.9,0.8,4.4,1.1s2.9,0.6,4.3,0.8
						s2.8,0.4,4.1,0.6c1.3,0.2,2.5,0.3,3.7,0.4c1.1,0.1,2.2,0.2,3.1,0.2s1.8,0.1,2.4,0.1c1.4,0,2.1,0,2.1,0S333.4,200.1,332.1,200.4
						z"/>
					<path class="st25" d="M220.4,184.4c8.6-1.6,13.3-2.9,17.7-8.4c0,0,14.3,2.3,25.6-3.7c0,0,10.4,3.1,25.2-1.2
						c14.8-4.3,21.6-13.7,28.8-24.8c6.1-9.4,14.9-21.6,19-26.7c-2.3,1.6-4.5,3.3-6.4,4.8c-3.7,4.7-7.3,10-10.8,15.3
						c-6.8,10.3-13.2,20-20.6,24.4c-16,9.5-32,6.4-35.4,5.6c-2,1.2-9.3,4.4-25.8,3.7c-1.6,1.5-7,6.2-14.1,7.1
						c-5.1,0.7-10.2,2.6-13.7,4.7c0,0.7,0.1,1.8,0.1,3.3C212,187.1,215.4,185.3,220.4,184.4z"/>
					<path class="st2" d="M322.7,201.3c-1.4,0-2.8,0-4.3-0.1s-3-0.3-4.5-0.6s-3.1-0.6-4.6-1.1s-3.1-0.9-4.5-1.5
						c-1.5-0.6-2.9-1.3-4.2-2c-1.3-0.7-2.5-1.5-3.6-2.4c-0.6-0.4-1.1-0.8-1.6-1.3c-0.4-0.4-0.8-0.8-1.2-1.1c-7.7,2.6-13,8.8-14,16.1
						c-0.7,5.4,1,10.8,4.7,15.1c2.9,3.3,6.6,5.8,10.9,7.1c-2-1.8-3.1-4.6-2.7-7.4c0.6-4.7,5-8,9.7-7.4s8,5,7.4,9.7
						c-0.4,2.7-2,5-4.1,6.3c10.1-1,18.4-7.9,19.6-17.3c0.6-4.2-0.3-8.4-2.6-12.1C323,201.3,322.8,201.3,322.7,201.3z"/>
					<path class="st3" d="M266,72.6c-0.9-2.2-1.8-4.3-2.7-6.2c-0.6,0.8-1.3,1.4-2,1.9c0.9,2,1.8,4.2,2.9,6.7
						C264.9,74.4,265.5,73.6,266,72.6z"/>
					<path class="st4" d="M250.8,69.9c0.2,2.3,0.4,4.7,0.6,7.3c3.5,1,8.9,1.6,12.8-2.2c-1-2.5-2-4.7-2.9-6.7c-2,1.4-4.5,2-6.9,2
						C253.2,70.3,252,70.2,250.8,69.9z"/>
					<path class="st2" d="M248.5,69.3c0.1,2.3,0.2,4.6,0.3,7c0.6,0.3,1.5,0.6,2.6,0.9c-0.2-2.6-0.4-5-0.6-7.3
						C250,69.8,249.2,69.6,248.5,69.3z"/>
					<path class="st26" d="M341.6,155.6c4.8-8.1,13.5-26.1,7-30.2c-0.6-0.4-1.2-0.6-2-0.6c-6.4,0-16.3,13-20.6,19.5
						C329.3,145.9,336.9,150.1,341.6,155.6z"/>
					<path class="st3" d="M255.3,55.8c0.6-0.4,1.2-1,1.7-1.7c-2.2-3.2-3.9-4.6-5.6-4.6c-0.1,0-0.2,0-0.4,0
						C251.8,50.2,253.1,51.9,255.3,55.8z"/>
					<path class="st4" d="M255.3,55.8c-2.2-3.9-3.5-5.6-4.3-6.3c-0.2,0-0.3,0-0.5,0.1c-0.3,1.5-0.4,3.9-0.4,7.2
						C251.5,57.1,253.5,57.1,255.3,55.8z"/>
					<path class="st2" d="M250.5,49.6c-0.2,0-0.4,0.1-0.6,0.2c-0.1,0.1-1,0.9-1.4,6.6c0.4,0.1,0.9,0.3,1.6,0.4
						C250.1,53.6,250.2,51.1,250.5,49.6z"/>
					<path class="st2" d="M194.4,109.7c-3.5,5.3,3.4,18.5,6,23.1c3.4-7.8,8.2-15.9,15.5-23.3c-0.1,0-0.1-0.1-0.2-0.1
						C210.9,107.9,197.9,104.4,194.4,109.7z"/>
					<path class="st25" d="M200.5,132.8c-2.6-4.6-9.5-17.8-6-23.1c3.4-5.2,16.5-1.8,21.3-0.3c-6.5-2.9-19.1-6.9-23.4-1.1
						c-4.4,5.9,2.2,20.8,6.5,28.6C199.3,135.5,199.9,134.2,200.5,132.8z"/>
					<path class="st2" d="M178.5,178.5c-0.2,0.1-0.3,0.2-0.5,0.2l0,0c0.4,0,0.9-0.1,1.4-0.2C179.1,178.5,178.8,178.5,178.5,178.5z"
						/>
					<path class="st15" d="M193.8,169.4c11.2-11.8,8-33.5,25.1-53.9c8-9.5,17.9-15.6,28.1-19.5c0-0.9-0.1-1.8-0.1-2.6
						c0-0.3,0-0.6-0.1-0.8c-38.6,16-46.1,44.8-51.1,64c-3.4,13.2-11.5,19.2-17.3,21.9c0.3,0,0.6,0,0.9,0
						C182.9,177.8,188,175.5,193.8,169.4z"/>
					<path class="st14" d="M219,115.4c-17.1,20.5-13.9,42.1-25.1,53.9c-5.9,6.2-10.9,8.4-14.4,9.1c4.8,0,15.4-1,25.8-9.2
						c14.1-11.1,10.9-18.8,19.9-36c8.3-15.9,16.8-22.4,22.6-25.7c-0.1-1.8-0.2-3.7-0.3-5.6c-0.1-2-0.2-4-0.3-5.9
						C236.9,99.9,226.9,105.9,219,115.4z"/>
					<path class="st16" d="M222.1,149.1c6.2-21.4,22.2-35.5,25.8-38.5c-0.1-1-0.1-2-0.2-3.1c-5.8,3.3-14.4,9.8-22.6,25.7
						c-9,17.2-5.8,25-19.9,36c-10.4,8.2-20.9,9.2-25.8,9.2c-0.5,0.1-1,0.2-1.4,0.2C199.7,181.2,216,170.4,222.1,149.1z"/>
					<path class="st21" d="M192.4,183.1c0.2-0.7,0.4-1.3,0.6-2c-1.4,0.3-2.8,0.4-4.2,0.6c-1.2,1.8-6.4,8.9-14.6,13.7c0,0,0,0,0.1,0
						s0.1,0,0.2,0C180.5,194.4,188.4,187.1,192.4,183.1z"/>
					<path class="st20" d="M190.7,192.5c0.3-3,0.8-6.3,1.6-9.3c-4,4-11.9,11.2-18,12.3C177.7,195.4,185.4,195.2,190.7,192.5z"/>
					<path class="st27" d="M174.4,195.4C174.3,195.4,174.3,195.4,174.4,195.4c3.5,0.7,9.4,1.2,16.1-0.2c0.1-0.9,0.2-1.8,0.3-2.7
						C185.4,195.2,177.7,195.4,174.4,195.4z"/>
					<path class="st2" d="M174.2,195.4C174.2,195.4,174.3,195.4,174.2,195.4c0.1,0,0.2,0,0.2,0C174.3,195.4,174.3,195.4,174.2,195.4
						z"/>
					<path class="st7" d="M223.3,177.7c7.4-0.9,12.8-6.7,12.9-6.7l0.5-0.5l0,0c2-1.9,10.4-11,14.8-25.3c1-3.1,2.6-6.6,4.8-10.2
						c-0.9-0.5-1.7-1-2.4-1.5c-5.8,8.8-7.2,18.2-14.8,29.2c-7.9,11.5-14.3,9.6-29.1,17.2c-10.5,5.4-15,13.7-16.7,18.1
						c0,0.3,0,0.6,0,0.9c4.3-5.9,10.6-12.3,11-12.7C206.9,182.9,214.7,178.8,223.3,177.7z"/>
					<path class="st6" d="M216.3,171.3c8.7-8,9-18.4,15.6-30.7c5.1-9.7,13.4-17.9,16.7-21c-0.2-1.7-0.4-3.5-0.5-5.4
						c-5.2,4.6-18.1,17.6-23.3,35.7c-4.7,16.3-14.8,26.8-28.7,30.5c-1.9,5.1-2.6,11.7-2.9,16.6c2-7.3,4.4-14.6,4.4-14.6
						S207.7,179.3,216.3,171.3z"/>
					<path class="st5" d="M209.9,179.9c14.8-7.6,21.2-5.7,29.1-17.2c7.6-11,9-20.4,14.8-29.2c-1.1-0.8-1.7-1.4-1.8-1.5l-0.1-0.2
						c-1.7-2.3-2.6-6.6-3.3-12.3c-3.3,3.1-11.6,11.3-16.7,21c-6.5,12.3-6.9,22.7-15.6,30.7c-8.7,8-18.7,11.1-18.7,11.1
						s-2.5,7.3-4.4,14.6c0,0.4,0,0.7-0.1,1C195,193.6,199.5,185.3,209.9,179.9z"/>
					<path d="M255.1,111c0.1,1,0.3,2,0.4,2.9c1.6,0.3,3.3,0.5,5.2,0.5c5.1,0,11-1.4,15.8-6.5c-0.3-1-0.6-2.1-1-3.2
						C269.2,112.4,260.6,112.2,255.1,111z"/>
					<path d="M269.2,122.8c-4.4,1.5-8.8,1.1-12.2,0.3c0.2,1.1,0.4,2.1,0.5,3.1c1.6,0.3,3.4,0.5,5.2,0.5c2.3,0,4.8-0.3,7.3-1.2
						c3.5-1.2,6.6-3.3,9.2-6.2c-0.2-1.1-0.4-2.4-0.7-3.7C276,119.1,272.8,121.5,269.2,122.8z"/>
					<path d="M361.7,133.6c0.2-0.9,0.4-1.8,0.6-2.7c5.4,7.1,20,28.5,26.9,57.6c4.4,18.5,3.2,37.6,2,55.9
						c-0.9,13.9-1.9,25.4-0.2,37.3c-1.1-1.5-6.7-5.8-8.4-7.1c0.3,1,0.6,1.9,1,2.8c-0.4-0.9-0.7-1.8-1-2.8c-0.9-0.7-1.7-1.3-2.6-1.8
						c-2.4-5-1.2-14.3,0.2-26c1.8-14.6,4.1-32.8,0.9-52.6c-5.4-32.9-18.2-51-21-54.5c0.2-0.7,0.4-1.3,0.6-2
						c-0.7-0.9-1.1-1.5-1.1-1.5s0.4,0.5,1.1,1.5C361,136.3,361.4,135,361.7,133.6c-0.4-0.5-0.8-1-1.2-1.5
						C360.9,132.7,361.3,133.1,361.7,133.6z M376.3,270.6c-1.4-0.7-2.6-1.2-3.6-1.6c0.3,1.8,0.8,1.9,0.8,1.9s-0.5-0.1-0.8-1.9
						c-1.6-0.6-2.7-0.8-2.9-0.9l-1.2-0.2l-0.4,1.2c-4.8,13.7-4.8,24.4-3.6,31.7c0.7,2.4,1.6,4.6,2.7,6.4c-1.1-1.8-2-4-2.7-6.4
						c0,0.1,0,0.1,0,0.2c-5-11.9-4.3-26.6-2.8-41.8c0.6-6.6,1.8-12.6,3-18.4c2.2-11.1,4.5-22.5,3.2-38.9
						c-1.8-22.7-11.2-44.8-12.9-48.5c0.3-0.8,0.6-1.5,0.9-2.3c-0.5-1.1-0.9-1.7-0.9-1.7s0.3,0.6,0.9,1.7c0.6-1.6,1.3-3.2,1.9-4.9
						c-0.4-0.5-0.7-1-1.1-1.4c0.3,0.4,0.7,0.9,1.1,1.4c0.4-1,0.7-2.1,1.1-3.1c4.1,5.9,14.6,23.2,19.2,51.6
						c3.2,19.3,0.9,37.3-0.9,51.7C376.1,256.4,375.1,264.8,376.3,270.6z M349,166.8c0.9-1.6,2-3.9,3.3-6.7c-0.5-1.1-0.7-1.8-0.7-1.8
						s0.3,0.6,0.7,1.8c0.4-0.9,0.9-1.9,1.3-3c3,7.1,10.1,25.9,11.6,45.1c1.3,16-1,27.2-3.2,38.1c-1.2,5.9-2.4,12-3.1,18.7
						c-1.5,15.2-2.3,29.9,2.5,42.1c-0.2-0.3-0.5-0.7-0.7-1c1.4,3.2,3.1,6.2,5.3,8.6c-2.2-2.5-3.9-5.4-5.3-8.6
						c-13-19.7-8.4-47.8-4.9-69.2c0.6-3.6,1.1-7,1.6-10.2C361.1,195.8,350.9,171.2,349,166.8z M351.1,110.5c0.1,0,0.1,0,0.2,0
						c3.4,0,5.8,1.2,7.3,3.6c6,10.1-5.1,38.8-12.4,51.9l-0.4,0.6l0.3,0.7c0.1,0.3,12.3,26.9,8.6,53c-0.5,3.2-1,6.6-1.6,10.1
						c-1.2,7.5-2.6,15.8-3.3,24.2c-4.2,10-12.9,19.1-24.1,25.6c-7.1,4.8-16.5,8.9-28.9,11.3c12.4-2.4,21.8-6.5,28.9-11.3
						c-3.2,1.9-6.7,3.6-10.3,5c-14.1,5.6-37.3,9.8-67.9-1.3c-4.7-1.7-9.1-3.6-13.1-5.6c6.5,4,14.3,7.6,23.4,10.3
						c-9.1-2.7-16.8-6.3-23.4-10.3c-27.1-13.6-37.2-33.6-30.1-59.6c3.2-11.7,2.5-27.7,2.3-31c0.7-0.8,1.9-1.7,3.3-2.5
						c0-0.5-0.1-0.8-0.1-0.8s0,0.3,0.1,0.8c3.5-2.1,8.6-4,13.7-4.7c7.1-0.9,12.5-5.6,14.1-7.1c16.6,0.7,23.8-2.6,25.8-3.7
						c3.4,0.8,19.4,4,35.4-5.6c7.3-4.4,13.8-14.1,20.6-24.4c3.5-5.3,7.1-10.7,10.8-15.3c-3.1,2.5-5.2,4.5-5.2,4.5s2.1-2,5.2-4.5
						C336.6,116.5,343.4,110.6,351.1,110.5z M266.5,137.6L266.5,137.6c1.5,0,3.1-0.2,4.7-0.5c5.2-1.1,9.4-3.8,11.9-7.9
						c2.5-4,3.3-9.2,2.1-14.2c-0.3,0.2-0.6,0.3-0.9,0.5c0.3-0.2,0.6-0.3,0.9-0.5c-0.1-0.2-0.1-0.5-0.1-0.7c-0.1-0.5-0.3-1.2-0.5-1.9
						c11.9-5.9,24.5-6.8,37.7-2.9c1.2-0.1,2.3-0.1,3.4,0c-1.1-0.2-2.3-0.2-3.4,0c0,0,0,0,0.1,0l0,0c0.9,0.1,1.3,0.2,1.3,0.2
						s-0.5-0.1-1.3-0.2c-11.5,4-19.8,14.6-26.9,23.7c-2.1,2.7-4,5.2-6,7.4c-15.3,17.6-24.1,24.4-26.3,25.9l0,0l-0.6,0.4
						c-0.1,0-4.8,3.3-18.3,3.6c-2.6,0.3-4.1,0.1-4.1,0.1s1.6,0.1,4.1-0.1c-1.2,0-2.4,0-3.7,0l0,0c-0.8,0.3-1.6,0.5-2.4,0.5
						c0.8,0,1.6-0.2,2.4-0.5c3.5-3.9,9.9-12.3,13.7-24.5c0.9-3,2.6-6.4,4.7-9.9c1.1,0.4,2.3,0.8,3.6,1c0.6-0.7,1-1,1-1s-0.4,0.4-1,1
						C263.7,137.5,265,137.6,266.5,137.6z M281.4,103.4c-0.9,0.3-1.4,0.4-1.4,0.4S280.5,103.6,281.4,103.4c-0.2-0.5-0.3-0.9-0.5-1.4
						c6.1-1.7,27.3-6.3,49.3,6c-0.3,0-0.7,0-1,0.1c0.8,0.4,1.5,0.8,2.3,1.3c-0.8-0.5-1.5-0.9-2.3-1.3c-0.6,0.1-1.2,0.1-1.8,0.2
						c-2.2-0.8-4.3-1.5-6.5-2.1c2.7,0.9,5.3,2.1,7.9,3.6c-2.6-1.5-5.3-2.7-7.9-3.6c-12.9-3.4-25.7-2.2-37.4,3.4
						c-0.2-0.6-0.4-1.2-0.6-1.8c-0.9,0.3-1.3,0.5-1.3,0.5s0.5-0.2,1.3-0.5C282.5,106.5,282,105,281.4,103.4z M339,113.6
						c0,0-0.7-0.2-2-0.3c-7.3,5.9-13.7,15.4-19.9,24.8c-6.6,10-12.9,19.4-19.6,23.5c-12.4,7.4-25,6.6-30.7,5.7
						c0.5-0.4,1.1-0.9,1.7-1.4c-0.4,0-0.8,0-1.2,0c0.4,0,0.8,0,1.2,0c0.6-0.5,1.2-1,1.8-1.6c-3.5,2.1-5.3,2.5-5.3,2.5
						s1.8-0.4,5.3-2.5c4.5-4,11.6-10.8,21.2-21.9c2-2.3,4-4.9,6.1-7.5c10.3-13.2,21.9-28,41.6-23.3c-0.7,0.5-1.5,1-2.2,1.6
						C338.3,113.4,339,113.6,339,113.6z M274.4,85.5c30.9-3.1,55.5,10,68.8,23.9c-0.2,0.1-0.4,0.2-0.6,0.3c-1-0.3-1.9-0.6-2.9-0.8
						c0.7,0.6,1.3,1.3,1.9,2c-0.6-0.7-1.3-1.3-1.9-2c-1.3-0.3-2.5-0.5-3.7-0.7c-1.8-1.2-3.6-2.3-5.5-3.3c2.5,1.5,5,3.1,7.6,5
						c-2.5-1.9-5.1-3.6-7.6-5c-22.8-12.3-44.6-7.4-50.8-5.7c-0.3-0.7-0.6-1.5-0.9-2.3c-0.9,0.2-1.4,0.4-1.4,0.4s0.5-0.2,1.4-0.4
						c-1-2.7-2.1-5.5-3.3-8.4c-0.9,0.1-1.5,0.2-1.5,0.2s0.5-0.1,1.5-0.2C275.3,87.6,274.9,86.5,274.4,85.5z M248.4,59.4
						c0.6,0.2,1.2,0.3,1.8,0.4c0-1-0.1-2-0.1-2.9c-0.6-0.1-1.2-0.3-1.6-0.4c0.4-5.7,1.3-6.5,1.4-6.6c0.2-0.1,0.4-0.1,0.6-0.2
						c0-0.1,0.1-0.3,0.1-0.4c-0.4-0.2-0.5-0.1-0.5-0.1s0.2-0.1,0.5,0.1c0.1-0.5,0.3-0.9,0.5-1.2c-0.2,0.2-0.4,0.6-0.5,1.2
						c0.1,0.1,0.2,0.2,0.4,0.3c0.1,0,0.2,0,0.4,0c1.7,0,3.5,1.4,5.6,4.6c-0.5,0.7-1.1,1.3-1.7,1.7c0.4,0.8,0.9,1.6,1.3,2.6
						c0.7-0.4,1.3-1,2-1.6c0.5,0.8,1,1.7,1.5,2.7c0.5,0.9,1.1,2.3,1.9,3.9c-0.5,1-1.1,1.7-1.8,2.3c0.4,0.9,0.8,1.8,1.2,2.7
						c0.7-0.5,1.4-1.1,2-1.9c0.8,1.9,1.7,3.9,2.7,6.2c-0.6,1-1.2,1.8-1.8,2.4c0.4,0.9,0.8,1.9,1.2,2.8c0.7-0.6,1.4-1.3,2-2.1
						c0.8,1.8,1.6,3.8,2.4,5.7c-0.6,0.9-1.2,1.8-1.9,2.5c0.4,1,0.8,2,1.2,2.9c0.7-0.7,1.4-1.4,2-2.3c0.9,2.2,1.7,4.3,2.6,6.5
						l-0.1-0.1c-0.5,1.1-1.1,2.2-1.7,3.1c0.4,1.1,0.8,2.1,1.2,3.1c0.7-0.8,1.4-1.8,2-2.8c1,2.5,1.9,4.9,2.8,7.2
						c-0.7,1.2-1.4,2.2-2.2,3.1c0.4,1.1,0.7,2.2,1,3.2c0.8-0.9,1.7-1.8,2.4-2.9c0.9,2.4,1.6,4.5,2.2,6.3c-0.8,1.6-1.7,3-2.6,4.3
						c0.3,1.3,0.5,2.5,0.7,3.7c1.1-1.2,2.1-2.6,3-4.1c1.1,4.5,0.5,9-1.7,12.5c-0.3,0.5-0.7,1-1,1.4c-0.1,0.5-0.1,0.9-0.2,1.4
						c0.1-0.5,0.1-0.9,0.2-1.4c-2.1,2.6-5.2,4.4-9,5.2c-1.4,0.3-2.7,0.4-4.1,0.4l0,0c-3.1,0-5.7-0.8-7.7-1.7
						c0.2,1.1,0.4,1.7,0.4,1.7s-0.1-0.6-0.4-1.7c-2.6-1.2-4.3-2.6-4.6-3c-0.8-1.1-1.4-3-1.9-5.4c1.3,0.5,3.1,1,5.1,1.4
						c-0.2-0.9-0.3-2-0.5-3.1c-2.4-0.5-4.2-1.3-5.2-1.7c-0.4-2.6-0.6-5.5-0.8-8.6c1.2,0.4,2.7,0.8,4.6,1.1c-0.1-0.9-0.3-1.9-0.4-2.9
						c-2-0.4-3.5-1-4.4-1.3c-0.2-2.6-0.3-5.3-0.4-8c0-0.3,0-0.6-0.1-1c1,0.4,2.3,0.8,3.7,1.1c-0.1-1-0.2-2-0.4-3.1
						c-1.5-0.4-2.8-0.9-3.5-1.2c-0.1-1.5-0.2-3-0.3-4.5c-0.1-1.2-0.2-2.5-0.2-3.8c0.9,0.4,1.9,0.7,3.1,1.1c-0.1-1-0.2-2.1-0.3-3.1
						c-1.3-0.4-2.4-0.9-3-1.2c-0.1-2.2-0.3-4.4-0.4-6.7c0.8,0.3,1.8,0.6,2.7,0.8c-0.1-1-0.2-2.1-0.3-3.1c-1.1-0.3-2-0.7-2.6-0.9
						c-0.1-2.3-0.2-4.7-0.3-7c0.7,0.2,1.5,0.4,2.3,0.6c-0.1-1-0.2-2-0.2-3c-1-0.3-1.8-0.5-2.2-0.7c0-1,0-2,0-2.9
						C248.4,61.8,248.4,60.5,248.4,59.4z M192.3,108.3c4.3-5.8,16.9-1.8,23.4,1.1c1.1,0.3,1.8,0.6,1.8,0.6s-0.7-0.2-1.8-0.6
						c0.1,0,0.1,0.1,0.2,0.1c-7.2,7.4-12.1,15.5-15.5,23.3c0.6,1,0.9,1.6,0.9,1.6s-0.4-0.6-0.9-1.6c-0.6,1.4-1.2,2.7-1.7,4.1
						C194.5,129.1,187.9,114.2,192.3,108.3z M178,178.7c-2.3,0.3-3.7-0.2-3.7-0.2S175.7,179,178,178.7L178,178.7
						c0.1-0.1,0.3-0.2,0.4-0.2c-1.2,0-1.8-0.1-1.8-0.1s0.7,0.1,1.8,0.1c5.8-2.7,13.9-8.7,17.3-21.9c5-19.2,12.5-48,51.1-64
						c0,0.3,0,0.6,0.1,0.8c0.1,0.9,0.1,1.8,0.1,2.6c0.5-0.2,0.9-0.4,1.4-0.5c-0.5,0.2-0.9,0.4-1.4,0.5c0.1,2,0.2,4,0.3,5.9
						s0.2,3.8,0.3,5.6c0.5-0.3,0.9-0.5,1.4-0.8c-0.4,0.2-0.9,0.5-1.4,0.8c0.1,1,0.1,2.1,0.2,3.1c-3.6,2.9-19.6,17.1-25.8,38.5
						C216,170.4,199.7,181.2,178,178.7z M174.3,195.4c-1,0.2-2,0.2-2.8-0.1C172.3,195.6,173.3,195.6,174.3,195.4
						C174.3,195.4,174.2,195.4,174.3,195.4c-1,0-1.5-0.1-1.5-0.1S173.3,195.4,174.3,195.4c-0.1,0-0.1,0-0.2,0
						c8.2-4.8,13.3-11.8,14.6-13.7c1.4-0.1,2.9-0.3,4.2-0.6c-0.2,0.7-0.4,1.3-0.6,2c1.6-1.6,2.5-2.6,2.5-2.6s-1,1.1-2.5,2.6
						c-0.8,3.1-1.3,6.3-1.6,9.3c0.5-0.3,1.1-0.6,1.5-0.9c-0.5,0.3-1,0.6-1.5,0.9c-0.1,0.9-0.2,1.8-0.3,2.7
						C183.8,196.6,177.9,196.1,174.3,195.4z M193.2,198.9c0-0.3,0-0.6,0-0.9c-0.5,1.3-0.8,2.3-0.9,2.7c-0.2,1-0.5,2-0.7,2.9
						c0.2-0.9,0.4-1.9,0.7-2.9c0,0.2-0.1,0.3-0.1,0.3s0-0.1,0.1-0.3c0.3-1.2,0.6-2.5,1-3.8c0.3-4.9,1.1-11.6,2.9-16.6
						c13.8-3.8,24-14.3,28.7-30.5c5.2-18,18.1-31,23.3-35.7c0.1,1.9,0.3,3.7,0.5,5.4c0.9-0.8,1.5-1.3,1.5-1.3s-0.5,0.5-1.5,1.3
						c0.6,5.6,1.6,10,3.3,12.3l0.1,0.2c0.1,0.1,0.7,0.7,1.8,1.5c0.3-0.4,0.5-0.8,0.8-1.2c-0.3,0.4-0.5,0.8-0.8,1.2
						c0.6,0.5,1.4,1,2.4,1.5c-2.2,3.6-3.8,7.1-4.8,10.2c-4.4,14.3-12.8,23.3-14.8,25.3l0,0l-0.5,0.5c-0.1,0.1-5.5,5.8-12.9,6.7
						c-8.6,1.1-16.4,5.2-19.1,8.6C203.7,186.7,197.5,193,193.2,198.9z M216.1,269.7c2.8,2.5,6,4.8,9.6,7c4.3,1.1,6.8,2.2,6.8,2.2
						s-2.5-1.1-6.8-2.2c3,1.8,6.2,3.6,9.7,5.3c0.7-0.7,1.1-1.1,1.1-1.1s-0.4,0.4-1.1,1.1c3.5,1.6,7.2,3.2,11.2,4.6
						c31.5,11.5,55.4,7,69.9,1.3c2.6-1,5.2-2.2,7.6-3.5c-0.5-0.8-0.8-1.2-0.8-1.2s0.3,0.4,0.8,1.2c10.9-5.7,19.8-13.7,25.3-22.7
						c-0.7,19,2.9,38.2,19.3,51l6.2,4.8l-4-6.7c-0.1-0.1-7.4-12.6-1.8-34.4c-0.8-0.5-1.3-0.7-1.3-0.7s0.5,0.2,1.3,0.7
						c0.4-1.6,0.9-3.3,1.5-5.1c19.9,8.5,26.1,24.3,26.1,24.3c-4.8-19.2-3.7-33.9-2.6-51c1.2-18.6,2.5-37.8-2-56.8
						c-8-33.6-26.1-57.1-29.1-60.8c0.7-5.7,0.3-10.8-1.8-14.4c-2-3.3-5.2-5-9.7-5c-0.1,0-0.1,0-0.2,0c-1.7,0-3.3,0.3-4.9,0.7
						c-13.8-14.9-39.9-29.2-72.9-25.6c-4.3-10.6-8.6-20.6-10.7-24.6c-3.7-7.1-6.9-11.5-11.3-11.5c-0.8,0-1.6,0.2-2.4,0.5
						c-4.1,1.5-4.1,13.9-2.3,41.2c0,0.4,0.1,0.8,0.1,1.2c-12.2,4.9-21.5,11.1-28.6,17.8c-4.3-2-21.6-9.4-28.1-0.7
						c-6.6,8.8,5.1,29.9,7.5,33.9c-1.9,5.5-3.3,10.7-4.5,15.4c-5.1,19.6-20.7,21.8-21.4,21.9l-8.5,1l8.4,1.8
						c4.4,0.9,8.6,1.4,12.7,1.4c0.3,0,0.5,0,0.8,0c-2.5,3.2-8,9.3-15.5,12.6l-3.3,1.5l3.4,1.2c0.3,0.1,5.1,1.8,12.2,1.8
						c2.6,0,5.5-0.2,8.5-0.8c-0.2,3.3-0.1,5.6-0.1,5.8l0.1,5.5l2.6-4.8c0.9-1.7,2.2-3.6,3.7-5.5c0,0,3.9-5.8,7.2-8.6
						c0,0,0.7,15.3-3,30.2c-1.7,6.9-2.3,14.1-1.3,21.1C200.7,251.2,204.9,262.3,216.1,269.7z"/>
					<path d="M250.6,49.2c0,0.1-0.1,0.2-0.1,0.4c0.2,0,0.3-0.1,0.5-0.1C250.9,49.4,250.7,49.3,250.6,49.2z"/>
					<path d="M250.6,66.9c0.1,1,0.1,2,0.2,3c1.2,0.2,2.4,0.4,3.7,0.4c2.4,0,4.8-0.5,6.9-2c-0.4-0.9-0.8-1.8-1.2-2.7
						C257.3,68.1,253.2,67.6,250.6,66.9z"/>
					<path d="M251.4,77.2c0.1,1,0.2,2,0.3,3.1c1.5,0.4,3.1,0.6,4.8,0.6c3.1,0,6.2-0.8,8.9-3c-0.4-1-0.8-1.9-1.2-2.8
						C260.4,78.9,254.9,78.2,251.4,77.2z"/>
					<path d="M192.3,200.8c0.1-0.4,0.4-1.4,0.9-2.7c0-0.3,0-0.7,0.1-1C192.9,198.3,192.6,199.6,192.3,200.8z"/>
					<path d="M256.6,58.4c-0.5-0.9-0.9-1.8-1.3-2.6c-1.8,1.3-3.7,1.3-5.2,1c0,0.9,0,1.9,0.1,2.9c0.4,0.1,0.9,0.1,1.4,0.1
						C253.2,59.8,255,59.4,256.6,58.4z"/>
					<path d="M261.7,87.9c-3.4,0.9-6.8,0.3-9.3-0.5c0.1,1,0.2,2.1,0.3,3.1c1.6,0.4,3.5,0.8,5.5,0.8c1.4,0,2.8-0.2,4.2-0.5
						c2.5-0.7,4.7-1.9,6.6-3.7c-0.4-1-0.8-1.9-1.2-2.9C266.1,86,264,87.3,261.7,87.9z"/>
					<path d="M265.6,99c-4.2,1.5-8.8,0.8-12-0.1c0.1,1,0.2,2.1,0.4,3.1c1.8,0.4,4,0.8,6.3,0.8c2.1,0,4.3-0.3,6.4-1.1
						c2.5-0.9,4.6-2.4,6.3-4.4c-0.4-1-0.8-2.1-1.2-3.1C270.1,96.4,268.1,98.1,265.6,99z"/>
					<path d="M255.4,186.9c0.1-0.1,0.2-0.2,0.3-0.2c0.7-0.7,1.2-1.3,1.7-1.9c0.8-1.1,1.3-1.8,1.3-1.8s-0.7,0.5-1.7,1.3
						c-0.6,0.4-1.2,0.8-2,1.4c-0.8,0.5-1.7,1.1-2.7,1.6c-0.5,0.3-1,0.6-1.6,0.8c-0.6,0.3-1.1,0.6-1.7,0.8c-1.2,0.5-2.4,1-3.8,1.5
						c-0.7,0.2-1.3,0.4-2,0.6c-0.7,0.2-1.4,0.4-2.1,0.6c-1.4,0.4-2.9,0.6-4.4,0.9c-1.5,0.2-3,0.4-4.5,0.5s-3,0.2-4.4,0.2
						s-2.8,0-4.1,0s-2.6-0.1-3.7-0.1c-1.1-0.1-2.2-0.1-3.1-0.2c-0.9-0.1-1.8-0.2-2.4-0.2c-1.4-0.2-2.1-0.3-2.1-0.3s0.7,0.3,2,0.8
						c0.6,0.2,1.4,0.5,2.4,0.7c0.9,0.3,2,0.5,3.1,0.8h0.1c-2.5,3.7-3.9,7.9-3.9,12.2c0,12.8,11.6,23.3,25.8,23.3
						c14.3,0,25.8-10.4,25.8-23.3C267.6,198.6,263,191.1,255.4,186.9z M240.2,224c-1.5,0-2.8-1.3-2.8-2.8s1.3-2.8,2.8-2.8
						s2.8,1.3,2.8,2.8C243,222.8,241.8,224,240.2,224z M242.2,215.2c0-0.8,0.6-1.4,1.4-1.4c0.8,0,1.4,0.6,1.4,1.4
						c0,0.8-0.6,1.4-1.4,1.4C242.8,216.6,242.2,216,242.2,215.2z M244.7,223c0.5-0.5,0.6-1.3,0.6-2c0-0.4,0-0.7-0.1-0.9
						c-0.3-1.2,1.6-1.7,1.9-0.5c0.3,1.6,0.2,3.5-1.1,4.8C245.2,225.3,243.8,223.9,244.7,223z M246.3,226.7c2.2-1.6,3.6-4.1,3.6-7
						c0-4.8-3.9-8.6-8.6-8.6c-4.8,0-8.6,3.9-8.6,8.6c0,2.7,1.3,5.2,3.3,6.8c-9.9-2.3-17.2-10.3-17.2-19.8c0-4.2,1.4-8.2,4.1-11.7
						c0.2,0,0.3,0.1,0.5,0.1c1.3,0.2,2.8,0.3,4.2,0.4c1.5,0.1,3,0.1,4.6,0s3.1-0.2,4.7-0.4c1.6-0.3,3.2-0.5,4.7-0.9s3-0.9,4.4-1.4
						s2.7-1.2,3.9-1.9c0.6-0.3,1.2-0.7,1.7-1s0.9-0.6,1.4-1c7.3,3.6,11.8,10.4,11.8,17.8C264.8,216.6,256.8,224.9,246.3,226.7z"/>
					<path class="st2" d="M240.2,218.4c-1.5,0-2.8,1.3-2.8,2.8s1.3,2.8,2.8,2.8s2.8-1.3,2.8-2.8S241.8,218.4,240.2,218.4z"/>
					<path class="st2" d="M245,215.2c0-0.8-0.6-1.4-1.4-1.4c-0.8,0-1.4,0.6-1.4,1.4c0,0.8,0.6,1.4,1.4,1.4
						C244.4,216.6,245,216,245,215.2z"/>
					<path class="st2" d="M247.1,219.6c-0.3-1.2-2.1-0.7-1.9,0.5c0.1,0.2,0.1,0.5,0.1,0.9c0,0.7-0.1,1.4-0.6,2
						c-0.9,0.9,0.5,2.3,1.4,1.4C247.3,223.1,247.5,221.2,247.1,219.6z"/>
					<path d="M329.6,199.8c-0.9,0-2-0.1-3.1-0.2c-1.1-0.1-2.4-0.2-3.7-0.4c-1.3-0.2-2.7-0.3-4.1-0.6c-1.4-0.2-2.9-0.5-4.3-0.8
						c-1.5-0.3-2.9-0.7-4.4-1.1c-1.4-0.4-2.9-0.9-4.2-1.4c-0.7-0.3-1.4-0.5-2-0.8c-0.7-0.3-1.3-0.6-1.9-0.9
						c-1.3-0.6-2.5-1.3-3.5-1.9c-0.6-0.3-1.1-0.7-1.6-1s-1-0.7-1.4-1c-0.9-0.6-1.7-1.3-2.4-1.9c-0.7-0.6-1.3-1.2-1.8-1.6
						c-1-0.9-1.6-1.5-1.6-1.5s0.3,0.7,1,1.9c0.4,0.6,0.8,1.3,1.4,2.1c0.1,0.1,0.2,0.2,0.2,0.3c-8.1,3.2-13.7,10-14.8,18
						c-0.8,6.2,1.1,12.4,5.4,17.4s10.4,8.2,17.2,9.1c1.3,0.2,2.5,0.3,3.8,0.3c12.6,0,23.4-8.4,24.9-19.9c0.6-4.3-0.2-8.7-2.2-12.6
						h0.1c1.2-0.1,2.2-0.2,3.2-0.4c0.9-0.1,1.8-0.3,2.4-0.4c1.3-0.3,2.1-0.5,2.1-0.5s-0.8,0-2.1,0
						C331.4,199.9,330.6,199.8,329.6,199.8z M296.3,227.3c-1-1.4-1-3.3-0.4-4.9c0.4-1.2,2.2-0.4,1.8,0.8c-0.1,0.2-0.1,0.5-0.2,0.9
						c-0.1,0.7-0.1,1.4,0.4,2C298.6,227.2,297.1,228.3,296.3,227.3z M298.6,218.4c0.1-0.8,0.8-1.3,1.6-1.2c0.8,0.1,1.3,0.8,1.2,1.6
						c-0.1,0.8-0.8,1.3-1.6,1.2C299.1,219.9,298.5,219.1,298.6,218.4z M305.3,225.4c-0.2,1.5-1.6,2.6-3.1,2.4
						c-1.5-0.2-2.6-1.6-2.4-3.1s1.6-2.6,3.1-2.4C304.4,222.4,305.5,223.8,305.3,225.4z M325.7,213.4c-1.3,9.4-9.5,16.3-19.6,17.3
						c2.2-1.3,3.8-3.5,4.1-6.3c0.6-4.7-2.7-9-7.4-9.7c-4.7-0.6-9,2.7-9.7,7.4c-0.4,2.9,0.7,5.6,2.7,7.4c-4.3-1.4-8.1-3.8-10.9-7.1
						c-3.8-4.4-5.4-9.8-4.7-15.1c1-7.3,6.3-13.5,14-16.1c0.4,0.4,0.8,0.8,1.2,1.1c0.5,0.4,1,0.9,1.6,1.3c1.1,0.8,2.3,1.7,3.6,2.4
						c1.3,0.7,2.7,1.4,4.2,2s3,1.1,4.5,1.5s3.1,0.8,4.6,1.1s3.1,0.4,4.5,0.6c1.5,0.1,2.9,0.1,4.3,0.1c0.2,0,0.3,0,0.5,0
						C325.3,205.1,326.2,209.3,325.7,213.4z"/>
					<path class="st2" d="M302.9,222.2c-1.5-0.2-2.9,0.9-3.1,2.4s0.9,2.9,2.4,3.1c1.5,0.2,2.9-0.9,3.1-2.4S304.4,222.4,302.9,222.2z
						"/>
					<path class="st2" d="M301.4,218.7c0.1-0.8-0.4-1.5-1.2-1.6c-0.8-0.1-1.5,0.4-1.6,1.2s0.4,1.5,1.2,1.6
						C300.6,220.1,301.3,219.5,301.4,218.7z"/>
					<path class="st2" d="M297.5,224.1c0.1-0.4,0.1-0.7,0.2-0.9c0.4-1.2-1.4-1.9-1.8-0.8c-0.6,1.6-0.6,3.5,0.4,4.9
						c0.7,1,2.3-0.2,1.5-1.2C297.4,225.6,297.4,224.8,297.5,224.1z"/>
					<path d="M340.6,158.9l1.2,1.7l1.1-1.8c1.9-3,17.9-29.2,7.2-35.9c-1.1-0.7-2.2-1-3.5-1c-9.7,0-22.5,20-23.9,22.2l-0.9,1.4
						l1.5,0.7C323.5,146.3,335.5,151.8,340.6,158.9z M346.7,124.8c0.7,0,1.4,0.2,2,0.6c6.5,4.1-2.3,22.1-7,30.2
						c-4.7-5.4-12.3-9.6-15.6-11.2C330.3,137.8,340.3,124.8,346.7,124.8z"/>
					<path d="M316.8,266.9c-0.3,0.2-0.7,0.4-1,0.7c-0.3,0.3-0.7,0.6-1,0.9c-0.4,0.3-0.7,0.7-1,1.2c-0.1,0.1-0.2,0.3-0.3,0.4
						c-0.3-0.1-0.7-0.3-1.1-0.4c-0.5-0.2-1.2-0.4-1.9-0.6c-0.7-0.2-1.4-0.4-2.3-0.5c-0.4-0.1-0.8-0.1-1.3-0.2
						c-0.4-0.1-0.9-0.1-1.3-0.1c-0.5,0-0.9,0-1.4-0.1h-0.7h-0.7c-0.9,0.1-1.9,0.1-2.9,0.2c-0.5,0.1-1,0.1-1.4,0.2
						c-0.5,0.1-0.9,0.2-1.4,0.4c-0.9,0.2-1.8,0.6-2.6,0.9c-0.8,0.4-1.6,0.8-2.3,1.2c-0.7,0.4-1.3,0.8-1.9,1.3
						c-0.6,0.4-1.1,0.9-1.5,1.2c-0.4,0.4-0.8,0.7-1,1.1c-0.6,0.6-0.8,1-0.8,1s0.4-0.2,1.1-0.6c0.4-0.2,0.8-0.4,1.3-0.6
						s1.1-0.5,1.7-0.7c0.6-0.3,1.3-0.5,2-0.8s1.5-0.5,2.3-0.7c0.4-0.1,0.8-0.2,1.2-0.3c0.4-0.1,0.8-0.2,1.2-0.3
						c0.4-0.1,0.8-0.2,1.2-0.3l1.3-0.2c0.8-0.2,1.7-0.2,2.5-0.2h0.6h0.6c0.4,0,0.8,0,1.2,0.1c0.4,0,0.8,0.1,1.2,0.1
						c0.4,0.1,0.8,0.1,1.1,0.2c0.7,0.1,1.4,0.3,2,0.5s1.2,0.3,1.7,0.5c0.4,0.2,0.7,0.3,1,0.4c0,0.2-0.1,0.4-0.1,0.6
						c0,0.3,0,0.5,0,0.8c0,0.5,0.1,1,0.2,1.4c0.1,0.2,0.1,0.4,0.2,0.6s0.2,0.4,0.3,0.5c0.2,0.3,0.4,0.7,0.6,0.9
						c0.2,0.2,0.4,0.4,0.5,0.6c0.3,0.3,0.5,0.5,0.5,0.5s0-0.3,0-0.7c0-0.2,0-0.5-0.1-0.7c0-0.3,0-0.6,0-0.9c0-0.2,0-0.3,0-0.5
						s0-0.3,0.1-0.5c0-0.2,0-0.4,0-0.5c0-0.2,0.1-0.4,0.1-0.5c0-0.2,0.1-0.4,0.1-0.5c0.1-0.2,0.1-0.4,0.2-0.5
						c0.1-0.4,0.3-0.7,0.4-1.1c0.2-0.4,0.3-0.7,0.5-1.1c0.2-0.3,0.4-0.7,0.6-1s0.4-0.7,0.6-1s0.4-0.6,0.6-0.9
						c0.4-0.6,0.7-1.1,0.9-1.4c0.2-0.4,0.4-0.6,0.4-0.6s-0.3,0-0.7,0.1C318.1,266.4,317.5,266.6,316.8,266.9z"/>
				</g>
				<path class="st25" d="M344.9,113.4l0.1,1.4c0,0-3.9,1.5-12.9,12.2s-16.6,22.6-16.6,22.7c-0.1,0.1,7.9-14.3,7.9-14.3l13.7-17.8
					L344.9,113.4z"/>
			</g>
			<path class="st2" d="M253.8,38c0,0-4.3,8.6-12.9,4.3c0,0,8.6,4.3,4.3,13c0,0,4.3-8.6,12.9-4.3C258.1,50.9,249.5,46.6,253.8,38z"
				/>
			<path class="st2" d="M278.1,61.5c0,0,0.5,5.9-5.5,6.4c0,0,5.9-0.5,6.4,5.5c0,0-0.5-5.9,5.5-6.4C284.5,67,278.6,67.5,278.1,61.5z"
				/>
			<path class="st2" d="M262.1,94.5c0,0,0.3,3.9-3.6,4.2c0,0,3.9-0.3,4.2,3.6c0,0-0.3-3.9,3.6-4.2C266.3,98.1,262.4,98.4,262.1,94.5
				z"/>
			<path class="st2" d="M286.8,103.2c0,0,0.3,3.9-3.6,4.2c0,0,3.9-0.3,4.2,3.6c0,0-0.3-3.9,3.6-4.2
				C291.1,106.8,287.1,107.1,286.8,103.2z"/>
			<path class="st2" d="M262.9,133.3c0,0,0.3,3.9-3.6,4.2c0,0,3.9-0.3,4.2,3.6c0,0-0.3-3.9,3.6-4.2
				C267.2,136.9,263.2,137.2,262.9,133.3z"/>
			<path class="st2" d="M240.2,98.8c0,0,0.3,3.9-3.6,4.2c0,0,3.9-0.3,4.2,3.6c0,0-0.3-3.9,3.6-4.2
				C244.4,102.4,240.5,102.7,240.2,98.8z"/>
			<path class="st2" d="M240.6,78.5c0,0,0.3,3.4-3.1,3.6c0,0,3.4-0.3,3.6,3.1c0,0-0.3-3.4,3.1-3.6C244.2,81.5,240.8,81.8,240.6,78.5
				z"/>
		</g>
	</g>
</g>
</svg>
