<?xml version="1.0" encoding="utf-8"?>
<!-- Generator: Adobe Illustrator 22.0.1, SVG Export Plug-In . SVG Version: 6.00 Build 0)  -->
<svg version="1.1" id="Layer_1" xmlns="http://www.w3.org/2000/svg" xmlns:xlink="http://www.w3.org/1999/xlink" x="0px" y="0px"
	 viewBox="0 0 1080 914" style="enable-background:new 0 0 1080 914;" xml:space="preserve">
<style type="text/css">
	.st0{fill:#FFFFFF;}
	.st1{fill:#FDC60B;}
	.st2{fill:#DCA927;}
	.st3{fill:#EF4B5C;}
	.st4{fill:#FFCB4C;}
	.st5{fill:#95C94B;}
	.st6{fill:#26BEEF;}
	.st7{fill:#0F376E;}
</style>
<g>
	<g>
		<g>
			<g>
				<path d="M541.9,473.5c-0.1-0.2-0.1-0.5-0.2-0.7c-0.1-0.3-0.2-0.7-0.3-1c0-0.2-0.1-0.4-0.1-0.6c-0.3-1.4-0.8-3.2-1.2-4.1
					c-0.2-0.4-0.4-0.6-0.6-0.7c-0.8,0-1,0.9-1.2,1.8c-0.1,0.8-0.4,3.3-0.5,5.2c0,0-0.2,2.5,0,3c0,0,0.5,1.8,2.7,1.4
					c0,0,2.1-0.5,1.8-2L541.9,473.5z M538.3,473c0.1,0.1,0.2,0.2,0.3,0.3c0-0.1,0-0.3,0-0.4c-0.1-0.1-0.2-0.2-0.3-0.3l0,0
					c0-0.3,0-0.6,0.1-0.9c0.1,0.1,0.2,0.1,0.3,0.2c0-0.1,0-0.3,0-0.4c-0.1-0.1-0.2-0.1-0.3-0.2c0-0.3,0-0.5,0.1-0.8
					c0.1,0.1,0.2,0.1,0.3,0.2c0-0.1,0-0.3,0-0.4c-0.1-0.1-0.2-0.1-0.3-0.2c0-0.3,0.1-0.6,0.1-0.8c0.1,0.1,0.2,0.1,0.3,0.2
					c0-0.1,0-0.2,0-0.4c-0.1,0-0.2-0.1-0.3-0.2c0-0.2,0.1-0.4,0.1-0.5c0-0.1,0.1-0.3,0.1-0.4c0.1,0.1,0.2,0.1,0.3,0.1
					c0-0.1,0-0.2,0.1-0.4c-0.1,0-0.2-0.1-0.3-0.1c0.2-0.5,0.3-0.7,0.5-0.8c0,0,0,0,0,0c0-0.1-0.1-0.1-0.1-0.1c0,0,0.1,0.1,0.1,0.1
					c0,0,0.1,0,0.1,0s0,0-0.1,0c0,0,0,0,0,0c0,0,0,0,0.1,0c0,0,0.1,0,0.3,0.4c0,0.1,0.1,0.2,0.1,0.3c0,0-0.1,0.1-0.2,0.1
					c0,0.1,0.1,0.2,0.1,0.3c0.1,0,0.1-0.1,0.2-0.1c0.1,0.2,0.2,0.5,0.2,0.8c0,0-0.1,0.1-0.2,0.2c0,0.1,0.1,0.2,0.1,0.4
					c0.1,0,0.2-0.1,0.3-0.2c0.1,0.3,0.1,0.6,0.2,0.8c-0.1,0.1-0.2,0.1-0.3,0.2c0,0.1,0.1,0.2,0.1,0.4c0.1-0.1,0.2-0.1,0.3-0.2
					c0.1,0.3,0.1,0.5,0.2,0.8c-0.1,0.1-0.2,0.2-0.3,0.3c0,0.1,0,0.3,0.1,0.4c0.1-0.1,0.2-0.2,0.3-0.2c0,0.2,0.1,0.3,0.1,0.5
					c0,0.2,0.1,0.4,0.1,0.5c-0.1,0.1-0.2,0.2-0.4,0.3c0,0.1,0,0.3,0.1,0.4c0.2-0.1,0.3-0.2,0.4-0.3c0,0,0,0.1,0,0.1
					c0.1,0.3,0.2,0.6,0.2,1c-0.1,0.1-0.3,0.2-0.5,0.3c0,0.1,0,0.2,0.1,0.4c0.2-0.1,0.4-0.2,0.5-0.3c0.1,0.4,0.2,0.7,0.2,1
					c-0.1,0.1-0.3,0.2-0.6,0.4c0,0.1,0,0.3,0,0.4c0.2-0.1,0.4-0.2,0.6-0.4c0,0.3,0,0.5,0,0.7c0,0.1-0.2,0.3-0.4,0.5
					c0,0.1,0,0.2,0,0.2s0-0.1,0-0.2c-0.3,0.3-0.7,0.5-1.3,0.6c-0.5,0-0.9-0.1-1.3-0.3c0,0.1,0,0.1,0.1,0.2c0-0.1,0-0.1-0.1-0.2
					c-0.3-0.2-0.5-0.4-0.6-0.8c-0.1-0.2-0.2-0.5-0.2-0.8c0.2,0.1,0.3,0.3,0.5,0.4c0-0.1,0-0.3,0-0.5c-0.2-0.1-0.3-0.3-0.5-0.4
					c0-0.2,0-0.5,0-0.8c0.1,0.1,0.3,0.2,0.4,0.3c0-0.1,0-0.3,0-0.4c-0.1-0.1-0.2-0.2-0.4-0.3C538.2,473.6,538.2,473.3,538.3,473z"/>
				<path class="st0" d="M538.2,474.4c0,0.3,0,0.6,0,0.8c0.1,0.2,0.3,0.3,0.5,0.4c0-0.3,0-0.6,0-1
					C538.4,474.5,538.3,474.5,538.2,474.4z"/>
				<path class="st1" d="M538.6,474.6c0,0.4,0,0.7,0,1c0.4,0.3,0.9,0.5,1.4,0.5c0.6,0,1.1-0.2,1.5-0.4c0-0.3-0.1-0.7-0.2-1.1
					C540.6,474.9,539.6,475.2,538.6,474.6z"/>
				<path class="st2" d="M542,475.3c0-0.3-0.1-0.7-0.2-1c-0.1,0.1-0.3,0.2-0.5,0.3c0.1,0.4,0.1,0.8,0.2,1.1
					C541.7,475.6,541.9,475.4,542,475.3z"/>
				<path class="st1" d="M539.9,476.5c-0.5,0-0.9-0.2-1.3-0.4c0.1,0.5,0.2,0.9,0.3,1.2c0.3,0.2,0.8,0.3,1.3,0.3
					c0.6-0.1,1.1-0.3,1.3-0.6c0-0.2,0-0.5-0.1-0.9C541.1,476.3,540.5,476.5,539.9,476.5z"/>
				<path class="st0" d="M538.1,475.7c0,0.3,0.1,0.5,0.2,0.8c0.1,0.3,0.4,0.6,0.6,0.8c-0.1-0.3-0.2-0.7-0.3-1.2
					C538.5,475.9,538.3,475.8,538.1,475.7z"/>
				<path class="st2" d="M542,476.4c0.1-0.2,0.1-0.4,0-0.7c-0.1,0.1-0.3,0.2-0.6,0.4c0,0.4,0.1,0.7,0.1,0.9
					C541.8,476.7,542,476.5,542,476.4z"/>
				<path class="st0" d="M538.8,467.9c0,0.1-0.1,0.2-0.1,0.4c0,0.1-0.1,0.3-0.1,0.5c0.1,0.1,0.2,0.2,0.3,0.2c0.1-0.4,0.1-0.7,0.2-1
					C539,468,538.9,468,538.8,467.9z"/>
				<path class="st2" d="M540.4,468.7c-0.1-0.3-0.2-0.6-0.2-0.8c-0.1,0-0.1,0.1-0.2,0.1c0.1,0.3,0.1,0.5,0.2,0.9
					C540.3,468.8,540.3,468.7,540.4,468.7z"/>
				<path class="st1" d="M540.2,468.8c-0.1-0.3-0.1-0.6-0.2-0.9c-0.2,0.1-0.5,0.2-0.8,0.1c0,0.3-0.1,0.6-0.2,1
					C539.4,469.2,539.9,469,540.2,468.8z"/>
				<path class="st1" d="M540.4,470.1c-0.1-0.3-0.1-0.6-0.2-0.9c-0.4,0.2-0.9,0.3-1.3,0.2c0,0.3-0.1,0.6-0.1,0.9
					C539.4,470.6,540,470.3,540.4,470.1z"/>
				<path class="st2" d="M540.7,469.9c-0.1-0.3-0.1-0.6-0.2-0.8c-0.1,0.1-0.2,0.1-0.3,0.2c0.1,0.3,0.1,0.6,0.2,0.9
					C540.5,470,540.6,469.9,540.7,469.9z"/>
				<path class="st0" d="M538.6,469.2c0,0.3-0.1,0.5-0.1,0.8c0.1,0.1,0.2,0.2,0.3,0.2c0-0.3,0.1-0.6,0.1-0.9
					C538.8,469.3,538.7,469.3,538.6,469.2z"/>
				<path class="st1" d="M539.5,473.2c0.5,0,1.1-0.2,1.4-0.4c0-0.2-0.1-0.4-0.1-0.5c0-0.2-0.1-0.3-0.1-0.5c-0.3,0.2-0.7,0.4-1.1,0.4
					c-0.3,0-0.6-0.1-0.9-0.2c0,0.3-0.1,0.7-0.1,1C538.9,473,539.2,473.1,539.5,473.2z"/>
				<path class="st0" d="M538.4,471.7c0,0.3-0.1,0.6-0.1,0.9l0,0c0.1,0.1,0.2,0.2,0.3,0.3c0-0.3,0-0.6,0.1-1
					C538.6,471.8,538.5,471.7,538.4,471.7z"/>
				<path class="st2" d="M540.9,472.7c0.2-0.1,0.3-0.2,0.4-0.3c0-0.2-0.1-0.4-0.1-0.5c0-0.1-0.1-0.3-0.1-0.5
					c-0.1,0.1-0.2,0.2-0.3,0.2c0,0.2,0.1,0.3,0.1,0.5C540.9,472.4,540.9,472.5,540.9,472.7z"/>
				<path class="st2" d="M541.7,473.9c-0.1-0.3-0.2-0.6-0.2-1c0,0,0-0.1,0-0.1c-0.1,0.1-0.2,0.2-0.4,0.3c0.1,0.4,0.1,0.8,0.2,1.1
					C541.4,474.1,541.6,474,541.7,473.9z"/>
				<path class="st0" d="M538.6,474.2c0-0.3,0-0.6,0-1c-0.1-0.1-0.2-0.2-0.3-0.3c0,0.3,0,0.7-0.1,0.9
					C538.3,474,538.4,474.1,538.6,474.2z"/>
				<path class="st1" d="M541.2,474.2c-0.1-0.3-0.1-0.7-0.2-1.1c-0.4,0.2-0.9,0.5-1.5,0.4c-0.3,0-0.6-0.1-0.9-0.3c0,0.4,0,0.7,0,1
					C539.6,474.9,540.6,474.5,541.2,474.2z"/>
				<path class="st2" d="M541,471.1c-0.1-0.3-0.1-0.5-0.2-0.8c-0.1,0.1-0.2,0.1-0.3,0.2c0.1,0.3,0.1,0.6,0.2,0.9
					C540.8,471.2,540.9,471.1,541,471.1z"/>
				<path class="st0" d="M538.8,470.7c-0.1,0-0.2-0.1-0.3-0.2c0,0.2-0.1,0.5-0.1,0.8c0.1,0.1,0.2,0.2,0.3,0.2c0-0.2,0-0.4,0.1-0.6
					C538.8,470.8,538.8,470.7,538.8,470.7z"/>
				<path class="st1" d="M539.6,471.7c0.4,0,0.8-0.2,1.1-0.4c-0.1-0.3-0.1-0.6-0.2-0.9c-0.5,0.3-1.1,0.5-1.7,0.2c0,0.1,0,0.1,0,0.2
					c0,0.2,0,0.4-0.1,0.6C539,471.6,539.3,471.7,539.6,471.7z"/>
				<path class="st1" d="M539.8,467.6c-0.1-0.4-0.2-0.7-0.3-0.8c0,0,0,0-0.1,0c-0.1,0.1-0.2,0.3-0.3,0.9
					C539.5,467.8,539.7,467.7,539.8,467.6z"/>
				<path class="st0" d="M539.5,466.8c-0.2,0-0.4,0.2-0.5,0.8c0.1,0.1,0.2,0.1,0.3,0.1C539.3,467.1,539.4,466.9,539.5,466.8z"/>
				<path class="st2" d="M539.8,467.6c0.1,0,0.1-0.1,0.2-0.1c0-0.1-0.1-0.2-0.1-0.3c-0.2-0.4-0.3-0.4-0.3-0.4c0,0,0,0-0.1,0
					C539.6,466.9,539.7,467.2,539.8,467.6z"/>
				<path d="M539.6,472.1c0.5,0,0.8-0.2,1.1-0.4c0-0.1,0-0.3-0.1-0.4c-0.3,0.2-0.6,0.4-1.1,0.4c-0.3,0-0.6-0.1-0.9-0.2
					c0,0.1,0,0.3,0,0.4C539,472,539.3,472.1,539.6,472.1z"/>
				<path d="M538.6,474.2c0,0.1,0,0.3,0,0.4c1,0.6,2,0.3,2.7,0c0-0.1,0-0.2-0.1-0.4C540.6,474.5,539.6,474.9,538.6,474.2z"/>
				<path d="M540.2,469.2c0-0.1-0.1-0.2-0.1-0.4c-0.3,0.2-0.7,0.4-1.2,0.2c0,0.1,0,0.2,0,0.4C539.4,469.5,539.9,469.4,540.2,469.2z"
					/>
				<path d="M539.5,473.5c0.6,0,1.1-0.2,1.5-0.4c0-0.1,0-0.2-0.1-0.4c-0.4,0.2-0.9,0.5-1.4,0.4c-0.3,0-0.6-0.1-0.9-0.3
					c0,0.1,0,0.3,0,0.4C538.9,473.4,539.2,473.5,539.5,473.5z"/>
				<path d="M539.9,476.1c-0.5,0-0.9-0.2-1.4-0.5c0,0.2,0,0.3,0,0.5c0.4,0.3,0.9,0.4,1.3,0.4c0.6,0,1.1-0.2,1.5-0.4
					c0-0.1,0-0.2,0-0.4C541,475.9,540.5,476.1,539.9,476.1z"/>
				<path d="M540.5,470.4c0-0.1-0.1-0.2-0.1-0.4c-0.4,0.2-1,0.5-1.6,0.2c0,0.1,0,0.2,0,0.4C539.4,470.9,540,470.7,540.5,470.4z"/>
				<path d="M539.5,466.7C539.5,466.7,539.5,466.8,539.5,466.7C539.5,466.8,539.5,466.8,539.5,466.7
					C539.5,466.8,539.5,466.7,539.5,466.7z"/>
				<path d="M539.8,467.6c-0.2,0.1-0.4,0.1-0.6,0.1c0,0.1,0,0.2-0.1,0.4c0.3,0.1,0.6,0,0.8-0.1C539.9,467.8,539.9,467.7,539.8,467.6
					z"/>
			</g>
		</g>
	</g>
	<g>
		<g>
			<g>
				<path class="st3" d="M537.5,461.9c-0.1-0.3-0.1-0.7-0.2-1l-0.2-1l-0.2-1c-0.1-0.3-0.2-0.7-0.2-1l-0.1-0.4l-0.4-0.2
					c-0.6-0.3-1.3-0.6-1.9-1c-0.5-0.2-0.9-0.5-1.4-0.7l-0.4-1.6c-0.2-0.7-0.4-1.4-0.6-2l-0.1-0.5l-0.5-0.2c-0.6-0.3-1.3-0.6-1.9-0.9
					c-0.5-0.2-1-0.4-1.6-0.6c-0.2-0.5-0.4-1-0.5-1.5l-0.4-1c-0.1-0.3-0.3-0.7-0.4-1c-0.1-0.3-0.4-0.4-0.7-0.4
					c-0.4,0-0.6,0.4-0.6,0.8c0,0.4,0.1,0.7,0.2,1.1l0.2,1c0.1,0.7,0.3,1.4,0.4,2.1l0.1,0.4l0.5,0.3c0.6,0.3,1.3,0.6,1.9,0.9
					c0.5,0.2,1,0.4,1.4,0.7c0.1,0.5,0.3,1,0.4,1.5l0.6,2l0.2,0.5l0.5,0.2c0.6,0.3,1.3,0.5,2,0.8c0.5,0.2,1.1,0.4,1.6,0.6
					c0.1,0.2,0.1,0.4,0.2,0.5l0.4,1l0.4,1c0.1,0.3,0.2,0.7,0.4,1c0.1,0.3,0.4,0.5,0.8,0.4C537.3,462.6,537.5,462.3,537.5,461.9z"/>
			</g>
			<g>
				<path class="st4" d="M540.7,456.1l-1.1-1l-1.1-1c-0.6-0.5-1.1-1-1.7-1.6c0.2-0.8,0.3-1.5,0.5-2.3l0.6-2.9l0.1-0.6l-0.5-0.4
					c-0.7-0.7-1.5-1.3-2.2-1.9c-0.4-0.3-0.7-0.6-1.1-1c-0.2-0.2-0.5-0.4-0.7-0.6l0.1-0.8l0.2-1.5l0.2-1.5c0.1-0.5,0.1-1,0.1-1.5
					c0-0.3-0.2-0.6-0.5-0.7c-0.4-0.1-0.7,0.1-0.9,0.4c-0.2,0.5-0.3,0.9-0.4,1.4l-0.4,1.4l-0.4,1.4l-0.3,1.4l-0.1,0.5l0.5,0.5
					c0.3,0.3,0.7,0.7,1.1,1c0.4,0.3,0.7,0.7,1.1,1c0.6,0.5,1.1,1,1.7,1.5l-0.4,2.2c-0.2,1-0.4,1.9-0.5,2.9l-0.1,0.6l0.5,0.4
					c0.7,0.6,1.5,1.3,2.2,1.9l1.1,0.9l0.7,0.6c0,0.3-0.1,0.6-0.1,0.9l-0.2,1.4l-0.2,1.5c-0.1,0.5-0.1,1-0.2,1.5
					c0,0.3,0.2,0.7,0.5,0.8c0.4,0.1,0.7-0.1,0.8-0.5c0.1-0.5,0.3-0.9,0.4-1.4l0.4-1.4l0.3-1.4c0.1-0.5,0.2-1,0.3-1.4l0.1-0.5
					L540.7,456.1z"/>
			</g>
			<g>
				<path class="st5" d="M546,439.9l0.8-1.3c0.3-0.4,0.5-0.8,0.8-1.3c0.2-0.3,0.1-0.6-0.1-0.8c-0.3-0.3-0.7-0.2-1,0
					c-0.3,0.4-0.7,0.7-1,1.1l-1,1.1l-1,1.1l-0.9,1.2l-0.4,0.5l0.3,0.6c0.2,0.5,0.4,0.9,0.6,1.4c0.2,0.5,0.4,0.9,0.6,1.4
					c0.3,0.7,0.6,1.4,1,2.1l-1.4,1.8c-0.6,0.8-1.2,1.6-1.7,2.4l-0.4,0.5l0.3,0.6c0.4,0.9,0.9,1.8,1.3,2.7l0.7,1.3l0.4,0.8
					c-0.2,0.2-0.3,0.5-0.5,0.7l-0.8,1.2l-0.8,1.2c-0.3,0.4-0.5,0.8-0.8,1.2c-0.2,0.3-0.1,0.7,0.1,0.9c0.3,0.2,0.7,0.2,1-0.1
					c0.3-0.4,0.6-0.8,1-1.1l0.9-1.1l0.9-1.2c0.3-0.4,0.6-0.8,0.9-1.2l0.3-0.4l-0.2-0.6l-0.6-1.4l-0.6-1.4c-0.3-0.7-0.6-1.4-0.9-2.1
					c0.5-0.6,0.9-1.2,1.4-1.9l1.8-2.4l0.4-0.5l-0.3-0.6c-0.4-0.9-0.8-1.8-1.3-2.7c-0.2-0.4-0.4-0.9-0.7-1.3
					c-0.1-0.3-0.3-0.5-0.4-0.8l0.5-0.7L546,439.9z"/>
			</g>
			<g>
				<path class="st6" d="M557.2,448.8c-0.1-0.4-0.5-0.6-0.9-0.5c-0.3,0.1-0.6,0.2-1,0.3l-0.9,0.4c-0.6,0.2-1.2,0.5-1.9,0.8l-0.4,0.2
					l-0.2,0.5c-0.2,0.6-0.4,1.3-0.5,1.9c-0.1,0.5-0.2,1-0.4,1.4c-0.4,0.2-0.9,0.4-1.3,0.7c-0.6,0.3-1.2,0.6-1.8,0.9l-0.5,0.3
					l-0.1,0.5c-0.1,0.7-0.3,1.3-0.4,2c-0.1,0.5-0.2,1.1-0.3,1.6c-0.1,0.1-0.3,0.2-0.4,0.3l-0.9,0.5c-0.3,0.2-0.6,0.3-0.9,0.5
					c-0.3,0.2-0.6,0.4-0.9,0.5c-0.3,0.2-0.4,0.5-0.3,0.8c0.1,0.4,0.5,0.5,0.9,0.4c0.3-0.1,0.6-0.2,0.9-0.4c0.3-0.1,0.6-0.3,0.9-0.4
					l0.9-0.4c0.3-0.1,0.6-0.3,0.9-0.4l0.4-0.2l0.1-0.5c0.2-0.6,0.4-1.3,0.5-1.9c0.1-0.5,0.3-0.9,0.4-1.4c0.5-0.2,0.9-0.4,1.4-0.7
					c0.6-0.3,1.2-0.6,1.8-0.9l0.5-0.2l0.1-0.5c0.2-0.7,0.3-1.3,0.4-2c0.1-0.5,0.2-1,0.3-1.5c0.4-0.2,0.8-0.5,1.2-0.8l0.8-0.6
					c0.3-0.2,0.6-0.4,0.8-0.6C557.1,449.4,557.2,449.1,557.2,448.8z"/>
			</g>
		</g>
		<g>
			<g>
				<path class="st7" d="M536.8,462.9c-0.3,0-0.7-0.2-0.8-0.5c-0.1-0.3-0.3-0.7-0.4-1l-0.4-1l-0.4-1c-0.1-0.2-0.1-0.3-0.2-0.5
					c-0.6-0.2-1-0.4-1.5-0.6c-0.6-0.2-1.3-0.5-2-0.8l-0.5-0.2l-0.8-2.6c-0.1-0.5-0.3-1-0.4-1.4c-0.5-0.2-1-0.4-1.4-0.6
					c-0.6-0.3-1.3-0.6-1.9-0.9l-0.6-0.3l-0.1-0.5c-0.2-0.7-0.3-1.4-0.4-2.1l-0.2-1c-0.1-0.3-0.1-0.7-0.2-1.1c-0.1-0.5,0.3-0.9,0.7-1
					c0.4,0,0.7,0.2,0.9,0.5c0.2,0.3,0.3,0.7,0.4,1l0.4,1c0.2,0.4,0.3,0.9,0.5,1.4c0.5,0.2,1,0.4,1.5,0.6c0.6,0.3,1.2,0.5,1.9,0.9
					l0.6,0.3l0.2,0.6c0.2,0.6,0.4,1.3,0.6,2l0.4,1.5c0.5,0.2,0.9,0.4,1.4,0.7c0.6,0.3,1.3,0.6,1.9,1l0.5,0.3l0.1,0.5
					c0,0.1,0.1,0.2,0.1,0.4c0.1,0.2,0.1,0.4,0.2,0.7l0.2,1l0.2,1c0.1,0.3,0.1,0.7,0.2,1v0c0.1,0.5-0.2,0.9-0.7,1
					C536.9,462.9,536.9,462.9,536.8,462.9z M531,457l0.4,0.2c0.7,0.3,1.4,0.6,2,0.8c0.5,0.2,1,0.4,1.6,0.6l0.1,0l0,0.1
					c0.1,0.2,0.1,0.4,0.2,0.5l0.4,1l0.4,1c0.1,0.3,0.2,0.7,0.4,1c0.1,0.2,0.3,0.4,0.6,0.3c0.3-0.1,0.5-0.3,0.4-0.6v0
					c-0.1-0.3-0.1-0.7-0.2-1l-0.2-1l-0.2-1c0-0.2-0.1-0.4-0.2-0.7c0-0.1-0.1-0.2-0.1-0.4l-0.1-0.3l-0.4-0.2c-0.6-0.3-1.2-0.6-1.9-1
					c-0.5-0.2-0.9-0.5-1.4-0.7l-0.1,0l-0.4-1.6c-0.2-0.8-0.4-1.4-0.6-2l-0.1-0.4l-0.4-0.2c-0.7-0.3-1.3-0.6-1.9-0.9
					c-0.5-0.2-1-0.4-1.5-0.6l-0.1,0l0-0.1c-0.2-0.6-0.4-1-0.5-1.5l-0.4-1c-0.1-0.3-0.3-0.6-0.4-1c-0.1-0.2-0.3-0.3-0.5-0.3
					c-0.1,0-0.3,0.1-0.3,0.2c-0.1,0.1-0.1,0.2-0.1,0.4c0,0.4,0.1,0.7,0.2,1l0.2,1c0.1,0.7,0.3,1.4,0.4,2.1l0.1,0.4l0.4,0.2
					c0.6,0.3,1.3,0.6,1.9,0.9c0.4,0.2,0.9,0.4,1.4,0.7l0.1,0l0,0.1c0.1,0.5,0.3,1,0.4,1.5L531,457z"/>
			</g>
			<g>
				<path class="st7" d="M539,463.4c-0.1,0-0.2,0-0.2,0c-0.4-0.1-0.7-0.5-0.6-0.9c0-0.2,0-0.3,0.1-0.5c0-0.3,0.1-0.6,0.1-0.9
					l0.2-1.5l0.2-1.4c0-0.3,0.1-0.5,0.1-0.8l-0.7-0.5l-1.1-0.9c-0.7-0.6-1.5-1.2-2.2-1.9l-0.5-0.5l0.1-0.7c0.1-0.3,0.1-0.7,0.2-1
					c0.1-0.6,0.2-1.2,0.3-1.9l0.4-2.1c-0.6-0.5-1.1-1-1.6-1.5c-0.2-0.2-0.5-0.4-0.7-0.6c-0.1-0.1-0.2-0.2-0.4-0.3
					c-0.1-0.1-0.2-0.2-0.3-0.3c-0.2-0.2-0.5-0.5-0.7-0.7l-0.5-0.5l0.5-2.1l0.4-1.4l0.4-1.4c0.2-0.5,0.3-1,0.4-1.4
					c0.1-0.4,0.6-0.7,1.1-0.5c0.4,0.1,0.6,0.5,0.6,0.9c0,0.5-0.1,0.9-0.1,1.5l-0.2,1.5l-0.2,1.5l-0.1,0.7l0.6,0.5
					c0.1,0.1,0.3,0.2,0.4,0.3c0.2,0.2,0.5,0.4,0.7,0.6c0.8,0.7,1.5,1.3,2.2,1.9l0.6,0.5l-0.7,3.6c-0.1,0.6-0.3,1.3-0.4,1.9l-0.1,0.3
					c0.5,0.5,1.1,1,1.6,1.5l1.1,1l1.6,1.5l-0.1,0.6c0,0.2-0.1,0.3-0.1,0.5c-0.1,0.3-0.1,0.6-0.2,0.9l-0.3,1.4l-0.4,1.4
					c-0.1,0.3-0.2,0.6-0.2,0.9c0,0.2-0.1,0.3-0.1,0.5c-0.1,0.2-0.2,0.4-0.4,0.5C539.2,463.3,539.1,463.3,539,463.4z M534.7,453.3
					l0.4,0.3c0.8,0.7,1.5,1.3,2.2,1.9l1.1,0.9l0.8,0.7l0,0.1c0,0.3-0.1,0.6-0.1,0.9l-0.2,1.4l-0.2,1.4c0,0.3-0.1,0.6-0.1,0.9
					c0,0.2,0,0.3-0.1,0.5c0,0.3,0.1,0.5,0.4,0.6c0.1,0,0.3,0,0.4-0.1c0.1-0.1,0.2-0.2,0.2-0.3c0-0.2,0.1-0.3,0.1-0.5
					c0.1-0.3,0.2-0.6,0.2-0.9l0.4-1.4l0.3-1.4c0.1-0.3,0.1-0.6,0.2-0.9c0-0.2,0.1-0.3,0.1-0.5l0.1-0.4l-1.4-1.3l-1.1-1
					c-0.6-0.5-1.1-1-1.7-1.5l-0.1-0.1l0.1-0.4c0.1-0.6,0.3-1.3,0.4-1.9l0.7-3.4l-0.4-0.4c-0.7-0.6-1.4-1.2-2.2-1.9
					c-0.2-0.2-0.5-0.4-0.7-0.6c-0.1-0.1-0.3-0.2-0.4-0.3l-0.8-0.6l0.1-0.9l0.2-1.4l0.2-1.5c0.1-0.5,0.1-1,0.1-1.5
					c0-0.2-0.1-0.5-0.4-0.5c-0.3-0.1-0.6,0.1-0.7,0.3c-0.1,0.4-0.3,0.9-0.4,1.4l-0.4,1.4l-0.4,1.4l-0.5,1.9l0.4,0.4
					c0.2,0.2,0.5,0.5,0.7,0.7c0.1,0.1,0.2,0.2,0.3,0.3c0.1,0.1,0.2,0.2,0.4,0.3c0.2,0.2,0.5,0.4,0.7,0.6c0.5,0.5,1.1,1,1.7,1.5
					l0.1,0.1l-0.4,2.3c-0.1,0.6-0.2,1.2-0.3,1.9c-0.1,0.3-0.1,0.7-0.2,1L534.7,453.3z"/>
			</g>
			<g>
				<path class="st7" d="M541.5,462.9c-0.2,0-0.4-0.1-0.6-0.2c-0.3-0.3-0.4-0.8-0.2-1.1c0.1-0.1,0.2-0.3,0.3-0.4
					c0.2-0.3,0.4-0.5,0.5-0.8l0.8-1.2l0.8-1.2c0.1-0.2,0.3-0.4,0.4-0.6l-0.4-0.8l-0.7-1.3c-0.4-0.8-0.9-1.8-1.3-2.7l-0.3-0.7
					l0.5-0.6c0.2-0.3,0.4-0.6,0.6-0.9c0.4-0.5,0.7-1,1.1-1.6l1.3-1.8c-0.3-0.7-0.6-1.4-0.9-2c-0.1-0.3-0.3-0.6-0.4-0.9
					c-0.1-0.2-0.1-0.3-0.2-0.5c-0.1-0.1-0.1-0.3-0.2-0.4c-0.1-0.3-0.3-0.6-0.4-0.9l-0.3-0.7l1.4-1.7l1-1.1l1-1.1
					c0.3-0.3,0.7-0.7,1-1.1c0.3-0.3,0.9-0.4,1.2,0c0.3,0.3,0.4,0.7,0.2,1c-0.3,0.4-0.5,0.9-0.8,1.3l-0.8,1.3l-0.8,1.2l-0.4,0.6
					l0.4,0.7c0.1,0.2,0.2,0.3,0.2,0.5c0.1,0.3,0.3,0.6,0.4,0.9c0.5,1,0.9,1.8,1.3,2.7l0.3,0.7l-2.3,3c-0.4,0.5-0.8,1.1-1.2,1.6
					l-0.1,0.2c0.3,0.7,0.6,1.3,0.9,2l0.6,1.4l0.9,2l-0.4,0.5c-0.1,0.1-0.2,0.3-0.3,0.4c-0.2,0.3-0.4,0.5-0.6,0.8l-0.9,1.2l-0.9,1.2
					c-0.2,0.2-0.4,0.5-0.6,0.7c-0.1,0.1-0.2,0.3-0.3,0.4C541.9,462.7,541.7,462.8,541.5,462.9C541.5,462.9,541.5,462.9,541.5,462.9z
					 M541.4,451.8l0.2,0.5c0.4,0.9,0.9,1.8,1.3,2.7l0.7,1.3l0.5,0.9l-0.1,0.1c-0.2,0.2-0.3,0.5-0.5,0.7l-0.8,1.2l-0.8,1.2
					c-0.2,0.3-0.4,0.5-0.5,0.8c-0.1,0.1-0.2,0.3-0.3,0.4c-0.1,0.2-0.1,0.5,0.1,0.7c0.1,0.1,0.2,0.1,0.4,0.1c0.1,0,0.3-0.1,0.3-0.2
					c0.1-0.1,0.2-0.3,0.3-0.4c0.2-0.2,0.4-0.5,0.6-0.7l0.9-1.1l0.9-1.2c0.2-0.2,0.4-0.5,0.6-0.8c0.1-0.1,0.2-0.3,0.3-0.4l0.3-0.3
					l-0.8-1.8l-0.6-1.4c-0.3-0.7-0.6-1.4-0.9-2.1l0-0.1l0.3-0.3c0.4-0.5,0.8-1.1,1.2-1.6l2.1-2.8l-0.2-0.5c-0.4-0.8-0.8-1.7-1.3-2.7
					c-0.1-0.3-0.3-0.6-0.4-0.9c-0.1-0.2-0.2-0.3-0.2-0.5l-0.4-0.9l0.5-0.7l0.8-1.2l0.8-1.3c0.2-0.4,0.5-0.8,0.8-1.3
					c0.1-0.2,0.1-0.5-0.1-0.6c-0.2-0.2-0.5-0.2-0.7,0c-0.4,0.4-0.7,0.8-1,1.1l-1,1.1l-1,1.1l-1.2,1.5l0.2,0.5
					c0.1,0.3,0.3,0.6,0.4,0.9c0.1,0.1,0.1,0.3,0.2,0.4c0.1,0.2,0.1,0.3,0.2,0.5c0.1,0.3,0.3,0.6,0.4,0.9c0.3,0.7,0.6,1.3,1,2.1
					l0,0.1l-1.4,1.9c-0.4,0.5-0.8,1-1.1,1.6c-0.2,0.3-0.4,0.6-0.6,0.9L541.4,451.8z"/>
			</g>
			<g>
				<path class="st7" d="M544.1,463.1c-0.1,0-0.2,0-0.4-0.1c-0.2-0.1-0.4-0.3-0.4-0.5c-0.1-0.4,0-0.8,0.3-1c0.3-0.2,0.6-0.4,0.9-0.5
					c0.1-0.1,0.2-0.1,0.3-0.2c0.2-0.1,0.4-0.2,0.6-0.3l0.9-0.5c0.1-0.1,0.3-0.1,0.4-0.2c0.1-0.5,0.2-1,0.3-1.5
					c0.1-0.6,0.3-1.3,0.4-2l0.1-0.6l0.5-0.3c0.6-0.3,1.2-0.6,1.8-0.9c0.4-0.2,0.8-0.4,1.2-0.6c0.1-0.5,0.2-1,0.3-1.4
					c0.2-0.7,0.3-1.3,0.5-1.9l0.2-0.6l0.5-0.2c0.6-0.3,1.2-0.5,1.9-0.8l0.9-0.4c0.4-0.1,0.7-0.2,1-0.3c0.2-0.1,0.5,0,0.7,0.1
					c0.2,0.1,0.4,0.3,0.4,0.5v0c0.1,0.3,0,0.7-0.3,0.9c-0.3,0.2-0.6,0.4-0.8,0.6l-0.8,0.6c-0.4,0.2-0.7,0.5-1.2,0.7
					c-0.1,0.5-0.2,1-0.3,1.5c-0.1,0.6-0.3,1.3-0.4,2l-0.1,0.6l-0.5,0.3c-0.5,0.3-1.1,0.6-1.8,0.9c-0.4,0.2-0.9,0.4-1.3,0.6
					c-0.1,0.4-0.2,0.9-0.4,1.3c-0.2,0.7-0.4,1.3-0.5,1.9l-0.2,0.6l-0.4,0.2c-0.1,0-0.2,0.1-0.3,0.1c-0.2,0.1-0.4,0.2-0.6,0.3
					l-0.9,0.4c-0.2,0.1-0.4,0.2-0.6,0.3c-0.1,0-0.2,0.1-0.3,0.1c-0.3,0.1-0.6,0.3-0.9,0.4C544.3,463,544.2,463.1,544.1,463.1z
					 M547.7,455.9l-0.1,0.4c-0.1,0.7-0.3,1.3-0.4,2c-0.1,0.5-0.2,1.1-0.3,1.6l0,0.1l-0.1,0c-0.1,0.1-0.3,0.2-0.4,0.3l-0.9,0.5
					c-0.2,0.1-0.4,0.2-0.6,0.3c-0.1,0.1-0.2,0.1-0.3,0.2c-0.3,0.2-0.6,0.4-0.9,0.5c-0.2,0.1-0.3,0.4-0.2,0.6c0,0.1,0.1,0.2,0.3,0.3
					c0.1,0.1,0.3,0.1,0.4,0c0.3-0.1,0.6-0.2,0.9-0.4c0.1,0,0.2-0.1,0.3-0.1c0.2-0.1,0.4-0.2,0.6-0.3l0.9-0.4
					c0.2-0.1,0.4-0.2,0.6-0.3c0.1,0,0.2-0.1,0.3-0.1l0.3-0.1l0.1-0.4c0.2-0.6,0.4-1.3,0.5-1.9c0.1-0.5,0.3-0.9,0.4-1.4l0-0.1l0.1,0
					c0.5-0.2,0.9-0.4,1.4-0.7c0.7-0.3,1.3-0.6,1.8-0.9l0.4-0.2l0.1-0.5c0.2-0.7,0.3-1.3,0.4-2c0.1-0.5,0.2-1,0.3-1.5l0-0.1l0.1,0
					c0.5-0.3,0.9-0.5,1.2-0.8l0.8-0.5c0.3-0.2,0.5-0.4,0.8-0.6c0.2-0.1,0.3-0.4,0.2-0.6l0,0c-0.1-0.3-0.4-0.4-0.7-0.3
					c-0.3,0.1-0.6,0.2-1,0.3l-0.9,0.4c-0.6,0.2-1.2,0.5-1.8,0.8l-0.3,0.1l-0.1,0.5c-0.2,0.6-0.4,1.3-0.5,1.9
					c-0.1,0.4-0.2,0.9-0.4,1.4l0,0.1l-0.1,0c-0.4,0.2-0.9,0.4-1.3,0.7c-0.6,0.3-1.2,0.6-1.8,0.9L547.7,455.9z"/>
			</g>
		</g>
	</g>
</g>
</svg>
